<?xml version="1.0" encoding="UTF-8"?>
<svg width="1200pt" height="1200pt" version="1.1" viewBox="0 0 1200 1200" xmlns="http://www.w3.org/2000/svg">
 <defs>
  <clipPath id="a">
   <path d="m222.14 222.14h755.71v755.71h-755.71z"/>
  </clipPath>
 </defs>
 <path d="m600 0c-78.793 0-156.82 15.52-229.61 45.672s-138.94 74.348-194.65 130.07c-55.719 55.715-99.914 121.86-130.07 194.65s-45.672 150.82-45.672 229.61c0 159.13 63.215 311.74 175.74 424.26 112.52 112.52 265.13 175.73 424.27 175.73 159.13 0 311.74-63.215 424.26-175.74 112.52-112.52 175.74-265.13 175.74-424.26 0-159.13-63.215-311.74-175.73-424.27-112.52-112.52-265.13-175.74-424.26-175.74zm0 67.762c69.121 0 137.56 13.766 201.42 40.516 63.859 26.746 121.88 65.953 170.76 115.38s87.645 108.1 114.09 172.67c26.453 64.574 40.066 133.79 40.066 203.68 0 141.16-55.457 276.53-154.16 376.34-98.707 99.816-232.58 155.89-372.18 155.89-69.121 0-137.57-13.766-201.43-40.516-63.855-26.746-121.88-65.949-170.76-115.37-48.875-49.422-87.645-108.1-114.1-172.67-26.449-64.574-40.066-133.79-40.066-203.68 0-69.898 13.613-139.11 40.066-203.68 26.449-64.574 65.219-123.25 114.1-172.68 48.875-49.422 106.9-88.625 170.76-115.38 63.859-26.746 132.3-40.512 201.43-40.512z" fill="#a8aaad"/>
 <path d="m600.93 321.92c70.215 0 129.34 57.277 129.34 129.34 0 70.215-59.125 129.34-129.34 129.34-72.062 0-131.19-59.125-131.19-129.34 0-72.062 59.125-129.34 131.19-129.34zm0 35.105c-53.582 0-96.082 40.648-96.082 94.234 0 51.734 42.496 94.234 96.082 94.234 51.734 0 94.234-42.496 94.234-94.234 0-53.582-42.496-94.234-94.234-94.234z"/>
 <g clip-path="url(#a)">
  <path d="m600.93 222.14c206.95 0 376.93 169.99 376.93 378.78 0 206.95-169.99 376.93-376.93 376.93-208.79 0-378.78-169.99-378.78-376.93 0-208.79 169.99-378.78 378.78-378.78zm0 399.11c125.64 0 229.12 97.93 240.2 221.73 62.82-62.82 101.62-147.82 101.62-242.05 0-190.31-153.36-343.68-341.83-343.68-190.31 0-343.68 153.36-343.68 343.68 0 94.234 38.801 179.23 101.62 242.05 11.086-123.8 114.56-221.73 242.05-221.73zm205.1 251.29c5.543-118.25-86.844-216.18-205.1-216.18-120.1 0-212.49 97.93-206.95 216.18 57.277 44.344 129.34 70.215 206.95 70.215 75.758 0 147.82-25.867 205.1-70.215z"/>
 </g>
</svg>
