<?xml version="1.0" encoding="UTF-8"?>
<svg width="1200pt" height="1200pt" version="1.1" viewBox="0 0 1200 1200" xmlns="http://www.w3.org/2000/svg">
 <g>
  <path d="m600 0c-78.793 0-156.82 15.52-229.61 45.672s-138.94 74.348-194.65 130.07c-55.719 55.715-99.914 121.86-130.07 194.65s-45.672 150.82-45.672 229.61c0 159.13 63.215 311.74 175.74 424.26 112.52 112.52 265.13 175.73 424.27 175.73 159.13 0 311.74-63.215 424.26-175.74 112.52-112.52 175.74-265.13 175.74-424.26 0-159.13-63.215-311.74-175.73-424.27-112.52-112.52-265.13-175.74-424.26-175.74zm0 67.762c69.121 0 137.56 13.766 201.42 40.516 63.859 26.746 121.88 65.953 170.76 115.38s87.645 108.1 114.09 172.67c26.453 64.574 40.066 133.79 40.066 203.68 0 141.16-55.457 276.53-154.16 376.34-98.707 99.816-232.58 155.89-372.18 155.89-69.121 0-137.57-13.766-201.43-40.516-63.855-26.746-121.88-65.949-170.76-115.37-48.875-49.422-87.645-108.1-114.1-172.67-26.449-64.574-40.066-133.79-40.066-203.68 0-69.898 13.613-139.11 40.066-203.68 26.449-64.574 65.219-123.25 114.1-172.68 48.875-49.422 106.9-88.625 170.76-115.38 63.859-26.746 132.3-40.512 201.43-40.512z" fill="#a8aaad"/>
  <path d="m871.59 576.39v-11.809c0-20.074-15.352-35.426-35.426-35.426-20.074 0-35.426 15.352-35.426 35.426v11.809c-20.074 0-35.426 15.352-35.426 35.426v14.168l-69.668-28.34c28.34-16.531 46.051-47.23 46.051-80.293v-15.352l31.883-15.352c9.4453-4.7227 15.352-14.168 15.352-25.977v-31.883c0-15.352-12.988-28.34-28.34-28.34-5.9023 0-11.809 2.3633-16.531 5.9023l1.1797-4.7227c12.988-51.957-15.352-105.09-64.945-125.16l-80.289-31.883-80.293 30.699c-49.594 18.895-77.934 73.211-64.945 125.16l1.1797 4.7227c-4.7227-3.543-10.629-5.9023-16.531-5.9023-15.352 0-28.34 12.988-28.34 28.34v31.883c0 10.629 5.9023 21.254 15.352 25.977l31.883 15.352v16.531c0 33.062 17.711 63.762 46.051 80.293l-107.45 43.691c-48.41 20.074-80.293 67.309-80.293 120.45v192.47h519.55c20.074 0 35.426-15.352 35.426-35.426v-11.809c20.074 0 35.426-15.352 35.426-35.426v-35.426h-11.809l-0.003906-188.92h11.809v-35.426c0-20.074-15.352-35.422-35.426-35.422zm-47.23-11.809c0-7.0859 4.7227-11.809 11.809-11.809 7.0859 0 11.809 4.7227 11.809 11.809v11.809h-23.617zm-35.426 47.23c0-7.0859 4.7227-11.809 11.809-11.809h70.848c7.0859 0 11.809 4.7227 11.809 11.809v11.809h-94.465zm82.656 148.78-70.848 70.848v-37.785l70.848-70.848zm-68.484 170.04h-399.11l74.391-200.74h243.25l43.688 120.45v21.254c0 20.074 15.352 35.426 35.426 35.426v11.809c0 3.5391 1.1797 8.2656 2.3633 11.805zm-253.88-308.19c31.883 17.711 69.668 17.711 101.55 0l18.895-10.629 34.242 14.168c-63.762 36.605-142.88 36.605-207.82 0l34.242-14.168zm294.02 24.797-42.508 42.508v-42.508zm-66.125 166.49-35.426-96.824v-74.391l35.426 14.168zm-295.2-107.45v-61.402c73.211 43.691 162.95 43.691 236.16 0v61.402zm389.66-16.531-70.848 70.848v-37.785l70.848-70.848zm-106.27-262.14v31.883c0 2.3633-1.1797 3.543-2.3633 4.7227l-21.25 10.625v-35.426l15.352-15.352c2.3633-2.3633 5.9023-1.1797 7.0859 0 1.1758 1.1836 1.1758 2.3633 1.1758 3.5469zm-236.16-129.89 70.848-27.16 70.848 27.16c35.426 12.988 56.68 49.594 51.957 86.199 0 0-1.1797 0-1.1797-1.1797l-27.16-14.168c-23.617-11.809-51.957-8.2656-69.668 10.629-14.168 14.168-37.785 14.168-51.957 0-18.895-18.895-47.23-22.434-69.668-10.629l-27.16 14.168s-1.1797 0-1.1797 1.1797c-2.3555-36.605 18.898-73.211 54.32-86.199zm-92.102 166.5c-1.1797-1.1797-2.3633-2.3633-2.3633-4.7227v-31.883c0-2.3633 2.3633-4.7227 5.9023-4.7227 1.1797 0 2.3633 0 2.3633 1.1797l15.352 15.352v35.426zm44.871 53.133v-101.55c0-4.7227 2.3633-8.2656 5.9023-10.629l27.16-14.168c14.168-7.0859 31.883-4.7227 42.508 7.0859 23.617 23.617 61.402 23.617 85.02 0 10.629-11.809 28.34-14.168 42.508-7.0859l27.16 14.168c3.543 2.3633 5.9023 5.9023 5.9023 10.629v101.55c0 25.977-14.168 49.594-36.605 62.582l-41.328 22.434c-24.797 12.988-54.316 12.988-79.113 0l-41.328-22.434c-23.617-12.988-37.785-36.602-37.785-62.582zm-75.57 146.42 51.957-21.254v74.391l-48.418 131.07h-69.664v-86.199c0-43.688 25.977-81.473 66.125-98.004zm-66.125 207.82h60.223l-21.254 59.039h-38.969zm507.74 47.234c0 7.0859-4.7227 11.809-11.809 11.809-7.0859 0-11.809-4.7227-11.809-11.809v-11.809h23.617zm35.426-47.234c0 7.0859-4.7227 11.809-11.809 11.809h-70.848c-7.0859 0-11.809-4.7227-11.809-11.809v-11.809h94.465zm-54.316-35.422 42.508-42.508v42.508z"/>
  <path d="m653.14 824.36h-18.895c-1.1797-4.7227-3.543-9.4453-7.0859-14.168l-11.809-14.168 29.52-35.426-17.711-15.352-27.156 31.879-25.977-31.883-17.711 15.352 29.52 35.426-11.809 14.168c-3.543 3.543-5.9023 9.4453-7.0859 14.168h-18.895c-22.434 0-41.328 18.895-41.328 41.328 0 22.434 18.895 41.328 41.328 41.328 22.434 0 41.328-18.895 41.328-41.328v-33.062c0-2.3633 1.1797-5.9023 2.3633-7.0859l9.4453-10.629 9.4453 10.629c1.1797 2.3633 2.3633 4.7227 2.3633 7.0859v33.062c0 22.434 18.895 41.328 41.328 41.328s41.328-18.895 41.328-41.328c0.003907-22.434-20.07-41.324-42.508-41.324zm-88.559 41.328c0 9.4453-8.2656 17.711-17.711 17.711-9.4492 0-17.715-8.2656-17.715-17.711 0-9.4453 8.2656-17.711 17.711-17.711l17.715-0.003906zm88.559 17.711c-9.4453 0-17.711-8.2656-17.711-17.711v-17.715h17.711c9.4453 0 17.711 8.2656 17.711 17.711 0.003906 9.4492-8.2617 17.715-17.711 17.715z"/>
 </g>
</svg>
