<?xml version="1.0" encoding="UTF-8"?>
<svg width="1200pt" height="1200pt" version="1.1" viewBox="0 0 1200 1200" xmlns="http://www.w3.org/2000/svg">
 <g>
  <path d="m600 0c-78.793 0-156.82 15.52-229.61 45.672s-138.94 74.348-194.65 130.07c-55.719 55.715-99.914 121.86-130.07 194.65s-45.672 150.82-45.672 229.61c0 159.13 63.215 311.74 175.74 424.26 112.52 112.52 265.13 175.73 424.27 175.73 159.13 0 311.74-63.215 424.26-175.74 112.52-112.52 175.74-265.13 175.74-424.26 0-159.13-63.215-311.74-175.73-424.27-112.52-112.52-265.13-175.74-424.26-175.74zm0 67.762c69.121 0 137.56 13.766 201.42 40.516 63.859 26.746 121.88 65.953 170.76 115.38s87.645 108.1 114.09 172.67c26.453 64.574 40.066 133.79 40.066 203.68 0 141.16-55.457 276.53-154.16 376.34-98.707 99.816-232.58 155.89-372.18 155.89-69.121 0-137.57-13.766-201.43-40.516-63.855-26.746-121.88-65.949-170.76-115.37-48.875-49.422-87.645-108.1-114.1-172.67-26.449-64.574-40.066-133.79-40.066-203.68 0-69.898 13.613-139.11 40.066-203.68 26.449-64.574 65.219-123.25 114.1-172.68 48.875-49.422 106.9-88.625 170.76-115.38 63.859-26.746 132.3-40.512 201.43-40.512z" fill="#a8aaad"/>
  <path d="m580.29 674.14c-2.1094-3.6016-0.89844-8.2344 2.6992-10.34 3.5898-2.1328 8.2305-0.90625 10.34 2.6953 1.5781 2.6992 6.7305 5.4336 13.508 5.4336 6.7812 0 11.93-2.7305 13.504-5.4258 2.1016-3.6094 6.7266-4.8281 10.344-2.707 3.6016 2.1094 4.8125 6.7383 2.7031 10.34-4.5898 7.8438-15.012 12.906-26.555 12.906-11.527-0.003906-21.949-5.0664-26.543-12.902zm-78-138.48c-3.3828 2.4219-4.1602 7.1133-1.7539 10.508 2.4141 3.3984 7.1211 4.1914 10.523 1.7969 1-0.69922 24.574-16.906 46.215 0.88672 1.4062 1.1562 3.1055 1.7188 4.7969 1.7188 2.1797 0 4.3477-0.94141 5.8398-2.7578 2.6484-3.2227 2.1875-7.9844-1.0352-10.637-24.539-20.191-52.984-9.8203-64.586-1.5156zm149.32 14.914c1.6914 0 3.3906-0.56641 4.7969-1.7188 21.605-17.785 45.184-1.6055 46.211-0.88672 3.3945 2.4062 8.0977 1.6211 10.523-1.7656 2.4297-3.3906 1.6445-8.1133-1.75-10.543-11.609-8.3125-40.051-18.684-64.586 1.5156-3.2266 2.6523-3.6875 7.418-1.0352 10.637 1.4922 1.8203 3.6602 2.7617 5.8398 2.7617zm-48.336 82.707c0.34375 0 0.69141-0.015626 1.0352-0.042969l13.672-1.2109c4.1562-0.36719 7.2305-4.0352 6.8594-8.1914-0.36719-4.1602-3.9609-7.1992-8.1953-6.8633l-11.965 1.0586c-0.41797-0.89453-0.85938-2.418-0.79297-4.1562l2.6641-21.051c0.52344-4.1406-2.4102-7.9219-6.5508-8.4453-4.0977-0.50781-7.918 2.4102-8.4453 6.5508l-2.7148 21.641c-0.32422 6.8984 1.8477 13.289 5.8203 17.102 2.4492 2.3477 5.4727 3.6094 8.6133 3.6094zm-39.789-55.684c0.17578-0.13281 0.35547-0.21094 0.53125-0.35156 3.2656-2.5977 3.8125-7.3516 1.2188-10.621-2.5977-3.2695-7.3633-3.8125-10.621-1.2188-14.859 11.812-31.254 1.0117-31.918 0.56641-3.4375-2.3672-8.1367-1.5117-10.512 1.9219-2.2812 3.2969-1.5078 7.7266 1.5977 10.176l-2.2344 2.3711c-2.0039 2.1289-1.8984 5.4766 0.22656 7.4805 1.0234 0.96484 2.3242 1.4375 3.6289 1.4375 1.4062 0 2.8125-0.5625 3.8516-1.6641l4.3242-4.5977c3.0078 1.0938 6.3711 1.8984 9.9883 2.375v2.2773c0 2.9219 2.3672 5.293 5.293 5.293 2.9219 0 5.293-2.3672 5.293-5.293v-2.1445c3.25-0.39453 6.5547-1.2891 9.8672-2.6367l4.4453 4.7227c1.0391 1.1016 2.4453 1.6641 3.8516 1.6641 1.3008 0 2.6055-0.48047 3.6289-1.4375 2.125-2.0039 2.2305-5.3516 0.22656-7.4805zm135.97 0c0.17578-0.13281 0.35547-0.21094 0.52734-0.34766 3.2695-2.5977 3.8164-7.3516 1.2188-10.621-2.5977-3.2656-7.3594-3.8164-10.621-1.2188-14.859 11.812-31.258 1.0117-31.914 0.56641-3.4336-2.3672-8.1406-1.5117-10.512 1.9219-2.2812 3.2969-1.5078 7.7266 1.5977 10.176l-2.2344 2.3711c-2.0039 2.1289-1.8984 5.4766 0.22656 7.4805 1.0234 0.96484 2.3242 1.4375 3.6289 1.4375 1.4062 0 2.8125-0.5625 3.8516-1.6641l4.3242-4.5977c3.0078 1.0938 6.3711 1.8984 9.9883 2.375v2.2773c0 2.9219 2.3672 5.293 5.293 5.293 2.918 0 5.2891-2.3672 5.2891-5.293v-2.1445c3.25-0.39453 6.5547-1.2891 9.8711-2.6367l4.4453 4.7227c1.0391 1.1016 2.4414 1.6641 3.8516 1.6641 1.3008 0 2.6055-0.48047 3.625-1.4375 2.1328-2.0039 2.2305-5.3516 0.23047-7.4805zm138.49 319.42v66.582c0 4.1758-3.3789 7.5586-7.5586 7.5586-4.1758 0-7.5586-3.3789-7.5586-7.5586v-10.871l0.003906-55.711c0-16.586-4.1094-32.406-11.312-46.504l-122.14 33.105c-27 7.3203-54.766 10.973-82.535 10.973s-55.539-3.6523-82.535-10.973l-122.45-33.188c-7.0352 14.023-11.004 29.84-11.004 46.598v66.566c0 4.1758-3.3828 7.5586-7.5586 7.5586-4.1719 0-7.5586-3.3789-7.5586-7.5586v-66.566c0-59.055 42.395-108.29 100.8-117.05l39.121-5.8672 22.852-3.4258c4.25-0.63281 7.3398-4.2227 7.3398-8.5156v-38.406c-9.1367-6.1328-17.707-13.203-25.609-21.035l-23.629-8.3086c-41.363-20.355-72.492-55.496-85.395-96.414-6.918-21.922-10.531-43.777-10.172-61.539 1.5664-76.75 23.395-133.71 64.871-169.29 7.9648-6.832 16.227-12.391 24.535-17.094 1.5547-6.2812 5.1602-11.703 10.062-15.629-0.015625-0.54688-0.10938-1.082-0.10938-1.6328 0-43.887 47.746-79.59 106.43-79.59 58.691 0 106.43 35.703 106.43 79.59 0 0.55078-0.097657 1.082-0.10938 1.6289 5.6211 4.5039 9.5039 10.988 10.578 18.441 7.5547 4.4922 15 9.6484 22.16 15.727 44.906 38.129 67.363 99.73 66.746 183.1-0.15625 20.418-5.293 41.516-15.699 64.496-15.625 34.508-44.773 63.062-82.094 80.391l-0.83984 0.33203-21.98 7.1523c-7.5078 7.2812-15.617 13.852-24.207 19.621v38.457c0 4.2969 3.0898 7.8828 7.3398 8.5156l61.988 9.3008c57.461 8.6328 100.79 58.941 100.79 117.04zm-142.82-553.92c-7.6758 0-13.918 6.2422-13.918 13.918s6.2422 13.918 13.918 13.918 13.918-6.2422 13.918-13.918c0.003906-7.6758-6.2422-13.918-13.918-13.918zm-179.28-14.84c0.90625-0.085937 1.7812-0.27344 2.707-0.27344 5.9258 0 11.434 1.8008 16.035 4.8633 0.12891-0.03125 0.26172-0.070312 0.39062-0.10156 3.5508-12.02 14.562-20.871 27.719-20.871 7.207 0 13.727 2.7383 18.809 7.1016 4.9414-8.9805 14.383-15.152 25.336-15.152s20.395 6.1719 25.34 15.152c5.082-4.3633 11.598-7.0977 18.805-7.0977 13.262 0 24.355 8.9922 27.816 21.164 4.6562-3.1836 10.273-5.0547 16.328-5.0547 0.92578 0 1.8008 0.1875 2.707 0.27344-3.3359-33.426-42.82-59.914-90.992-59.914-48.184-0.003906-87.664 26.484-91 59.91zm135.14-1.2656c-7.6719 0-13.914 6.2422-13.914 13.918s6.2422 13.918 13.914 13.918c7.6758 0 13.918-6.2422 13.918-13.918s-6.2461-13.918-13.918-13.918zm-44.145-8.0547c-7.6719 0-13.914 6.2422-13.914 13.918 0 7.6719 6.2422 13.914 13.914 13.914 7.6758 0 13.918-6.2422 13.918-13.914 0-7.6719-6.2422-13.918-13.918-13.918zm-44.145 8.0547c-7.6719 0-13.914 6.2422-13.914 13.918s6.2422 13.918 13.914 13.918c7.6758 0 13.918-6.2422 13.918-13.918s-6.2422-13.918-13.918-13.918zm-58.059 30.023c0 7.6758 6.2422 13.918 13.914 13.918 7.6758 0 13.918-6.2422 13.918-13.918s-6.2422-13.918-13.918-13.918c-7.6719 0-13.914 6.2422-13.914 13.918zm-4.543 322.09c-12.672-17.703-22.285-37.715-27.871-58.836-16.898-1.2656-32.703-15.926-37.688-28.645-3.0703-7.8359-2.7109-16.359 1.0117-23.984 4.1758-8.5664 12.266-15.176 22.195-18.137 0.27734-0.082031 0.55859-0.09375 0.83984-0.16797-1.9961-11.434-3.9219-22.66-5.6016-32.609-0.73047-4.3281 0.5-8.6953 3.3867-11.977 2.8984-3.3008 7.1055-5.0312 11.488-4.9258 27.395 1.1094 95.574-1.8945 135.96-51.605 2.5352-3.1211 6.3008-5.0312 10.34-5.25 4.1328-0.23438 8.1602 1.3242 11.094 4.2344 15.91 15.785 59.785 52.383 121.19 52.156h0.058594c4.2305 0 8.2227 1.8516 10.965 5.0859 2.7812 3.2812 3.9648 7.5898 3.2461 11.832-1.7031 10.066-3.6523 21.449-5.6797 33.047 0.30078 0.082032 0.60937 0.09375 0.91016 0.18359 9.9336 2.9609 18.023 9.5703 22.199 18.137 3.7188 7.6289 4.082 16.148 1.0039 23.984-4.9844 12.734-20.84 27.418-37.762 28.648-5.7891 21.895-15.898 42.594-29.266 60.766 32.258-15.938 57.449-40.984 71.062-71.062 9.5195-21.02 14.215-40.113 14.355-58.375 0.58203-78.68-20.082-136.37-61.418-171.46-4.7773-4.0547-9.7148-7.6562-14.738-10.922-4.6289 9.9062-14.617 16.828-26.25 16.828-13.262 0-24.352-8.9961-27.809-21.164-4.6602 3.1836-10.281 5.0586-16.336 5.0586-10.953 0-20.395-6.1719-25.336-15.152-5.082 4.3633-11.602 7.0977-18.805 7.0977-7.207 0-13.723-2.7344-18.805-7.0977-4.9414 8.9805-14.387 15.152-25.34 15.152-6.0547 0-11.672-1.875-16.332-5.0586-3.457 12.172-14.551 21.164-27.812 21.164-12.426 0-22.965-7.8867-27.098-18.883-5.375 3.4141-10.695 7.1758-15.836 11.598-37.98 32.676-57.984 85.84-59.457 158.01-0.32812 16.156 3.0352 36.285 9.4727 56.684 11.336 35.926 38.418 66.898 74.465 85.645zm264.98-92.996c1.9336-4.9414 0.78125-9.168-0.52344-11.848-2.2266-4.5586-6.6523-8.1211-12.164-9.9648-2.5625 14.375-5.1367 28.293-7.457 40.027 8.7539-2.8242 17.371-11.137 20.145-18.215zm-303.85-21.785c-5.4805 1.8516-9.8828 5.4023-12.094 9.9375-1.3047 2.6797-2.457 6.9062-0.51953 11.848 2.7617 7.0586 11.324 15.352 20.062 18.195-2.3086-11.664-4.8828-25.582-7.4492-39.98zm119.66 161.09c16.473 6.6289 35.355 6.6289 51.82 0 7.4648-3.0039 14.648-6.7344 21.562-10.977 1.1172-1.5273 2.7344-2.5586 4.668-2.9141 34.906-23.219 61.195-61.379 69.84-103.51 5.3594-26.105 12.832-69.5 16.898-93.543h-0.015626c-66.258 0-113.09-38.836-130.62-56.105-44.367 53.961-117 57.613-147.03 56.59 4.9219 29.102 11.793 68.59 16.816 93.059 10.695 52.145 48.402 98.227 96.062 117.4zm222.49 111.64c-15.855-22.074-40.199-37.891-68.473-42.129l-24.266-3.6367-37.719-5.6562c-11.711-1.7656-20.211-11.633-20.211-23.469v-29.484c-4.6914 2.4688-9.4609 4.7773-14.363 6.75-10.168 4.0977-20.859 6.1406-31.551 6.1406-10.691 0-21.375-2.043-31.555-6.1406-4.8711-1.9609-9.6133-4.2578-14.281-6.707v29.438c0 11.836-8.5 21.703-20.211 23.469l-37.023 5.5508-24.949 3.7422c-28.824 4.3242-53.16 19.953-68.875 42.031l52.004 14.094 66.352 17.984c51.402 13.941 105.75 13.941 157.16 0l66.688-18.074zm58.914-386.94h-13v-13c0-3.1289-2.5391-5.668-5.668-5.668s-5.668 2.5391-5.668 5.668v13h-13.004c-3.1289 0-5.668 2.5391-5.668 5.668s2.5391 5.668 5.668 5.668h13.004v13.004c0 3.1289 2.5391 5.668 5.668 5.668s5.668-2.5391 5.668-5.668v-13.004h13.004c3.1289 0 5.668-2.5391 5.668-5.668-0.003906-3.1289-2.5391-5.668-5.6719-5.668zm-123.12-138.77h12.281v12.281c0 3.1289 2.5391 5.668 5.668 5.668s5.668-2.5391 5.668-5.668v-12.281h12.281c3.1289 0 5.668-2.5391 5.668-5.668 0-3.1289-2.5391-5.668-5.668-5.668h-12.281v-12.281c0-3.1289-2.5391-5.668-5.668-5.668s-5.668 2.5391-5.668 5.668v12.281h-12.281c-3.1289 0-5.668 2.5391-5.668 5.668 0 3.1289 2.5352 5.668 5.668 5.668zm-400.53 194.91v0.94531c0 3.1289 2.5391 5.668 5.668 5.668s5.668-2.5391 5.668-5.668v-0.94531h0.94531c3.1289 0 5.668-2.5391 5.668-5.668s-2.5391-5.668-5.668-5.668h-0.94531v-0.94531c0-3.1289-2.5391-5.668-5.668-5.668s-5.668 2.5391-5.668 5.668v0.94531h-0.94531c-3.1289 0-5.668 2.5391-5.668 5.668s2.5391 5.668 5.668 5.668zm180.43-259.46h0.94531v0.94531c0 3.1289 2.5391 5.668 5.668 5.668s5.668-2.5391 5.668-5.668v-0.94531h0.94531c3.1289 0 5.668-2.5391 5.668-5.668 0-3.1289-2.5391-5.668-5.668-5.668h-0.94531v-0.94531c0-3.1289-2.5391-5.668-5.668-5.668s-5.668 2.5391-5.668 5.668v0.94531h-0.94531c-3.1289 0-5.668 2.5391-5.668 5.668 0 3.1289 2.5391 5.668 5.668 5.668zm-135.08 390.77c0-3.1289-2.5391-5.668-5.668-5.668h-12.281v-12.281c0-3.1289-2.5391-5.668-5.668-5.668s-5.668 2.5391-5.668 5.668v12.285h-12.281c-3.1289 0-5.668 2.5391-5.668 5.668 0 3.1289 2.5391 5.668 5.668 5.668h12.281v12.281c0 3.1289 2.5391 5.668 5.668 5.668s5.668-2.5391 5.668-5.668v-12.281h12.281c3.1289-0.003906 5.668-2.543 5.668-5.6719zm1.1836-276.46h14.242v14.242c0 3.1289 2.5391 5.668 5.668 5.668 3.1289 0 5.668-2.5391 5.668-5.668v-14.242h14.242c3.1289 0 5.668-2.5391 5.668-5.668s-2.5391-5.668-5.668-5.668h-14.242v-14.242c0-3.1289-2.5391-5.668-5.668-5.668-3.1289 0-5.668 2.5391-5.668 5.668v14.242h-14.242c-3.1289 0-5.668 2.5391-5.668 5.668s2.5391 5.668 5.668 5.668zm465.47 269.54h-0.94531v-0.94531c0-3.1289-2.5391-5.668-5.668-5.668s-5.668 2.5391-5.668 5.668v0.94531h-0.94531c-3.1289 0-5.668 2.5391-5.668 5.668 0 3.1289 2.5391 5.668 5.668 5.668h0.94531v0.94531c0 3.1289 2.5391 5.668 5.668 5.668s5.668-2.5391 5.668-5.668v-0.94531h0.94531c3.1289 0 5.668-2.5391 5.668-5.668 0-3.1289-2.5391-5.668-5.668-5.668zm-405.56 86.91c-3.1289 0-5.668 2.5391-5.668 5.668v0.94531h-0.94531c-3.1289 0-5.668 2.5391-5.668 5.668s2.5391 5.668 5.668 5.668h0.94531v0.94531c0 3.1289 2.5391 5.668 5.668 5.668 3.1289 0 5.668-2.5391 5.668-5.668v-0.94531h0.94531c3.1289 0 5.668-2.5391 5.668-5.668s-2.5391-5.668-5.668-5.668l-0.94531-0.003906v-0.94531c0-3.1289-2.5391-5.6641-5.668-5.6641zm309.84 24.559c3.1289 0 5.668-2.5391 5.668-5.668v-0.94531h0.94531c3.1289 0 5.668-2.5391 5.668-5.668 0-3.1289-2.5391-5.668-5.668-5.668h-0.94531v-0.94531c0-3.1289-2.5391-5.668-5.668-5.668-3.1289 0-5.668 2.5391-5.668 5.668v0.94531h-0.94531c-3.1289 0-5.668 2.5391-5.668 5.668 0 3.1289 2.5391 5.668 5.668 5.668h0.94531v0.94531c0 3.1289 2.5391 5.668 5.668 5.668z"/>
 </g>
</svg>
