<?xml version="1.0" encoding="UTF-8"?>
<svg width="1200pt" height="1200pt" version="1.1" viewBox="0 0 1200 1200" xmlns="http://www.w3.org/2000/svg">
 <g>
  <path d="m600 0c-78.793 0-156.82 15.52-229.61 45.672s-138.94 74.348-194.65 130.07c-55.719 55.715-99.914 121.86-130.07 194.65s-45.672 150.82-45.672 229.61c0 159.13 63.215 311.74 175.74 424.26 112.52 112.52 265.13 175.73 424.27 175.73 159.13 0 311.74-63.215 424.26-175.74 112.52-112.52 175.74-265.13 175.74-424.26 0-159.13-63.215-311.74-175.73-424.27-112.52-112.52-265.13-175.74-424.26-175.74zm0 67.762c69.121 0 137.56 13.766 201.42 40.516 63.859 26.746 121.88 65.953 170.76 115.38s87.645 108.1 114.09 172.67c26.453 64.574 40.066 133.79 40.066 203.68 0 141.16-55.457 276.53-154.16 376.34-98.707 99.816-232.58 155.89-372.18 155.89-69.121 0-137.57-13.766-201.43-40.516-63.855-26.746-121.88-65.949-170.76-115.37-48.875-49.422-87.645-108.1-114.1-172.67-26.449-64.574-40.066-133.79-40.066-203.68 0-69.898 13.613-139.11 40.066-203.68 26.449-64.574 65.219-123.25 114.1-172.68 48.875-49.422 106.9-88.625 170.76-115.38 63.859-26.746 132.3-40.512 201.43-40.512z" fill="#a8aaad"/>
  <path d="m808.66 768.1c-1.0742-6.1562-2.1602-11.203-3.4062-15.859-5.5391-21.164-23.742-36.895-46.078-40.02-1.2305-0.26172-2.5039-0.38672-3.7656-0.5l-1.0781-0.10156c-0.15625-0.015626-0.3125-0.027344-0.46875-0.027344l-73.398-4.9766c-2.125-0.13672-4.1836-0.41406-6.1719-0.82422-0.078125-0.015624-0.17188-0.027343-0.25781-0.042968-1.3242-0.26562-2.6445-0.59766-4.0625-1.0234-1.1875-0.32812-2.3711-0.72266-3.6875-1.2578-1.1094-0.41797-2.2305-0.83594-3.125-1.2227l-0.96875-0.48438c-0.80078-0.40234-1.6055-0.80469-2.4336-1.2891-0.91797-0.52344-1.832-1.1133-3.0156-1.8711-1.0117-0.63281-1.9648-1.3281-3.2148-2.3711-0.60938-0.42578-1.1523-0.91797-1.8125-1.5039-1.5273-1.2695-2.9648-2.6836-4.418-4.3555-2.7891-3.1484-4.9883-6.4023-6.7656-10.027-1.1172-2.1719-2.082-4.6055-2.875-7.2773-1.1562-3.7305-1.7695-7.7031-1.8359-11.793-0.039063-2.9219-0.058594-5.7305-0.058594-8.4453 0-1.9453 0.023437-3.7617 0.042969-5.5898 23.254-16.914 51.219-50.402 63.828-96.133 0.85547 0.25 1.6953 0.5625 2.5859 0.67969 0.83984 0.11719 1.6836 0.17578 2.5195 0.17578 4.1953 0 8.3359-1.4688 12.102-4.3203 6.5-4.9141 11.172-13.602 12.492-23.234 1.3203-9.625-0.84766-19.242-5.793-25.738-3.4414-4.5156-7.9336-7.2617-12.973-7.9375-1.5156-0.20703-3.0469-0.11328-4.5742 0.070313-3.7383-71.461-42.824-115.97-103.3-117.27-6.9375-11.371-41.062-59.012-111.75-30.941-78.59 31.227-75.633 103.04-60.73 176 15.09 73.594 28.117 137.15-4.7188 174.68-30.75 35.211-32.895 60.605-33.812 71.449-0.11719 1.3789-0.21094 2.5391-0.35547 3.4688v0.011719c-4.5547 26.508-4.8945 58.098-1.0078 93.891 0.25 2.3008 2.1953 4.043 4.5078 4.043h410.35c2.3125 0 4.2578-1.7461 4.5078-4.043 3.8945-35.836 3.5508-67.461-1.0195-93.992zm-106.11-228.93c0.35938-1.332 0.62109-2.6641 0.73047-3.6836 0.40234-1.8594 0.72656-3.7227 0.99609-5.7461 0.10156-0.6875 0.18359-1.2891 0.23047-1.7617 0.039063-0.30078 0.089844-0.60547 0.11719-0.90625 0.054688-0.24609 0.058594-0.50391 0.10156-0.75 0.082032-0.48828 0.17578-0.96875 0.23828-1.4688l0.097656-0.76562c0.023438-0.13672 0.023438-0.25 0.042969-0.38281l0.007812-0.058593v-0.011719c0.125-0.85156 0.21875-1.6719 0.28516-2.4531l0.24609-2.5352-0.082031-0.003907c0.023438-0.25781 0.042969-0.5 0.066406-0.75391l0.078125-0.007813c0-0.011718 0-0.023437 0.003907-0.035156 0.066406-0.73438 0.11719-1.4648 0.12891-2.0469 0.13672-1.7422 0.28125-3.4883 0.33594-5.2188 0.15234-2.8789 0.23438-5.7539 0.23438-8.6289 0-0.72266 0-1.4336-0.007812-2.1406 1.0117-0.1875 2.0039-0.21484 2.957-0.09375 3.3008 0.4375 5.6133 2.6602 6.9727 4.4453 3.5156 4.6172 5.0234 11.723 4.0273 19.008-1 7.3008-4.3594 13.742-8.9766 17.234-1.7852 1.3516-4.6133 2.8555-7.9219 2.3906-0.55078-0.074219-1.082-0.19531-1.5977-0.36719 0.26562-1.1602 0.49609-2.2656 0.6875-3.2578zm-62.062 157.19c1.7539 2.0117 3.5273 3.7617 5.3125 5.2383 0.81641 0.72656 1.6367 1.4414 2.1797 1.793 1.2266 1.0508 2.543 2.0195 4.1289 3.0156 1.0508 0.67578 2.1016 1.3438 3.1172 1.9258 0.96875 0.56641 1.9375 1.0508 2.9688 1.5703l1.0312 0.51172c1.2578 0.58203 2.5664 1.1367 3.4453 1.3711 0.12109 0.046875 0.25 0.10156 0.37109 0.14844 1.1445 0.46875 2.332 0.88672 3.4883 1.2344-22.742 39.004-57.16 64.004-66.461 70.305-9.3086-6.3008-43.789-31.309-66.539-70.328 0.33594-0.09375 0.64062-0.19531 0.95703-0.29688 0.24219-0.074218 0.49219-0.14453 0.71484-0.22266 0.54297-0.1875 1.0195-0.37109 1.3555-0.53125 0.69141-0.19531 1.3359-0.46094 1.6914-0.64062 0.074219-0.035156 0.16406-0.054687 0.23828-0.089844 0.21484-0.070312 0.39844-0.14453 0.59375-0.21875 0.0625-0.023437 0.125-0.042969 0.18359-0.070312 0.31641-0.12891 0.58984-0.25 0.75-0.33984 0.56641-0.22656 1.0977-0.48047 1.6094-0.73047l0.85547-0.40625c0.36719-0.18359 0.68359-0.36719 1.0117-0.59375 0.019531-0.007812 0.011718-0.007812 0.03125-0.015625 0.30859-0.14453 0.57812-0.28516 0.73437-0.39453 0.023438-0.015625 0.050782-0.03125 0.074219-0.046875 1.4023-0.69531 2.7188-1.5 3.5078-2.125l0.003906-0.003906c0.082031-0.050781 0.17188-0.09375 0.25391-0.14844 0.03125-0.019531 0.0625-0.042969 0.09375-0.066406 0.011719-0.007813 0.027344-0.015625 0.039063-0.023437 0.003906-0.003907 0.007812-0.007813 0.011719-0.011719 0.64062-0.41016 1.2812-0.87109 1.9219-1.332 0.19922-0.15234 0.39844-0.25 0.59766-0.40625 0.46094-0.30078 0.74219-0.57422 0.84375-0.66406 0.43359-0.31641 0.83594-0.63281 0.88281-0.69141 0.4375-0.30859 0.89453-0.65625 0.92188-0.71875 0.94141-0.75781 1.9648-1.6133 2.6367-2.375l0.89844-0.89844c0.59375-0.58984 1.1211-1.1211 1.6953-1.7539 0.5-0.42969 0.92188-0.86719 1.2617-1.2891 1.3359-1.5469 3.0195-3.5781 4.3906-5.8555 0.5-0.57422 0.92969-1.2344 1.293-1.9531 0.054687-0.10547 0.10547-0.22266 0.15234-0.33984l0.39844-0.70312c0.60156-1.0352 1.1172-1.9844 1.5664-2.9688 0.45312-0.90234 0.91016-1.8906 1.6133-3.4688l0.82031-2.3086c0.36719-0.82422 0.65625-1.7305 0.95703-2.7227 0.058594-0.19141 0.10156-0.40234 0.13672-0.61719 0.011719-0.054687 0.023437-0.10937 0.035156-0.16797 0.41016-1.1367 0.69141-2.3047 0.79297-3.207 0.003906-0.023437 0.007812-0.046874 0.011718-0.070312 0.011719-0.050781 0.023438-0.089844 0.035157-0.14062 0.023437-0.11328 0.03125-0.22656 0.054687-0.33984 0.6875-2.9258 1.0781-6.0234 1.168-9.7266 0.074219-2.7695 0.097656-5.4766 0.089844-8.0898 0.21094 0.125 0.41016 0.20312 0.62109 0.32422 2.0938 1.2031 4.1602 2.3008 6.1875 3.2461 0.10547 0.050781 0.21484 0.11328 0.32031 0.16406 0.23438 0.10938 0.45312 0.17188 0.6875 0.27344 1.8477 0.82812 3.6602 1.543 5.4375 2.1484 0.24219 0.082031 0.5 0.21094 0.74219 0.28906 0.11719 0.039062 0.22266 0.050781 0.33594 0.089843 1.9297 0.61719 3.8047 1.082 5.6367 1.4258 0.17188 0.03125 0.35938 0.10156 0.53516 0.13281 0.22656 0.039063 0.42969 0.027344 0.65625 0.0625 1.8633 0.29297 3.6914 0.49609 5.4297 0.49609 3.7812 0 7.832-0.68359 12.051-2.0352 2.7344-0.88281 5.5859-2.0234 8.5039-3.4023 1.9961-0.96094 4.0625-2.0625 6.1406-3.2344 0 2.5859 0.019531 5.2734 0.054687 8.0664 0.082032 4.9648 0.83594 9.7852 2.2305 14.293 0.94141 3.1641 2.1133 6.1211 3.4492 8.7148 2.0664 4.2305 4.7852 8.2578 8.0508 11.945zm-89.992-23.445c-0.83203-2.1328-2.3086-9.9336 0.16797-36.961 4.4062 4.1758 8.9297 7.9453 13.531 11.281 0.046876 4.3672 0.050782 9.0234-0.011718 13.992-0.066406 2.7461-0.39062 5.6094-0.96484 8.4609-0.19531 0.91797-0.38672 1.7734-0.64844 2.6289l-1.7305 5.2305c-0.41406 0.89453-0.82812 1.7891-1.3047 2.75-0.39062 0.84766-0.78125 1.5625-1.2344 2.3398-0.46094 0.79688-0.92969 1.5273-1.4844 2.3984-0.046875 0.074219-0.11328 0.13281-0.16016 0.20703-2.7539-4.9453-4.9023-9.2266-6.1602-12.328zm77.996-31.543c-0.77734 0.60938-1.5586 1.125-2.3828 1.6562-0.23828 0.11328-0.47656 0.25-0.69922 0.40625-0.61719 0.44141-1.2344 0.82422-1.8516 1.2031l-0.9375 0.59375c-2.0273 1.1562-4.043 2.2383-5.9648 3.168-2.5352 1.1992-5.0234 2.1914-7.3789 2.957-3.2656 1.043-6.4727 1.5977-9.2734 1.5977-1.9219 0-3.9961-0.25781-6.1953-0.76172-0.77344-0.17578-1.6328-0.54688-2.4375-0.78125-1.4766-0.4375-2.9297-0.81641-4.4961-1.4492-1.0391-0.42188-2.1523-1.0508-3.2227-1.5586-1.418-0.67188-2.8086-1.2578-4.2734-2.0742-1.1914-0.66406-2.4375-1.5312-3.6562-2.293-1.4141-0.88281-2.8047-1.6719-4.2422-2.6758-0.058594-0.046875-0.12109-0.09375-0.17969-0.13672v-0.003906c-7.1758-4.9883-14.203-11.16-20.895-18.352-3.6367-3.875-7.043-8.0273-10.336-12.293-15.051-19.504-26.387-42.711-32.352-66.949-0.11719-0.42969-0.21094-0.87891-0.3125-1.3242 0.52734-0.046875 1.1016-0.17969 1.6367-0.23828 1.2969-0.14453 2.625-0.35547 3.9609-0.57422 1.5039-0.25 3.0117-0.51562 4.5586-0.85547 1.375-0.30078 2.7617-0.64844 4.1641-1.0156 1.582-0.41406 3.168-0.85156 4.7812-1.3477 1.4258-0.43359 2.8555-0.90234 4.3008-1.3945 1.6367-0.55859 3.2773-1.1406 4.9336-1.7656 1.4688-0.55469 2.9375-1.125 4.418-1.7266 1.6797-0.68359 3.3594-1.3906 5.0508-2.1328 1.4766-0.64453 2.9453-1.2969 4.4258-1.9805 1.7109-0.79297 3.418-1.6055 5.1328-2.4414 1.4727-0.71875 2.9375-1.4414 4.4102-2.1875 1.7109-0.87109 3.4062-1.7617 5.1055-2.668 1.4688-0.78125 2.9297-1.5586 4.3867-2.3633 1.6914-0.92969 3.3555-1.875 5.0234-2.8281 1.4297-0.81641 2.8516-1.625 4.2617-2.4492 1.668-0.98047 3.3008-1.9609 4.9375-2.9531 1.3711-0.82812 2.7422-1.6484 4.0898-2.4844 1.6211-1.0039 3.1914-2 4.7695-3 1.2969-0.82031 2.5977-1.6406 3.8594-2.457 1.5781-1.0195 3.0859-2.0156 4.6055-3.0234 1.1797-0.78125 2.375-1.5625 3.5195-2.332 1.4961-1.0078 2.9062-1.9727 4.3359-2.9531 1.082-0.74219 2.1914-1.4922 3.2305-2.2148 1.3672-0.94922 2.625-1.8398 3.9102-2.75 0.98047-0.69141 1.9961-1.4023 2.9258-2.0664 1.3008-0.92969 2.4648-1.7812 3.6641-2.6484 0.77344-0.5625 1.6016-1.1562 2.3281-1.6875 1.3203-0.96875 2.4766-1.832 3.6367-2.6992 0.46875-0.34766 1.0078-0.74609 1.4492-1.0742 1.5312-1.1484 2.9023-2.1914 4.0742-3.0859 0.36328 0.88672 0.77734 1.8555 1.2344 2.8984 0.15234 0.34375 0.33984 0.74219 0.5 1.1016 0.32812 0.73047 0.64844 1.4531 1.0234 2.2422 0.21875 0.46094 0.47266 0.97266 0.70703 1.4531 0.36328 0.75391 0.71875 1.4961 1.1211 2.293 0.27344 0.54297 0.58594 1.1211 0.87891 1.6836 0.41016 0.78906 0.80859 1.5664 1.2578 2.3906 0.33984 0.62891 0.71875 1.2852 1.082 1.9297 0.44922 0.80078 0.88672 1.5938 1.3672 2.418 0.39844 0.67969 0.83594 1.3828 1.2539 2.0781 0.50391 0.83203 0.99609 1.6562 1.5352 2.5078 0.45703 0.72266 0.94922 1.457 1.4297 2.1914 0.55469 0.84766 1.1016 1.6875 1.6914 2.5469 0.51562 0.75391 1.0703 1.5156 1.6133 2.2773 0.61328 0.86328 1.2227 1.7227 1.8711 2.5898 0.57031 0.76172 1.1758 1.5273 1.7695 2.293 0.68359 0.87891 1.3594 1.75 2.0742 2.6289 0.62891 0.76953 1.2891 1.5312 1.9453 2.3008 0.74219 0.87109 1.4844 1.7422 2.2617 2.6094 0.69531 0.77344 1.4219 1.5352 2.1445 2.3047 0.80469 0.85547 1.6133 1.7109 2.4531 2.5586 0.75391 0.75781 1.5352 1.5 2.3164 2.2461 0.87891 0.84375 1.7617 1.6797 2.6797 2.5078 0.8125 0.73047 1.6523 1.4453 2.4922 2.1641 0.95312 0.8125 1.9102 1.6211 2.9023 2.4141 0.875 0.70312 1.7773 1.3828 2.6875 2.0664 1.0234 0.77344 2.0586 1.5391 3.125 2.2852 0.94141 0.66016 1.9102 1.3047 2.8828 1.9453 1.0977 0.72266 2.207 1.4297 3.3438 2.125 1.0117 0.61719 2.0469 1.2109 3.0938 1.8008 0.64844 0.36719 1.2617 0.76172 1.9219 1.1172-11.812 46.77-40.355 80.402-63.461 96.5zm68.77-144.58c0.078125 1.7461 0.074219 3.4219 0.074219 5.168 0 2.7109-0.074219 5.4297-0.23047 8.3555 0 0.011719 0 0.027344-0.003907 0.039062-0.070312 1.3477-0.13672 2.6953-0.29297 4.2578-0.070313 1.6797-0.21094 3.293-0.42188 4.8984-0.007813 0.074219-0.015625 0.75781-0.023438 0.83203-0.011719 0.16016-0.039062 0.34766-0.058593 0.51172-0.019532 0.21875-0.054688 0.46484-0.078126 0.6875-0.0625 0.44531-0.14062 0.97656-0.24219 1.6914-0.054687 0.71094-0.089844 1.3711-0.25391 2.0312-0.0625 0.25-0.10156 0.50781-0.12109 0.76562-0.058594 0.78516-0.18359 1.5742-0.35156 2.6953-0.21484 1.6133-0.49609 3.2344-0.91016 5.2422-0.0625 0.5-0.21094 1.0664-0.31641 1.582-0.44141-0.25391-0.90625-0.48438-1.3398-0.74219-1.1719-0.69531-2.3008-1.4219-3.4258-2.1562-1.2578-0.81641-2.5039-1.6406-3.707-2.5-1.082-0.77344-2.1289-1.5664-3.168-2.3672-1.1484-0.88672-2.2852-1.7852-3.3828-2.7031-0.99609-0.83203-1.9648-1.6797-2.918-2.5352-1.0469-0.94141-2.0742-1.8867-3.0703-2.8516-0.90625-0.875-1.7891-1.7539-2.6523-2.6406-0.95313-0.98047-1.8867-1.9688-2.793-2.9609-0.81641-0.89453-1.6172-1.7891-2.3906-2.6914-0.86328-1.0039-1.7031-2.0117-2.5156-3.0195-0.72656-0.89844-1.4492-1.7969-2.1367-2.6914-0.77734-1.0117-1.5234-2.0195-2.2539-3.0234-0.64062-0.88281-1.2812-1.7617-1.8867-2.6367-0.69531-1.0078-1.3555-2-2.0039-2.9883-0.55469-0.84766-1.1172-1.6953-1.6367-2.5273-0.61719-0.98047-1.1914-1.9375-1.7617-2.8945-0.47656-0.79688-0.96094-1.5977-1.4023-2.375-0.53516-0.9375-1.0273-1.8359-1.5156-2.7344-0.39844-0.73047-0.8125-1.4766-1.1797-2.1758-0.46484-0.88672-0.88281-1.7227-1.3008-2.5586-0.3125-0.62891-0.64844-1.2812-0.9375-1.8789-0.40234-0.83203-0.75-1.5938-1.1016-2.3594-0.23438-0.50781-0.49219-1.0547-0.70312-1.5273-0.33594-0.75781-0.62109-1.4219-0.89844-2.0859-0.15625-0.37109-0.34375-0.79297-0.48438-1.1328-0.28125-0.67969-0.50391-1.2461-0.71484-1.7891-0.082031-0.21094-0.19141-0.48047-0.26562-0.66797-0.21484-0.5625-0.36719-0.98438-0.49609-1.3359-0.023437-0.070313-0.074219-0.19531-0.09375-0.25781-0.12891-0.36328-0.20312-0.58594-0.21484-0.61719-0.46094-1.4141-1.5859-2.5117-3.0117-2.9414-0.42969-0.125-0.86719-0.1875-1.3008-0.1875-0.20313 0-0.39844 0.074218-0.59766 0.10156-0.15625 0.019531-0.30078 0.039062-0.45312 0.074219-0.63672 0.15234-1.25 0.39062-1.7812 0.8125-0.027344 0.019531-0.13281 0.10547-0.31641 0.25-0.003906 0.003906-0.015625 0.011719-0.019531 0.015625-0.5625 0.44141-1.8047 1.4141-3.6367 2.8164-0.03125 0.023438-0.070312 0.054688-0.10156 0.078125-0.58984 0.44922-1.2305 0.9375-1.9336 1.4688-0.074219 0.058594-0.16406 0.125-0.24219 0.18359-0.64844 0.48828-1.3359 1.0078-2.0703 1.5586-0.26172 0.19531-0.55859 0.41406-0.83203 0.61719-0.625 0.46484-1.2539 0.9375-1.9375 1.4414-0.23828 0.17578-0.50391 0.36719-0.75 0.55078-0.76562 0.5625-1.543 1.1367-2.3672 1.7383-0.21875 0.16016-0.45312 0.32812-0.67578 0.48828-0.875 0.63672-1.7695 1.2852-2.7031 1.957-0.26953 0.19531-0.55859 0.39844-0.83203 0.59375-0.90234 0.64844-1.8242 1.3047-2.7773 1.9805-0.35547 0.25391-0.73047 0.51562-1.0938 0.77344-0.92578 0.65234-1.8633 1.3125-2.8281 1.9883-0.37109 0.25781-0.75391 0.52344-1.1328 0.78516-1.0078 0.69922-2.0273 1.4023-3.0742 2.1211-0.35938 0.24609-0.73047 0.49609-1.0938 0.74609-1.0781 0.73438-2.168 1.4766-3.2852 2.2266-0.39453 0.26562-0.79688 0.53125-1.1953 0.79688-1.1055 0.73828-2.2266 1.4844-3.3633 2.2344-0.44141 0.29297-0.89453 0.58594-1.3398 0.87891-1.1094 0.72656-2.2266 1.4492-3.3594 2.1797-0.50391 0.32422-1.0156 0.64844-1.5234 0.97656-1.1094 0.71094-2.2305 1.4219-3.3633 2.1328-0.53125 0.33203-1.0664 0.66406-1.5977 1-1.1367 0.70703-2.2773 1.4141-3.4297 2.1172-0.55859 0.34375-1.125 0.68359-1.6875 1.0234-1.1172 0.67578-2.2422 1.3516-3.375 2.0234-0.61719 0.36719-1.2383 0.73047-1.8633 1.0977-1.1133 0.65234-2.2344 1.3047-3.3594 1.9492-0.63672 0.36719-1.2734 0.72656-1.9141 1.0898-1.1055 0.625-2.2148 1.2461-3.3242 1.8594-0.67578 0.375-1.3555 0.74609-2.0312 1.1133-1.082 0.58984-2.168 1.1719-3.2539 1.7461-0.70703 0.375-1.4102 0.74609-2.1172 1.1133-1.0703 0.55859-2.1445 1.1055-3.2148 1.6484-0.71875 0.36328-1.4375 0.72266-2.1562 1.0781-1.0625 0.52344-2.1211 1.0391-3.1836 1.543-0.72656 0.34766-1.4492 0.69141-2.1719 1.0273-1.0391 0.48438-2.0781 0.95312-3.1133 1.418-0.74609 0.33203-1.4922 0.66797-2.2383 0.98828-1.0078 0.4375-2.0117 0.85938-3.0156 1.2734-0.75391 0.3125-1.5078 0.625-2.2578 0.92188-0.97656 0.39062-1.9453 0.76172-2.9141 1.125-0.77344 0.29297-1.543 0.58203-2.3086 0.85938-0.92969 0.33594-1.8516 0.64844-2.7695 0.95703-0.78125 0.26172-1.5625 0.52734-2.332 0.77344-0.89453 0.28516-1.7812 0.54297-2.6641 0.80078-0.77734 0.22656-1.5508 0.45312-2.3164 0.66016-0.85547 0.23047-1.6992 0.42969-2.543 0.63281-0.76953 0.18359-1.543 0.375-2.3008 0.53516-0.81641 0.17188-1.6172 0.3125-2.418 0.46094-0.75391 0.13672-1.5156 0.27734-2.2539 0.39062-0.77734 0.11719-1.5352 0.19531-2.293 0.28125-0.73828 0.082032-1.4805 0.17578-2.2031 0.23047-0.17969 0.011719-0.34766 0.011719-0.52734 0.023437-0.10156-0.47266-0.19141-0.95703-0.28125-1.4375-0.054687-0.28516-0.11328-0.55859-0.16406-0.85156-0.14062-0.83203-0.27734-1.6992-0.40234-2.6484-0.11719-0.78516-0.24219-1.5742-0.30078-2.3633-0.019531-0.25781-0.058594-0.51562-0.12109-0.76562-0.16797-0.66016-0.19922-1.3164-0.25391-2.0312-0.007813-0.11719-0.039063-0.23047-0.054687-0.34766-0.011719-0.13672-0.019532-0.20312-0.035157-0.35938-0.027343-0.17188-0.050781-0.32422-0.074219-0.48828-0.035156-0.36719-0.074218-0.66016-0.11328-0.90625-0.03125-0.25-0.054687-0.52734-0.089843-0.74609-0.003907-0.31641-0.015626-0.73047-0.03125-0.875-0.21094-1.6094-0.35156-3.2227-0.44141-5.1836-0.13672-1.293-0.20312-2.6484-0.28516-4.2227-0.14453-2.7148-0.21875-5.4336-0.21875-8.1484 0-1.75-0.003906-3.4258 0.074219-5.168v-0.003906-0.074219c0.11328-4.2773 0.35547-8.4727 0.73438-12.574 0.45312-4.9258 1.1562-9.6719 1.9844-14.324 3.9961-22.465 12.273-41.664 24.57-56.316 2.4297-2.9062 5-5.6172 7.7109-8.1289 8.1328-7.5352 17.516-13.273 28-17.121l0.003906-0.003906c10.457-3.8242 21.98-5.7656 34.258-5.7656 58.199 0.015625 95.469 43.785 97.254 114.32zm-170.7-93.074-7.4141-8.4961c-2.4844-2.8477-3.6914-6.4922-3.3984-10.254 0.074219-0.94141 0.23828-1.8594 0.48828-2.7422 0.75391-2.6562 2.2812-5.0273 4.4531-6.8477l5.6562-4.7617c1.2656-1.0586 2.6719-1.8242 4.1289-2.375 0.097656-0.039062 0.19141-0.09375 0.28906-0.12891 1.3984-0.49219 2.8555-0.71875 4.3125-0.75391 0.19922-0.003907 0.39453-0.035157 0.59375-0.03125 0.49609 0.007812 0.99219 0.082031 1.4844 0.14453 0.36719 0.046875 0.73828 0.070312 1.1055 0.14844 0.50391 0.10547 0.99609 0.28125 1.4883 0.44531 0.33594 0.11328 0.68359 0.19141 1.0117 0.33203 0.53516 0.22656 1.043 0.52734 1.5508 0.82031 0.26172 0.15234 0.54297 0.26562 0.79688 0.4375 0.75 0.50391 1.4648 1.0781 2.125 1.7422l10.922 10.977c-1.0273 0.46484-1.9844 1.0352-2.9922 1.5352-1.0312 0.51172-2.0547 1.0273-3.0625 1.5742-2.6641 1.4531-5.25 3.0312-7.75 4.7383-0.52344 0.35547-1.0781 0.66406-1.5938 1.0312-2.9531 2.1055-5.7656 4.4141-8.4766 6.875-0.73438 0.66797-1.4258 1.3984-2.1445 2.0938-1.1875 1.1602-2.4258 2.2617-3.5742 3.4961zm-94.246 295.52c35.793-40.906 22.348-106.51 6.7734-182.47-16.309-79.848-13.164-138.59 55.191-165.75 14.641-5.8086 27.488-8.1328 38.684-8.1328 32.957 0 51.551 20.152 59.062 30.777-0.25 0.015625-0.48047 0.074219-0.72656 0.09375-4.1211 0.29688-8.1484 0.81641-12.086 1.5352-0.89844 0.16406-1.7656 0.38281-2.6523 0.57031-3.1992 0.67187-6.332 1.4844-9.3906 2.4375-0.58203 0.18359-1.2148 0.27344-1.793 0.46484l-13.711-13.777c-8.5-8.4961-21.883-9.0742-31.141-1.3242l-5.668 4.7656c-3.332 2.7969-5.6836 6.4141-7 10.438-0.097656 0.29297-0.25391 0.5625-0.33984 0.86328-0.41406 1.4609-0.6875 2.9766-0.80859 4.5312-0.48438 6.2188 1.5078 12.227 5.6094 16.922l8.3047 9.5234c-0.80859 1.043-1.5234 2.1797-2.2969 3.2578-0.82031 1.1445-1.6562 2.2734-2.4375 3.457-1.1758 1.7812-2.2656 3.6445-3.3516 5.5156-0.67969 1.1719-1.3906 2.3086-2.0352 3.5117-1.1445 2.1484-2.1875 4.3906-3.2227 6.6445-0.47266 1.0312-0.99609 2.0117-1.4453 3.0664-1.4102 3.3125-2.7109 6.7266-3.8828 10.246-0.31641 0.95312-0.5625 1.9688-0.86328 2.9375-0.81641 2.6328-1.6133 5.2773-2.2969 8.0156-0.37891 1.5156-0.67188 3.0898-1.0078 4.6367-0.5 2.2852-1 4.5664-1.4062 6.9141-0.29687 1.7148-0.52734 3.4766-0.77344 5.2266-0.32422 2.2852-0.64062 4.5742-0.88672 6.9141-0.1875 1.8086-0.32422 3.6484-0.46484 5.4883-0.10547 1.3945-0.27344 2.7461-0.35156 4.1562-1.4922-0.17578-2.9961-0.16016-4.4609 0.039062-5.0508 0.67578-9.543 3.4219-12.984 7.9375-4.9453 6.4961-7.1133 16.113-5.793 25.738 1.3164 9.6328 5.9883 18.32 12.492 23.234 1.043 0.78906 2.1172 1.4453 3.207 2.0234 0.38281 0.20312 0.76953 0.34766 1.1562 0.52344 0.71875 0.32422 1.4414 0.62891 2.1758 0.85938 0.46484 0.14844 0.92969 0.26172 1.3984 0.37109 0.68359 0.16016 1.3711 0.28516 2.0625 0.36328 0.47266 0.054688 0.94141 0.10547 1.418 0.125 0.22656 0.007813 0.44922 0.058594 0.67578 0.058594 0.83203 0 1.6641-0.058594 2.5-0.17578 0.88281-0.11719 1.75-0.30078 2.5977-0.54297 0.31641 1.1367 0.71484 2.2539 1.0508 3.3828 0.48047 1.6055 0.96484 3.2031 1.4922 4.7969 0.69141 2.1016 1.4375 4.1836 2.2031 6.2656 0.56641 1.5391 1.125 3.0781 1.7305 4.6016 0.84375 2.1211 1.7539 4.2109 2.6719 6.3008 0.63672 1.4453 1.25 2.8984 1.918 4.3281 1.0234 2.1797 2.1211 4.3125 3.2227 6.4492 0.66406 1.2891 1.2969 2.5977 1.9883 3.8711 1.3086 2.3984 2.7031 4.7422 4.1055 7.0781 0.57422 0.95312 1.1055 1.9375 1.6953 2.8789 2.0352 3.2539 4.1562 6.4414 6.375 9.5469 0.34375 0.48047 0.71484 0.92578 1.0625 1.3984 1.8906 2.5938 3.8203 5.1523 5.832 7.625 0.87891 1.082 1.8125 2.1016 2.7148 3.1562 1.3125 1.5391 2.5977 3.1172 3.957 4.6016-4.0977 39-1.2695 46.258-0.30469 48.73 1.6758 4.1211 4.6211 9.8945 8.4023 16.473-0.70703 0.70703-1.418 1.3516-2.2344 2.0312l-1.9531 1.6602s-0.27734 0.23047-0.54297 0.44141c-0.089843 0.054687-0.16797 0.11328-0.25391 0.17188-0.75 0.54688-1.5 1.1016-2.2461 1.5664-1.3008 0.82812-2.6055 1.6562-4.0742 2.3906-1.2578 0.66016-2.5156 1.3281-3.8984 1.8633-0.16406 0.066407-0.28516 0.13281-0.45703 0.20312-0.22656 0.10938-0.48828 0.23438-1.2852 0.5-0.86328 0.36719-1.7852 0.67188-2.707 0.91797-0.14062 0.035156-0.29688 0.089844-0.44922 0.15234-0.089844 0.023437-0.17578 0.046875-0.26563 0.078125-1.3789 0.45703-2.7617 0.78516-4.3242 1.0703-1.9922 0.41406-4.1172 0.68359-6.2617 0.82422l-73.379 4.9766c-0.15625 0-0.3125 0.007812-0.47266 0.027343l-1.0781 0.10156c-1.2578 0.10938-2.5352 0.23438-3.4609 0.44141-2.6562 0.375-5.2383 0.94922-7.7578 1.6562-0.83594 0.23438-1.625 0.55469-2.4453 0.82422-1.6562 0.54688-3.2969 1.1172-4.8789 1.8008-0.91406 0.39453-1.7812 0.84375-2.668 1.2812-1.4219 0.70312-2.8164 1.4414-4.1641 2.2539-0.86328 0.51953-1.6953 1.0664-2.5273 1.6289-0.58984 0.40234-1.2344 0.74219-1.8086 1.1641 4.3086-7.1172 9.9688-14.969 17.445-23.527zm61.52-188.45c0.078125 1.5195 0.16016 3.043 0.28906 4.2109 0 0.03125 0.003906 0.058594 0.007813 0.089844 0.011719 0.94141 0.082031 1.8633 0.14062 2.3633 0 0.34375 0.03125 0.6875 0.10156 1.6211l0.21094 1.9336v0.058594c0.003906 0.074219 0.023437 0.14062 0.027344 0.21094l0.019531 0.17969c0.125 0.75 0.1875 1.5039 0.23828 1.8984 0 0.34375 0.042969 0.69922 0.12891 1.0508 0.078125 0.92578 0.17578 1.8047 0.36719 2.6797 0.082031 0.89453 0.21484 1.7969 0.37109 2.8281 0.24219 1.8633 0.56641 3.7266 0.90234 5.1836 0.16797 1.3555 0.41797 2.6289 0.74609 3.8984 0.007813 0.03125 0.011719 0.058593 0.015625 0.085937 0.007812 0.058594 0.019531 0.11328 0.03125 0.17188 0.011719 0.0625 0.027344 0.12891 0.039062 0.19141 0 0.003906 0 0.007813 0.003907 0.011719l0.003906 0.019531c0.11328 0.61328 0.24609 1.25 0.39844 1.9258 0.019532 0.089843 0.035157 0.18359 0.058594 0.27344l0.0625 0.28125 0.09375 0.44922c-0.51562 0.16797-1.0273 0.33984-1.5859 0.41406-3.3047 0.48047-6.1094-1.0391-7.8945-2.3945-4.6211-3.4961-7.9766-9.9375-8.9766-17.234-0.99609-7.2852 0.50781-14.391 4.0273-19.008 1.3633-1.7852 3.6719-4.0078 6.9844-4.4453 0.80469-0.12109 1.6367-0.070313 2.4727 0.046875 0.14062 0.019531 0.28125 0.015625 0.42578 0.042969 0.015625 0.003906 0.03125 0.011719 0.046875 0.015625-0.007812 0.69922-0.007812 1.4102-0.007812 2.1289 0.007812 2.8633 0.085937 5.7383 0.25 8.8164zm307.25 346.28h-66.289v-32.824c0-2.5039-2.0312-4.5352-4.5352-4.5352-2.5039 0-4.5352 2.0312-4.5352 4.5352v32.824h-251.46v-32.824c0-2.5039-2.0312-4.5352-4.5352-4.5352s-4.5352 2.0312-4.5352 4.5352v32.824h-66.289c-3.2969-32.93-2.832-63.082 1.3672-87.414 1.0234-5.8828 2.0508-10.68 3.2422-15.121 4.6094-17.617 19.863-30.719 39.168-33.441 0.88672-0.18359 1.8047-0.25781 2.707-0.33984l0.25-0.023438c0.51172 0.039063 1.0352 0 1.5469-0.11719l72.918-4.9492c1.4727-0.09375 2.7812-0.35156 4.1641-0.54688 27.395 48.781 71.516 76.473 73.418 77.648 0.72656 0.44922 1.5547 0.67578 2.3789 0.67578 0.82813 0 1.6523-0.22656 2.3828-0.67969 1.8984-1.1719 45.945-28.855 73.332-77.633 1.3594 0.19141 2.6914 0.44531 4.082 0.53516l72.934 4.9492c0.50391 0.11719 1.0312 0.15234 1.5469 0.11719l0.25 0.023438c0.90234 0.082031 1.8242 0.15625 3.0117 0.39453 19.004 2.668 34.258 15.77 38.875 33.414 1.1836 4.418 2.2148 9.2148 3.2344 15.09 4.2031 24.336 4.668 54.488 1.375 87.418z"/>
  <path d="m497.81 678.77c-1.1562 2.2227-0.29297 4.9609 1.9297 6.1133 0.66797 0.34766 1.3828 0.51172 2.0898 0.51172 1.6367 0 3.2188-0.89062 4.0273-2.4414 23.25-44.715-2.5859-116.49-3.6992-119.53-0.85938-2.3438-3.457-3.5547-5.8164-2.6992-2.3516 0.85938-3.5625 3.4648-2.6992 5.8164 0.25781 0.71094 25.566 71.074 4.168 112.23z"/>
  <path d="m680.8 476.95c0.070312 2.457 2.0859 4.4023 4.5273 4.4023 0.042969 0 0.09375 0 0.13672-0.003906 2.5-0.074218 4.4727-2.1641 4.3984-4.6641-0.98047-33.555-35.465-67.891-36.934-69.336-1.7773-1.7578-4.6445-1.7383-6.4102 0.046875-1.7578 1.7812-1.7383 4.6523 0.042968 6.4102 0.33984 0.33203 33.359 33.25 34.238 63.145z"/>
 </g>
</svg>
