<?xml version="1.0" encoding="UTF-8"?>
<svg width="1200pt" height="1200pt" version="1.1" viewBox="0 0 1200 1200" xmlns="http://www.w3.org/2000/svg">
 <g>
  <path d="m600 0c-78.793 0-156.82 15.52-229.61 45.672s-138.94 74.348-194.65 130.07c-55.719 55.715-99.914 121.86-130.07 194.65s-45.672 150.82-45.672 229.61c0 159.13 63.215 311.74 175.74 424.26 112.52 112.52 265.13 175.73 424.27 175.73 159.13 0 311.74-63.215 424.26-175.74 112.52-112.52 175.74-265.13 175.74-424.26 0-159.13-63.215-311.74-175.73-424.27-112.52-112.52-265.13-175.74-424.26-175.74zm0 67.762c69.121 0 137.56 13.766 201.42 40.516 63.859 26.746 121.88 65.953 170.76 115.38s87.645 108.1 114.09 172.67c26.453 64.574 40.066 133.79 40.066 203.68 0 141.16-55.457 276.53-154.16 376.34-98.707 99.816-232.58 155.89-372.18 155.89-69.121 0-137.57-13.766-201.43-40.516-63.855-26.746-121.88-65.949-170.76-115.37-48.875-49.422-87.645-108.1-114.1-172.67-26.449-64.574-40.066-133.79-40.066-203.68 0-69.898 13.613-139.11 40.066-203.68 26.449-64.574 65.219-123.25 114.1-172.68 48.875-49.422 106.9-88.625 170.76-115.38 63.859-26.746 132.3-40.512 201.43-40.512z" fill="#a8aaad"/>
  <path d="m582.23 549.96h0.71484c3.8789 0 7.25-2.9609 7.5586-7.0469 0.41016-4.1875-2.7578-7.8633-6.9453-8.168-6.9453-0.61328-13.785-1.5312-20.629-2.8594 4.9023-2.5547 9.9062-5.4141 15.012-8.4766 10.109-3.8789 4.6992-18.18-5.4141-14.297-150.22 42.074-241.52-11.641-265.93-29.207-7.9648-6.7383-19.301 3.5742-10.418 11.133 2.1445 2.4492 4.4922 5.1055 7.1484 7.9648-7.7617 2.8594-15.93 5.1055-24.102 6.7383-4.1875 0.81641-6.9453 4.8008-6.1289 8.9883 0.71484 3.6758 3.9844 6.1289 7.5586 6.1289 0.51172 0 0.91797 0 1.4297-0.10156 11.336-2.1445 22.469-5.5156 33.09-10.008 1.9414 1.9414 3.9844 3.7773 6.1289 5.5156-7.0469 4.9023-14.398 9.1914-21.957 12.969-3.7773 1.9414-5.207 6.5352-3.3711 10.316 1.4297 2.6562 4.0859 4.1875 6.8438 4.1875 1.2266 0 2.3477-0.20312 3.4727-0.81641 9.4961-4.8008 18.688-10.316 27.367-16.645 2.2461 1.5312 4.4922 3.1641 6.8438 4.8008-5.8203 6.6367-12.051 12.969-18.484 18.895-3.1641 2.8594-3.2695 7.6602-0.41016 10.824 1.4297 1.6328 3.5742 2.4492 5.6172 2.4492 1.8398 0 3.6758-0.61328 5.207-2.043 7.3516-6.8438 14.605-14.195 21.242-21.957 2.3477 1.3281 4.8008 2.6562 7.25 3.9844-4.3906 8.2734-9.0898 16.34-13.992 24.102-2.2461 3.5742-1.2266 8.2734 2.3477 10.621 1.3281 0.71484 2.6562 1.125 4.0859 1.125 2.5547 0 5.0039-1.2266 6.5352-3.5742 5.207-8.2734 10.211-16.852 14.91-25.734 2.4492 1.0195 4.9023 2.043 7.4531 2.8594-2.5547 9.4961-5.5156 18.996-8.4766 28.391-1.3281 3.9844 0.91797 8.375 4.9023 9.6016 0.81641 0.30469 1.6328 0.41016 2.3477 0.41016 3.2695 0 6.332-2.043 7.3516-5.3086 3.0625-9.293 5.8203-18.895 8.4766-28.289 2.4492 0.71484 4.9023 1.3281 7.4531 1.9414-0.61328 10.418-1.3281 20.73-2.043 31.25-0.30469 4.2891 2.8594 7.8633 7.1484 8.168 0.10156 0.10156 0.30469 0.10156 0.51172 0.10156 3.9844 0 7.3516-3.1641 7.6602-7.1484 0.71484-9.9062 1.3281-19.711 1.8398-29.516 2.3477 0.41016 4.8008 0.71484 7.25 0.91797 1.6328 10.824 3.4727 21.855 5.3086 32.781 0.61328 3.7773 3.8789 6.4336 7.5586 6.4336 0.41016 0 0.81641-0.10156 1.2266-0.10156 4.1875-0.71484 7.0469-4.6992 6.332-8.8828-1.6328-9.8047-3.2695-19.609-4.6992-29.309 1.2266 0.10156 2.5547 0.10156 3.7773 0.10156h2.9609c4.1875 10.926 8.5781 21.855 13.277 32.578 1.2266 2.8594 3.9844 4.5938 6.9453 4.5938 1.0195 0 2.043-0.20312 3.0625-0.61328 3.8789-1.7344 5.7188-6.2305 3.9844-10.109-3.8789-8.9883-7.6602-18.18-11.133-27.367 2.1445-0.20312 4.2891-0.41016 6.4336-0.81641 6.6367 10.316 13.785 20.426 21.344 30.23 1.5312 1.9414 3.7773 3.0625 6.1289 3.0625 1.6328 0 3.2695-0.61328 4.6992-1.6328 3.2695-2.5547 3.8789-7.3516 1.3281-10.723-5.9219-7.6602-11.539-15.625-16.852-23.691 1.9414-0.30469 3.8789-0.81641 5.9219-1.3281l0.20312 0.20312c9.1914 8.9883 18.996 17.465 29.207 25.121 1.3281 1.125 2.9609 1.6328 4.5938 1.6328 2.3477 0 4.5938-1.0195 6.1289-3.0625 2.5547-3.3711 1.8398-8.168-1.4297-10.723-7.3516-5.6172-14.5-11.539-21.344-17.871 1.8398-0.61328 3.7773-1.2266 5.7188-1.9414 0 0 0.10156 0.20312 0.20312 0.20312 11.539 6.9453 23.691 12.867 36.051 17.668 0.91797 0.30469 1.8398 0.51172 2.7578 0.51172 3.0625 0 5.9219-1.8398 7.1484-4.9023 1.5312-3.9844-0.41016-8.375-4.3906-9.9062-7.8633-3.0625-15.625-6.5352-23.078-10.621 1.8398-0.71484 3.6758-1.5312 5.6172-2.4492 13.184 4.0664 26.867 6.6172 40.551 7.7422z"/>
  <path d="m916.48 520.75c0.51172 0.10156 1.0195 0.10156 1.5312 0.10156 3.5742 0 6.7383-2.4492 7.4531-6.1289 0.81641-4.1875-1.9414-8.168-6.0234-8.9883-8.2734-1.6328-16.137-3.8789-24-6.7383 2.6562-2.8594 4.8008-5.7188 7.1484-7.9648 7.1484-6.9453-3.4727-17.973-10.621-11.031-24.715 17.77-115.5 71.078-264.5 29.105-1.0195-0.30469-15.828 2.6562-5.4141 14.297 5.0039 3.0625 10.008 5.8203 14.809 8.4766-6.8438 1.3281-13.582 2.2461-20.426 2.8594-4.1875 0.30469-7.3516 3.9844-7.0469 8.168 0.30469 4.0859 3.6758 7.0469 7.6602 7.0469h0.61328c13.582-1.125 27.164-3.6758 40.34-7.7617 1.9414 0.91797 3.8789 1.7344 5.7188 2.4492-7.5586 4.0859-15.215 7.5586-23.078 10.621-3.8789 1.5312-5.8203 5.9219-4.3906 9.9062 1.2266 3.0625 4.0859 4.9023 7.1484 4.9023 0.91797 0 1.9414-0.20312 2.8594-0.51172 12.254-4.8008 24.305-10.723 35.742-17.668 0.10156 0 0.10156-0.10156 0.20313-0.20312 1.9414 0.71484 3.8789 1.3281 5.7188 1.9414-6.8438 6.332-13.891 12.254-21.141 17.871-3.3711 2.5547-4.0859 7.3516-1.5312 10.723 1.5312 2.043 3.8789 3.0625 6.1289 3.0625 1.6328 0 3.2695-0.51172 4.6992-1.5312 10.109-7.7617 19.812-16.238 29.004-25.223l0.20312-0.20312c2.043 0.61328 4.0859 1.0195 6.0234 1.3281-5.3086 8.0664-11.031 16.035-16.852 23.691-2.5547 3.2695-1.9414 8.168 1.4297 10.723 1.3281 1.0195 3.0625 1.6328 4.6992 1.6328 2.2461 0 4.4922-1.125 6.0234-3.0625 7.4531-9.7031 14.605-19.812 21.344-30.23 2.1445 0.41016 4.2891 0.61328 6.4336 0.81641-3.5742 9.0898-7.3516 18.281-11.234 27.367-1.6328 3.8789 0.10156 8.375 3.9844 10.109 1.0195 0.41016 2.043 0.61328 3.0625 0.61328 2.9609 0 5.8203-1.7344 7.0469-4.5938 4.6992-10.926 9.1914-21.855 13.07-32.578h2.9609c1.3281 0 2.6562 0 3.8789-0.10156-1.4297 9.7031-3.0625 19.504-4.6992 29.309-0.71484 4.1875 2.1445 8.168 6.2305 8.8828 0.51172 0 0.91797 0.10156 1.3281 0.10156 3.6758 0 6.9453-2.6562 7.5586-6.4336 1.8398-10.926 3.5742-21.855 5.207-32.781 2.4492-0.20312 4.9023-0.51172 7.25-0.91797 0.61328 9.8047 1.2266 19.609 1.9414 29.516 0.30469 3.9844 3.5742 7.1484 7.5586 7.1484 0.20313 0 0.41016 0 0.61328-0.10156 4.1875-0.30469 7.3516-3.8789 7.0469-8.168-0.71484-10.52-1.3281-20.832-1.9414-31.25 2.5547-0.61328 5.0039-1.2266 7.4531-1.9414 2.5547 9.6016 5.4141 19.098 8.4766 28.289 1.0195 3.2695 3.9844 5.3086 7.25 5.3086 0.81641 0 1.5312-0.10156 2.3477-0.41016 3.9844-1.2266 6.2305-5.6172 4.9023-9.6016-2.9609-9.1914-5.8203-18.789-8.4766-28.391 2.6562-0.81641 5.1055-1.8398 7.5586-2.8594 4.6992 8.8828 9.7031 17.465 14.809 25.734 1.4297 2.3477 3.8789 3.5742 6.4336 3.5742 1.4297 0 2.8594-0.41016 4.0859-1.125 3.5742-2.3477 4.6992-7.0469 2.4492-10.621-4.9023-7.7617-9.6016-15.828-13.891-24.102 2.4492-1.3281 4.9023-2.6562 7.25-3.9844 6.6367 7.7617 13.684 15.113 21.141 21.957 1.4297 1.4297 3.3711 2.043 5.207 2.043 2.043 0 4.0859-0.81641 5.6172-2.4492 2.8594-3.1641 2.6562-7.9648-0.41016-10.824-6.5352-5.9219-12.664-12.355-18.484-18.895 2.4492-1.6328 4.6992-3.2695 6.9453-4.9023 8.6797 6.4336 17.77 11.949 27.164 16.75 1.125 0.61328 2.3477 0.81641 3.4727 0.81641 2.7578 0 5.5156-1.5312 6.8438-4.1875 1.9414-3.7773 0.41016-8.375-3.3711-10.316-7.4531-3.7773-14.707-8.0664-21.754-12.969 2.1445-1.8398 4.1875-3.6758 6.1289-5.5156 9.8125 4.5078 20.844 7.8789 32.078 10.023z"/>
  <path d="m650.14 723.47c-5.4141 1.2266-10.824-0.51172-15.93-2.9609-4.9023-2.6562-9.7031-5.8203-14.605-8.4766-7.1484-3.7773-15.93 0.71484-15.93 0.71484s-8.6797-4.4922-15.93-0.71484c-4.9023 2.6562-9.7031 5.8203-14.605 8.4766-5.0039 2.5547-10.52 4.1875-15.93 2.9609 11.133 12.664 22.262 25.02 46.363 25.02 24.098 0 35.535-12.355 46.566-25.02z"/>
  <path d="m919.34 626.45h-638.68c-4.1875 0-7.6602 3.4727-7.6602 7.6602s3.4727 7.6602 7.6602 7.6602h75.367c-5.9219 25.531-10.211 77.102 39.215 110.19 7.8633 5.1055 13.891 12.867 16.34 22.059v0.10156s0 0.10156 0.10156 0.30469c11.133 40.645-4.1875 75.164-46.16 72.098 0 0 37.273 32.578 90.992 0.71484l9.9062 11.336c6.0234 6.1289 12.355 12.254 19.301 18.18 8.375 7.1484 16.137 14.809 21.547 24.305-9.0898 15.113-20.832 28.695-36.254 39.727-2.7578 1.9414-3.8789 5.4141-2.8594 8.5781 1.0195 3.1641 3.9844 5.3086 7.25 5.3086h256.84c3.3711 0 6.332-2.1445 7.25-5.3086 1.0195-3.1641-0.10156-6.6367-2.8594-8.5781-0.91797-0.61328-1.7344-1.4297-2.6562-2.043-1.6328-28.289-7.9648-48.715-7.9648-48.715l-10.824-50.145c4.9023-11.848 14.398-25.633 31.66-41.359 37.582-34.621 52.594-86.09 58.617-123.77l-2.6562 33.395c30.23-16.645 43.605-41.258 48.203-66.379h68.117c4.1875 0 7.6602-3.4727 7.6602-7.6602 0.003906-4.1836-3.2656-7.6562-7.4492-7.6562zm-368.26 149.41c-0.10156-0.10156-0.20313-0.10156-0.41016-0.20312-46.672-24.816-86.09-78.637-109.99-133.98l133.79-0.003906c5.207 11.848 16.441 16.852 29.41 16.852 13.07 0 24.203-5.0039 29.41-16.852h133.88c-24 55.352-63.52 109.27-110.29 133.98-16.852 8.8828-34.621 14.195-53.004 14.195-18.277 0.10547-35.945-5.1055-52.793-13.988zm-54.535 163.5c42.586-41.77 52.492-104.57 57.188-145.43 16.035 7.1484 32.883 11.336 50.145 11.336 17.359 0 34.211-4.1875 50.246-11.336 4.6992 40.848 14.605 103.76 57.188 145.53h-214.77z"/>
  <path d="m280.66 460.6h168.81 0.20312 0.10156 353.96 0.20312 0.10156 115.2c4.1875 0 7.6602-3.4727 7.6602-7.6602s-3.4727-7.6602-7.6602-7.6602h-95.895c5.418-168.2-138.07-202.3-211.7-199.85-80.168 2.5547-238.15 45.957-250 199.86h-80.984c-4.1875 0-7.6602 3.4727-7.6602 7.6602 0.003906 4.1836 3.4727 7.6562 7.6602 7.6562zm452.61-34.926c4.2891 1.2266 8.168 2.5547 12.152 3.8789 0.20312 0.30469 0.41016 0.61328 0.51172 0.91797 2.2461 4.8008 4.0859 9.8047 5.9219 14.91l-261.74 0.003907c61.172-27.062 94.977-66.379 112.95-95.586 22.363 25.734 61.988 57.086 130.21 75.875z"/>
 </g>
</svg>
