<?xml version="1.0" encoding="UTF-8"?>
<svg width="1200pt" height="1200pt" version="1.1" viewBox="0 0 1200 1200" xmlns="http://www.w3.org/2000/svg">
 <g>
  <path d="m600 0c-78.793 0-156.82 15.52-229.61 45.672s-138.94 74.348-194.65 130.07c-55.719 55.715-99.914 121.86-130.07 194.65s-45.672 150.82-45.672 229.61c0 159.13 63.215 311.74 175.74 424.26 112.52 112.52 265.13 175.73 424.27 175.73 159.13 0 311.74-63.215 424.26-175.74 112.52-112.52 175.74-265.13 175.74-424.26 0-159.13-63.215-311.74-175.73-424.27-112.52-112.52-265.13-175.74-424.26-175.74zm0 67.762c69.121 0 137.56 13.766 201.42 40.516 63.859 26.746 121.88 65.953 170.76 115.38s87.645 108.1 114.09 172.67c26.453 64.574 40.066 133.79 40.066 203.68 0 141.16-55.457 276.53-154.16 376.34-98.707 99.816-232.58 155.89-372.18 155.89-69.121 0-137.57-13.766-201.43-40.516-63.855-26.746-121.88-65.949-170.76-115.37-48.875-49.422-87.645-108.1-114.1-172.67-26.449-64.574-40.066-133.79-40.066-203.68 0-69.898 13.613-139.11 40.066-203.68 26.449-64.574 65.219-123.25 114.1-172.68 48.875-49.422 106.9-88.625 170.76-115.38 63.859-26.746 132.3-40.512 201.43-40.512z" fill="#a8aaad"/>
  <path d="m675.02 381.75c14.492 31.031 14.492 79.723 0 146.07h151.34c11.824 0 21.41 9.5859 21.41 21.41l-0.003906 0.49609-0.019531 0.49609c-7.9141 170.98-38.844 265.34-92.797 283.1h-256.02v16.059c0 8.8711-7.1914 16.059-16.059 16.059h-112.41c-8.8672 0-16.059-7.1875-16.059-16.059v-321.18c0-8.8672 7.1914-16.059 16.059-16.059h112.41c8.8672 0 16.059 7.1914 16.059 16.059v18.645c12.453 0.074219 29.672 0.039063 46.121-37.098 28.09-63.418 3.0742-119.3 27.246-154.85 24.168-35.551 80.984-19.699 102.73 26.848zm-194.99 149.29h-106.74v315.51h106.74zm107.88-165.52-0.69141 1.0508c-6.0859 9.543-7.7383 20.777-8.1211 49.293l-0.0625 5.457-0.066406 4.5156c-0.6875 40.703-3.9609 62.91-16.652 91.562-2.543 5.7422-5.1953 10.906-7.9766 15.527-15.164 25.219-30.852 32.586-53.844 32.805v248.7h251.13l1.25-0.53125c40.699-17.934 68.113-104.48 75.766-259.82l0.22656-4.7891-0.019531-0.37109c-0.15234-1.2422-1.2148-2.2031-2.4961-2.2031h-151.34c-12.062 0-21.031-11.145-18.461-22.926l1.0039-4.668c12.68-60.242 12.379-103.6 0.33594-129.38-16.398-35.109-55.469-45.566-69.984-24.219z"/>
 </g>
</svg>
