<?xml version="1.0" encoding="UTF-8"?>
<svg width="1200pt" height="1200pt" version="1.1" viewBox="0 0 1200 1200" xmlns="http://www.w3.org/2000/svg">
 <g>
  <path d="m600 0c-78.793 0-156.82 15.52-229.61 45.672s-138.94 74.348-194.65 130.07c-55.719 55.715-99.914 121.86-130.07 194.65s-45.672 150.82-45.672 229.61c0 159.13 63.215 311.74 175.74 424.26 112.52 112.52 265.13 175.73 424.27 175.73 159.13 0 311.74-63.215 424.26-175.74 112.52-112.52 175.74-265.13 175.74-424.26 0-159.13-63.215-311.74-175.73-424.27-112.52-112.52-265.13-175.74-424.26-175.74zm0 67.762c69.121 0 137.56 13.766 201.42 40.516 63.859 26.746 121.88 65.953 170.76 115.38s87.645 108.1 114.09 172.67c26.453 64.574 40.066 133.79 40.066 203.68 0 141.16-55.457 276.53-154.16 376.34-98.707 99.816-232.58 155.89-372.18 155.89-69.121 0-137.57-13.766-201.43-40.516-63.855-26.746-121.88-65.949-170.76-115.37-48.875-49.422-87.645-108.1-114.1-172.67-26.449-64.574-40.066-133.79-40.066-203.68 0-69.898 13.613-139.11 40.066-203.68 26.449-64.574 65.219-123.25 114.1-172.68 48.875-49.422 106.9-88.625 170.76-115.38 63.859-26.746 132.3-40.512 201.43-40.512z" fill="#a8aaad"/>
  <path d="m598.48 288.5c38.996 0 77.988 9.0703 113.66 25.996-9.8242-43.984-56.375-77.234-112.15-77.234-55.469 0-101.72 32.797-112 76.328 1.0547-0.45313 2.1172-1.0547 3.1758-1.5117 34.156-15.719 70.281-23.578 107.31-23.578z"/>
  <path d="m534.54 387.04c-27.055 12.395-51.387 29.625-72.246 50.785 116.2-74.109 312.75-43.664 366.37 118.2 6.0469 2.418 11.789 5.5938 17.078 9.8242-0.75781-198.53-196.43-231.91-311.2-178.8z"/>
  <path d="m525.17 366.48c34.008-15.871 70.734-23.879 108.67-23.879 47.762 0 93.859 13.148 134.37 37.332-66.652-63.48-170.94-91.594-267.52-47.309-86.152 39.598-146.16 129.07-146.46 233.21 5.2891-4.2305 11.035-7.4062 17.078-9.8242 19.812-59.977 43.309-139.07 153.86-189.54z"/>
  <path d="m505.07 665.48c0.14062 6.4141 0.85547 12.828 3.5625 19.242 2.8477-6.4141 3.4219-12.824 3.5625-19.242-0.14453-6.4141-0.71484-12.828-3.5625-19.242-2.707 6.418-3.418 12.828-3.5625 19.242z"/>
  <path d="m505.07 593.22c0.14062 6.4141 0.85547 12.824 3.5625 19.242 2.8477-6.4141 3.4219-12.828 3.5625-19.242-0.14453-6.4141-0.71484-12.828-3.5625-19.242-2.707 6.4141-3.418 12.828-3.5625 19.242z"/>
  <path d="m480.99 581.39c0.71484 6.8398 3.4219 12.828 6.5547 18.387 3.2773 5.5586 6.9844 10.691 12.684 14.965-0.85547-6.9844-3.4219-12.828-6.5547-18.531-3.2773-5.4141-7.1289-10.688-12.684-14.82z"/>
  <path d="m517.19 643.96c0.71094 6.9844 3.4219 12.828 6.5547 18.527 3.2773 5.418 6.9844 10.691 12.684 14.824-0.85547-6.8398-3.4219-12.824-6.5547-18.387-3.418-5.5586-7.125-10.691-12.684-14.965z"/>
  <path d="m714.48 599.78c3.1367-5.5586 5.6992-11.547 6.5547-18.387-5.6992 4.1328-9.4062 9.4062-12.684 14.824-3.1367 5.6992-5.8438 11.547-6.5547 18.531 5.5586-4.2812 9.2617-9.4102 12.684-14.969z"/>
  <path d="m541.85 644.39c-5.6992-3.1367-11.547-5.7031-18.527-6.5586 4.1328 5.5586 9.4062 9.4062 14.965 12.688 5.5586 3.1367 11.402 5.6992 18.387 6.5547-4.1367-5.6992-9.4102-9.4062-14.824-12.684z"/>
  <path d="m487.54 658.93c-3.1367 5.5586-5.8438 11.547-6.5547 18.387 5.5586-4.1328 9.4062-9.4062 12.684-14.824 3.1367-5.6992 5.7031-11.543 6.5547-18.527-5.6992 4.2734-9.4062 9.4062-12.684 14.965z"/>
  <path d="m493.96 637.84c-6.8398 0.71484-12.828 3.4219-18.387 6.5586-5.5586 3.2773-10.691 7.125-14.965 12.684 6.9844-0.85547 12.828-3.4219 18.531-6.5547 5.4141-3.2812 10.688-7.1289 14.82-12.688z"/>
  <path d="m523.32 620.88c6.9844-0.85547 12.828-3.4219 18.527-6.5547 5.4141-3.2773 10.691-7.125 14.824-12.684-6.9844 0.85547-12.828 3.4219-18.387 6.5547-5.5586 3.2773-10.832 7.125-14.965 12.684z"/>
  <path d="m529.88 599.78c3.1367-5.5586 5.6992-11.547 6.5547-18.387-5.6992 4.1328-9.4062 9.4062-12.684 14.824-3.1367 5.6992-5.8438 11.547-6.5547 18.531 5.5547-4.2812 9.2617-9.4102 12.684-14.969z"/>
  <path d="m525.6 629.29c6.4141 2.8477 12.828 3.4219 19.242 3.5625 6.4141 0 12.828-0.71484 19.242-3.5625-6.4141-2.7109-12.828-3.4219-19.242-3.4219-6.4141 0.14062-12.828 0.71094-19.242 3.4219z"/>
  <path d="m491.82 629.29c-6.4141-2.7109-12.973-3.4219-19.387-3.4219-6.4141 0.14453-12.828 0.71484-19.242 3.4219 6.4141 2.8477 12.828 3.4219 19.242 3.5625 6.4141 0 12.973-0.71484 19.387-3.5625z"/>
  <path d="m475.57 614.32c5.5586 3.1367 11.547 5.8438 18.387 6.5547-4.1328-5.5586-9.4062-9.4062-14.824-12.684-5.7031-3.1367-11.547-5.7031-18.531-6.5547 4.2812 5.5586 9.4102 9.4062 14.969 12.684z"/>
  <path d="m810.56 574.39c-27.484-100.18-111.27-151.86-210.49-151.86s-183.1 51.684-210.62 151.86c-32.203 4.6211-57.418 46.23-57.418 96.926 0 53.785 28.375 97.387 63.379 97.387 1.3516 0 2.6758-0.18359 4.0117-0.3125 34.582 106.07 111.4 194.35 200.64 194.35 89.242 0 165.99-88.273 200.53-194.35 1.3242 0.12891 2.6406 0.30859 3.9844 0.30859 35.004 0 63.379-43.602 63.379-97.387 0-50.688-25.203-92.293-57.402-96.926zm-301.86 120.17c-36.062 0-65.277-29.219-65.277-65.277 0-35.918 29.219-65.137 65.277-65.137 35.918 0 65.137 29.219 65.137 65.137 0.003906 36.059-29.219 65.277-65.137 65.277zm119.27 63.297h-54.074c-7.3867 0-12.09-11.922-8.3945-21.492l27.035-69.355c3.6953-9.7422 13.098-9.7422 16.793 0l27.035 69.355c3.6953 9.5703-1.0039 21.492-8.3945 21.492zm65.336-63.297c-36.062 0-65.277-29.219-65.277-65.277 0-35.918 29.219-65.137 65.277-65.137 35.918 0 65.137 29.219 65.137 65.137 0 36.059-29.219 65.277-65.137 65.277z"/>
  <path d="m689.68 593.22c0.14062 6.4141 0.85547 12.824 3.5625 19.242 2.8516-6.4141 3.4219-12.828 3.5625-19.242-0.14453-6.4141-0.71484-12.828-3.5625-19.242-2.707 6.4141-3.4219 12.828-3.5625 19.242z"/>
  <path d="m701.79 643.96c0.71484 6.9844 3.4219 12.828 6.5547 18.527 3.2773 5.418 6.9844 10.691 12.684 14.824-0.85547-6.8398-3.4219-12.824-6.5547-18.387-3.418-5.5586-7.1211-10.691-12.684-14.965z"/>
  <path d="m689.68 665.48c0.14062 6.4141 0.85547 12.828 3.5625 19.242 2.8516-6.4141 3.4219-12.824 3.5625-19.242-0.14453-6.4141-0.71484-12.828-3.5625-19.242-2.707 6.418-3.4219 12.828-3.5625 19.242z"/>
  <path d="m710.2 629.29c6.4141 2.8477 12.828 3.4219 19.242 3.5625 6.4141 0 12.828-0.71484 19.242-3.5625-6.4141-2.7109-12.828-3.4219-19.242-3.4219-6.4141 0.14062-12.828 0.71094-19.242 3.4219z"/>
  <path d="m665.59 581.39c0.71484 6.8398 3.4219 12.828 6.5547 18.387 3.2773 5.5586 6.9844 10.691 12.684 14.965-0.85547-6.9844-3.4219-12.828-6.5547-18.531-3.2734-5.4141-7.125-10.688-12.684-14.82z"/>
  <path d="m726.45 644.39c-5.6992-3.1367-11.547-5.7031-18.527-6.5586 4.1328 5.5586 9.4062 9.4062 14.965 12.688 5.5586 3.1367 11.402 5.6992 18.387 6.5547-4.1367-5.6992-9.4062-9.4062-14.824-12.684z"/>
  <path d="m660.18 614.32c5.5586 3.1367 11.547 5.8438 18.387 6.5547-4.1328-5.5586-9.4062-9.4062-14.824-12.684-5.7031-3.1367-11.547-5.7031-18.531-6.5547 4.2773 5.5586 9.4102 9.4062 14.969 12.684z"/>
  <path d="m676.43 629.29c-6.4141-2.7109-12.973-3.4219-19.383-3.4219-6.4141 0.14453-12.828 0.71484-19.242 3.4219 6.4141 2.8477 12.828 3.4219 19.242 3.5625 6.4102 0 12.969-0.71484 19.383-3.5625z"/>
  <path d="m707.92 620.88c6.9844-0.85547 12.828-3.4219 18.527-6.5547 5.418-3.2773 10.691-7.125 14.824-12.684-6.9844 0.85547-12.828 3.4219-18.387 6.5547-5.5547 3.2773-10.828 7.125-14.965 12.684z"/>
  <path d="m678.56 637.84c-6.8398 0.71484-12.828 3.4219-18.387 6.5586-5.5586 3.2773-10.691 7.125-14.965 12.684 6.9844-0.85547 12.828-3.4219 18.531-6.5547 5.4141-3.2812 10.688-7.1289 14.82-12.688z"/>
  <path d="m672.15 658.93c-3.1367 5.5586-5.8438 11.547-6.5547 18.387 5.5586-4.1328 9.4062-9.4062 12.684-14.824 3.1367-5.6992 5.6992-11.543 6.5547-18.527-5.6992 4.2734-9.4062 9.4062-12.684 14.965z"/>
 </g>
</svg>
