<?xml version="1.0" encoding="UTF-8"?>
<svg width="1200pt" height="1200pt" version="1.1" viewBox="0 0 1200 1200" xmlns="http://www.w3.org/2000/svg">
 <g>
  <path d="m600 0c-78.793 0-156.82 15.52-229.61 45.672s-138.94 74.348-194.65 130.07c-55.719 55.715-99.914 121.86-130.07 194.65s-45.672 150.82-45.672 229.61c0 159.13 63.215 311.74 175.74 424.26 112.52 112.52 265.13 175.73 424.27 175.73 159.13 0 311.74-63.215 424.26-175.74 112.52-112.52 175.74-265.13 175.74-424.26 0-159.13-63.215-311.74-175.73-424.27-112.52-112.52-265.13-175.74-424.26-175.74zm0 67.762c69.121 0 137.56 13.766 201.42 40.516 63.859 26.746 121.88 65.953 170.76 115.38s87.645 108.1 114.09 172.67c26.453 64.574 40.066 133.79 40.066 203.68 0 141.16-55.457 276.53-154.16 376.34-98.707 99.816-232.58 155.89-372.18 155.89-69.121 0-137.57-13.766-201.43-40.516-63.855-26.746-121.88-65.949-170.76-115.37-48.875-49.422-87.645-108.1-114.1-172.67-26.449-64.574-40.066-133.79-40.066-203.68 0-69.898 13.613-139.11 40.066-203.68 26.449-64.574 65.219-123.25 114.1-172.68 48.875-49.422 106.9-88.625 170.76-115.38 63.859-26.746 132.3-40.512 201.43-40.512z" fill="#a8aaad"/>
  <path d="m889.64 798.35-13.043-1.9062 0.29297-2.0312c0.64844-4.4492-0.46875-8.8867-3.1523-12.484-2.6836-3.6133-6.6133-5.9492-11.062-6.5977l-19.254-2.8125c-4.4375-0.67969-8.8789 0.46875-12.484 3.1523-3.6133 2.6836-5.9531 6.6133-6.5977 11.062l-3.7422 25.598-159.73-23.336 3.7422-25.59c0.64844-4.4492-0.46875-8.8867-3.1523-12.484-2.6836-3.6133-6.6133-5.9492-11.062-6.5977l-19.246-2.8125c-4.4648-0.67969-8.8867 0.46094-12.492 3.1523-3.6133 2.6836-5.9531 6.6133-6.6055 11.062l-0.30078 2.0469-13.043-1.9062c-9.1836-1.3008-17.746 5.0391-19.082 14.223l-9.2031 63.02c-0.64844 4.4492 0.46875 8.8867 3.1523 12.484 2.6836 3.6133 6.6133 5.9492 11.062 6.5977l13.035 1.9062-0.29297 2.0391c-0.64062 4.4492 0.47656 8.8789 3.1602 12.484 2.6836 3.6055 6.6133 5.9492 11.055 6.5898l19.254 2.8203h0.007812c0.82422 0.12891 1.6484 0.17969 2.4648 0.17969 3.5977 0 7.0898-1.1484 10.02-3.3398 3.6055-2.6836 5.9492-6.6133 6.5977-11.062l3.7422-25.59 159.73 23.328-3.7422 25.59c-1.3359 9.1914 5.0469 17.75 14.223 19.082l19.246 2.8125c0.83203 0.12891 1.6562 0.17969 2.4844 0.17969 3.5898 0 7.0742-1.1484 10.004-3.332 3.6055-2.6836 5.9531-6.6133 6.5977-11.062l0.30078-2.0469 13.035 1.9062c0.83203 0.12891 1.6562 0.17969 2.4844 0.17969 3.5898 0 7.082-1.1484 10.012-3.332 3.6055-2.6836 5.9492-6.6133 6.5977-11.062l9.2109-63.027c1.3359-9.168-5.0312-17.73-14.215-19.082zm-302.83 38.879c-0.58203-0.089843-0.92969-0.41406-1.1172-0.67187-0.19531-0.25781-0.40625-0.69531-0.31641-1.2773l9.1953-63.02c0.13672-0.9375 0.98828-1.5625 1.9492-1.4492l13.035 1.9062-9.7031 66.418zm47.504 25.523c-0.26562 0.1875-0.67188 0.42969-1.2695 0.32422l-19.262-2.8203c-0.58203-0.089844-0.9375-0.41406-1.125-0.67188-0.19531-0.25781-0.40625-0.69531-0.32422-1.2695l14.668-100.41c0.082031-0.58203 0.40625-0.92969 0.66406-1.125 0.26563-0.1875 0.71094-0.40625 1.2773-0.31641l19.262 2.8125c0.58203 0.089843 0.92969 0.41406 1.1172 0.67187 0.19531 0.25781 0.40625 0.69531 0.32422 1.2773l-14.668 100.4c-0.082031 0.57031-0.41016 0.92578-0.66406 1.125zm21.543-39.496 2.8203-19.324 159.73 23.336-2.8281 19.324zm190.74 70.5c-0.25781 0.1875-0.65625 0.42188-1.2695 0.31641l-19.262-2.8125c-0.58203-0.089843-0.9375-0.41406-1.125-0.67187-0.19531-0.25781-0.40625-0.69531-0.32422-1.2773l14.668-100.4c0.082032-0.58203 0.40625-0.92969 0.66406-1.125 0.21875-0.16016 0.55859-0.33984 1.0117-0.33984 0.082031 0 0.16797 0.007813 0.25781 0.023438h0.007812l19.262 2.8125c0.58203 0.089844 0.92969 0.41406 1.1172 0.67188 0.19531 0.25781 0.40625 0.69531 0.32422 1.2773l-14.66 100.4c-0.082031 0.58203-0.40625 0.92969-0.67188 1.125zm33.102-15.484c-0.082031 0.57422-0.41406 0.92969-0.67188 1.1172-0.25781 0.19531-0.6875 0.42969-1.2695 0.32422l-13.043-1.9062 9.7031-66.418 13.027 1.9062c0.94531 0.14453 1.5938 1.0117 1.457 1.9492z"/>
  <path d="m323.63 805.96c1.7148 4.1641 4.9414 7.3984 9.0898 9.1289 2.0859 0.86719 4.2773 1.3008 6.4688 1.3008 2.1758 0 4.3438-0.42969 6.4141-1.2773l12.184-5.0273 0.78516 1.9102c2.6836 6.4844 8.9688 10.406 15.582 10.406 2.1367 0 4.3086-0.40625 6.4023-1.2695l17.992-7.4141v-0.007812c8.5781-3.543 12.672-13.398 9.1367-21.969l-9.8633-23.91 149.23-61.555 9.8555 23.902c2.6758 6.4844 8.9609 10.422 15.582 10.414 2.1328 0 4.3008-0.40625 6.3945-1.2617l17.984-7.4219c4.1562-1.7148 7.3984-4.9414 9.1289-9.0898 1.7305-4.1562 1.7305-8.7266 0.015625-12.879l-0.78516-1.9102 12.191-5.0273c8.5703-3.5352 12.672-13.391 9.1367-21.969l-24.281-58.887c-3.5352-8.5703-13.391-12.66-21.977-9.1445l-12.184 5.0273-0.77734-1.8984c-3.5352-8.5781-13.383-12.664-21.977-9.1523l-17.984 7.4219c-4.1562 1.7148-7.3984 4.9414-9.1289 9.0898-1.7305 4.1562-1.7305 8.7266-0.015625 12.879l9.8633 23.91-149.23 61.547-9.8633-23.91c-1.7148-4.1562-4.9414-7.3906-9.0977-9.1133-4.1484-1.7305-8.7227-1.7305-12.887-0.023438l-17.984 7.4141c-4.1562 1.7227-7.3984 4.9492-9.1289 9.0977-1.7305 4.1484-1.7305 8.7227-0.015625 12.879l0.78516 1.9062-12.176 5.0273c-4.1562 1.7148-7.3984 4.9414-9.1289 9.0898-1.7305 4.1562-1.7305 8.7266-0.015626 12.879zm262.43-178.98c0.875-0.35547 1.8906 0.066406 2.2539 0.92969l24.281 58.879c0.36328 0.875-0.054688 1.8828-0.92969 2.2461l-12.191 5.0273-25.59-62.051zm-53.859 2.3281c0.12891-0.29297 0.38672-0.70312 0.92188-0.92188h0.007812l17.984-7.4219c0.21094-0.089844 0.4375-0.13672 0.65625-0.13672 0.67188 0 1.3164 0.40625 1.5859 1.0664l38.691 93.812c0.21875 0.53516 0.12109 1.0117 0 1.3086-0.12109 0.29297-0.38672 0.70312-0.92969 0.92188l-17.984 7.4219c-0.86328 0.37109-1.8906-0.054687-2.2461-0.92969l-38.691-93.812c-0.21484-0.54688-0.11719-1.0156 0.003907-1.3086zm1.6562 44.957 7.4375 18.039-149.23 61.555-7.4375-18.047zm-199.99 36.84c0.12891-0.29297 0.38672-0.70312 0.9375-0.92188l17.992-7.4219c0.23438-0.097657 0.45312-0.12891 0.64844-0.12891 0.26562 0 0.49219 0.058594 0.65625 0.13672 0.30078 0.12891 0.70312 0.38672 0.92969 0.92188l38.691 93.812c0.36328 0.86719-0.058594 1.875-0.9375 2.2461l-17.992 7.4141c-0.875 0.33203-1.8828-0.058593-2.2383-0.92969l-38.684-93.812c-0.23047-0.53516-0.125-1.0117-0.003907-1.3164zm-20.543 28.906c0.12891-0.29297 0.38672-0.70312 0.92969-0.92188l12.184-5.0273 25.59 62.043-12.184 5.0312c-0.54297 0.21094-1.0117 0.12891-1.3086-0.007813-0.30078-0.12891-0.70312-0.38672-0.92969-0.92969l-24.281-58.879c-0.21875-0.53516-0.12109-1.0117 0-1.3086z"/>
  <path d="m332.89 590.77h536.01c19.195 0 34.816-15.613 34.816-34.809v-89.703c0-19.203-15.621-34.816-34.816-34.816h-139.58c-0.45312-70.816-37.09-94.918-51.125-101.55v-5.5547c0-12.039-9.7852-21.832-21.824-21.832h-115.25c-12.039 0-21.832 9.793-21.832 21.832v5.5547c-14.035 6.6211-50.68 30.727-51.125 101.55h-135.28c-19.203 0-34.816 15.613-34.816 34.816v89.703c-0.007813 19.195 15.613 34.809 34.816 34.809zm154.58-144.22v129.11h-23.602v-129.11zm245.56 0v129.11h-23.609v-129.11zm-38.723 129.11h-191.73v-129.11h191.73zm194.29-109.4v89.703c0 10.867-8.8359 19.695-19.703 19.695h-120.75v-129.11h120.75c10.859 0 19.695 8.8398 19.695 19.707zm-354.19-141.92c0-3.7031 3.0078-6.7188 6.7188-6.7188h115.25c3.7031 0 6.7109 3.0078 6.7109 6.7188v3.0469h-128.68zm-6.2656 18.168h141.18c6.1055 2.3516 44.406 19.938 44.891 88.941l-230.93-0.003907c0.47656-68.91 38.23-86.414 44.867-88.938zm-214.96 123.75c0-10.867 8.8438-19.703 19.703-19.703h115.88v129.11l-115.87 0.003907c-10.867 0-19.703-8.8359-19.703-19.695v-89.711z"/>
 </g>
</svg>
