<?xml version="1.0" encoding="UTF-8"?>
<svg width="1200pt" height="1200pt" version="1.1" viewBox="0 0 1200 1200" xmlns="http://www.w3.org/2000/svg">
 <g>
  <path d="m1175.8 1147.1-262.5-261.19c-6.7344-6.8047-15.141-11.723-24.375-14.25l-95.25-27-196.12-196.69c-7.7461-7.7422-12.012-18.301-11.812-29.25 0.097656-10.66 4.375-20.859 11.914-28.398 7.5391-7.5391 17.738-11.816 28.398-11.914 10.625 0.050781 20.801 4.2969 28.312 11.812l128.81 129.19c3.5117 3.4922 8.2656 5.4531 13.219 5.4531s9.707-1.9609 13.219-5.4531c4.5703-4.707 6.3516-11.465 4.6875-17.812 1.5-61.832 6.2539-123.54 14.25-184.88l48.562 48.562c28.688 28.688 66.938 128.25 72 167.62 0.51562 3.8594 2.2188 7.4648 4.875 10.312l194.81 209.25c3.5352 3.8086 8.4922 5.9844 13.688 6 4.7383-0.015625 9.293-1.8242 12.75-5.0625 3.4922-3.5117 5.4531-8.2656 5.4531-13.219s-1.9609-9.707-5.4531-13.219l-189.75-204.38c-8.625-48.938-47.812-148.88-81.938-183l-67.875-68.062c4.875-27.938 10.5-54.375 17.062-78.938 6.2734-22.535 9.5547-45.797 9.75-69.188v-98.438c-0.019531-18.676-9.3047-36.125-24.789-46.57-15.48-10.445-35.137-12.527-52.461-5.5547-4.207-15.441-14.797-28.363-29.113-35.52-14.316-7.1602-31.008-7.8789-45.887-1.9805-3.2031-11.895-10.219-22.406-19.977-29.926-9.7539-7.5195-21.707-11.629-34.023-11.699-8.9766 0.011719-17.805 2.2656-25.688 6.5625-5.9297-13.094-15.496-24.211-27.562-32.02-12.066-7.8125-26.125-11.992-40.5-12.043-21.66 0.21484-42.172 9.7891-56.25 26.25-19.84-33.016-53.18-55.648-91.184-61.902-38.004-6.2578-76.84 4.4961-106.21 29.41-29.375 24.918-46.32 61.477-46.352 99.992 0 50.625 17.438 90.188 46.688 105.94 2.8594 1.4297 5.8008 2.6836 8.8125 3.75-10.312 24.562-18.75 65.625-18.75 134.06 0 85.688 34.5 142.69 65.062 193.12 26.25 42.188 48.188 78.562 48.188 125.62v265.69c-0.03125 49.941 18.344 98.141 51.609 135.39s79.09 60.934 128.72 66.523c49.625 5.5898 99.574-7.3008 140.29-36.215 40.723-28.91 69.359-71.816 80.441-120.51 3.5469-16.691 4.9336-33.77 4.125-50.812v-19.875c0-21.188-1.125-42-1.5-63l63.75 18.75c3.1055 0.82812 5.9492 2.4453 8.25 4.6875l261 260.62c3.5195 3.5508 8.3125 5.5469 13.312 5.5469s9.793-1.9961 13.312-5.5469c3.5508-3.5195 5.5469-8.3125 5.5469-13.312s-1.9961-9.793-5.5469-13.312zm-398.81-131.25c-9.043 39.762-32.445 74.789-65.715 98.367-33.273 23.574-74.074 34.043-114.59 29.398-40.516-4.6445-77.887-24.078-104.96-54.578-27.07-30.496-41.934-69.91-41.742-110.69v-265.88c0-57.375-25.688-99.938-52.875-144.94-29.25-48.562-59.625-98.812-59.625-173.81 0-107.25 18.75-128.81 22.875-131.25 2.4141-0.67578 4.6953-1.7539 6.75-3.1875 13.336-4.418 25.965-10.73 37.5-18.75 4.6484-2.4922 8.0312-6.8281 9.3203-11.945 1.2891-5.1172 0.35938-10.539-2.5547-14.934-2.9141-4.3984-7.543-7.3633-12.758-8.1719-5.2109-0.80859-10.523 0.61719-14.633 3.9258-16.688 10.875-39.938 22.312-56.25 13.312s-27.75-37.312-27.75-72.75c0-33.492 17.867-64.441 46.875-81.191 29.008-16.746 64.742-16.746 93.75 0 29.008 16.75 46.875 47.699 46.875 81.191v56.25c0 6.6992 3.5742 12.887 9.375 16.238 5.8008 3.3477 12.949 3.3477 18.75 0 5.8008-3.3516 9.375-9.5391 9.375-16.238v-75c0-13.398 7.1484-25.777 18.75-32.477 11.602-6.6992 25.898-6.6992 37.5 0 11.602 6.6992 18.75 19.078 18.75 32.477v75c0 6.6992 3.5742 12.887 9.375 16.238 5.8008 3.3477 12.949 3.3477 18.75 0 5.8008-3.3516 9.375-9.5391 9.375-16.238v-56.25c0-6.6992 3.5742-12.887 9.375-16.238 5.8008-3.3477 12.949-3.3477 18.75 0 5.8008 3.3516 9.375 9.5391 9.375 16.238v75c0 6.6992 3.5742 12.887 9.375 16.238 5.8008 3.3477 12.949 3.3477 18.75 0 5.8008-3.3516 9.375-9.5391 9.375-16.238v-37.5c0-6.6992 3.5742-12.887 9.375-16.238 5.8008-3.3477 12.949-3.3477 18.75 0 5.8008 3.3516 9.375 9.5391 9.375 16.238v75c0 6.6992 3.5742 12.887 9.375 16.238 5.8008 3.3477 12.949 3.3477 18.75 0 5.8008-3.3516 9.375-9.5391 9.375-16.238v-37.5c0-6.6992 3.5742-12.887 9.375-16.238 5.8008-3.3477 12.949-3.3477 18.75 0 5.8008 3.3516 9.375 9.5391 9.375 16.238v98.438c-0.21875 20.156-3.0547 40.199-8.4375 59.625-22.34 91.473-34.91 185.06-37.5 279.19l-97.5-97.688c-14.43-14.68-34.164-22.926-54.75-22.875-20.637-0.19922-40.508 7.8086-55.242 22.258-14.734 14.453-23.121 34.168-23.32 54.805-0.29297 21.035 7.8828 41.305 22.688 56.25l200.62 200.25c1.8945 1.75 4.1289 3.0898 6.5625 3.9375 0 25.5 0 49.875 1.6875 75v19.688c0.82422 13.812-0.12109 27.676-2.8125 41.25z"/>
  <path d="m546.19 548.62c21.102-21.125 49.734-32.996 79.594-32.996s58.492 11.871 79.594 32.996c3.5117 3.4922 8.2656 5.4531 13.219 5.4531s9.707-1.9609 13.219-5.4531c3.5508-3.5195 5.5469-8.3125 5.5469-13.312s-1.9961-9.793-5.5469-13.312c-37.914-37.883-93.16-52.656-144.92-38.762-51.766 13.895-92.184 54.348-106.03 106.12-13.848 51.773 0.97656 107 38.891 144.89 4.7578 4.7227 11.672 6.5508 18.137 4.793 6.4688-1.7578 11.508-6.832 13.219-13.312 1.7148-6.4805-0.16016-13.383-4.918-18.105-21.066-21.094-32.902-49.688-32.902-79.5s11.836-58.406 32.902-79.5z"/>
 </g>
</svg>
