<?xml version="1.0" encoding="UTF-8"?>
<svg width="1200pt" height="1200pt" version="1.1" viewBox="0 0 1200 1200" xmlns="http://www.w3.org/2000/svg">
 <g>
  <path d="m600 0c-78.793 0-156.82 15.52-229.61 45.672s-138.94 74.348-194.65 130.07c-55.719 55.715-99.914 121.86-130.07 194.65s-45.672 150.82-45.672 229.61c0 159.13 63.215 311.74 175.74 424.26 112.52 112.52 265.13 175.73 424.27 175.73 159.13 0 311.74-63.215 424.26-175.74 112.52-112.52 175.74-265.13 175.74-424.26 0-159.13-63.215-311.74-175.73-424.27-112.52-112.52-265.13-175.74-424.26-175.74zm0 67.762c69.121 0 137.56 13.766 201.42 40.516 63.859 26.746 121.88 65.953 170.76 115.38s87.645 108.1 114.09 172.67c26.453 64.574 40.066 133.79 40.066 203.68 0 141.16-55.457 276.53-154.16 376.34-98.707 99.816-232.58 155.89-372.18 155.89-69.121 0-137.57-13.766-201.43-40.516-63.855-26.746-121.88-65.949-170.76-115.37-48.875-49.422-87.645-108.1-114.1-172.67-26.449-64.574-40.066-133.79-40.066-203.68 0-69.898 13.613-139.11 40.066-203.68 26.449-64.574 65.219-123.25 114.1-172.68 48.875-49.422 106.9-88.625 170.76-115.38 63.859-26.746 132.3-40.512 201.43-40.512z" fill="#a8aaad"/>
  <path d="m328.42 883.39c0 9.3945 3.7305 18.406 10.375 25.047 6.6445 6.6445 15.652 10.379 25.047 10.379 9.3945 0 18.406-3.7344 25.051-10.379 6.6406-6.6406 10.375-15.652 10.375-25.047s-3.7344-18.406-10.375-25.047c-6.6445-6.6445-15.656-10.379-25.051-10.379-9.3945 0-18.402 3.7344-25.047 10.379-6.6445 6.6406-10.375 15.652-10.375 25.047zm35.426-11.809h-0.003906c4.7773 0 9.082 2.8789 10.91 7.2891 1.8281 4.4141 0.81641 9.4922-2.5586 12.867-3.3789 3.3789-8.457 4.3906-12.871 2.5625-4.4102-1.8281-7.2891-6.1328-7.2891-10.91 0-6.5195 5.2891-11.809 11.809-11.809z"/>
  <path d="m529.15 304.8c3.1328 0 6.1367-1.2422 8.3516-3.457s3.457-5.2188 3.457-8.3516c-0.019532-15.652-6.2461-30.66-17.312-41.727-11.066-11.066-26.074-17.293-41.727-17.312h-153.5c-12.527 0-24.543 4.9766-33.398 13.832-8.8594 8.8594-13.836 20.871-13.836 33.398v602.21c0.003906 21.238 8.1797 41.66 22.836 57.031 14.656 15.371 34.668 24.508 55.879 25.523 21.215 1.0117 42.004-6.1797 58.059-20.086 16.051-13.902 26.137-33.453 28.164-54.594 2.0234-21.141-4.1641-42.25-17.285-58.949-13.121-16.703-32.168-27.711-53.188-30.742v-95.305c0.019531-18.785 7.4883-36.793 20.773-50.074 13.281-13.285 31.289-20.754 50.074-20.773h35.426c15.652-0.019531 30.66-6.2461 41.727-17.312 11.066-11.07 17.293-26.074 17.312-41.727 0-3.1328-1.2422-6.1367-3.457-8.3516s-5.2188-3.457-8.3516-3.457h-153.5v-23.617h153.5v-23.617h-153.5v-23.613h153.5v-23.617h-153.5v-23.617h153.5v-23.613h-153.5v-23.617h153.5v-23.617h-153.5v-23.617h153.5v-23.613h-153.5v-23.617zm-13.824 283.39c-2.4531 6.8984-6.9805 12.875-12.961 17.102-5.9805 4.2305-13.121 6.5039-20.445 6.5117h-35.426c-25.043 0.027344-49.055 9.9922-66.766 27.699-17.707 17.711-27.668 41.723-27.699 66.766v106.27c0 3.1328 1.2461 6.1328 3.4609 8.3477 2.2148 2.2148 5.2188 3.4609 8.3477 3.4609 15.66 0 30.676 6.2188 41.75 17.293 11.07 11.07 17.293 26.086 17.293 41.746 0 15.66-6.2227 30.676-17.293 41.746-11.074 11.074-26.09 17.293-41.75 17.293-15.656 0-30.676-6.2188-41.746-17.293-11.074-11.07-17.293-26.086-17.293-41.746v-602.21c0-6.2617 2.4883-12.27 6.918-16.699 4.4297-4.4258 10.434-6.9141 16.699-6.9141h153.5c7.3242 0.007813 14.465 2.2812 20.445 6.5117 5.9805 4.2266 10.508 10.199 12.961 17.102h-151.49c-6.5195 0-11.809 5.2891-11.809 11.809v283.39c0 3.1289 1.2461 6.1328 3.4609 8.3477 2.2148 2.2148 5.2188 3.4609 8.3477 3.4609z"/>
  <path d="m859.78 730.95v-25.234c-0.015625-19.539-6.0859-38.59-17.371-54.543-11.281-15.949-27.23-28.016-45.648-34.535l-13.672-4.832 68.816-24.289c3.8945-1.375 6.7852-4.6836 7.6289-8.7266l59.039-283.39v0.003906c0.8125-3.8984-0.39453-7.9414-3.2109-10.758l-47.23-47.23h-0.003906c-2.9844-2.9844-7.332-4.1484-11.406-3.0547s-7.2578 4.2773-8.3477 8.3555l-94.465 354.24h0.16406l-6.4727 2.2773-6.4727-2.2773h0.16406l-94.465-354.24h0.007812c-1.0898-4.0781-4.2695-7.2617-8.3477-8.3555-4.0742-1.0938-8.4219 0.070313-11.406 3.0547l-47.23 47.23h-0.003906c-2.8125 2.8164-4.0234 6.8594-3.2109 10.758l59.039 283.39v-0.003906c0.84375 4.043 3.7383 7.3516 7.6289 8.7266l68.879 24.289-13.672 4.8281-0.003906 0.003906c-18.43 6.5117-34.387 18.57-45.684 34.523-11.297 15.949-17.371 35.008-17.395 54.555v25.234c-16.492 2.8008-31.461 11.34-42.262 24.109-10.805 12.773-16.746 28.949-16.777 45.676v94.465c0 25.312 13.504 48.699 35.422 61.355 21.922 12.656 48.93 12.656 70.848 0 21.922-12.656 35.426-36.043 35.426-61.355v-94.465c-0.03125-16.727-5.9727-32.902-16.777-45.676-10.805-12.77-25.773-21.309-42.262-24.109v-25.234c0.011719-14.652 4.5586-28.938 13.016-40.902 8.457-11.965 20.41-21.016 34.215-25.918l41.328-14.57 41.328 14.57c13.809 4.9023 25.758 13.953 34.215 25.918s13.004 26.25 13.02 40.902v25.234c-16.492 2.8008-31.461 11.34-42.266 24.109-10.805 12.773-16.746 28.949-16.777 45.676v94.465c0 25.312 13.504 48.699 35.426 61.355s48.926 12.656 70.848 0 35.426-36.043 35.426-61.355v-94.465c-0.03125-16.727-5.9766-32.902-16.777-45.676-10.805-12.77-25.773-21.309-42.266-24.109zm6.1406-462.36 28.234 28.234-56.383 270.64-56.914 20.074zm-264.87 28.234 28.234-28.234 85.02 318.95-56.914-20.074zm93.414 503.91v94.465c0 16.875-9 32.465-23.613 40.902-14.617 8.4375-32.621 8.4375-47.234 0-14.613-8.4375-23.617-24.027-23.617-40.902v-94.465c0-16.875 9.0039-32.469 23.617-40.902 14.613-8.4375 32.617-8.4375 47.234 0 14.613 8.4336 23.613 24.027 23.613 40.902zm200.74 94.465c0 16.875-9.0039 32.465-23.617 40.902-14.613 8.4375-32.617 8.4375-47.23 0s-23.617-24.027-23.617-40.902v-94.465c0-16.875 9.0039-32.469 23.617-40.902 14.613-8.4375 32.617-8.4375 47.23 0 14.613 8.4336 23.617 24.027 23.617 40.902z"/>
 </g>
</svg>
