<?xml version="1.0" encoding="UTF-8"?>
<svg width="1200pt" height="1200pt" version="1.1" viewBox="0 0 1200 1200" xmlns="http://www.w3.org/2000/svg">
 <defs>
  <clipPath id="a">
   <path d="m233 222.14h734v755.71h-734z"/>
  </clipPath>
 </defs>
 <path d="m600 0c-78.793 0-156.82 15.52-229.61 45.672s-138.94 74.348-194.65 130.07c-55.719 55.715-99.914 121.86-130.07 194.65s-45.672 150.82-45.672 229.61c0 159.13 63.215 311.74 175.74 424.26 112.52 112.52 265.13 175.73 424.27 175.73 159.13 0 311.74-63.215 424.26-175.74 112.52-112.52 175.74-265.13 175.74-424.26 0-159.13-63.215-311.74-175.73-424.27-112.52-112.52-265.13-175.74-424.26-175.74zm0 67.762c69.121 0 137.56 13.766 201.42 40.516 63.859 26.746 121.88 65.953 170.76 115.38s87.645 108.1 114.09 172.67c26.453 64.574 40.066 133.79 40.066 203.68 0 141.16-55.457 276.53-154.16 376.34-98.707 99.816-232.58 155.89-372.18 155.89-69.121 0-137.57-13.766-201.43-40.516-63.855-26.746-121.88-65.949-170.76-115.37-48.875-49.422-87.645-108.1-114.1-172.67-26.449-64.574-40.066-133.79-40.066-203.68 0-69.898 13.613-139.11 40.066-203.68 26.449-64.574 65.219-123.25 114.1-172.68 48.875-49.422 106.9-88.625 170.76-115.38 63.859-26.746 132.3-40.512 201.43-40.512z" fill="#a8aaad"/>
 <g clip-path="url(#a)">
  <path d="m905.96 708.2c39.773-52.926 60.766-115.8 60.766-182.2 0-167.55-136.31-303.86-303.86-303.86s-303.86 136.31-303.86 303.86c0 1.2266 0.03125 2.4492 0.046875 3.6758-76.617 34.285-125.77 109.75-125.77 194.13 0 45.91 14.348 89.441 41.547 126.24l-40.984 114.89c-1.2969 3.6328-0.30859 7.6875 2.5117 10.32 1.8281 1.7031 4.1953 2.5977 6.5977 2.5977 1.3086 0 2.625-0.26562 3.8711-0.80859l124.15-54.25c24.023 9.0859 49.219 13.688 74.945 13.688 77.176 0 147.55-41.316 185.29-108.27 10.406 1.082 20.965 1.6445 31.656 1.6445 37.387 0 73.961-6.7734 108.78-20.145l181.54 79.305c1.2461 0.54297 2.5625 0.80859 3.8672 0.80859 2.4023 0 4.7734-0.89453 6.5977-2.5977 2.8203-2.6328 3.8086-6.6875 2.5117-10.32zm-460.04 208.95c-24.621 0-48.699-4.6367-71.57-13.785-2.4023-0.96094-5.0898-0.92188-7.4609 0.11719l-107.32 46.895 35.227-98.742c1.1094-3.1133 0.55469-6.5781-1.4727-9.1836-26.629-34.258-40.707-75.281-40.707-118.64 0-74.125 41.723-140.69 107.38-173.21 11.152 138.59 115.69 251.21 250.47 274.73-35.113 56.969-96.969 91.82-164.55 91.82zm329.79-126.75c-1.2344-0.53906-2.5508-0.80859-3.8711-0.80859-1.2148 0-2.4336 0.23047-3.5859 0.6875-33.656 13.438-69.113 20.25-105.39 20.25-156.88 0-284.52-127.64-284.52-284.52 0-156.89 127.64-284.52 284.52-284.52 156.88 0 284.52 127.63 284.52 284.52 0 63.832-20.723 124.2-59.926 174.56-2.0312 2.6094-2.5898 6.0742-1.4766 9.1875l54.449 152.59z"/>
 </g>
 <path d="m744.86 389.77c-19.098-13.457-44.434-20.188-76.016-20.188-26.922 0-50.207 4.8086-69.84 14.422-19.641 9.6172-35.227 23.215-46.762 40.789l49.855 29.254c6.8633-9.6133 15.309-17.098 25.34-22.457 10.023-5.3555 21.488-8.0352 34.406-8.0352 13.453 0 24.234 2.9531 32.344 8.8594 8.0977 5.9102 12.152 13.945 12.152 24.102 0 7.1445-2.1328 13.531-6.3867 19.156-4.2578 5.6328-10.918 12.566-19.98 20.809-12.363 11.266-21.773 21.566-28.227 30.902-6.457 9.3398-9.6797 21.152-9.6797 35.434h62.211c0-8.7852 2.3281-16.273 7.0039-22.457 4.668-6.1797 12.082-13.801 22.246-22.867 8.5117-7.6875 15.449-14.484 20.809-20.395 5.3594-5.9023 9.8867-13.113 13.598-21.629 3.7109-8.5117 5.5625-18.398 5.5625-29.664-0.003907-23.898-9.5508-42.574-28.637-56.035z"/>
 <path d="m673.37 592.07c-11.535 0-21.012 3.5-28.43 10.504-7.4141 7.0039-11.125 15.727-11.125 26.164 0 10.441 3.7734 19.301 11.328 26.574 7.5547 7.2812 16.957 10.918 28.227 10.918 11.258 0 20.664-3.6367 28.223-10.918 7.5508-7.2734 11.332-16.133 11.332-26.574 0-10.434-3.7109-19.16-11.125-26.164-7.418-7.0039-16.895-10.504-28.43-10.504z"/>
</svg>
