<?xml version="1.0" encoding="UTF-8"?>
<svg width="1200pt" height="1200pt" version="1.1" viewBox="0 0 1200 1200" xmlns="http://www.w3.org/2000/svg">
 <g>
  <path d="m600 0c-78.793 0-156.82 15.52-229.61 45.672s-138.94 74.348-194.65 130.07c-55.719 55.715-99.914 121.86-130.07 194.65s-45.672 150.82-45.672 229.61c0 159.13 63.215 311.74 175.74 424.26 112.52 112.52 265.13 175.73 424.27 175.73 159.13 0 311.74-63.215 424.26-175.74 112.52-112.52 175.74-265.13 175.74-424.26 0-159.13-63.215-311.74-175.73-424.27-112.52-112.52-265.13-175.74-424.26-175.74zm0 67.762c69.121 0 137.56 13.766 201.42 40.516 63.859 26.746 121.88 65.953 170.76 115.38s87.645 108.1 114.09 172.67c26.453 64.574 40.066 133.79 40.066 203.68 0 141.16-55.457 276.53-154.16 376.34-98.707 99.816-232.58 155.89-372.18 155.89-69.121 0-137.57-13.766-201.43-40.516-63.855-26.746-121.88-65.949-170.76-115.37-48.875-49.422-87.645-108.1-114.1-172.67-26.449-64.574-40.066-133.79-40.066-203.68 0-69.898 13.613-139.11 40.066-203.68 26.449-64.574 65.219-123.25 114.1-172.68 48.875-49.422 106.9-88.625 170.76-115.38 63.859-26.746 132.3-40.512 201.43-40.512z" fill="#a8aaad"/>
  <path d="m942.43 718.08h-165.31v-23.617h94.465c3.1328 0 6.1367-1.2422 8.3516-3.457 2.2148-2.2148 3.457-5.2188 3.457-8.3516v-82.656c3.1328 0 6.1367-1.2422 8.3477-3.457 2.2148-2.2148 3.4609-5.2188 3.4609-8.3477v-23.617c-0.019531-15.652-6.2422-30.66-17.312-41.73-11.066-11.066-26.074-17.293-41.727-17.309h-24.645l-22.637-249.04c-0.55469-6.082-5.6562-10.738-11.762-10.738-6.1055 0-11.203 4.6562-11.758 10.738l-9.9141 109.07c-9.5117-21.184-22.691-40.523-38.93-57.121-41.082-41.594-100.21-62.684-175.74-62.684-245.15 0-247.97 113.26-247.97 118.08v185.79l-45.676 79.934c-3.0781 5.3906-1.4609 12.242 3.7031 15.684l31.355 20.902 15.062 75.316c2.7031 13.371 9.9414 25.395 20.492 34.043 10.547 8.6484 23.758 13.387 37.398 13.418h20.465c13.746-0.125 53.34 3.4219 72.027 21.832h0.003906c6.9062 6.6367 10.703 15.863 10.473 25.438 0.1875 58.344 0.1875 105.76 0.1875 106.23 0 3.1328 1.2461 6.1367 3.4609 8.3516 2.2109 2.2148 5.2148 3.457 8.3477 3.457h389.66c3.1328 0 6.1367-1.2422 8.3516-3.457s3.457-5.2188 3.457-8.3516v-36.605c13.328-2.7383 25.301-9.9883 33.906-20.527 8.6016-10.543 13.309-23.727 13.328-37.332v-66.91l33.062-44.082c2.6836-3.5781 3.1133-8.3672 1.1133-12.367s-6.0898-6.5273-10.562-6.5273zm-247.97-118.08h23.617v70.848l-23.617 0.003906zm47.23 0h23.617v70.848l-23.613 0.003906zm70.848 0v70.848l-23.613 0.003906v-70.852zm47.23 70.848-23.609 0.003906v-70.852h23.617zm11.809-106.27v11.809l-188.93 0.003907v-11.809c0.011719-9.3906 3.75-18.395 10.391-25.035 6.6406-6.6445 15.645-10.379 25.035-10.391h118.08c9.3906 0.011718 18.395 3.7461 25.035 10.391 6.6406 6.6406 10.375 15.645 10.387 25.035zm-83.777-59.039-21.367 0.003906 10.684-117.55zm-443.97-187.64c46.562-40.109 132.8-48.523 196.95-48.523 68.98 0 122.46 18.727 158.94 55.664 31.645 32.031 44.555 72.078 49.82 100.04 0.11719 0.61719 0.22266 1.2227 0.33203 1.832l-7.1406 78.633h-24.648c-15.652 0.015626-30.66 6.2422-41.727 17.309-11.07 11.07-17.297 26.078-17.312 41.73v23.617c0 3.1289 1.2422 6.1328 3.457 8.3477 2.2148 2.2148 5.2188 3.457 8.3516 3.457v82.656c0 3.1328 1.2422 6.1367 3.457 8.3516 2.2148 2.2148 5.2188 3.457 8.3477 3.457h70.848v23.617h-141.7c-4.4727 0-8.5586 2.5273-10.559 6.5273s-1.5703 8.7891 1.1133 12.367l33.062 44.082v66.91c0.015625 13.605 4.7227 26.789 13.328 37.332 8.6016 10.539 20.578 17.789 33.902 20.527v24.797h-130.07v-273.12c27.355-7.3594 47.41-40.355 47.41-81.117 0-46.348-25.934-82.656-59.039-82.656h-0.17969c-17.812 0-30.273 9.8203-37.691 18.258l-185.95-153.13c1.6953-8.0391 7.418-24.352 26.695-40.957zm137.91 518.23c0.24609-15.883-6.0938-31.156-17.52-42.191-29.469-29.016-86.492-28.66-88.754-28.621h-20.32c-8.1836-0.019531-16.109-2.8633-22.438-8.0508-6.332-5.1875-10.676-12.406-12.297-20.426l-16.023-80.109c-0.61328-3.0703-2.4219-5.7734-5.0273-7.5078l-26.254-17.504 41.762-73.086c1.0234-1.7852 1.5586-3.8047 1.5586-5.8594v-163.91l181.42 149.41c2.7773 2.2852 6.4414 3.1797 9.957 2.4336 3.5195-0.74609 6.5039-3.0547 8.1094-6.2695 0.085937-0.17188 8.9883-17.09 24.863-17.09h0.17969c19.203 0 35.426 27.035 35.426 59.039 0 32.004-16.223 59.039-35.426 59.039h-0.17969c-6.5195 0-11.809 5.2891-11.809 11.809v283.39h-47.051c-0.015625-17.68-0.054687-53.375-0.17969-94.496zm224.53 94.5v-23.613h141.7v23.617zm188.93-82.656c-0.011719 9.3945-3.7461 18.398-10.387 25.039-6.6406 6.6406-15.645 10.375-25.039 10.387h-165.31c-9.3906-0.011719-18.395-3.7461-25.035-10.387-6.6406-6.6406-10.375-15.645-10.387-25.039v-59.039h236.16zm5.9023-82.656h-247.97l-17.711-23.617 283.39 0.003907z"/>
 </g>
</svg>
