<?xml version="1.0" encoding="UTF-8"?>
<svg width="1200pt" height="1200pt" version="1.1" viewBox="0 0 1200 1200" xmlns="http://www.w3.org/2000/svg">
 <g>
  <path d="m600 0c-78.793 0-156.82 15.52-229.61 45.672s-138.94 74.348-194.65 130.07c-55.719 55.715-99.914 121.86-130.07 194.65s-45.672 150.82-45.672 229.61c0 159.13 63.215 311.74 175.74 424.26 112.52 112.52 265.13 175.73 424.27 175.73 159.13 0 311.74-63.215 424.26-175.74 112.52-112.52 175.74-265.13 175.74-424.26 0-159.13-63.215-311.74-175.73-424.27-112.52-112.52-265.13-175.74-424.26-175.74zm0 67.762c69.121 0 137.56 13.766 201.42 40.516 63.859 26.746 121.88 65.953 170.76 115.38s87.645 108.1 114.09 172.67c26.453 64.574 40.066 133.79 40.066 203.68 0 141.16-55.457 276.53-154.16 376.34-98.707 99.816-232.58 155.89-372.18 155.89-69.121 0-137.57-13.766-201.43-40.516-63.855-26.746-121.88-65.949-170.76-115.37-48.875-49.422-87.645-108.1-114.1-172.67-26.449-64.574-40.066-133.79-40.066-203.68 0-69.898 13.613-139.11 40.066-203.68 26.449-64.574 65.219-123.25 114.1-172.68 48.875-49.422 106.9-88.625 170.76-115.38 63.859-26.746 132.3-40.512 201.43-40.512z" fill="#a8aaad"/>
  <path d="m600.01 842.95c8.6523 0 16.469 3.5078 22.137 9.168l-0.015625 0.015624c5.6758 5.668 9.1953 13.504 9.1953 22.121 0 8.6094-3.5078 16.438-9.1758 22.105l-0.039063 0.039063c-5.6602 5.668-13.496 9.1758-22.098 9.1758-8.6094 0-16.445-3.5078-22.105-9.1758l-0.039062-0.039063c-5.668-5.668-9.1758-13.496-9.1758-22.105 0-8.6133 3.5156-16.453 9.1953-22.121l-0.023438-0.015624c5.6797-5.6562 13.5-9.168 22.145-9.168zm11.789 19.527c-3.0156-3.0156-7.1953-4.8906-11.789-4.8906s-8.7734 1.875-11.789 4.8906h-0.039062c-2.9922 2.9844-4.8516 7.1562-4.8516 11.781s1.8672 8.8047 4.8516 11.789l0.039062 0.039063c2.9922 2.9844 7.1719 4.8594 11.789 4.8594 4.625 0 8.8047-1.875 11.789-4.8594l0.039063-0.039063c2.9844-2.9922 4.8594-7.1641 4.8594-11.789s-1.8672-8.7891-4.8594-11.781z" fill-rule="evenodd"/>
  <path d="m456.18 324.45h294.98v494.95l-0.003906 7.3125h-302.29v-502.25h7.3164zm280.34 14.629h-273.03v473h273.02z" fill-rule="evenodd"/>
  <path d="m463.03 281.87c-10.18 0-19.453 4.1641-26.125 10.859l-0.039063 0.039063c-6.6953 6.6719-10.867 15.945-10.867 26.125v562.21c0 10.18 4.1719 19.453 10.867 26.125l0.039063 0.039062c6.6719 6.6953 15.945 10.859 26.125 10.859h273.95c10.18 0 19.445-4.1641 26.117-10.859l0.046875-0.039062c6.6875-6.6719 10.852-15.945 10.852-26.125v-562.21c0-10.18-4.1719-19.453-10.852-26.125l-0.042969-0.039063c-6.6797-6.6953-15.945-10.859-26.117-10.859zm-41.641-4.5703 0.046875-0.046875c10.695-10.676 25.445-17.32 41.594-17.32h273.95c16.133 0 30.895 6.6445 41.586 17.328l0.046875 0.046876c10.688 10.691 17.32 25.453 17.32 41.594v562.21c0 16.148-6.6445 30.902-17.32 41.594l-0.046875 0.046875c-10.691 10.676-25.441 17.32-41.582 17.32h-273.96c-16.148 0-30.902-6.6445-41.594-17.328l-0.046875-0.046875c-10.688-10.691-17.32-25.453-17.32-41.594v-562.21c0-16.141 6.6367-30.902 17.32-41.594z" fill-rule="evenodd"/>
 </g>
</svg>
