<?xml version="1.0" encoding="UTF-8"?>
<svg width="1200pt" height="1200pt" version="1.1" viewBox="0 0 1200 1200" xmlns="http://www.w3.org/2000/svg">
 <g>
  <path d="m600 0c-78.793 0-156.82 15.52-229.61 45.672s-138.94 74.348-194.65 130.07c-55.719 55.715-99.914 121.86-130.07 194.65s-45.672 150.82-45.672 229.61c0 159.13 63.215 311.74 175.74 424.26 112.52 112.52 265.13 175.73 424.27 175.73 159.13 0 311.74-63.215 424.26-175.74 112.52-112.52 175.74-265.13 175.74-424.26 0-159.13-63.215-311.74-175.73-424.27-112.52-112.52-265.13-175.74-424.26-175.74zm0 67.762c69.121 0 137.56 13.766 201.42 40.516 63.859 26.746 121.88 65.953 170.76 115.38s87.645 108.1 114.09 172.67c26.453 64.574 40.066 133.79 40.066 203.68 0 141.16-55.457 276.53-154.16 376.34-98.707 99.816-232.58 155.89-372.18 155.89-69.121 0-137.57-13.766-201.43-40.516-63.855-26.746-121.88-65.949-170.76-115.37-48.875-49.422-87.645-108.1-114.1-172.67-26.449-64.574-40.066-133.79-40.066-203.68 0-69.898 13.613-139.11 40.066-203.68 26.449-64.574 65.219-123.25 114.1-172.68 48.875-49.422 106.9-88.625 170.76-115.38 63.859-26.746 132.3-40.512 201.43-40.512z" fill="#a8aaad"/>
  <path d="m749.18 716.86c-46.973 78.398-132.76 130.93-230.72 130.93-148.34 0-268.77-120.43-268.77-268.77 0-66.801 24.426-127.95 64.824-174.98 4.2422-4.9453 3.6836-12.398-1.2578-16.648-4.9453-4.2422-12.406-3.6758-16.656 1.2656-43.949 51.168-70.527 117.69-70.527 190.36 0 161.37 131.02 292.38 292.38 292.38 106.55 0 199.89-57.129 250.98-142.41 3.3438-5.5898 1.5273-12.848-4.0625-16.199-5.5898-3.3438-12.848-1.5273-16.199 4.0625zm-404.79-342.56c46.91-39.934 107.69-64.039 174.07-64.039 148.33 0 268.76 120.43 268.76 268.76 0 33.055-5.9766 64.715-16.91 93.977-2.2812 6.1016 0.82031 12.91 6.9258 15.191 6.1016 2.2812 12.91-0.82031 15.191-6.9258 11.895-31.828 18.406-66.281 18.406-102.24 0-161.37-131.01-292.38-292.38-292.38-72.211 0-138.34 26.23-189.38 69.676-4.9609 4.2266-5.5586 11.684-1.332 16.641 4.2188 4.9688 11.684 5.5664 16.641 1.3398z" fill-rule="evenodd"/>
  <path d="m506.66 298.45v561.03c0 6.5195 5.2891 11.809 11.809 11.809 6.5117 0 11.809-5.2891 11.809-11.809v-561.03c0-6.5195-5.2969-11.809-11.809-11.809-6.5195 0-11.809 5.2891-11.809 11.809z" fill-rule="evenodd"/>
  <path d="m585.41 314.55c87.246 176.27 87.418 352.54 0 528.81-2.8906 5.832-0.50391 12.926 5.3359 15.824 5.8398 2.8984 12.926 0.50391 15.824-5.3359 90.883-183.25 90.711-366.51 0.007812-549.77-2.8984-5.8398-9.9805-8.2344-15.824-5.3438-5.8398 2.8906-8.2344 9.9805-5.3438 15.824z" fill-rule="evenodd"/>
  <path d="m430.34 304.08c-90.711 183.26-90.883 366.52 0 549.77 2.8984 5.8398 9.9883 8.2344 15.824 5.3359 5.8398-2.8984 8.2344-9.9883 5.3359-15.824-87.418-176.27-87.246-352.54 0-528.81 2.8984-5.8398 0.49609-12.934-5.3438-15.824-5.8398-2.8906-12.926-0.49609-15.816 5.3438z" fill-rule="evenodd"/>
  <path d="m284.16 590.82h497.21c6.5195 0 11.809-5.2891 11.809-11.809s-5.2891-11.809-11.809-11.809h-497.21c-6.5195 0-11.809 5.2891-11.809 11.809s5.2891 11.809 11.809 11.809z" fill-rule="evenodd"/>
  <path d="m896.57 754.93s43.523-36.504 66.961-56.16c6.2812-5.2734 9.9102-13.051 9.9102-21.254 0-8.1953-3.6289-15.973-9.9102-21.246-23.434-19.656-66.961-56.168-66.961-56.168-4.9922-4.1875-12.445-3.5352-16.633 1.4648-4.1875 4.9922-3.5352 12.445 1.457 16.633 0 0 43.523 36.504 66.961 56.168 0.9375 0.78125 1.4727 1.9375 1.4727 3.1484 0 1.2188-0.53516 2.3789-1.4727 3.1562-23.434 19.664-66.961 56.168-66.961 56.168-4.9922 4.1875-5.6445 11.645-1.457 16.633 4.1875 4.9922 11.645 5.6445 16.633 1.457z" fill-rule="evenodd"/>
  <path d="m817 892.51s-43.516-36.504-66.953-56.168c-0.9375-0.78125-1.4727-1.9375-1.4727-3.1484 0-1.2188 0.53516-2.3789 1.4727-3.1562 23.434-19.664 66.953-56.168 66.953-56.168 5-4.1875 5.6523-11.645 1.4648-16.633-4.1875-4.9922-11.645-5.6445-16.641-1.457 0 0-43.516 36.504-66.953 56.16-6.2812 5.2734-9.9102 13.051-9.9102 21.254 0 8.1953 3.6289 15.98 9.9102 21.246 23.434 19.656 66.953 56.168 66.953 56.168 5 4.1875 12.453 3.5352 16.641-1.4648 4.1875-4.9922 3.5352-12.445-1.4648-16.633z" fill-rule="evenodd"/>
  <path d="m954.57 665.71h-218.28c-6.5195 0-11.809 5.2891-11.809 11.809s5.2891 11.809 11.809 11.809h218.28c6.5195 0 11.809-5.2891 11.809-11.809s-5.2891-11.809-11.809-11.809z" fill-rule="evenodd"/>
  <path d="m743.84 845h218.28c6.5195 0 11.809-5.2891 11.809-11.809 0-6.5195-5.2891-11.809-11.809-11.809h-218.28c-6.5195 0-11.809 5.2891-11.809 11.809 0 6.5195 5.2891 11.809 11.809 11.809z" fill-rule="evenodd"/>
 </g>
</svg>
