<?xml version="1.0" encoding="UTF-8"?>
<svg width="1200pt" height="1200pt" version="1.1" viewBox="0 0 1200 1200" xmlns="http://www.w3.org/2000/svg">
 <g>
  <path d="m600 0c-78.793 0-156.82 15.52-229.61 45.672s-138.94 74.348-194.65 130.07c-55.719 55.715-99.914 121.86-130.07 194.65s-45.672 150.82-45.672 229.61c0 159.13 63.215 311.74 175.74 424.26 112.52 112.52 265.13 175.73 424.27 175.73 159.13 0 311.74-63.215 424.26-175.74 112.52-112.52 175.74-265.13 175.74-424.26 0-159.13-63.215-311.74-175.73-424.27-112.52-112.52-265.13-175.74-424.26-175.74zm0 67.762c69.121 0 137.56 13.766 201.42 40.516 63.859 26.746 121.88 65.953 170.76 115.38s87.645 108.1 114.09 172.67c26.453 64.574 40.066 133.79 40.066 203.68 0 141.16-55.457 276.53-154.16 376.34-98.707 99.816-232.58 155.89-372.18 155.89-69.121 0-137.57-13.766-201.43-40.516-63.855-26.746-121.88-65.949-170.76-115.37-48.875-49.422-87.645-108.1-114.1-172.67-26.449-64.574-40.066-133.79-40.066-203.68 0-69.898 13.613-139.11 40.066-203.68 26.449-64.574 65.219-123.25 114.1-172.68 48.875-49.422 106.9-88.625 170.76-115.38 63.859-26.746 132.3-40.512 201.43-40.512z" fill="#a8aaad"/>
  <path d="m282.96 473.42c18.805 2.8125 37.781 4.3125 56.797 4.4883 11.578 0.039062 23.141-0.78906 34.598-2.4805l21.844 25.859c2.2227 2.668 5.5039 4.2227 8.9727 4.2539 2.8164 0 5.5391-1.0078 7.6758-2.8359 4.918-4.1953 5.5469-11.562 1.418-16.531l-13.934-16.059c8.5352-2.5273 16.895-5.6055 25.031-9.2109l19.367 21.02c2.2031 2.4414 5.3281 3.8555 8.6211 3.8945 4.707 0.035156 8.9844-2.7344 10.887-7.0469 1.8984-4.3086 1.0508-9.3359-2.1523-12.789l-14.996-16.414c5.3125-2.9531 10.629-6.2578 15.941-9.8008 14.387 6.375 25.852 17.922 32.117 32.355 2.0781 3.7969 6.0664 6.1523 10.395 6.1406 1.9766 0.007812 3.9258-0.47656 5.668-1.418 2.7578-1.4961 4.8125-4.0352 5.6953-7.0469 0.88672-3.0156 0.53516-6.2578-0.97266-9.0117-9.8242-21.316-27.965-37.668-50.184-45.227h-5.4297l-2.125 0.58984-0.003906 0.003906c-0.79297 0.19141-1.5508 0.50781-2.2422 0.94141h-0.82812c-9.875 6.5352-20.172 12.414-30.82 17.594-35.426 18.184-72.621 23.617-138.04 14.879-3.1172-0.43359-6.2812 0.39062-8.7852 2.2969-2.5078 1.9102-4.1484 4.7383-4.5586 7.8594-0.53906 3.1562 0.22266 6.3945 2.1133 8.9766 1.8945 2.582 4.7539 4.2852 7.9258 4.7188z"/>
  <path d="m287.09 812.55h-41.328c-6.5234 0-11.809 5.2852-11.809 11.809 0 6.5195 5.2852 11.809 11.809 11.809h41.328c55.379 0 100.37-40.621 100.37-90.566v-39.324c0-3.1328-1.2422-6.1328-3.457-8.3477-2.2148-2.2148-5.2188-3.4609-8.3516-3.4609h-129.89c-6.5234 0-11.809 5.2891-11.809 11.809 0 6.5234 5.2852 11.809 11.809 11.809h118.08v27.512c0 36.961-34.477 66.953-76.75 66.953z"/>
  <path d="m245.76 659.04h23.613c6.5234 0 11.809-5.2891 11.809-11.809 0-6.5234-5.2852-11.809-11.809-11.809h-23.613c-6.5234 0-11.809 5.2852-11.809 11.809 0 6.5195 5.2852 11.809 11.809 11.809z"/>
  <path d="m917.76 748.78c-8.0352-24.738-20.348-47.879-36.371-68.367-15.887-19.598-25.59-43.477-27.867-68.605h29.875c3.1328 0 6.1367-1.2422 8.3477-3.457 2.2148-2.2148 3.4609-5.2188 3.4609-8.3516v-82.656c0-3.1289-1.2461-6.1328-3.4609-8.3477-2.2109-2.2148-5.2148-3.457-8.3477-3.457h-35.426v-6.2578c0-135.44-116.43-256.71-121.5-261.79-4.6562-4.0469-11.645-3.8281-16.035 0.5-4.3945 4.332-4.7109 11.316-0.73047 16.031 1.0625 1.1797 114.66 119.26 114.66 245.25v6.2617h-118.08v-23.617c0-242.42-123.87-247.97-129.18-247.97-6.5195 0-11.809 5.2852-11.809 11.809 0 6.5195 5.2891 11.809 11.809 11.809 1.0625 0 105.56 4.7227 106.27 224.35v23.617h-36.133c-6.5234 0-11.809 5.2852-11.809 11.805v23.617h-24.562c-10.863-222.82-133.31-307.01-211.6-307.01-6.5234 0-11.809 5.2852-11.809 11.809 0 6.5195 5.2852 11.809 11.809 11.809 69.312 0 177.12 77.695 187.98 283.39l-81.711-0.003906v-11.809c0-6.5195-5.2891-11.809-11.809-11.809-6.5234 0-11.809 5.2891-11.809 11.809v11.809h-11.809v-11.809c0-6.5195-5.2852-11.809-11.809-11.809-6.5195 0-11.809 5.2891-11.809 11.809v11.809h-11.809v-11.809c0-6.5195-5.2852-11.809-11.805-11.809-6.5234 0-11.809 5.2891-11.809 11.809v11.809h-11.809c-6.5234 0-11.809 5.2891-11.809 11.809s5.2852 11.809 11.809 11.809h11.809v11.809c0 6.5195 5.2852 11.809 11.809 11.809 6.5195 0 11.805-5.2891 11.805-11.809v-11.809h11.809v11.809c0 6.5195 5.2891 11.809 11.809 11.809 6.5234 0 11.809-5.2891 11.809-11.809v-11.809h11.809v11.809c0 6.5195 5.2852 11.809 11.809 11.809 6.5195 0 11.809-5.2891 11.809-11.809v-11.809h82.656v10.156c0 169.56-89.625 367.7-342.43 367.7-6.5234 0-11.809 5.2891-11.809 11.809 0 6.5234 5.2852 11.809 11.809 11.809 122.68 0 209.24-43.57 267.33-108.04l40.266 100.61c1.8203 4.5742 6.293 7.5391 11.219 7.4375 1.4961 0.003907 2.9766-0.27734 4.3672-0.82812 2.9141-1.1562 5.25-3.4219 6.4922-6.3008 1.2383-2.8828 1.2852-6.1367 0.12109-9.0469l-44.988-112.41c57.625-75.219 81.238-172.75 81.238-262.73v-10.156h23.617v35.426-0.003906c0 3.1328 1.2422 6.1367 3.457 8.3516 2.2148 2.2148 5.2188 3.457 8.3516 3.457h41.918c4.1172 38.805 16.172 76.348 35.426 110.29 12.156 22.656 22.234 46.371 30.109 70.848 31.883 98.832-60.691 149.14-64.707 151.14v-0.003906c-5.7266 3.0781-7.8906 10.203-4.8438 15.941 1.9141 3.4375 5.4102 5.6953 9.3281 6.0234 1.8906 0.007813 3.7539-0.4375 5.4336-1.3008 1.1797-0.70703 114.18-61.402 76.16-179.48-8.2422-25.582-18.797-50.363-31.527-74.035-17.121-30.672-27.848-64.492-31.527-99.426h116.66c2.2656 30.254 13.719 59.094 32.828 82.656 14.434 18.641 25.504 39.66 32.707 62.113 31.645 91.391-60.34 137.91-64.234 139.8-2.8242 1.375-4.9844 3.8164-6.0039 6.7852-1.0195 2.9688-0.8125 6.2188 0.57031 9.0391 1.9883 4.0547 6.1133 6.6211 10.629 6.6133 1.7969 0.003907 3.5742-0.39844 5.1953-1.1836 1.1797-0.58984 114.77-57.859 76.398-168.86zm-258.71-219.63h212.54v59.039l-212.54 0.003906z"/>
  <path d="m817.98 920.36c-5.6797-2.9883-12.707-0.89062-15.82 4.7227 0 0.70703-10.391 17.359-48.648 17.359v-0.003906c-6.5234 0-11.809 5.2891-11.809 11.809 0 6.5234 5.2852 11.809 11.809 11.809 53.02 0 68.016-27.039 69.551-30.109h-0.003906c2.7773-5.7148 0.53516-12.605-5.0781-15.586z"/>
 </g>
</svg>
