<?xml version="1.0" encoding="UTF-8"?>
<svg width="1200pt" height="1200pt" version="1.1" viewBox="0 0 1200 1200" xmlns="http://www.w3.org/2000/svg">
 <g>
  <path d="m427.23 233.65c8.6797 14.074 21.586 25.047 36.875 31.352 4.0508 19.602 15.25 56.125 43.676 67.676 0.64844 0.27344 1.3242 0.32422 1.9766 0.57422-21.301 6.4492-42.125 12.176-50.926 13.648h-0.003906c-33.648-34.512-62.895-73.055-87.074-114.75-16.887-34.238-30.961-69.797-42.074-106.32l64.824 11.324c4.9648 1.0195 10.129-0.015626 14.316-2.8711 4.1875-2.8516 7.043-7.2773 7.918-12.27 0.87109-4.9922-0.31641-10.125-3.2891-14.227-2.9727-4.1055-7.4805-6.8281-12.496-7.5547l-95.227-16.648 0.003906-0.003906c-6.4023-1.1094-12.922 1.1719-17.238 6.0273-4.3164 4.8555-5.8164 11.598-3.9648 17.824 14.324 49.23 32.633 97.215 54.75 143.47 0.80078 1.3516 81.477 133.88 116.52 133.88h0.003906c29.379-4.9766 58.285-12.445 86.398-22.324 3.7852-1.2148 7.0898-3.6016 9.4336-6.8125 2.3477-3.2109 3.6133-7.0859 3.6172-11.062v-8.1484c15.656-3.418 30.484-9.8984 43.625-19.074 32.203-26.895 54.176-64.051 62.227-105.23 5-29.375 18.5-87.5 27.875-126.57 10.137 17.719 18.945 36.172 26.348 55.199 6.0508 16.148 15.086 31.012 26.625 43.824-1.375 1.8984-2.8984 3.8984-4.3242 5.7266-3.0117 3.8359-4.4141 8.6953-3.8984 13.551 3.125 24.871 3.8164 49.992 2.0742 75-12.324 1.9102-24.922 1.0547-36.875-2.5-18.676-4.3984-29.75-7.6758-30-7.7734v-0.003906c-5.6758-1.6953-11.816-0.61328-16.566 2.9219-4.7539 3.5352-7.5547 9.1055-7.5586 15.027v58.102c0.042969 0.27734 0.10156 0.55469 0.17578 0.82422 0.10547 1.3086 0.36328 2.6016 0.77344 3.8516 0.20703 1.1094 0.51562 2.1992 0.92578 3.25 0.57422 1.0352 1.2422 2.0156 2 2.9258 0.64062 1 1.3789 1.9375 2.1992 2.7969 0.86328 0.71484 1.793 1.3398 2.7734 1.875 1.0781 0.76953 2.2344 1.4141 3.4531 1.9258 0.27344 0 0.44922 0.32422 0.75 0.42578 28.113 9.8789 57.016 17.348 86.398 22.324 35 0 115.73-132.5 116.52-133.88 22.102-46.25 40.395-94.227 54.703-143.45 1.8516-6.2266 0.35156-12.969-3.9648-17.824-4.3164-4.8555-10.836-7.1328-17.238-6.0273l-95.227 16.648 0.003906 0.003906c-5.0156 0.72656-9.5234 3.4492-12.496 7.5547-2.9727 4.1016-4.1602 9.2344-3.2891 14.227 0.875 4.9922 3.7305 9.418 7.918 12.273 4.1875 2.8516 9.3516 3.8867 14.316 2.8711l64.824-11.324v-0.003906c-11.113 36.496-25.184 72.02-42.074 106.23-24.188 41.684-53.426 80.227-87.051 114.75-10-1.6992-35-8.7266-58.949-16.102v-20l8.0742 1.9258c25.824 6.0742 59.875 9.1484 75.523-10.398 3.375-4.1992 13.426-16.75 5.8984-95 12.074-16.273 12.074-21.125 12.074-25h0.003907c-0.38281-7.168-3.8594-13.816-9.5234-18.227-10.742-10.367-18.973-23.047-24.074-37.074-10.477-28.152-24.336-54.922-41.277-79.727-1.3984-1.6484-2.6484-3.5-3.9766-5.3984h0.003906c-3.0234-4.4062-6.3633-8.5859-10-12.5-0.79687-0.98438-1.6953-1.8789-2.6758-2.6758-15.301-14.5-40.25-25.348-96.301-25.348h-0.52344c-84.648 0-144.68 51.801-173.55 149.52-10.246 27.066-8.3164 57.238 5.3008 82.773zm196.93-27.773h-0.003906c-6.3516 31.309-22.789 59.672-46.797 80.75-15.605 12.453-36.246 16.648-55.477 11.273-8.3984-5.8516-14.316-14.621-16.602-24.598 0-0.30078 0.27344-0.52344 0.375-0.82422 0.19922-0.89844 23.824-90.426 41.75-138.55 17.02-35.121 40.613-66.656 69.5-92.902 0.47656-0.44922 0.67578-1.0234 1.1016-1.5 14.258 0.14062 28.32 3.3203 41.25 9.3281-7.8008 31.898-28.477 117.57-35.102 157.02zm-166.3-44.375c20.273-68.477 55-107.32 105.2-118.73-21.348 22.879-38.547 49.297-50.824 78.078-11.676 31.398-25.25 78.102-33.949 109.32h-0.003906c-7.9453-3.3086-14.656-9.0156-19.199-16.324-7.6016-16.539-8.0469-35.477-1.2227-52.352z"/>
  <path d="m1014.3 29.477c-7.5742-14.113-21.219-23.957-37-26.703-94.051-12.852-220.5 23.125-225.82 24.676-4.8398 1.3242-8.9492 4.5312-11.406 8.9102-2.457 4.375-3.0586 9.5547-1.6641 14.379 1.3906 4.8203 4.6562 8.8867 9.0703 11.277 4.4102 2.3945 9.5977 2.9219 14.402 1.4609 1.1992-0.35156 123.95-35.352 210.35-23.551h-0.003906c4.4102 1.4609 8.0273 4.668 10 8.875 12.949 21.523 16.199 73.273-13.5 153.95-35.617 84.57-84.203 163.07-144 232.68-1.625 1.8555-2.8711 4.0156-3.6758 6.3477-3.7734 11.051-92.023 271.55-76.875 374.18 5.3828 39.109 17.844 76.91 36.777 111.55 3.4531 5.7422 9.7031 9.207 16.406 9.0898 6.6992-0.11719 12.824-3.8008 16.074-9.6641 3.2461-5.8594 3.1211-13.008-0.33203-18.75-16.297-30.434-27.09-63.512-31.875-97.699-12.977-87.801 63.699-321.93 74.125-353.18 62-72.152 112.13-153.7 148.53-241.6 29.523-80.25 33.324-148.2 10.422-186.22z"/>
  <path d="m599.77 412.82c-49.852 0-88.898 27.648-88.898 62.926 0 35.273 39.125 62.926 88.898 62.926 49.773 0 88.898-27.625 88.898-62.926 0.003906-35.301-39.047-62.926-88.898-62.926zm0 88.352c-31.398 0-51.398-15-51.398-25.426s20-25.426 51.398-25.426c31.398 0 51.398 15 51.398 25.426 0.003906 10.426-20.023 25.426-51.398 25.426z"/>
  <path d="m599.77 567.2c-43.676 0-77.898 24.602-77.898 56 0 31.398 34.227 56 77.898 56 43.676 0 77.898-24.602 77.898-56 0.003906-31.398-34.223-56-77.898-56zm0 74.5c-25 0-40.398-11.977-40.398-18.5 0-6.5234 15.324-18.5 40.398-18.5 25.074 0 40.398 11.977 40.398 18.5 0.003906 6.5273-15.32 18.5-40.398 18.5z"/>
  <path d="m599.77 719.35c-39.5 0-70.426 22.5-70.426 51.301 0 28.801 30.926 51.301 70.426 51.301s70.449-22.5 70.449-51.301c0.003906-28.801-30.949-51.301-70.449-51.301zm0 65c-20.477 0-32.926-9.5742-32.926-13.801 0-4.2266 12.5-13.801 32.926-13.801 20.426 0 32.949 9.6016 32.949 13.801 0.003906 4.1992-12.449 13.898-32.949 13.898z"/>
  <path d="m927.65 914c-2.9727-1.6172-6.332-2.3945-9.7109-2.25-3.3828 0.14453-6.6641 1.207-9.4883 3.0742-0.97656 0.64844-101.65 65-308.68 65-207.02 0-307.27-64.324-308.15-64.824-3.7852-2.5117-8.3516-3.5625-12.855-2.9609-4.5 0.59766-8.6328 2.8086-11.629 6.2227-2.9961 3.4141-4.6523 7.7969-4.6641 12.34v250.65c0 6.6992 3.5703 12.887 9.375 16.238 5.8008 3.3477 12.945 3.3477 18.75 0 5.8008-3.3516 9.375-9.5391 9.375-16.238v-219.57c94.77 39.887 197.03 58.867 299.8 55.648 102.91 3.1914 205.31-15.805 300.23-55.699v219.62c0 6.6992 3.5742 12.887 9.375 16.238 5.8008 3.3477 12.949 3.3477 18.75 0 5.8008-3.3516 9.375-9.5391 9.375-16.238v-250.77c-0.003906-3.3789-0.92188-6.6953-2.6562-9.5938-1.7344-2.9023-4.2188-5.2773-7.1953-6.8828z"/>
  <path d="m418.77 810.68c-5.5117 34.219-14.895 67.699-27.973 99.801-1.9375 4.5859-1.9727 9.7578-0.097656 14.371 1.875 4.6133 5.5078 8.293 10.098 10.227 2.3203 0.96875 4.8086 1.4727 7.3242 1.4766 3.6836 0.003907 7.2852-1.0781 10.359-3.1133 3.0703-2.0312 5.4766-4.9219 6.9141-8.3125 14.434-35.141 24.703-71.848 30.602-109.38 14.051-102.62-73.148-362.88-76.875-373.93-0.80078-2.3555-2.0586-4.5312-3.6992-6.3984-59.848-69.582-108.46-148.09-144.07-232.68-29.699-80.676-26.449-132.5-13.5-153.95 1.9727-4.207 5.5898-7.4141 10-8.875 86.176-11.75 209.15 23.199 210.35 23.551h-0.003906c4.8711 1.7188 10.234 1.3516 14.828-1.0117 4.5938-2.3672 8.0039-6.5234 9.4336-11.488 1.4297-4.9609 0.74609-10.297-1.8867-14.738-2.6328-4.4453-6.9844-7.6055-12.023-8.7383-5.3242-1.6016-131.8-37.5-225.82-24.727-15.781 2.7461-29.426 12.59-37 26.703-22.898 38.102-19.102 105.98 10.426 186.23l-0.003906-0.003906c36.402 87.891 86.535 169.44 148.53 241.6 10.324 31.348 86.125 265.2 74.098 353.38z"/>
 </g>
</svg>
