<?xml version="1.0" encoding="UTF-8"?>
<svg width="1200pt" height="1200pt" version="1.1" viewBox="0 0 1200 1200" xmlns="http://www.w3.org/2000/svg">
 <g>
  <path d="m600 0c-78.793 0-156.82 15.52-229.61 45.672s-138.94 74.348-194.65 130.07c-55.719 55.715-99.914 121.86-130.07 194.65s-45.672 150.82-45.672 229.61c0 159.13 63.215 311.74 175.74 424.26 112.52 112.52 265.13 175.73 424.27 175.73 159.13 0 311.74-63.215 424.26-175.74 112.52-112.52 175.74-265.13 175.74-424.26 0-159.13-63.215-311.74-175.73-424.27-112.52-112.52-265.13-175.74-424.26-175.74zm0 67.762c69.121 0 137.56 13.766 201.42 40.516 63.859 26.746 121.88 65.953 170.76 115.38s87.645 108.1 114.09 172.67c26.453 64.574 40.066 133.79 40.066 203.68 0 141.16-55.457 276.53-154.16 376.34-98.707 99.816-232.58 155.89-372.18 155.89-69.121 0-137.57-13.766-201.43-40.516-63.855-26.746-121.88-65.949-170.76-115.37-48.875-49.422-87.645-108.1-114.1-172.67-26.449-64.574-40.066-133.79-40.066-203.68 0-69.898 13.613-139.11 40.066-203.68 26.449-64.574 65.219-123.25 114.1-172.68 48.875-49.422 106.9-88.625 170.76-115.38 63.859-26.746 132.3-40.512 201.43-40.512z" fill="#a8aaad"/>
  <path d="m930.62 487.47v-88.207c0-18.789-7.4609-36.812-20.75-50.098-13.285-13.285-31.305-20.75-50.098-20.75h-47.23c-18.789 0-36.812 7.4648-50.098 20.75-13.285 13.285-20.75 31.309-20.75 50.098v88.207c-4.2617 4.5273-8.207 9.3398-11.809 14.402v-19.953c-0.058594-33.066-12.73-64.867-35.426-88.914v-88.207c0-18.789-7.4648-36.812-20.75-50.098s-31.309-20.75-50.098-20.75h-47.23c-18.793 0-36.812 7.4648-50.098 20.75-13.289 13.285-20.75 31.309-20.75 50.098v88.207c-22.77 24-35.449 55.832-35.426 88.914v20.074c-3.6328-5.082-7.5742-9.9336-11.809-14.523v-88.207c0-18.789-7.4648-36.812-20.75-50.098-13.285-13.285-31.309-20.75-50.098-20.75h-47.23c-18.793 0-36.812 7.4648-50.098 20.75-13.289 13.285-20.754 31.309-20.754 50.098v88.207c-22.766 24-35.445 55.828-35.422 88.914v389.66h23.617v-389.66c-0.015624-16.965 4.0352-33.688 11.805-48.77v60.578c0 15.656 6.2227 30.676 17.293 41.746 11.074 11.07 26.09 17.293 41.75 17.293h70.848c15.656 0 30.676-6.2227 41.746-17.293 11.074-11.07 17.293-26.09 17.293-41.746v-60.578c7.7734 15.082 11.82 31.805 11.809 48.77v389.66h23.617v-484.13c-0.015625-16.965 4.0352-33.688 11.809-48.77v60.578c0 15.656 6.2188 30.676 17.289 41.746 11.074 11.074 26.09 17.293 41.75 17.293h70.848c15.66 0 30.676-6.2188 41.746-17.293 11.074-11.07 17.293-26.09 17.293-41.746v-60.578c7.7734 15.082 11.82 31.805 11.809 48.77v484.13h23.617v-389.66c-0.011719-16.965 4.0352-33.688 11.809-48.77v48.77c0 15.656 6.2188 30.676 17.293 41.746 11.07 11.074 26.086 17.293 41.746 17.293h70.848c15.66 0 30.676-6.2188 41.75-17.293 11.07-11.07 17.289-26.09 17.289-41.746v-48.77c7.7734 15.082 11.824 31.805 11.809 48.77v389.66h23.617v-389.66c-0.058593-33.066-12.73-64.867-35.426-88.914zm-495.94 100.72c0 9.3945-3.7305 18.402-10.375 25.047-6.6406 6.6445-15.652 10.375-25.047 10.375h-70.848c-9.3945 0-18.406-3.7305-25.051-10.375-6.6406-6.6445-10.375-15.652-10.375-25.047v-188.93c0-12.527 4.9766-24.539 13.836-33.398 8.8555-8.8594 20.871-13.836 33.398-13.836h47.23c12.527 0 24.539 4.9766 33.398 13.836 8.8594 8.8594 13.832 20.871 13.832 33.398zm96.117-84.309v-0.003907c-1.0273-3.2891-1.582-6.707-1.6523-10.152v-52.547c27.762-2.7031 54.664-11.09 79.043-24.637 24.379-13.551 45.703-31.973 62.656-54.121v39.676-0.003906c-12.434 27.711-31.902 51.684-56.469 69.543-24.57 17.855-53.383 28.973-83.578 32.242zm140.05-199.09v10.629c-12.551 27.969-32.262 52.133-57.141 70.047-24.883 17.914-54.051 28.941-84.559 31.973v-57.504c25.746-5.1328 49.684-16.977 69.379-34.332 19.699-17.355 34.465-39.605 42.797-64.504 8.707 3.5234 16.168 9.5625 21.426 17.344 5.2578 7.7812 8.0781 16.957 8.0977 26.348zm-94.465-47.23h41.211-0.003906c-14.605 39.168-47.773 68.48-88.441 78.168v-30.938c0-12.527 4.9766-24.539 13.836-33.398 8.8555-8.8594 20.871-13.832 33.398-13.832zm59.039 271.59-70.848-0.003906c-5.7383-0.03125-11.379-1.4922-16.414-4.25 48.855-9.168 92.574-36.141 122.69-75.688v44.516c0 9.3945-3.7344 18.402-10.379 25.047-6.6406 6.6445-15.652 10.375-25.047 10.375zm271.59 21.254v-0.003906c-3.7188 1.6367-7.75 2.4414-11.809 2.3633-8.3438 0.074219-16.359-3.25-22.199-9.2109-10.055-9.2695-23.227-14.414-36.902-14.414-13.672 0-26.844 5.1445-36.898 14.414-5.8047 5.9414-13.773 9.2656-22.082 9.2109-4.0625 0.09375-8.0938-0.71094-11.809-2.3633v-46.168c3.8828 0.83594 7.8398 1.2695 11.809 1.3008 13.672 0.082032 26.855-5.0742 36.844-14.406 5.8516-5.9062 13.824-9.2305 22.137-9.2305 8.3164 0 16.289 3.3242 22.141 9.2305 10.039 9.3281 23.258 14.48 36.961 14.406 3.9648 0 7.9219-0.39844 11.809-1.1836zm-11.809-68.488c-8.3438 0.074219-16.359-3.25-22.199-9.2109-10.055-9.2695-23.227-14.414-36.902-14.414-13.672 0-26.844 5.1445-36.898 14.414-5.8047 5.9414-13.773 9.2656-22.082 9.2109-4.0625 0.09375-8.0938-0.71094-11.809-2.3633v-46.168c3.8828 0.83594 7.8398 1.2695 11.809 1.2969 13.672 0.082031 26.855-5.0703 36.844-14.402 5.8516-5.9062 13.824-9.2305 22.137-9.2305 8.3164 0 16.289 3.3242 22.141 9.2305 10.039 9.3281 23.258 14.48 36.961 14.402 3.9688-0.027344 7.9258-0.46094 11.809-1.2969v46.168c-3.6992 1.6953-7.7422 2.5039-11.809 2.3633zm-82.656-129.89h47.23c12.527 0 24.543 4.9766 33.398 13.836 8.8594 8.8594 13.836 20.871 13.836 33.398v9.4453c-3.7188 1.6367-7.75 2.4414-11.809 2.3633-8.3438 0.074219-16.359-3.2539-22.199-9.2109-10.055-9.2695-23.227-14.418-36.902-14.418-13.672 0-26.844 5.1484-36.898 14.418-5.8047 5.9414-13.773 9.2656-22.082 9.2109-4.0625 0.09375-8.0938-0.71484-11.809-2.3633v-9.4453c0-12.527 4.9766-24.539 13.836-33.398 8.8594-8.8594 20.871-13.836 33.398-13.836zm59.039 259.78h-70.848c-9.3945 0-18.406-3.7305-25.047-10.375-6.6445-6.6445-10.379-15.652-10.379-25.047v-1.3008c3.8828 0.83594 7.8398 1.2695 11.809 1.3008 13.672 0.082031 26.855-5.0742 36.844-14.406 5.8516-5.9062 13.824-9.2305 22.137-9.2305 8.3164 0 16.289 3.3242 22.141 9.2305 10.039 9.3281 23.258 14.48 36.961 14.406 3.9688-0.03125 7.9258-0.46484 11.809-1.3008v1.3008c0 9.3945-3.7344 18.402-10.375 25.047-6.6445 6.6445-15.656 10.375-25.051 10.375z"/>
  <path d="m352.03 434.69c9.3984 0 18.406-3.7305 25.051-10.375 6.6445-6.6406 10.375-15.652 10.375-25.047s-3.7305-18.406-10.375-25.051c-6.6445-6.6406-15.652-10.375-25.051-10.375-9.3945 0-18.402 3.7344-25.047 10.375-6.6445 6.6445-10.375 15.656-10.375 25.051s3.7305 18.406 10.375 25.047c6.6445 6.6445 15.652 10.375 25.047 10.375zm0-47.23c4.7773 0 9.082 2.875 10.91 7.2891 1.8281 4.4141 0.81641 9.4922-2.5586 12.867-3.3789 3.3789-8.457 4.3867-12.867 2.5625-4.4141-1.8281-7.2891-6.1367-7.2891-10.91 0-6.5234 5.2852-11.809 11.805-11.809z"/>
  <path d="m334.32 552.77c-7.8281 0-15.336 3.1094-20.875 8.6445-5.5352 5.5391-8.6445 13.047-8.6445 20.875 0 7.8281 3.1094 15.34 8.6445 20.875 5.5391 5.5352 13.047 8.6445 20.875 8.6445 7.8281 0 15.34-3.1094 20.875-8.6445 5.5352-5.5352 8.6445-13.047 8.6445-20.875 0-7.8281-3.1094-15.336-8.6445-20.875-5.5352-5.5352-13.047-8.6445-20.875-8.6445zm0 35.426c-2.3867 0-4.5391-1.4414-5.4531-3.6445-0.91406-2.207-0.41016-4.7461 1.2773-6.4375 1.6914-1.6875 4.2305-2.1914 6.4375-1.2773 2.2031 0.91406 3.6445 3.0664 3.6445 5.4531 0 1.5664-0.625 3.0664-1.7305 4.1758-1.1094 1.1055-2.6094 1.7305-4.1758 1.7305z"/>
  <path d="m375.65 446.5c-12.527 0-24.539 4.9766-33.398 13.836-8.8555 8.8555-13.832 20.871-13.832 33.398 0 12.527 4.9766 24.539 13.832 33.398 8.8594 8.8555 20.871 13.832 33.398 13.832 12.527 0 24.539-4.9766 33.398-13.832 8.8594-8.8594 13.836-20.871 13.836-33.398 0-12.527-4.9766-24.543-13.836-33.398-8.8594-8.8594-20.871-13.836-33.398-13.836zm0 70.848c-6.2617 0-12.27-2.4883-16.699-6.9141-4.4297-4.4297-6.918-10.438-6.918-16.699 0-6.2656 2.4883-12.27 6.918-16.699 4.4297-4.4297 10.438-6.918 16.699-6.918 6.2656 0 12.27 2.4883 16.699 6.918 4.4297 4.4297 6.918 10.434 6.918 16.699 0 6.2617-2.4883 12.27-6.918 16.699-4.4297 4.4258-10.434 6.9141-16.699 6.9141z"/>
 </g>
</svg>
