<?xml version="1.0" encoding="UTF-8"?>
<svg width="1200pt" height="1200pt" version="1.1" viewBox="0 0 1200 1200" xmlns="http://www.w3.org/2000/svg">
 <g>
  <path d="m600 0c-78.793 0-156.82 15.52-229.61 45.672s-138.94 74.348-194.65 130.07c-55.719 55.715-99.914 121.86-130.07 194.65s-45.672 150.82-45.672 229.61c0 159.13 63.215 311.74 175.74 424.26 112.52 112.52 265.13 175.73 424.27 175.73 159.13 0 311.74-63.215 424.26-175.74 112.52-112.52 175.74-265.13 175.74-424.26 0-159.13-63.215-311.74-175.73-424.27-112.52-112.52-265.13-175.74-424.26-175.74zm0 67.762c69.121 0 137.56 13.766 201.42 40.516 63.859 26.746 121.88 65.953 170.76 115.38s87.645 108.1 114.09 172.67c26.453 64.574 40.066 133.79 40.066 203.68 0 141.16-55.457 276.53-154.16 376.34-98.707 99.816-232.58 155.89-372.18 155.89-69.121 0-137.57-13.766-201.43-40.516-63.855-26.746-121.88-65.949-170.76-115.37-48.875-49.422-87.645-108.1-114.1-172.67-26.449-64.574-40.066-133.79-40.066-203.68 0-69.898 13.613-139.11 40.066-203.68 26.449-64.574 65.219-123.25 114.1-172.68 48.875-49.422 106.9-88.625 170.76-115.38 63.859-26.746 132.3-40.512 201.43-40.512z" fill="#a8aaad"/>
  <path d="m471.88 718.08c16.039-3.6484 30.465-12.398 41.109-24.938 10.645-12.539 16.938-28.191 17.934-44.613 0-6.5195-5.2891-11.805-11.809-11.805-6.5234 0-11.809 5.2852-11.809 11.805-1.0508 10.711-5.3438 20.848-12.309 29.055-6.9609 8.207-16.262 14.098-26.656 16.879-6.5234 0.48828-11.414 6.1719-10.926 12.695 0.49219 6.5195 6.1758 11.41 12.695 10.922z"/>
  <path d="m729.89 718.08c6.5195 0.48828 12.203-4.4023 12.691-10.922 0.49219-6.5234-4.3984-12.207-10.922-12.695-10.324-3.0469-19.5-9.1172-26.344-17.434-6.8398-8.3125-11.031-18.488-12.031-29.207 0-3.1328-1.2422-6.1367-3.457-8.3477-2.2148-2.2148-5.2188-3.4609-8.3516-3.4609-6.5195 0-11.809 5.2891-11.809 11.809 0.99609 16.418 7.2891 32.07 17.934 44.613 10.645 12.539 25.07 21.289 41.109 24.938z"/>
  <path d="m752.8 750.08c-0.24219-0.77734-0.55859-1.5273-0.94531-2.2422 0.046876-0.35547 0.046876-0.71094 0-1.0625l-0.70703-0.70703v-0.003906c-0.50391-0.63672-1.0977-1.1953-1.7695-1.6523-0.53516-0.47266-1.1289-0.87109-1.7734-1.1797l-2.0078-0.82812c-0.78125-0.10938-1.5781-0.10938-2.3594 0l-1.5352-0.70703h-3.4219l-2.2422 0.94531h-1.0625c-92.816 65.18-181.38 92.336-263.32 81.711-0.51172-0.0625-1.0273-0.0625-1.5352 0v-70.848c0-6.5234-5.2852-11.809-11.809-11.809-6.5195 0-11.809 5.2852-11.809 11.809v200.73c0 6.5234 5.2891 11.809 11.809 11.809 6.5234 0 11.809-5.2852 11.809-11.809v-97.652c67.543 38.023 133.31 57.387 196.25 57.387 21.363-0.058593 42.66-2.3945 63.527-6.9648v47.23c0 6.5234 5.2852 11.809 11.809 11.809 6.5195 0 11.809-5.2852 11.809-11.809v-200.73-1.1797-0.003906c-0.17969-0.76562-0.41797-1.5156-0.71094-2.2422zm-25.504 133.31c-68.723 15.469-141.7 4.1328-218.8-33.418 70.848 0 144.88-25.504 221.4-74.746v108.16c-0.86719-0.058593-1.7344-0.058593-2.5977 0z"/>
  <path d="m859.78 233.95c-6.5195 0-11.809 5.2852-11.809 11.809v354.24c-0.011719 19.086-9.2461 36.992-24.797 48.059-6.4688-11.609-15.469-21.617-26.332-29.281-5.3477-3.707-12.688-2.3867-16.41 2.9492-0.32031 0.44922-0.59766 0.92188-0.82813 1.418l-0.94531 1.3008-20.547 35.426v-0.003906c-1.6523 2.9062-4.4023 5.0312-7.6328 5.8984-3.2305 0.86719-6.6719 0.40234-9.5586-1.2852-2.8906-1.6875-4.9805-4.4609-5.8086-7.7031-0.83203-3.2383-0.32812-6.6758 1.3945-9.543l61.164-106.27c1.9688-2.1641 3.0625-4.9844 3.0703-7.9102v-287.29c0-6.5234-5.2852-11.809-11.809-11.809-6.5195 0-11.809 5.2852-11.809 11.809v284.1l-38.496 66.715-79.582-24.68v-78.168c0.050781-0.3125 0.050781-0.63281 0-0.94531 24.684-11.312 45.598-29.48 60.25-52.344 14.652-22.859 22.43-49.445 22.406-76.602v-118.08c0-6.5234-5.2891-11.809-11.809-11.809-6.5234 0-11.809 5.2852-11.809 11.809v118.08c0 42.188-22.508 81.168-59.039 102.26-36.535 21.094-81.547 21.094-118.08 0-36.535-21.094-59.039-60.074-59.039-102.26v-118.08c0-6.5234-5.2891-11.809-11.809-11.809s-11.809 5.2852-11.809 11.809v118.08c-0.003907 27.133 7.7852 53.699 22.438 76.535 14.652 22.836 35.555 40.984 60.219 52.293-0.066407 0.35156-0.066407 0.71094 0 1.0625v78.168l-79.586 24.68-38.492-66.715v-284.1c0-6.5234-5.2891-11.809-11.809-11.809-6.5234 0-11.809 5.2852-11.809 11.809v287.76c0.054687 2.7305 1.0547 5.3594 2.832 7.4375l43.453 75.57 17.949 30.703c1.9453 2.875 2.6094 6.4297 1.8359 9.8125-0.77734 3.3828-2.9258 6.293-5.9297 8.0312-3.0039 1.7422-6.5938 2.1562-9.9141 1.1445-3.3203-1.0117-6.0742-3.3555-7.6016-6.4727l-20.547-35.426h-0.58984v0.003906c-1.4297-3.3633-4.3398-5.8711-7.875-6.793-3.5312-0.92578-7.2969-0.16016-10.191 2.0664l-1.1797 0.82813-2.5977 2.0078c-0.83984 0.60547-1.6289 1.2734-2.3594 2.0078l-4.6055 4.6055c-2.0938 1.9727-4.0273 4.1016-5.7891 6.375-2.125 2.5977-4.0156 5.4336-6.0234 8.2656h0.003907c-0.039063 0.35156-0.039063 0.71094 0 1.0625l-1.6523 2.5977c-15.977-10.559-25.836-28.211-26.453-47.352v-354.24c0-6.5234-5.2852-11.809-11.805-11.809-6.5234 0-11.809 5.2852-11.809 11.809v354.24c-0.16406 28.863 14.742 55.719 39.32 70.852-2.6172 9.2148-3.9297 18.754-3.8984 28.336v255.05c0 6.5234 5.2891 11.809 11.809 11.809 6.5234 0 11.809-5.2852 11.809-11.809v-255.64c-0.042969-10.141 1.8438-20.199 5.5508-29.637 0.52734-1.5352 1.1602-3.0352 1.8867-4.4883 1.3008-2.4805 2.5977-4.8398 4.1328-7.2031 1.5352-2.125 2.9531-4.25 4.4883-6.2578 0.89062-1.2539 1.918-2.4023 3.0703-3.4219l14.406 25.031c6.5312 11.215 18.547 18.102 31.527 18.066 6.3086 0.011719 12.504-1.6602 17.949-4.8398 8.625-4.7539 14.945-12.812 17.508-22.324 2.5625-9.5117 1.1445-19.656-3.9297-28.098l-10.629-18.184 82.656-25.625c5.1172-1.6016 8.5117-6.4492 8.2656-11.809v-78.875c23.219 6.1406 47.633 6.1406 70.852 0v79.703c-0.24609 5.3555 3.1484 10.203 8.2656 11.809l82.656 25.504-10.156 17.477c-6.4531 11.199-6.4453 24.992 0.027344 36.184s18.426 18.078 31.352 18.066c12.926-0.011719 24.867-6.918 31.32-18.117l14.523-24.324c5.9883 6.4453 10.676 13.98 13.816 22.199 3.6484 9.2891 5.5312 19.184 5.5508 29.164v255.64c0 6.5234 5.2852 11.809 11.809 11.809 6.5195 0 11.809-5.2852 11.809-11.809v-255.64c0.027344-9.582-1.2812-19.121-3.8984-28.34 24.398-15.02 39.277-41.605 39.32-70.258v-354.24c0-3.1328-1.2422-6.1367-3.457-8.3516s-5.2188-3.457-8.3516-3.457z"/>
 </g>
</svg>
