<?xml version="1.0" encoding="UTF-8"?>
<svg width="1200pt" height="1200pt" version="1.1" viewBox="0 0 1200 1200" xmlns="http://www.w3.org/2000/svg">
 <g>
  <path d="m906.48 880.23c-18.27-18.68-39.477-35.152-63.227-49.277 2.2383-5.4883 3.4844-8.8945 3.8047-9.7812 1.9805-5.5039 0.003906-11.648-4.8125-14.969-26.336-18.16-64.363-31.938-98.086-43.02-3.9062-1.2852-8.1914-0.58594-11.535 1.8086-3.3398 2.3945-5.3398 6.2812-5.3789 10.395 0 0.1875-0.09375 3.6016-1.125 9.8867-7.9102-1.8203-15.918-3.5156-24.098-4.9805v-46.891c33.039-27.965 63.914-66.898 78.445-113.38 21.934-1.3711 42.324-11.234 59.383-28.867 27.051-27.961 44.121-74.871 41.504-114.07-1.9258-28.828-11.543-72.551-28.242-103.27 4.0117-24.332 1.707-52.816-6.3633-77.215-12.047-36.434-37.734-66.363-74.996-87.805 0.49219-13.855-1.9453-33.703-15.207-53.535-24.332-36.387-74.727-58.199-149.78-64.824-0.375-0.035157-0.75391-0.050782-1.1328-0.050782h-19.109c-0.37891 0-0.75781 0.015625-1.1328 0.050782-75.055 6.625-125.45 28.438-149.78 64.824-13.266 19.832-15.703 39.684-15.211 53.535-37.262 21.441-62.945 51.371-74.996 87.805-8.0703 24.402-10.375 52.883-6.3633 77.211-16.699 30.715-26.316 74.438-28.242 103.27-2.6172 39.203 14.453 86.109 41.508 114.07 17.059 17.633 37.445 27.496 59.383 28.867 14.527 46.488 45.406 85.422 78.445 113.39v46.891c-8.1953 1.4648-16.219 3.168-24.145 4.9922-1.0078-6.3242-1.082-9.7305-1.082-9.8164 0.011718-4.1406-1.9648-8.0352-5.3164-10.469-3.3477-2.4336-7.6719-3.1094-11.598-1.8164-33.727 11.082-71.75 24.855-98.086 43.02-4.8125 3.3203-6.7891 9.4648-4.8125 14.969 0.1875 0.51562 1.4375 3.957 3.8281 9.7695-23.758 14.125-44.973 30.605-63.25 49.289-57.387 58.668-86.488 137.25-86.488 233.57 0 7.1172 5.7695 12.891 12.891 12.891h768.02c7.1211 0 12.891-5.7734 12.891-12.891-0.015625-96.316-29.113-174.9-86.504-233.57zm-155.37-87.516c23.207 8 48.562 17.828 67.898 29.242-13.562 32.508-64.363 141.82-164.65 225.99-14.312-12.02-27.508-23.762-39.684-35.188 105.06-104.81 130.37-185.99 136.44-220.05zm71.156-488.03c3.7148 11.23 5.957 23.449 6.7109 35.535-15.398-16.23-37.926-32.508-69.527-39.352l-5.457 25.195c43.254 9.3672 65.656 40.676 74.43 56.445 0.019531 0.035157 0.027344 0.070313 0.046875 0.10547 0.16797 0.28516 0.32812 0.59766 0.49219 0.88672 2.4922 4.5898 3.75 7.6836 3.9453 8.1797l0.3125-0.12109c12.625 25.965 20.723 62.129 22.398 87.227 1.832 27.414-9.3672 68.652-34.309 94.43-11.223 11.598-23.73 18.477-37.305 20.535-0.98047-11.523-2.2461-29.641-3.043-40.984-0.92188-13.18-1.4141-20.156-1.6719-22.262-2.3984-19.574-6.5195-44.992-17.215-67.996-15.035-32.332-43.988-65.836-55.734-78.738-10.789-11.848-23.07-23.844-34.945-35.449-9.4688-9.25-19.258-18.812-27.867-27.91-11.551-12.207-22.832-26.367-32.289-40.52 14.691-24.895 25.551-53.152 17.637-74.922-0.53516-1.4688-1.1914-2.9883-1.9766-4.5234 71.031-2.6445 169.46 25.887 195.37 104.24zm-185.09 46.109c-13.148-2.4414-26.883-3.7148-41.105-3.7148-14.227 0-27.961 1.2734-41.105 3.7148 4.2383-4.2383 8.4102-8.4766 12.367-12.66 1.3164-1.3906 14.594-15.555 28.738-35.145 14.145 19.59 27.426 33.754 28.742 35.145 3.9531 4.1836 8.125 8.4219 12.363 12.66zm-180.14-181.21c19.445-29.078 64.414-47.547 130.06-53.426h17.965c65.316 5.8477 110.19 24.176 129.78 53.008 6.3477 9.3438 9.3047 18.652 10.523 26.691-0.63281-0.26172-1.2344-0.54688-1.8672-0.80469-41.719-16.953-92.723-24.043-136.47-18.965-3.9961 0.46484-7.6133 1.1562-10.945 2.0039-3.3359-0.84766-6.9531-1.543-10.945-2.0039-43.746-5.0742-94.758 2.0117-136.47 18.965-0.60938 0.24609-1.1836 0.51953-1.7891 0.77344 1.1914-7.957 4.0586-17.121 10.16-26.242zm-45.871 383.3c-0.79297 11.312-2.0586 29.371-3.0352 40.875-13.574-2.0586-26.082-8.9375-37.305-20.535-24.941-25.777-36.141-67.016-34.309-94.426 1.6758-25.098 9.7773-61.266 22.402-87.227l0.3125 0.12109c0.19531-0.5 1.4609-3.6016 3.9609-8.2031 0.16406-0.28125 0.31641-0.58594 0.48047-0.86328 0.019532-0.03125 0.027344-0.070313 0.046876-0.10156 8.7734-15.766 31.176-47.078 74.43-56.445l-5.457-25.195c-31.602 6.8438-54.133 23.125-69.527 39.355 0.75391-12.086 3.0039-24.305 6.7148-35.539 28.039-84.785 141.03-111.26 212.27-102.99 18.906 2.1953 21.613 9.6406 22.504 12.086 7.6875 21.152-23.105 71.82-56.047 106.63-8.6055 9.0938-18.391 18.652-27.852 27.898-11.883 11.605-24.168 23.609-34.957 35.461-11.75 12.902-40.695 46.395-55.734 78.738-10.703 23.008-14.824 48.43-17.219 68-0.25781 2.0977-0.75391 9.1094-1.6836 22.355zm22.133 48.75c0.3125-3.1719 0.65625-7.1758 1.0195-11.738 0.84766-10.617 1.7852-24.027 2.5664-35.211 0.66797-9.5508 1.3594-19.43 1.5547-21.039 2.1641-17.688 5.8242-40.523 15.004-60.258 9.3906-20.199 28.613-47.211 51.418-72.25 2.8516-3.1328 5.8477-6.3047 8.9219-9.4883 23.988-12.082 51.848-18.785 82.289-18.785 30.445 0 58.301 6.7031 82.289 18.785 3.0742 3.1836 6.0703 6.3555 8.9258 9.4883 22.809 25.047 42.031 52.059 51.418 72.25 9.1758 19.73 12.836 42.57 15.004 60.254 0.19141 1.6016 0.87891 11.43 1.543 20.934 0.78125 11.188 1.7227 24.625 2.5742 35.27 0.36719 4.5859 0.71484 8.6094 1.0234 11.797-15.09 62.688-65.156 111.78-108.51 136.96-33.477 19.441-75.062 19.441-108.54 0-43.344-25.18-93.41-74.273-108.5-136.97zm71.719 202.3c6.2695-0.98438 10.891-6.3867 10.891-12.734v-38.391c4.3555 2.8945 8.6836 5.6094 12.953 8.0898 20.727 12.039 43.973 18.062 67.215 18.062 23.242 0 46.488-6.0195 67.215-18.062 4.2695-2.4805 8.6016-5.1953 12.953-8.0898v38.391c0 6.3477 4.6211 11.75 10.891 12.734 10.344 1.625 21.391 3.707 32.887 6.3438-11.77 37.73-42.711 103.49-123.9 184.54-50.25-50.137-80.418-93.336-98.344-125.56-13.164-23.66-21.055-43.609-25.789-58.949 11.543-2.6523 22.641-4.7461 33.027-6.3789zm-279.88 296.98c3.7656-129.62 64.223-203.84 134.27-246.3 9.7539 20.633 24.727 49.18 45.68 81.051 32.492 49.414 85.207 114.88 160.39 165.25zm389.98 0c-152-82.734-225.24-238.97-241.98-278.96 19.332-11.406 44.668-21.227 67.863-29.227 7.6289 43.156 46 161.71 238.27 308.19zm107.52 0c-17.117-12.32-33.07-24.438-47.949-36.32 86.023-73.293 135.78-162.41 158.12-209.94 70.016 42.473 130.43 116.68 134.2 246.26z"/>
  <path d="m555.3 638.68-20.555 15.562c15.75 20.801 38.102 32.73 61.324 32.73s45.574-11.93 61.324-32.73l-20.555-15.562c-10.988 14.516-25.469 22.512-40.77 22.512-15.297 0-29.777-7.9961-40.77-22.512z"/>
  <path d="m516.09 556.01c15.621 0 35.488-5.5156 54.988-26.215l-18.766-17.676c-12.145 12.891-25.262 18.965-39 18.016-15.961-1.0859-27.82-11.012-29.754-13.723 0.19531 0.26953 0.3125 0.53125 0.41406 0.74609l-23.297 11.035c4.2695 9.0156 22.25 23.41 44.895 26.984 3.2109 0.50781 6.7422 0.83203 10.52 0.83203z"/>
  <path d="m676.05 556.01c3.7734 0 7.3008-0.32031 10.516-0.82812 22.648-3.5742 40.629-17.965 44.906-26.984l-23.297-11.043c0.10156-0.21094 0.22266-0.47266 0.41406-0.74219-1.9336 2.7109-13.797 12.637-29.758 13.723-13.738 0.93359-26.855-5.125-39-18.016l-18.766 17.676c19.496 20.703 39.359 26.215 54.984 26.215z"/>
 </g>
</svg>
