<?xml version="1.0" encoding="UTF-8"?>
<svg width="1200pt" height="1200pt" version="1.1" viewBox="0 0 1200 1200" xmlns="http://www.w3.org/2000/svg">
 <g>
  <path d="m600 0c-78.793 0-156.82 15.52-229.61 45.672s-138.94 74.348-194.65 130.07c-55.719 55.715-99.914 121.86-130.07 194.65s-45.672 150.82-45.672 229.61c0 159.13 63.215 311.74 175.74 424.26 112.52 112.52 265.13 175.73 424.27 175.73 159.13 0 311.74-63.215 424.26-175.74 112.52-112.52 175.74-265.13 175.74-424.26 0-159.13-63.215-311.74-175.73-424.27-112.52-112.52-265.13-175.74-424.26-175.74zm0 67.762c69.121 0 137.56 13.766 201.42 40.516 63.859 26.746 121.88 65.953 170.76 115.38s87.645 108.1 114.09 172.67c26.453 64.574 40.066 133.79 40.066 203.68 0 141.16-55.457 276.53-154.16 376.34-98.707 99.816-232.58 155.89-372.18 155.89-69.121 0-137.57-13.766-201.43-40.516-63.855-26.746-121.88-65.949-170.76-115.37-48.875-49.422-87.645-108.1-114.1-172.67-26.449-64.574-40.066-133.79-40.066-203.68 0-69.898 13.613-139.11 40.066-203.68 26.449-64.574 65.219-123.25 114.1-172.68 48.875-49.422 106.9-88.625 170.76-115.38 63.859-26.746 132.3-40.512 201.43-40.512z" fill="#a8aaad"/>
  <path d="m847.97 422.88c-24.07 0.023438-47.426 8.2109-66.242 23.227-18.82 15.012-31.988 35.961-37.363 59.43h-288.72c-7.2969-32.059-29.02-58.934-58.836-72.789-29.812-13.855-64.363-13.129-93.57 1.9648-29.203 15.094-49.781 42.859-55.723 75.191-5.9453 32.336 3.4141 65.602 25.344 90.094-21.922 24.496-31.273 57.758-25.328 90.086 5.9492 32.328 26.52 60.082 55.723 75.176 29.203 15.09 63.742 15.816 93.555 1.9688 29.809-13.848 51.535-40.715 58.836-72.766h288.72c7.2969 32.059 29.02 58.934 58.832 72.789 29.816 13.852 64.363 13.129 93.57-1.9648 29.207-15.098 49.785-42.859 55.727-75.195 5.9453-32.332-3.4141-65.598-25.344-90.094 18.348-20.488 28.035-47.297 27.02-74.785-1.0117-27.484-12.645-53.508-32.449-72.594-19.809-19.086-46.242-29.746-73.75-29.738zm0 165.31c20.023-0.007812 39.363 7.2578 54.426 20.449 0.074219 0.070313 0.14062 0.14844 0.21484 0.21094 20.367 17.945 30.625 44.75 27.438 71.707-3.1836 26.961-19.406 50.637-43.398 63.336-23.992 12.703-52.691 12.812-76.777 0.29687-24.09-12.52-40.492-36.066-43.887-63-0.73828-5.9102-5.7617-10.344-11.715-10.344h-308.54c-5.9531 0-10.977 4.4336-11.715 10.344-3.2734 26.086-18.762 49.059-41.719 61.875-22.953 12.816-50.641 13.945-74.562 3.0391s-41.23-32.543-46.613-58.277 1.8008-52.496 19.348-72.074c17.977 12.793 39.496 19.668 61.559 19.668 6.5234 0 11.809-5.2852 11.809-11.809 0-6.5195-5.2852-11.809-11.809-11.809-20.02 0.007812-39.359-7.2617-54.422-20.449-0.074219-0.070313-0.14062-0.14844-0.21484-0.21094-20.367-17.945-30.625-44.75-27.438-71.711 3.1836-26.957 19.406-50.633 43.398-63.336 23.992-12.699 52.691-12.812 76.777-0.29297 24.09 12.516 40.492 36.066 43.887 63 0.73828 5.9102 5.7617 10.344 11.715 10.344h308.54c5.9531 0 10.977-4.4336 11.715-10.344 3.2734-26.086 18.762-49.062 41.715-61.875 22.957-12.816 50.641-13.945 74.566-3.0391 23.922 10.906 41.227 32.543 46.613 58.277 5.3828 25.734-1.8008 52.492-19.348 72.074-17.977-12.797-39.496-19.668-61.562-19.668-6.5195 0-11.805 5.2852-11.805 11.809 0 6.5195 5.2852 11.809 11.805 11.809z"/>
  <path d="m458.3 623.62h23.617v23.617h-23.617z"/>
  <path d="m505.54 623.62h23.617v23.617h-23.617z"/>
  <path d="m552.77 623.62h70.848v23.617h-70.848z"/>
 </g>
</svg>
