<?xml version="1.0" encoding="UTF-8"?>
<svg width="1200pt" height="1200pt" version="1.1" viewBox="0 0 1200 1200" xmlns="http://www.w3.org/2000/svg">
 <g>
  <path d="m600 0c-78.793 0-156.82 15.52-229.61 45.672s-138.94 74.348-194.65 130.07c-55.719 55.715-99.914 121.86-130.07 194.65s-45.672 150.82-45.672 229.61c0 159.13 63.215 311.74 175.74 424.26 112.52 112.52 265.13 175.73 424.27 175.73 159.13 0 311.74-63.215 424.26-175.74 112.52-112.52 175.74-265.13 175.74-424.26 0-159.13-63.215-311.74-175.73-424.27-112.52-112.52-265.13-175.74-424.26-175.74zm0 67.762c69.121 0 137.56 13.766 201.42 40.516 63.859 26.746 121.88 65.953 170.76 115.38s87.645 108.1 114.09 172.67c26.453 64.574 40.066 133.79 40.066 203.68 0 141.16-55.457 276.53-154.16 376.34-98.707 99.816-232.58 155.89-372.18 155.89-69.121 0-137.57-13.766-201.43-40.516-63.855-26.746-121.88-65.949-170.76-115.37-48.875-49.422-87.645-108.1-114.1-172.67-26.449-64.574-40.066-133.79-40.066-203.68 0-69.898 13.613-139.11 40.066-203.68 26.449-64.574 65.219-123.25 114.1-172.68 48.875-49.422 106.9-88.625 170.76-115.38 63.859-26.746 132.3-40.512 201.43-40.512z" fill="#a8aaad"/>
  <path d="m304.8 930.62h495.94c15.652-0.015625 30.66-6.2422 41.727-17.312 11.07-11.066 17.293-26.074 17.312-41.727v-45.211c51.949-51.426 84.637-119.15 92.582-191.81 7.9414-72.664-9.3398-145.85-48.953-207.28-39.609-61.434-99.141-107.38-168.61-130.13-4.1406-6.8047-9.0586-13.109-14.652-18.785l-29.141-29.145c-3.3789-3.375-8.457-4.3828-12.867-2.5586-4.4141 1.8281-7.2891 6.1328-7.2891 10.91v3.1289c-0.035156 7.5391-0.82812 15.055-2.3633 22.434-10.98-1.2148-22.016-1.8672-33.062-1.9492-44.836-0.007813-89.164 9.457-130.09 27.77-40.926 18.316-77.52 45.066-107.39 78.504h-17.711c-19.191 0.039063-37.648 7.3867-51.621 20.547-13.969 13.16-22.402 31.145-23.586 50.301h-0.23438c-6.5195 0-11.809 5.2891-11.809 11.809v23.617h-11.809v23.617l11.809-0.003906v12.992c-13.324 2.7383-25.301 9.9883-33.902 20.531-8.6055 10.539-13.312 23.723-13.328 37.328v283.39c0.019531 15.652 6.2422 30.66 17.312 41.727 11.066 11.07 26.074 17.297 41.727 17.312zm495.94-23.617-495.94 0.003907c-9.3945 0-18.406-3.7344-25.047-10.375-6.6445-6.6445-10.379-15.656-10.379-25.051h566.79c0 9.3945-3.7344 18.406-10.379 25.051-6.6406 6.6406-15.652 10.375-25.047 10.375zm11.809-389.66h11.809v-23.613h-11.809v-23.617c0-3.1328-1.2461-6.1367-3.4609-8.3477-2.2109-2.2148-5.2148-3.4609-8.3477-3.4609h-0.12891c-0.33203-16.102-6.0234-31.637-16.176-44.141-10.152-12.504-24.188-21.27-39.879-24.902l2.6328-10.531c57.637 29 101.66 79.367 122.69 140.36 21.035 60.996 17.41 127.79-10.102 186.15v-117.05c-0.015625-13.605-4.7227-26.789-13.328-37.328-8.6016-10.543-20.578-17.793-33.902-20.531zm23.617 330.62h-566.79v-224.35h566.79zm94.465-247.97h-0.003906c0.29297 70.418-24.867 138.57-70.848 191.91v-39.297c29.656-43.402 46.047-94.496 47.172-147.05 1.1211-52.555-13.07-104.3-40.848-148.93-27.773-44.629-67.934-80.211-115.58-102.41 0.24219-9.2031-0.73828-18.395-2.918-27.336 54.273 22.07 100.7 59.875 133.32 108.54 32.617 48.672 49.93 105.99 49.707 164.57zm-295.2-295.2c8.668 0 17.324 0.50781 25.977 1.25-3.5195 8.0859-7.9688 15.734-13.258 22.793-4.2539-0.19141-8.457-0.42578-12.719-0.42578-61.211 0.11328-120.59 20.918-168.48 59.039h-36.309c54.969-53.051 128.39-82.684 204.79-82.656zm-11.312 47.738c-6.9219 5.1211-14.406 9.4336-22.305 12.859-29.531 12.695-61.086 20.039-93.188 21.68 35.062-20.848 74.738-32.715 115.49-34.539zm-243.84 58.535h93.211l0.63672 0.73047c0.30859-0.26172 0.63672-0.47266 0.94531-0.73047h19.285c40.145 0.042969 79.879-8.1133 116.76-23.973 42.824-18.336 73.441-57.125 81.332-103.04l11.004 10.992h0.003906c20.012 20.012 28.059 49.059 21.195 76.516l-3.9805 15.883h-26.203c-6.5195 0-11.809 5.2852-11.809 11.809 0 6.5195 5.2891 11.809 11.809 11.809h33.973c12.66 0.007812 24.82 4.9414 33.906 13.758 9.0859 8.8164 14.387 20.82 14.777 33.473h-448.49c1.1758-12.891 7.125-24.879 16.68-33.617 9.5508-8.7344 22.023-13.59 34.969-13.613zm-63.668 70.848h472.32v11.809h-472.32zm472.32 35.426v11.809l-472.32-0.003906v-11.809zm-484.13 35.422h495.94c9.3945 0 18.406 3.7305 25.047 10.375 6.6445 6.6445 10.379 15.652 10.379 25.051v11.809l-566.79-0.003906v-11.805c0-9.3984 3.7344-18.406 10.379-25.051 6.6406-6.6445 15.652-10.375 25.047-10.375z"/>
  <path d="m411.07 682.66h295.2v23.617h-295.2z"/>
  <path d="m411.07 729.89h295.2v23.617h-295.2z"/>
  <path d="m505.54 777.12h118.08v23.617h-118.08z"/>
 </g>
</svg>
