<?xml version="1.0" encoding="UTF-8"?>
<svg width="1200pt" height="1200pt" version="1.1" viewBox="0 0 1200 1200" xmlns="http://www.w3.org/2000/svg">
 <path transform="scale(3.6036)" d="m211 58c0 24.301-19.699 44-44 44s-44-19.699-44-44c0-24.3 19.699-44 44-44s44 19.7 44 44" fill="none" stroke="#000" stroke-width="6.9449"/>
 <path transform="scale(3.6036)" d="m56 128s100-28 217 0l-33-72c-9.9998-21 9.9998-32 23-14 0 0 47 97 47 97s5.9999 20-19 19l-57-7.9998c3.9999 40-39 56-15 122h-106c21-62-16-83-9.9998-122l-65 9.0003s-37 3.9999-17-32l37-81c9.9998-21 39-9.9998 28 15 0 0-30 67-30 67z" fill="none" stroke="#000" stroke-width="6.9449"/>
 <path transform="scale(3.6036)" d="m182 149c0 9.3884-7.6107 17-17 17-9.3884 0-17-7.6117-17-17 0-9.3895 7.6117-17 17-17 9.3895 0 17 7.6107 17 17" fill="none" stroke="#000" stroke-width="6.9449"/>
 <path transform="scale(3.6036)" d="m182 197c0 9.3884-7.6107 17-17 17-9.3884 0-17-7.6117-17-17 0-9.3884 7.6117-17 17-17 9.3895 0 17 7.6117 17 17" fill="none" stroke="#000" stroke-width="6.9449"/>
 <path transform="scale(3.6036)" d="m182 243c0 9.3884-7.6107 17-17 17-9.3884 0-17-7.6117-17-17 0-9.3884 7.6117-17 17-17 9.3895 0 17 7.6117 17 17" fill="none" stroke="#000" stroke-width="6.9449"/>
 <path d="m792.79 1009h-381.98c-43.242 0-79.277 36.035-79.277 75.676v79.277h536.94v-79.277c0-39.641-32.434-75.676-75.676-75.676z" fill-rule="evenodd"/>
</svg>
