<?xml version="1.0" encoding="UTF-8"?>
<svg width="1200pt" height="1200pt" version="1.1" viewBox="0 0 1200 1200" xmlns="http://www.w3.org/2000/svg">
 <g>
  <path d="m600 0c-78.793 0-156.82 15.52-229.61 45.672s-138.94 74.348-194.65 130.07c-55.719 55.715-99.914 121.86-130.07 194.65s-45.672 150.82-45.672 229.61c0 159.13 63.215 311.74 175.74 424.26 112.52 112.52 265.13 175.73 424.27 175.73 159.13 0 311.74-63.215 424.26-175.74 112.52-112.52 175.74-265.13 175.74-424.26 0-159.13-63.215-311.74-175.73-424.27-112.52-112.52-265.13-175.74-424.26-175.74zm0 67.762c69.121 0 137.56 13.766 201.42 40.516 63.859 26.746 121.88 65.953 170.76 115.38s87.645 108.1 114.09 172.67c26.453 64.574 40.066 133.79 40.066 203.68 0 141.16-55.457 276.53-154.16 376.34-98.707 99.816-232.58 155.89-372.18 155.89-69.121 0-137.57-13.766-201.43-40.516-63.855-26.746-121.88-65.949-170.76-115.37-48.875-49.422-87.645-108.1-114.1-172.67-26.449-64.574-40.066-133.79-40.066-203.68 0-69.898 13.613-139.11 40.066-203.68 26.449-64.574 65.219-123.25 114.1-172.68 48.875-49.422 106.9-88.625 170.76-115.38 63.859-26.746 132.3-40.512 201.43-40.512z" fill="#a8aaad"/>
  <path d="m788.93 245.76c-121.89 0-165.31 115.89-165.31 224.35v145.27c-0.10547 7.332 2.125 14.504 6.3711 20.484 4.2461 5.9766 10.289 10.441 17.246 12.754v163.93c0 50.621 27.008 97.402 70.848 122.71 43.84 25.312 97.855 25.312 141.7 0 43.844-25.309 70.848-72.09 70.848-122.71v-163.73c6.918-2.4414 12.906-6.9648 17.137-12.957 4.2305-5.9883 6.4961-13.148 6.4805-20.48v-145.27c0-108.46-43.426-224.35-165.31-224.35zm0 23.617c104.47 0 141.7 103.7 141.7 200.74v89.879-0.003906c-46.078-13.086-93.797-19.492-141.7-19.031-47.898-0.46094-95.617 5.9453-141.7 19.031v-89.879c0-97.043 37.223-200.74 141.7-200.74zm0 661.25v-0.003906c-31.305-0.03125-61.32-12.484-83.457-34.621-22.137-22.137-34.59-52.152-34.621-83.457v-163.59c6.8594-1.6836 14.754-3.3984 23.617-5.0508l-0.003906 168.64c0 33.75 18.008 64.934 47.234 81.809 29.227 16.875 65.234 16.875 94.465 0 29.227-16.875 47.23-48.059 47.23-81.809v-168.64c8.8633 1.6523 16.758 3.3672 23.617 5.0508v163.59c-0.035157 31.305-12.488 61.32-34.625 83.457-22.137 22.137-52.148 34.59-83.457 34.621zm-70.848-290.53c47.027-6.2305 94.668-6.2305 141.7 0v172.45c0 25.312-13.504 48.699-35.422 61.355-21.922 12.656-48.93 12.656-70.848 0-21.922-12.656-35.426-36.043-35.426-61.355zm207.98-15.344c-2.8242 2.2188-6.5234 2.9922-10 2.0938-83.566-20.051-170.69-20.051-254.25 0-3.4805 0.89844-7.1797 0.125-10.004-2.0938-2.8984-2.2461-4.5859-5.7109-4.5664-9.375v-30.609c45.926-13.918 93.711-20.727 141.7-20.191 47.984-0.53516 95.77 6.2734 141.7 20.191v30.609c0.019531 3.6641-1.668 7.1289-4.5664 9.375zm-514.98-378.99c-121.89 0-165.31 115.89-165.31 224.35v145.27c-0.10938 7.332 2.1211 14.504 6.3672 20.484 4.2461 5.9766 10.289 10.441 17.246 12.754v163.93c0 50.621 27.008 97.402 70.852 122.71 43.84 25.312 97.855 25.312 141.7 0 43.84-25.309 70.848-72.09 70.848-122.71v-163.73c6.918-2.4414 12.906-6.9648 17.137-12.957 4.2305-5.9883 6.4922-13.148 6.4805-20.48v-145.27c0-108.46-43.43-224.35-165.31-224.35zm0 684.87v-0.003906c-31.309-0.03125-61.32-12.484-83.457-34.621-22.137-22.137-34.59-52.152-34.625-83.457v-163.59c6.8594-1.6836 14.754-3.3984 23.617-5.0508v168.64c0 33.75 18.004 64.934 47.23 81.809 29.227 16.875 65.238 16.875 94.465 0 29.227-16.875 47.234-48.059 47.234-81.809v-168.64c8.8633 1.6523 16.758 3.3672 23.617 5.0508l-0.003906 163.59c-0.035156 31.305-12.484 61.32-34.621 83.457-22.137 22.137-52.152 34.59-83.457 34.621zm-70.848-290.53c47.023-6.2305 94.668-6.2305 141.7 0v172.45c0 25.312-13.504 48.699-35.426 61.355-21.918 12.656-48.926 12.656-70.848 0-21.922-12.656-35.422-36.043-35.422-61.355zm207.98-15.344c-2.8281 2.2148-6.5234 2.9922-10.004 2.0938-41.598-10.219-84.293-15.27-127.12-15.039-42.832-0.23047-85.531 4.8203-127.13 15.039-3.4766 0.89844-7.1758 0.125-10.004-2.0938-2.8945-2.2461-4.582-5.7109-4.5664-9.375v-30.609c45.926-13.918 93.711-20.727 141.7-20.191 47.984-0.53516 95.77 6.2734 141.7 20.191v30.609c0.015625 3.6641-1.6719 7.1289-4.5664 9.375zm4.5664-64.762c-46.078-13.086-93.797-19.492-141.7-19.031-47.898-0.46094-95.617 5.9453-141.7 19.031v-89.879c0-97.043 37.227-200.74 141.7-200.74 104.47 0 141.7 103.7 141.7 200.74z"/>
 </g>
</svg>
