<?xml version="1.0" encoding="UTF-8"?>
<svg width="1200pt" height="1200pt" version="1.1" viewBox="0 0 1200 1200" xmlns="http://www.w3.org/2000/svg">
 <g>
  <path d="m600 0c-78.793 0-156.82 15.52-229.61 45.672s-138.94 74.348-194.65 130.07c-55.719 55.715-99.914 121.86-130.07 194.65s-45.672 150.82-45.672 229.61c0 159.13 63.215 311.74 175.74 424.26 112.52 112.52 265.13 175.73 424.27 175.73 159.13 0 311.74-63.215 424.26-175.74 112.52-112.52 175.74-265.13 175.74-424.26 0-159.13-63.215-311.74-175.73-424.27-112.52-112.52-265.13-175.74-424.26-175.74zm0 67.762c69.121 0 137.56 13.766 201.42 40.516 63.859 26.746 121.88 65.953 170.76 115.38s87.645 108.1 114.09 172.67c26.453 64.574 40.066 133.79 40.066 203.68 0 141.16-55.457 276.53-154.16 376.34-98.707 99.816-232.58 155.89-372.18 155.89-69.121 0-137.57-13.766-201.43-40.516-63.855-26.746-121.88-65.949-170.76-115.37-48.875-49.422-87.645-108.1-114.1-172.67-26.449-64.574-40.066-133.79-40.066-203.68 0-69.898 13.613-139.11 40.066-203.68 26.449-64.574 65.219-123.25 114.1-172.68 48.875-49.422 106.9-88.625 170.76-115.38 63.859-26.746 132.3-40.512 201.43-40.512z" fill="#a8aaad"/>
  <path d="m362.96 652.54c1.0195 0.46875 2.0859 0.6875 3.1367 0.6875 2.8711 0 5.6055-1.6406 6.8789-4.4141l15.539-34c13.777 4.7969 28.277 7.6562 43.113 8.3828l-0.003906 36.508c0 4.1797 3.3789 7.5586 7.5586 7.5586s7.5586-3.3789 7.5586-7.5586v-36.508c14.969-0.73437 29.594-3.6406 43.492-8.5234l15.605 34.145c1.2695 2.7734 4.0039 4.4141 6.8789 4.4141 1.0508 0 2.1172-0.21875 3.1367-0.6875 3.793-1.7305 5.4648-6.2109 3.7266-10.012l-15.332-33.535c12.348-5.75 23.934-13.141 34.453-22.027l27.395 27.395c1.4727 1.4727 3.4102 2.2148 5.3438 2.2148 1.9336 0 3.8711-0.74219 5.3438-2.2148 2.9531-2.9531 2.9531-7.7305 0-10.688l-27.039-27.039c2.4336-2.5 4.8125-5.0547 7.0898-7.7305 2.6992-3.1797 2.3203-7.9492-0.86328-10.648-3.168-2.6914-7.9492-2.3438-10.648 0.86328-26.578 31.258-65.262 49.184-106.13 49.184-40.867 0-79.555-17.926-106.13-49.184-2.6992-3.2031-7.4883-3.5586-10.648-0.86328-3.1797 2.6992-3.5664 7.4648-0.86328 10.648 2.3438 2.7578 4.8047 5.3867 7.3164 7.957l-26.82 26.82c-2.9531 2.9531-2.9531 7.7305 0 10.688 1.4727 1.4727 3.4102 2.2148 5.3438 2.2148s3.8711-0.74219 5.3438-2.2148l27.199-27.199c10.559 8.8789 22.18 16.277 34.566 22.008l-15.242 33.355c-1.7578 3.793-0.085937 8.2734 3.707 10.004z"/>
  <path d="m874.18 576.63c2.4336-2.5 4.8125-5.0547 7.0898-7.7305 2.6992-3.1797 2.3203-7.9492-0.86328-10.648-3.1602-2.6914-7.9492-2.3438-10.648 0.86328-26.578 31.258-65.262 49.184-106.13 49.184-40.867 0-79.555-17.926-106.13-49.184-2.707-3.2031-7.4883-3.5586-10.648-0.86328-3.1797 2.6992-3.5664 7.4648-0.86328 10.648 2.3438 2.7578 4.8047 5.3867 7.3164 7.957l-26.82 26.82c-2.9531 2.9531-2.9531 7.7305 0 10.688 1.4727 1.4727 3.4102 2.2148 5.3438 2.2148s3.8711-0.74219 5.3438-2.2148l27.199-27.199c10.559 8.8789 22.18 16.277 34.566 22.008l-15.242 33.355c-1.7305 3.8008-0.066406 8.2812 3.7266 10.012 1.0195 0.46875 2.0859 0.6875 3.1367 0.6875 2.8711 0 5.6055-1.6406 6.8789-4.4141l15.539-34c13.777 4.7969 28.277 7.6562 43.113 8.3828l-0.007813 36.508c0 4.1797 3.3789 7.5586 7.5586 7.5586 4.1797 0 7.5586-3.3789 7.5586-7.5586v-36.508c14.969-0.73437 29.594-3.6406 43.492-8.5234l15.605 34.145c1.2695 2.7734 4.0039 4.4141 6.8789 4.4141 1.0508 0 2.1172-0.21875 3.1367-0.6875 3.793-1.7305 5.4648-6.2109 3.7266-10.012l-15.324-33.531c12.348-5.75 23.934-13.141 34.453-22.027l27.395 27.395c1.4727 1.4727 3.4102 2.2148 5.3438 2.2148 1.9336 0 3.8711-0.74219 5.3438-2.2148 2.9531-2.9531 2.9531-7.7305 0-10.688z"/>
 </g>
</svg>
