<?xml version="1.0" encoding="UTF-8"?>
<svg width="1200pt" height="1200pt" version="1.1" viewBox="0 0 1200 1200" xmlns="http://www.w3.org/2000/svg">
 <g>
  <path d="m600 0c-78.793 0-156.82 15.52-229.61 45.672s-138.94 74.348-194.65 130.07c-55.719 55.715-99.914 121.86-130.07 194.65s-45.672 150.82-45.672 229.61c0 159.13 63.215 311.74 175.74 424.26 112.52 112.52 265.13 175.73 424.27 175.73 159.13 0 311.74-63.215 424.26-175.74 112.52-112.52 175.74-265.13 175.74-424.26 0-159.13-63.215-311.74-175.73-424.27-112.52-112.52-265.13-175.74-424.26-175.74zm0 67.762c69.121 0 137.56 13.766 201.42 40.516 63.859 26.746 121.88 65.953 170.76 115.38s87.645 108.1 114.09 172.67c26.453 64.574 40.066 133.79 40.066 203.68 0 141.16-55.457 276.53-154.16 376.34-98.707 99.816-232.58 155.89-372.18 155.89-69.121 0-137.57-13.766-201.43-40.516-63.855-26.746-121.88-65.949-170.76-115.37-48.875-49.422-87.645-108.1-114.1-172.67-26.449-64.574-40.066-133.79-40.066-203.68 0-69.898 13.613-139.11 40.066-203.68 26.449-64.574 65.219-123.25 114.1-172.68 48.875-49.422 106.9-88.625 170.76-115.38 63.859-26.746 132.3-40.512 201.43-40.512z" fill="#a8aaad"/>
  <path d="m857.42 257.57h-514.83c-47.23 0-85.016 37.785-85.016 85.016v516.01c0 47.23 37.785 85.02 85.02 85.02h516.01c47.23 0 85.02-37.785 85.02-85.02l-0.003906-516.01c-1.1836-47.23-38.969-85.016-86.199-85.016zm-576.23 304.64h138.15c-2.3633 11.809-3.543 24.797-3.543 37.785s1.1797 25.977 3.543 37.785l-138.15 0.003906zm157.05 37.785c0-88.559 72.027-161.77 161.77-161.77s161.77 73.211 161.77 161.77c0 88.562-73.211 161.77-161.77 161.77-88.559 0-161.77-73.211-161.77-161.77zm407.38-61.398h-49.594v-257.42h49.594zm-72.031-3.543c-10.629-28.34-27.16-53.137-49.594-72.027v-181.85h49.594zm7.0859 27.156h138.16v75.57l-138.16 0.003906c2.3633-11.809 3.543-24.797 3.543-37.785 0-12.992 0-25.98-3.543-37.789zm138.16-219.63v197.2h-49.594v-257.41c28.336 5.9023 49.594 30.699 49.594 60.219zm-576.23-61.402h357.79v164.13c-29.52-18.895-63.762-29.52-100.37-29.52-80.293 0-148.78 51.957-174.76 123.98h-144.06v-197.2c0-34.242 27.16-61.402 61.402-61.402zm514.83 637.64h-514.83c-34.242 0-61.402-27.16-61.402-61.402v-196.02h144.06c24.797 72.027 93.285 123.98 174.76 123.98 81.477 0 148.78-51.957 174.76-123.98h144.06v197.2c0 33.062-27.16 60.223-61.402 60.223z"/>
  <path d="m600 701.55c55.496 0 101.55-44.871 101.55-101.55s-44.871-101.55-101.55-101.55-101.55 44.871-101.55 101.55c0.003906 56.68 46.055 101.55 101.55 101.55zm0-179.48c42.508 0 77.934 34.242 77.934 77.934s-34.242 77.934-77.934 77.934-77.934-34.242-77.934-77.934c0.003906-43.691 35.426-77.934 77.934-77.934z"/>
  <path d="m370.93 425.24c29.52 0 53.137-23.617 53.137-53.137s-23.617-53.137-53.137-53.137-53.137 23.617-53.137 53.137 23.617 53.137 53.137 53.137zm0-83.836c16.531 0 29.52 12.988 29.52 29.52s-12.988 29.52-29.52 29.52-29.52-12.988-29.52-29.52 12.988-29.52 29.52-29.52z"/>
 </g>
</svg>
