<?xml version="1.0" encoding="UTF-8"?>
<svg width="1200pt" height="1200pt" version="1.1" viewBox="0 0 1200 1200" xmlns="http://www.w3.org/2000/svg">
 <g>
  <path d="m600 0c-78.793 0-156.82 15.52-229.61 45.672s-138.94 74.348-194.65 130.07c-55.719 55.715-99.914 121.86-130.07 194.65s-45.672 150.82-45.672 229.61c0 159.13 63.215 311.74 175.74 424.26 112.52 112.52 265.13 175.73 424.27 175.73 159.13 0 311.74-63.215 424.26-175.74 112.52-112.52 175.74-265.13 175.74-424.26 0-159.13-63.215-311.74-175.73-424.27-112.52-112.52-265.13-175.74-424.26-175.74zm0 67.762c69.121 0 137.56 13.766 201.42 40.516 63.859 26.746 121.88 65.953 170.76 115.38s87.645 108.1 114.09 172.67c26.453 64.574 40.066 133.79 40.066 203.68 0 141.16-55.457 276.53-154.16 376.34-98.707 99.816-232.58 155.89-372.18 155.89-69.121 0-137.57-13.766-201.43-40.516-63.855-26.746-121.88-65.949-170.76-115.37-48.875-49.422-87.645-108.1-114.1-172.67-26.449-64.574-40.066-133.79-40.066-203.68 0-69.898 13.613-139.11 40.066-203.68 26.449-64.574 65.219-123.25 114.1-172.68 48.875-49.422 106.9-88.625 170.76-115.38 63.859-26.746 132.3-40.512 201.43-40.512z" fill="#a8aaad"/>
  <path d="m576.15 404.49c-5.3242 27.871 4.0781 60.344 37.074 70.062l4.5898-15.574c-24.836-7.3125-29.371-32.281-25.715-51.441 4.1992-21.992 19.777-33.09 37.809-45.941 6.1875-4.4062 12.582-8.9648 18.688-14.133 22.555-19.09 33.652-46.832 29.68-74.199l-16.066 2.332c3.2109 22.117-5.5781 43.797-24.102 59.477-5.5859 4.7266-11.703 9.0859-17.617 13.301-19.133 13.633-38.914 27.73-44.34 56.117z"/>
  <path d="m534.28 421.95c-4.1953-20.699 1.4883-48.402 23.641-63.625 7.6758-5.2773 16.891-9.043 25.805-12.688 19.098-7.8086 40.746-16.656 47.035-42.219l-15.766-3.8789c-4.1055 16.691-16.891 22.68-37.414 31.066-9.707 3.9688-19.746 8.0742-28.855 14.336-28.262 19.426-35.609 54.293-30.355 80.23z"/>
  <path d="m675.95 345.71c-0.082031 0.066407-0.16016 0.13281-0.23438 0.19922-17.309 15.223-26.543 31.559-27.453 48.559-1.1406 21.328 11.602 35.465 12.141 36.059l11.961-10.977c-0.085938-0.09375-8.6562-9.8555-7.8906-24.215 0.66406-12.449 8.0234-24.949 21.867-37.152 2.6367-2.1914 32.184-27.738 22.098-62.57l-15.594 4.5156c7.3164 25.262-15.922 44.781-16.895 45.582z"/>
  <path d="m929.24 580.84c0-33.25-27.051-60.297-60.297-60.297h-59.629v-20.641c0-4.4844-3.6328-8.1172-8.1172-8.1172l-375.12-0.003906c-4.4844 0-8.1172 3.6367-8.1172 8.1172v131.09c0 10.957 0.91797 21.699 2.6602 32.168-5.2031 7.8711-8.8789 16.664-11.023 25.039-8.0156-12.973-21.344-26.145-37.605-31.68-12.09-4.1172-24.023-3.1875-34.508 2.6875-13.867 7.7695-21.668 19.691-22.555 34.48-1.1836 19.676 9.957 39.039 22.848 51.652-15.238 0.46094-33.297 5.4141-46.219 16.723-9.6133 8.4141-14.773 19.211-14.93 31.23-0.20312 15.895 6.2188 28.609 18.582 36.773 9.8789 6.5234 21.883 9.1406 33.66 9.1406 7.8398 0 15.562-1.1797 22.508-3.125-7.2266 13.43-11.969 31.559-8.6328 48.406 2.4805 12.531 9.25 22.402 19.582 28.543 7.5469 4.4883 15.262 6.7383 22.895 6.7383 6.1836 0 12.312-1.4805 18.242-4.4453 17.637-8.8164 28.82-28.156 33.293-45.629 8.0156 12.973 21.344 26.141 37.602 31.68 4.9531 1.6875 9.8789 2.5273 14.691 2.5273 6.9336 0 13.633-1.7461 19.82-5.2109 13.867-7.7695 21.668-19.691 22.555-34.48 0.058594-0.96484 0.074219-1.9336 0.074219-2.8945h238.66c45.578 0 82.656-37.082 82.656-82.66 0-4.4844-3.6328-8.1172-8.1172-8.1172h-94.035c4.957-4.8672 9.6602-9.9844 14.078-15.352 91.602-5.2773 164.5-81.453 164.5-174.35zm-119.92 50.152v-49.492h58.961c-0.26172 45.5-27.402 84.727-66.301 102.64 4.7773-16.906 7.3398-34.734 7.3398-53.148zm75.199-50.152c0-8.5859-6.9844-15.574-15.57-15.574h-59.629v-28.488h59.629c24.297 0 44.062 19.766 44.062 44.062 0 79.512-58.887 145.52-135.34 156.73 6.8125-10.453 12.656-21.594 17.398-33.293 51.875-17.055 89.449-65.93 89.449-123.44zm-450.32-72.82h358.89v35.719h-358.89zm0 51.953h358.89v16.234l-358.89 0.003907zm-103.06 134.69c0.54688-9.125 5.3555-16.285 14.285-21.289 3.7344-2.0938 7.7148-3.1406 11.902-3.1406 3.043 0 6.1914 0.55078 9.4375 1.6562 14.684 5 27.594 19.852 32.758 31.941 6.2578 14.656 10.566 39.082 11.406 55.523l-4.0859 3.25c-15.836-4.5156-38.672-14.207-51.543-23.602-14.648-10.695-25.035-29.758-24.16-44.34zm-26.977 121.86c-7.625-5.0352-11.426-12.777-11.293-23.016 0.09375-7.3867 3.2539-13.855 9.3867-19.227 9.9766-8.7305 25.535-12.742 37.996-12.742 2.1172 0 4.1484 0.11719 6.043 0.34375 15.82 1.9062 39.125 10.391 53.789 17.887l0.76953 5.1602c-11.828 11.457-31.637 26.387-46.211 32.836-16.586 7.3398-38.293 6.8086-50.48-1.2422zm118.36 41.191c-1.9375 18.039-13.254 36.566-26.32 43.098-8.1758 4.0859-16.781 3.5039-25.578-1.7266-6.3516-3.7773-10.371-9.7461-11.953-17.742-3.0117-15.215 3.3945-33.824 11.281-44.34 9.5586-12.746 28.562-28.691 42.383-37.641l4.8555 1.9141c4.0078 15.973 7.0352 40.598 5.332 56.438zm6.6445-101.08c-4.0078-15.973-7.0352-40.598-5.332-56.438 1.9375-18.039 13.254-36.566 26.316-43.098 8.1758-4.0859 16.777-3.5039 25.578 1.7266 6.3516 3.7773 10.371 9.7461 11.953 17.742 3.0117 15.215-3.3945 33.82-11.281 44.336-9.5586 12.746-28.562 28.691-42.383 37.641zm62.543-16.492c16.594-7.3438 38.301-6.8047 50.484 1.2422 7.625 5.0352 11.426 12.777 11.293 23.012-0.09375 7.3867-3.2539 13.855-9.3906 19.227-11.672 10.215-30.977 13.973-44.039 12.398-15.82-1.9062-39.129-10.391-53.789-17.887l-0.77344-5.1602c11.836-11.453 31.648-26.383 46.215-32.832zm23.512 123.1c-0.54688 9.1211-5.3555 16.285-14.281 21.285-6.4453 3.6094-13.625 4.1094-21.344 1.4844-14.684-5-27.594-19.852-32.758-31.941-6.2578-14.652-10.566-39.082-11.406-55.523l4.082-3.25c15.836 4.5156 38.672 14.207 51.543 23.602 14.652 10.699 25.043 29.762 24.164 44.344zm320.87-76.465c-4.0156 32.812-32.051 58.305-65.93 58.305h-241.21c-3.8828-12.582-11.73-24.066-20.371-32.52 15.238-0.46094 33.297-5.4141 46.215-16.723 3.168-2.7734 5.8438-5.8125 8.0234-9.0625l273.27 0.003906zm-109.78-16.234h-157.1c0.30469-1.9414 0.48438-3.918 0.51172-5.9336 0.20312-15.895-6.2227-28.609-18.582-36.773-16.457-10.863-38.793-10.883-56.164-6.0195 7.2266-13.43 11.969-31.555 8.6328-48.402-2.4805-12.531-9.2539-22.402-19.586-28.547-13.66-8.125-27.887-8.918-41.137-2.293-2.8086 1.4023-5.4414 3.0898-7.9219 4.9766-0.5-5.4531-0.76953-10.973-0.76953-16.555v-38.543h358.89v38.543c0 56.305-26.074 106.62-66.773 139.55z"/>
 </g>
</svg>
