<?xml version="1.0" encoding="UTF-8"?>
<svg width="1200pt" height="1200pt" version="1.1" viewBox="0 0 1200 1200" xmlns="http://www.w3.org/2000/svg">
 <g>
  <path d="m476.4 1200c-80.398 0-157.2-43.199-205.2-117.6-90-142.8-97.199-379.2-97.199-404.4-1.1992-52.801 44.398-117.6 120-170.4 57.602-39.602 127.2-66 200.4-76.801l4.7969 26.398c-70.801 9.6016-135.6 34.801-190.8 73.199-67.199 45.602-109.2 104.4-108 147.6 0 25.199 8.3984 254.4 93.602 391.2 43.199 66 111.6 104.4 182.4 104.4 70.805 0.003906 140.41-39.598 183.61-105.6 3.6016-6 12-7.1992 18-3.6016 6 3.6016 7.1992 12 3.6016 18-48 73.203-124.8 117.6-205.2 117.6z"/>
  <path d="m206.4 870c-2.3984 0-4.8008 0-6-1.1992-136.8-76.801-169.2-261.6-153.6-409.2 16.801-165.6 144-308.4 302.4-340.8 7.1992-1.1992 14.398 3.6016 15.602 10.801 1.1992 7.1992-3.6016 14.398-10.801 15.602-166.8 33.598-268.8 184.8-282 316.8-13.199 139.2 15.602 313.2 140.4 382.8 6 3.6016 8.3984 12 4.8008 18-2.3984 4.8008-6 7.1992-10.801 7.1992z"/>
  <path d="m748.8 752.4c-4.8008 0-9.6016-2.3984-12-8.3984-25.199-57.602-72-87.602-109.2-112.8-13.199-8.3984-25.199-16.801-36-25.199-56.398-45.602-96-110.4-116.4-188.4-15.602-58.801-46.801-96-46.801-96s0-1.1992-1.1992-1.1992c-24-34.801-56.398-81.602-72-110.4-19.199-36-22.801-78-8.3984-115.2 13.199-37.199 43.199-67.199 79.199-81.602h1.1992c42-15.602 93.602-18 147.6-6 7.1992 1.1992 15.602 3.6016 24 7.1992 148.8 48 264 175.2 298.8 330 12 54 18 110.4 16.801 169.2-1.1992 70.801-12 133.2-32.398 187.2-2.3984 7.1992-9.6016 10.801-16.801 7.1992-7.1992-2.3984-10.801-9.6016-7.1992-16.801 19.199-50.398 28.801-110.4 30-178.8 1.1992-56.398-4.8008-110.4-16.801-162-31.207-146.4-139.21-265.2-279.61-310.8-8.3984-2.3984-15.602-4.8008-21.602-6-49.199-10.801-96-9.6016-133.2 4.8008h-1.1992c-30 12-54 36-64.801 66-10.801 31.199-8.3984 64.801 7.1992 93.602 15.602 28.801 50.398 79.199 70.801 106.8 4.8008 4.8008 36 44.398 51.602 105.6 18 72 55.199 132 108 174 9.6016 7.1992 20.398 15.602 33.602 22.801 40.801 26.398 91.199 58.801 118.8 123.6 2.3984 7.1992 0 14.398-7.1992 16.801-1.207 3.5898-3.6055 4.7891-4.8047 4.7891z"/>
  <path d="m218.4 352.8c-2.3984 0-4.8008-1.1992-7.1992-2.3984-6-3.6016-8.3984-12-4.8008-18 64.801-106.8 163.2-123.6 166.8-123.6 7.1992-1.1992 14.398 3.6016 15.602 10.801 1.1992 7.1992-3.6016 14.398-10.801 15.602-1.1992 0-90 15.602-148.8 111.6-1.1992 3.5938-6 5.9961-10.801 5.9961z"/>
  <path d="m285.6 440.4c-2.3984 0-4.8008 0-6-1.1992-6-3.6016-8.3984-12-4.8008-18 56.398-100.8 157.2-117.6 162-118.8 7.1992-1.1992 14.398 3.6016 15.602 10.801 1.1992 7.1992-3.6016 14.398-10.801 15.602-1.1992 0-92.398 16.801-142.8 105.6-3.6016 3.5977-8.4023 5.9961-13.199 5.9961z"/>
  <path d="m670.8 649.2c-2.3984 0-4.8008-1.1992-7.1992-2.3984-6-4.8008-7.1992-12-3.6016-18 33.602-46.801 45.602-109.2 31.199-165.6-1.1992-7.1992 2.3984-14.398 9.6016-15.602 7.1992-1.1992 14.398 2.3984 15.602 9.6016 15.602 63.602 2.3984 133.2-36 187.2-2.4023 2.4023-6.0039 4.8008-9.6016 4.8008z"/>
  <path d="m739.2 734.4c-3.6016 0-7.1992-1.1992-9.6016-3.6016-4.8008-4.8008-4.8008-13.199 0-18 1.1992-1.1992 96-96 64.801-248.4-1.1992-7.1992 3.6016-14.398 10.801-15.602 7.1992-1.1992 14.398 3.6016 15.602 10.801 33.602 166.8-68.398 268.8-72 272.4-2.4023 1.2031-6 2.4023-9.6016 2.4023z"/>
  <path d="m973.2 991.2c-8.3984-1.1992-15.602 4.8008-16.801 13.199-1.1992 8.3984 4.8008 15.602 13.199 16.801h2.3984c7.1992 0 14.398-4.8008 14.398-13.199 1.207-7.1992-4.793-15.602-13.195-16.801z"/>
  <path d="m880.8 822c-3.6016 0-8.3984 0-10.801 2.3984-3.6016 2.3984-4.8008 6-6 9.6016-1.1992 8.3984 4.8008 15.602 13.199 16.801h2.3984c3.6016 0 6-1.1992 8.3984-2.3984 3.6016-2.3984 4.8008-6 6-9.6016 1.2031-8.4023-4.7969-15.602-13.195-16.801z"/>
  <path d="m878.4 956.4c-3.6016 0-8.3984 0-10.801 2.3984-3.6016 2.3984-4.8008 6-6 9.6016-1.1992 8.3984 4.8008 15.602 13.199 16.801h2.3984c3.6016 0 6-1.1992 8.3984-2.3984 3.6016-2.3984 4.8008-6 6-9.6016 1.1992-3.6016 0-8.3984-2.3984-10.801-2.3945-3.5977-5.9961-6-10.797-6z"/>
  <path d="m926.4 883.2c-3.6016-1.1992-8.3984 0-10.801 2.3984-3.6016 2.3984-4.8008 6-6 9.6016-1.1992 8.3984 4.8008 15.602 13.199 16.801h2.3984c3.6016 0 6-1.1992 8.3984-2.3984 3.6016-2.3984 4.8008-6 6-9.6016s0-8.3984-2.3984-10.801c-3.5938-3.5977-7.1953-6-10.797-6z"/>
  <path d="m970.8 1095.6c-3.6016-1.1992-8.3984 0-10.801 2.3984-3.6016 2.3984-4.8008 6-6 9.6016-1.1992 3.6016 0 8.3984 2.3984 10.801 2.3984 3.6016 6 4.8008 9.6016 6h2.3984c3.6016 0 6-1.1992 8.3984-2.3984 3.6016-2.3984 4.8008-6 6-9.6016 2.4023-7.2031-3.5977-15.602-11.996-16.801z"/>
  <path d="m1044 944.4c-3.6016 0-8.3984 0-10.801 2.3984-3.6016 2.3984-4.8008 6-6 9.6016-1.1992 8.3984 4.8008 15.602 13.199 16.801h2.3984c3.6016 0 6-1.1992 8.3984-2.3984 3.6016-2.3984 4.8008-6 6-9.6016 1.1992-3.6016 0-8.3984-2.3984-10.801-3.5977-3.5977-7.1953-6-10.797-6z"/>
  <path d="m1076.4 824.4c-8.3984-1.1992-15.602 4.8008-16.801 13.199-1.1992 8.3984 4.8008 15.602 13.199 16.801h2.3984c3.6016 0 6-1.1992 8.3984-2.3984 3.6016-2.3984 4.8008-6 6-9.6016 1.207-9.5977-4.793-16.797-13.195-18z"/>
  <path d="m1023.6 882c-3.6016-2.3984-7.1992-4.8008-10.801-4.8008-4.8008 0-8.3984 1.1992-10.801 4.8008-6 6-6 16.801 0 22.801 2.3984 2.3984 7.1992 4.8008 10.801 4.8008 4.8008 0 8.3984-1.1992 10.801-4.8008 6-7.1992 6-16.801 0-22.801z"/>
  <path d="m763.2 980.4c-6 6-6 16.801 0 22.801 3.6016 3.6016 7.1992 4.8008 10.801 4.8008 4.8008 0 8.3984-1.1992 12-4.8008 6-6 6-16.801 0-22.801-7.1992-6-16.801-6-22.801 0z"/>
  <path d="m964.8 1200c-13.199 0-25.199-6-34.801-16.801-22.801-26.398-16.801-58.801-13.199-81.602 1.1992-4.8008 1.1992-8.3984 2.3984-13.199 2.3984-20.398-1.1992-34.801-10.801-43.199-12-10.801-32.398-9.6016-48-4.8008-10.797 4.8008-20.398 9.6016-32.398 15.602-10.801 4.8008-21.602 10.801-32.398 14.398-25.199 8.3984-60 10.801-81.602-13.199-15.602-16.801-21.602-50.398-15.602-82.801 6-27.602 19.199-48 38.398-56.398 16.801-8.3984 36-6 52.801-3.6016 2.3984 0 6 1.1992 8.3984 1.1992 20.398 1.1992 33.602-2.3984 38.398-10.801 4.8008-8.3984 2.3984-21.602-4.8008-33.602-4.8008-7.1992-12-14.398-19.199-20.398-4.8008-4.8008-10.801-10.801-15.602-16.801-20.398-24-24-51.602-10.801-72 13.199-20.398 42-28.801 68.398-20.398 25.199 8.3984 43.199 26.398 60 44.398 19.199 19.199 37.199 38.398 61.199 38.398 18 0 34.801-10.801 52.801-22.801 22.801-15.602 49.199-32.398 82.801-25.199 20.398 4.8008 34.801 20.398 37.199 40.801 2.3984 25.199-16.801 42-31.199 54-14.398 12-24 20.398-22.801 31.199 0 2.3984 1.1992 6 3.6016 9.6016 4.8008 8.3984 13.199 14.398 22.801 20.398 12 8.3984 25.199 16.801 32.398 32.398 4.8008 10.801 6 22.801 2.3984 32.398-7.1992 21.602-31.199 31.199-61.199 25.199-3.6016-1.1992-7.1992-1.1992-9.6016-2.3984-10.801-2.3984-21.602-6-31.199-3.6016-16.801 4.8008-19.199 51.602-21.602 86.398 0 9.6016-1.1992 19.199-1.1992 28.801-2.3984 28.801-22.801 56.398-49.199 64.801-5.9883 2.4102-11.988 3.6094-16.789 3.6094zm-81.602-188.4c16.801 0 31.199 4.8008 43.199 14.398 12 9.6016 25.199 28.801 20.398 66 0 4.8008-1.1992 9.6016-2.3984 14.398-3.6016 21.602-7.1992 43.199 7.1992 60 6 7.1992 13.199 8.3984 21.602 6 13.199-4.8008 28.801-20.398 31.199-42 1.1992-8.3984 1.1992-18 1.1992-27.602 2.3984-49.199 4.8008-99.602 39.602-110.4 15.602-4.8008 31.199-1.1992 45.602 2.3984 3.6016 1.1992 6 1.1992 9.6016 2.3984 2.3984 1.1992 26.398 6 31.199-8.3984 1.1992-3.6016 1.1992-8.3984-1.1992-12-4.8008-9.6016-14.398-15.602-24-22.801-9.6016-7.1992-21.602-14.398-30-27.602-4.8008-6-7.1992-13.199-7.1992-20.398-2.3984-25.199 16.801-42 31.199-54 14.398-12 24-20.398 22.801-31.199-1.1992-8.3984-7.1992-15.602-16.801-18-22.801-4.8008-40.801 7.1992-62.398 21.602-20.398 13.199-40.801 27.602-67.199 26.398-34.801-1.1992-58.801-25.199-79.199-46.801-15.602-16.801-31.199-32.398-49.199-38.398-15.602-4.8008-31.199 0-38.398 9.6016-9.6094 12-6.0078 26.402 5.9922 40.801 4.8008 4.8008 9.6016 9.6016 14.398 15.602 7.1992 7.1992 15.602 15.602 21.602 25.199 14.398 20.398 16.801 44.398 6 61.199-6 10.801-22.801 27.602-63.602 24-3.6016 0-6-1.1992-9.6016-1.1992-14.398-1.1992-27.602-3.6016-38.398 2.3984-10.801 4.8008-20.398 19.199-24 37.199-4.8008 22.801-1.1992 49.199 8.3984 60 13.199 14.398 37.199 12 54 6 9.6016-3.6016 19.199-8.3984 30-13.199 12-6 24-12 37.199-16.801 10.805-3.5977 21.605-4.7969 31.203-4.7969z"/>
 </g>
</svg>
