<?xml version="1.0" encoding="UTF-8"?>
<svg width="1200pt" height="1200pt" version="1.1" viewBox="0 0 1200 1200" xmlns="http://www.w3.org/2000/svg">
 <g>
  <path d="m600 0c-78.793 0-156.82 15.52-229.61 45.672s-138.94 74.348-194.65 130.07c-55.719 55.715-99.914 121.86-130.07 194.65s-45.672 150.82-45.672 229.61c0 159.13 63.215 311.74 175.74 424.26 112.52 112.52 265.13 175.73 424.27 175.73 159.13 0 311.74-63.215 424.26-175.74 112.52-112.52 175.74-265.13 175.74-424.26 0-159.13-63.215-311.74-175.73-424.27-112.52-112.52-265.13-175.74-424.26-175.74zm0 67.762c69.121 0 137.56 13.766 201.42 40.516 63.859 26.746 121.88 65.953 170.76 115.38s87.645 108.1 114.09 172.67c26.453 64.574 40.066 133.79 40.066 203.68 0 141.16-55.457 276.53-154.16 376.34-98.707 99.816-232.58 155.89-372.18 155.89-69.121 0-137.57-13.766-201.43-40.516-63.855-26.746-121.88-65.949-170.76-115.37-48.875-49.422-87.645-108.1-114.1-172.67-26.449-64.574-40.066-133.79-40.066-203.68 0-69.898 13.613-139.11 40.066-203.68 26.449-64.574 65.219-123.25 114.1-172.68 48.875-49.422 106.9-88.625 170.76-115.38 63.859-26.746 132.3-40.512 201.43-40.512z" fill="#a8aaad"/>
  <path d="m422.88 245.76h-70.852c-6.5195 0-11.805 5.2852-11.805 11.809v684.86c0 3.1328 1.2422 6.1367 3.457 8.3516s5.2188 3.457 8.3477 3.457h70.852c3.1289 0 6.1328-1.2422 8.3477-3.457 2.2148-2.2148 3.457-5.2188 3.457-8.3516v-224.35h23.617v153.5c0 3.1328 1.2461 6.1367 3.4609 8.3516 2.2109 2.2148 5.2148 3.457 8.3477 3.457h212.54c3.1328 0 6.1367-1.2422 8.3516-3.457 2.2148-2.2148 3.457-5.2188 3.457-8.3516v-106.27h35.426c3.1328 0 6.1328-1.2422 8.3477-3.457 2.2148-2.2148 3.4609-5.2188 3.4609-8.3477v-35.426h23.617l-0.003906 224.35c0 3.1328 1.2461 6.1367 3.4609 8.3516 2.2148 2.2148 5.2188 3.457 8.3477 3.457h70.848c3.1328 0 6.1367-1.2422 8.3516-3.457 2.2148-2.2148 3.457-5.2188 3.457-8.3516v-684.86c0-3.1328-1.2422-6.1367-3.457-8.3516-2.2148-2.2148-5.2188-3.457-8.3516-3.457h-70.848c-6.5195 0-11.809 5.2852-11.809 11.809v82.656h-23.613v-11.809c0-9.3945-3.7344-18.406-10.375-25.051-6.6445-6.6406-15.656-10.375-25.051-10.375h-212.54c-9.3945 0-18.406 3.7344-25.051 10.375-6.6406 6.6445-10.375 15.656-10.375 25.051v11.809h-23.617v-82.656c0-3.1328-1.2422-6.1367-3.457-8.3516-2.2148-2.2148-5.2188-3.457-8.3477-3.457zm-11.809 684.86h-47.234v-661.25h47.23zm23.617-259.78h70.848v23.617h-70.852zm59.039-47.23c3.1289 0 6.1328 1.2461 8.3477 3.4609 2.2148 2.2109 3.4609 5.2148 3.4609 8.3477v11.809h-23.617v-11.809c0-6.5195 5.2852-11.809 11.809-11.809zm177.12 236.16h-188.93v-141.7h23.617v35.426c0 3.1289 1.2422 6.1328 3.457 8.3477 2.2148 2.2148 5.2188 3.457 8.3477 3.457h153.51zm47.23-118.08-188.93 0.003907v-118.08h177.12c3.1328 0 6.1367 1.2461 8.3516 3.4609 2.2148 2.2109 3.457 5.2148 3.457 8.3477zm23.617-47.23v-23.613h23.617v23.617zm47.23-425.09h47.23l0.003906 661.25h-47.234zm-23.617 94.465v23.617h-23.613v-23.617zm-23.617 82.656 0.003907-35.422h23.617l-0.003906 236.16h-23.613v-11.809c0-9.3945-3.7344-18.406-10.375-25.047-6.6445-6.6445-15.656-10.379-25.051-10.379h-212.54c-9.3945 0-18.406 3.7344-25.051 10.379-6.6406 6.6406-10.375 15.652-10.375 25.047v11.809h-23.617v-236.16h23.617v153.5c0 3.1328 1.2461 6.1328 3.4609 8.3477 2.2109 2.2148 5.2148 3.4609 8.3477 3.4609h212.54c3.1328 0 6.1367-1.2461 8.3516-3.4609 2.2148-2.2148 3.457-5.2148 3.457-8.3477v-106.27h35.426c3.1328 0 6.1328-1.2422 8.3477-3.457 2.2148-2.2148 3.4609-5.2188 3.4609-8.3516zm-236.16 0c0 3.1328 1.2422 6.1367 3.457 8.3516s5.2188 3.457 8.3477 3.457h153.51v94.465h-188.93v-141.7h23.617zm23.613-129.89h177.12c3.1328 0 6.1367 1.2422 8.3516 3.457s3.457 5.2188 3.457 8.3516v106.27l-188.93-0.003906zm-47.23 11.809c0-6.5234 5.2852-11.809 11.809-11.809 6.5195 0 11.809 5.2852 11.809 11.809v11.809h-23.617zm23.617 35.426v23.617l-70.852-0.003907v-23.617z"/>
 </g>
</svg>
