<?xml version="1.0" encoding="UTF-8"?>
<svg width="1200pt" height="1200pt" version="1.1" viewBox="0 0 1200 1200" xmlns="http://www.w3.org/2000/svg">
 <path d="m1143.8 975h-47.93c11.449-19.215 13.594-42.578 5.8359-63.559-7.7617-20.977-24.598-37.32-45.797-44.457 13.062-19.234 16.414-43.461 9.0625-65.52-7.3555-22.059-24.57-39.43-46.562-46.98 13.668-20.137 16.668-45.676 8.0352-68.43-8.6289-22.758-27.809-39.883-51.395-45.891v-133.91c2.8086-50.445-21.121-98.648-62.996-126.91-28.434-18.441-46.488-49.227-48.707-83.043 16.254-5.9648 28.836-19.113 34.078-35.617 5.2383-16.504 2.5469-34.504-7.2891-48.754-9.8398-14.25-25.719-23.145-43.008-24.09l11.535-69.184h-0.003906c1.8125-10.875-1.2539-21.992-8.3828-30.402-7.125-8.4062-17.59-13.254-28.613-13.25h-105.73c-11.023-0.003906-21.488 4.8438-28.613 13.25-7.1289 8.4102-10.191 19.531-8.3828 30.402l11.535 69.184c-17.293 0.94531-33.172 9.8398-43.008 24.09-9.8398 14.25-12.531 32.25-7.293 48.754 5.2422 16.504 17.824 29.652 34.082 35.617-2.2188 33.816-20.277 64.602-48.707 83.043-41.879 28.262-65.809 76.465-63 126.91v258.07c-7.1367 2.7695-14.117 5.9336-20.902 9.4805-7.2148-49.922-33.285-95.18-72.848-126.47v-103.59c-0.015625-14.914-5.9492-29.211-16.492-39.758-10.547-10.543-24.844-16.477-39.758-16.492h-112.5v-39.395c21.16-4.3477 40.172-15.859 53.832-32.594 13.664-16.73 21.137-37.66 21.168-59.262 0-62.219-72.254-136.27-80.492-144.51-3.5156-3.5156-8.2852-5.4922-13.258-5.4922s-9.7422 1.9766-13.258 5.4922c-8.2383 8.2422-80.492 82.289-80.492 144.51 0.03125 21.602 7.5039 42.531 21.168 59.262 13.66 16.734 32.672 28.246 53.832 32.594v39.395h-112.5c-14.914 0.015625-29.211 5.9492-39.758 16.492-10.543 10.547-16.477 24.844-16.492 39.758v431.25h-37.5c-4.9727 0-9.7422 1.9727-13.258 5.4922-3.5195 3.5156-5.4922 8.2852-5.4922 13.258v37.5c0.027344 24.855 9.9141 48.684 27.492 66.258 17.574 17.578 41.402 27.465 66.258 27.492h937.5c24.855-0.027344 48.684-9.9141 66.258-27.492 17.578-17.574 27.465-41.402 27.492-66.258v-37.5c0-4.9727-1.9727-9.7422-5.4922-13.258-3.5156-3.5195-8.2852-5.4922-13.258-5.4922zm-918.75-618.75c0-32.371 33.445-77.617 56.25-103.69 22.805 26.074 56.25 71.32 56.25 103.69-0.035156 11.594-3.6602 22.895-10.375 32.348s-16.188 16.594-27.125 20.449v-34.047c0-6.6992-3.5742-12.887-9.375-16.238-5.8008-3.3477-12.949-3.3477-18.75 0-5.8008 3.3516-9.375 9.5391-9.375 16.238v34.043c-10.938-3.8516-20.41-10.992-27.125-20.445s-10.34-20.754-10.375-32.348zm843.75 581.25c-0.011719 9.9414-3.9648 19.473-10.996 26.504s-16.562 10.984-26.504 10.996h-300c-13.398 0-25.777-7.1484-32.477-18.75-6.6992-11.602-6.6992-25.898 0-37.5 6.6992-11.602 19.078-18.75 32.477-18.75h300c9.9414 0.011719 19.473 3.9648 26.504 10.996s10.984 16.562 10.996 26.504zm-37.5-112.5c-0.011719 9.9414-3.9648 19.473-10.996 26.504s-16.562 10.984-26.504 10.996h-225c-13.398 0-25.777-7.1484-32.477-18.75-6.6992-11.602-6.6992-25.898 0-37.5 6.6992-11.602 19.078-18.75 32.477-18.75h225c9.9414 0.011719 19.473 3.9648 26.504 10.996s10.984 16.562 10.996 26.504zm-37.5-112.5c-0.011719 9.9414-3.9648 19.473-10.996 26.504s-16.562 10.984-26.504 10.996h-150c-13.398 0-25.777-7.1484-32.477-18.75-6.6992-11.602-6.6992-25.898 0-37.5 6.6992-11.602 19.078-18.75 32.477-18.75h150c9.9414 0.011719 19.473 3.9648 26.504 10.996s10.984 16.562 10.996 26.504zm-172.13-600-12.504 75h-80.738l-12.496-75zm-127.87 112.5h150c6.6992 0 12.887 3.5742 16.238 9.375 3.3477 5.8008 3.3477 12.949 0 18.75-3.3516 5.8008-9.5391 9.375-16.238 9.375h-150c-6.6992 0-12.887-3.5742-16.238-9.375-3.3477-5.8008-3.3477-12.949 0-18.75 3.3516-5.8008 9.5391-9.375 16.238-9.375zm-44.246 183.16c36.332-24.508 59.305-64.43 62.227-108.16h114.04c2.9219 43.73 25.895 83.652 62.227 108.16 30.41 19.738 48.852 53.453 49.059 89.703-21.945 18.34-49.863 27.977-78.449 27.078-28.59-0.89453-55.848-12.266-76.598-31.949-28.352-28.266-66.98-43.785-107.01-42.992-24.176-0.25391-48.066 5.2656-69.684 16.102 8.1016-23.57 23.598-43.895 44.188-57.941zm-49.504 106.84c21.934-18.512 49.922-28.281 78.609-27.453 28.688 0.83203 56.059 12.211 76.883 31.961 28.352 28.266 66.98 43.785 107.01 42.992 26.219 0.31641 52.07-6.207 75-18.926v93.926h-131.25c-18.242-0.011719-35.863 6.6328-49.559 18.684-13.695 12.051-22.527 28.684-24.836 46.781-2.3125 18.098 2.0547 36.414 12.285 51.52-21.992 7.5508-39.207 24.922-46.562 46.98-7.3516 22.059-4 46.285 9.0625 65.52-21.199 7.1367-38.035 23.48-45.797 44.457-7.7578 20.98-5.6133 44.344 5.8359 63.559h-98.465c27.16-18.977 49.348-44.223 64.672-73.602 15.324-29.375 23.34-62.016 23.363-95.148v-37.5c0-4.9727-1.9727-9.7422-5.4922-13.258-3.5156-3.5195-8.2852-5.4922-13.258-5.4922-12.582 0.046875-25.137 1.2461-37.5 3.582zm-168.75 441.25v17.707c-41.23-4.6641-79.309-24.332-106.97-55.258-27.664-30.93-42.98-70.953-43.031-112.45v-17.707c41.23 4.6641 79.309 24.332 106.97 55.258 27.664 30.93 42.98 70.953 43.031 112.45zm37.5 0c0.050781-41.496 15.367-81.52 43.031-112.45 27.66-30.926 65.738-50.594 106.97-55.258v17.707c-0.050781 41.496-15.367 81.52-43.031 112.45-27.66 30.926-65.738 50.594-106.97 55.258zm37.289-158.78c-23.957 19.93-43.109 45.008-56.039 73.359-12.93-28.352-32.082-53.43-56.039-73.359 1.1406-45.34 21.52-88.055 56.039-117.47 34.52 29.414 54.898 72.129 56.039 117.47zm-374.79-253.72c0.003906-4.9727 1.9805-9.7383 5.4961-13.254s8.2812-5.4922 13.254-5.4961h262.5c4.9727 0.003906 9.7383 1.9805 13.254 5.4961s5.4922 8.2812 5.4961 13.254v103.59c-39.562 31.289-65.633 76.547-72.848 126.47-29.547-15.641-62.473-23.812-95.902-23.805-4.9727 0-9.7422 1.9727-13.258 5.4922-3.5195 3.5156-5.4922 8.2852-5.4922 13.258v37.5c0.023438 33.133 8.0391 65.773 23.363 95.148 15.324 29.379 37.512 54.625 64.672 73.602h-200.54zm993.75 487.5c-0.015625 14.914-5.9492 29.211-16.492 39.758-10.547 10.543-24.844 16.477-39.758 16.492h-937.5c-14.914-0.015625-29.211-5.9492-39.758-16.492-10.543-10.547-16.477-24.844-16.492-39.758v-18.75h1050z"/>
</svg>
