<?xml version="1.0" encoding="UTF-8"?>
<svg width="1200pt" height="1200pt" version="1.1" viewBox="0 0 1200 1200" xmlns="http://www.w3.org/2000/svg">
 <g>
  <path d="m600 0c-78.793 0-156.82 15.52-229.61 45.672s-138.94 74.348-194.65 130.07c-55.719 55.715-99.914 121.86-130.07 194.65s-45.672 150.82-45.672 229.61c0 159.13 63.215 311.74 175.74 424.26 112.52 112.52 265.13 175.73 424.27 175.73 159.13 0 311.74-63.215 424.26-175.74 112.52-112.52 175.74-265.13 175.74-424.26 0-159.13-63.215-311.74-175.73-424.27-112.52-112.52-265.13-175.74-424.26-175.74zm0 67.762c69.121 0 137.56 13.766 201.42 40.516 63.859 26.746 121.88 65.953 170.76 115.38s87.645 108.1 114.09 172.67c26.453 64.574 40.066 133.79 40.066 203.68 0 141.16-55.457 276.53-154.16 376.34-98.707 99.816-232.58 155.89-372.18 155.89-69.121 0-137.57-13.766-201.43-40.516-63.855-26.746-121.88-65.949-170.76-115.37-48.875-49.422-87.645-108.1-114.1-172.67-26.449-64.574-40.066-133.79-40.066-203.68 0-69.898 13.613-139.11 40.066-203.68 26.449-64.574 65.219-123.25 114.1-172.68 48.875-49.422 106.9-88.625 170.76-115.38 63.859-26.746 132.3-40.512 201.43-40.512z" fill="#a8aaad"/>
  <path d="m631.19 240.28-55.746 106.27-33.465-61.688c-2.1406-3.9336-6.3203-6.3203-10.797-6.1602-4.4766 0.16016-8.4766 2.8398-10.328 6.918l-81.438 179.28c-15.801 34.746-20.465 73.531-13.359 111.04 7.1055 37.504 25.641 71.891 53.055 98.449l5.457 5.2539v0.003907c33.262 32.219 77.754 50.238 124.06 50.238s90.801-18.02 124.06-50.238c28.629-27.871 47.508-64.23 53.824-103.68 6.3164-39.449-0.25781-79.887-18.754-115.3l-115.72-220.45c-2.25-3.5977-6.1992-5.7734-10.441-5.7617-4.2422 0.011718-8.1797 2.2109-10.41 5.8203zm85.137 422.36c-28.875 27.965-67.496 43.598-107.69 43.598-40.195 0-78.816-15.633-107.69-43.598l-5.457-5.2539c-23.902-23.176-40.051-53.176-46.234-85.887-6.1836-32.711-2.0977-66.535 11.695-96.832l71.594-157.67 32.695 60.223v-0.003906c2.0664 3.8086 6.0508 6.1758 10.379 6.1758h0.070312c4.3633-0.027343 8.3516-2.457 10.379-6.3164l55.57-105.93 105.21 200.51c16.129 30.883 21.871 66.145 16.371 100.55-5.5 34.406-21.945 66.121-46.895 90.438z"/>
  <path d="m634.48 428.35-59.16 112.93-30.582-56.406c-2.1367-3.9414-6.3203-6.3359-10.801-6.1758-4.4805 0.16016-8.4844 2.8477-10.332 6.9297l-9.0586 19.992c-8.5898 18.906-11.129 40-7.2734 60.406 3.8555 20.402 13.918 39.117 28.812 53.586l5.9023 5.6445c18.105 17.57 42.34 27.398 67.566 27.398 25.227 0 49.461-9.8281 67.566-27.398 15.547-15.176 25.797-34.957 29.223-56.414 3.4297-21.457-0.14453-43.449-10.188-62.715l-40.762-77.781c-2.2383-3.6289-6.1953-5.8398-10.457-5.8398s-8.2227 2.2109-10.457 5.8398zm40.75 88.738c7.6875 14.746 10.426 31.574 7.8086 47.992-2.6172 16.422-10.453 31.566-22.344 43.188-13.703 13.324-32.059 20.777-51.172 20.777-19.109 0-37.469-7.4531-51.168-20.777l-5.9023-5.6445-0.003906 0.003906c-11.168-10.859-18.789-24.848-21.855-40.121-3.0625-15.273-1.4297-31.117 4.6875-45.441l29.805 54.965c2.0664 3.8086 6.0469 6.1758 10.379 6.1758h0.082031c4.3633-0.027344 8.3555-2.4609 10.379-6.3281l58.98-112.59z"/>
  <path d="m281.04 812.06 71.426 17.191-71.426 17.18c-5.7422 1.832-10.844 5.2695-14.695 9.9062-3.8516 4.6367-6.2969 10.281-7.043 16.262-4.8281 26.504 1.7422 53.812 18.102 75.219 5.9922 8.2617 15.355 13.43 25.539 14.098 1.9258 0 3.8477-0.23047 5.7148-0.68359l300.91-72.395-0.51953 2.1484 291.94 70.246c1.8789 0.45312 3.8047 0.68359 5.7383 0.68359 10.188-0.67188 19.547-5.8359 25.543-14.098 16.34-21.414 22.906-48.719 18.09-75.219-0.74219-5.9844-3.1836-11.629-7.0352-16.27-3.8555-4.6367-8.957-8.0703-14.703-9.8984l-71.414-17.18 71.414-17.191c19.625-4.7227 28.492-32.969 20.629-65.688h-0.003906c-2.8984-13.023-8.7031-25.223-16.977-35.684-3.3867-4.9922-8.1328-8.9102-13.676-11.289s-11.652-3.1211-17.605-2.1367l-298.47 71.816 0.24609-1.0508-294.09-70.766c-5.9492-0.99609-12.059-0.25781-17.602 2.1211-5.543 2.3828-10.285 6.3047-13.664 11.305-8.2891 10.473-14.098 22.688-16.992 35.73-7.8633 32.672 1.0039 60.918 20.629 65.641zm14.43 120.55c-11.527-15.727-16.25-35.426-13.105-54.672 1.5234-6.5781 3.8594-8.4414 4.2617-8.5508h0.09375c0.66016 0 3.543 0.82812 7.5703 5.6797v0.003906c5.8906 7.6797 10.004 16.574 12.043 26.035 2.4766 9.3555 2.8438 19.145 1.0742 28.66-1.5234 6.5664-3.8594 8.4414-4.2734 8.5391-0.41406 0.089843-3.6602-0.94922-7.6641-5.6953zm627.62-63.219c0.40234 0.10547 2.7383 1.9727 4.2617 8.5508v-0.003906c3.1328 19.254-1.6133 38.957-13.164 54.672-3.9922 4.7227-7.0859 5.7852-7.6641 5.668-0.40234-0.10547-2.7383-1.9844-4.25-8.5391v0.003907c-1.7734-9.5156-1.4102-19.305 1.0625-28.66 2.0586-9.4453 6.1875-18.316 12.09-25.977 4.0859-4.8516 6.918-5.668 7.582-5.668h0.09375zm-27.82-6.6836c-14.148 19.984-20.066 44.648-16.531 68.875l-223.43-53.75 151.43-36.441zm11.254-142.49c0.47266-0.10547 3.6602 0.92188 7.6641 5.668 5.8984 7.6602 10.027 16.531 12.09 25.977 5.3477 22.234-0.33203 36.523-3.1992 37.207l-116.34 27.996-3.2344-0.78125-0.39062 1.6523-472.16 113.64c1.8711-12 1.3086-24.258-1.6562-36.035-2.7227-11.836-7.793-23.004-14.91-32.84zm-623.13 31.68c2.0586-9.4414 6.1836-18.312 12.078-25.977 1.8477-2.6953 4.5469-4.6914 7.6641-5.668l251.21 60.41-152.43 36.688 0.10547-0.46094-115.45-27.785c-2.8594-0.68359-8.5508-14.969-3.1875-37.207z"/>
 </g>
</svg>
