<?xml version="1.0" encoding="UTF-8"?>
<svg width="1200pt" height="1200pt" version="1.1" viewBox="0 0 1200 1200" xmlns="http://www.w3.org/2000/svg">
 <g>
  <path d="m600 0c-78.793 0-156.82 15.52-229.61 45.672s-138.94 74.348-194.65 130.07c-55.719 55.715-99.914 121.86-130.07 194.65s-45.672 150.82-45.672 229.61c0 159.13 63.215 311.74 175.74 424.26 112.52 112.52 265.13 175.73 424.27 175.73 159.13 0 311.74-63.215 424.26-175.74 112.52-112.52 175.74-265.13 175.74-424.26 0-159.13-63.215-311.74-175.73-424.27-112.52-112.52-265.13-175.74-424.26-175.74zm0 67.762c69.121 0 137.56 13.766 201.42 40.516 63.859 26.746 121.88 65.953 170.76 115.38s87.645 108.1 114.09 172.67c26.453 64.574 40.066 133.79 40.066 203.68 0 141.16-55.457 276.53-154.16 376.34-98.707 99.816-232.58 155.89-372.18 155.89-69.121 0-137.57-13.766-201.43-40.516-63.855-26.746-121.88-65.949-170.76-115.37-48.875-49.422-87.645-108.1-114.1-172.67-26.449-64.574-40.066-133.79-40.066-203.68 0-69.898 13.613-139.11 40.066-203.68 26.449-64.574 65.219-123.25 114.1-172.68 48.875-49.422 106.9-88.625 170.76-115.38 63.859-26.746 132.3-40.512 201.43-40.512z" fill="#a8aaad"/>
  <path d="m558.67 375.65c17.227 0 33.746-6.8398 45.926-19.02 12.18-12.18 19.02-28.699 19.02-45.926 0-17.223-6.8398-33.742-19.02-45.922-12.18-12.18-28.699-19.02-45.926-19.02-17.223 0-33.742 6.8398-45.922 19.02s-19.02 28.699-19.02 45.922c0.019531 17.219 6.8672 33.727 19.043 45.902 12.172 12.176 28.68 19.023 45.898 19.043zm0-106.27c10.961 0 21.473 4.3555 29.227 12.105 7.75 7.75 12.102 18.262 12.102 29.223s-4.3516 21.473-12.102 29.227c-7.7539 7.75-18.266 12.102-29.227 12.102s-21.473-4.3516-29.223-12.102c-7.75-7.7539-12.105-18.266-12.105-29.227s4.3555-21.473 12.105-29.223 18.262-12.105 29.223-12.105z"/>
  <path d="m257.57 954.24h59.039v-200.73h307.01v118.08h47.23v47.23l0.003906 0.003906c0 12.652 6.75 24.348 17.711 30.676s24.465 6.3281 35.422 0c10.961-6.3281 17.715-18.023 17.715-30.676v-47.234h59.039v-118.08h70.848v200.73h59.039v-200.73h23.617v-70.852h-30.18c4.25-7.1445 6.5156-15.297 6.5625-23.613 0-12.527-4.9727-24.543-13.832-33.398-8.8594-8.8594-20.871-13.836-33.398-13.836h-83.141c-2.2617-28.281-12.258-55.398-28.895-78.379l0.14062-0.070313-8.3945-11.074-0.15234-0.21484-40.645-53.609-20.758-62.348c-5.2383-15.785-17.004-28.562-32.309-35.082-16.348-7.0391-34.914-6.8203-51.09 0.60156l-24.691 11.207c-16.234 7.3086-28.625 21.141-34.102 38.082-5.1953 16.062-3.168 33.59 5.5469 48.047l7.2383 10.711-3.8125 6.8711-51.957 51.957 0.003906-0.003906c-4.8516 4.8711-8.2383 10.996-9.7852 17.691-1.543 6.6953-1.1797 13.691 1.0469 20.191h-31.625c-16.5 0.011719-32.383 6.3047-44.41 17.602-12.031 11.297-19.312 26.75-20.359 43.219s4.2148 32.719 14.719 45.449h-29.781c10.523-12.727 15.801-28.988 14.762-45.473-1.043-16.48-8.3242-31.949-20.363-43.254-12.043-11.305-27.938-17.598-44.453-17.598s-32.41 6.293-44.453 17.598c-12.039 11.305-19.32 26.773-20.363 43.254-1.0391 16.484 4.2383 32.746 14.762 45.473h-50.312v70.848l11.809 0.003906zm35.426-23.617h-11.812v-177.12h11.809zm425.09-11.809-0.003907 0.003906c0 6.5195-5.2852 11.805-11.809 11.805-6.5195 0-11.809-5.2852-11.809-11.805v-47.234h23.617zm59.039-70.848h-129.89v-94.461h129.89zm129.89 82.656h-11.809v-177.12h11.809zm0-271.59v0.003907c0 6.2617-2.4883 12.27-6.918 16.699-4.4297 4.4258-10.438 6.9141-16.699 6.9141h-141.7v-47.23h141.7c6.2617 0 12.27 2.4883 16.699 6.918s6.918 10.434 6.918 16.699zm-225.54 20.523c0.17578-0.69531 0.41406-1.3594 0.54297-2.0664 2.0625-10.379-0.65234-21.141-7.3984-29.297s-16.801-12.848-27.387-12.773h-47.234v-35.426h35.426c6.2617 0 12.27 2.4883 16.699 6.918 4.4297 4.4297 6.918 10.438 6.918 16.699v11.809h59.039v47.23h-37.441c0.33984-0.98828 0.54297-2.0547 0.83594-3.0938zm-71.52-130.43 9.0898 27.254h-36.344zm141.19-3.4492c14.379 19.289 23.164 42.168 25.387 66.125h-94.285c-1.5234-10.355-6.9375-19.742-15.141-26.25l82.859-41.434zm-218.11 28.258c-5.168-5.1719-5.168-13.555 0-18.727l53.137-53.137 47.789-85.277-20.664-11.453-28.34 51.176-0.09375-0.14063-0.003907-0.003906c-5.0273-8.5742-6.1289-18.895-3.0234-28.336 3.4453-10.574 11.207-19.191 21.363-23.723l24.68-11.207h-0.003906c10.086-4.6602 21.668-4.8281 31.883-0.46094 9.1562 3.8789 16.207 11.504 19.355 20.938l22.035 66.043 34.375 45.32-93.207 46.59-13.699-41.082 4.7227-4.7227 47.789-85.277-20.664-11.453-45 81.203-63.762 63.762v0.003906c-1.0664 1.0156-2.3047 1.832-3.6602 2.4102h-11.195c-1.4102-0.57031-2.7031-1.4023-3.8125-2.4453zm-57.023 26.059h56.68c6.2891 1.9219 13.008 1.9219 19.293 0h24.398v35.426h-106.27v23.617h177.12c6.5195 0 11.809 5.2852 11.809 11.809 0 6.5195-5.2891 11.805-11.809 11.805h-171.22c-14.762 0-28.406-7.875-35.789-20.664-7.3828-12.785-7.3828-28.539 0-41.328 7.3828-12.785 21.027-20.664 35.789-20.664zm-171.21 41.328c0-10.961 4.3555-21.473 12.105-29.223s18.262-12.105 29.223-12.105c10.961 0 21.473 4.3555 29.223 12.105s12.105 18.262 12.105 29.223-4.3555 21.473-12.105 29.227c-7.75 7.75-18.262 12.102-29.223 12.102-10.961 0-21.473-4.3516-29.223-12.102-7.75-7.7539-12.105-18.266-12.105-29.227zm-35.426 64.945h661.25v23.617h-661.25z"/>
 </g>
</svg>
