<?xml version="1.0" encoding="UTF-8"?>
<svg width="1200pt" height="1200pt" version="1.1" viewBox="0 0 1200 1200" xmlns="http://www.w3.org/2000/svg">
 <g>
  <path d="m600 0c-78.793 0-156.82 15.52-229.61 45.672s-138.94 74.348-194.65 130.07c-55.719 55.715-99.914 121.86-130.07 194.65s-45.672 150.82-45.672 229.61c0 159.13 63.215 311.74 175.74 424.26 112.52 112.52 265.13 175.73 424.27 175.73 159.13 0 311.74-63.215 424.26-175.74 112.52-112.52 175.74-265.13 175.74-424.26 0-159.13-63.215-311.74-175.73-424.27-112.52-112.52-265.13-175.74-424.26-175.74zm0 67.762c69.121 0 137.56 13.766 201.42 40.516 63.859 26.746 121.88 65.953 170.76 115.38s87.645 108.1 114.09 172.67c26.453 64.574 40.066 133.79 40.066 203.68 0 141.16-55.457 276.53-154.16 376.34-98.707 99.816-232.58 155.89-372.18 155.89-69.121 0-137.57-13.766-201.43-40.516-63.855-26.746-121.88-65.949-170.76-115.37-48.875-49.422-87.645-108.1-114.1-172.67-26.449-64.574-40.066-133.79-40.066-203.68 0-69.898 13.613-139.11 40.066-203.68 26.449-64.574 65.219-123.25 114.1-172.68 48.875-49.422 106.9-88.625 170.76-115.38 63.859-26.746 132.3-40.512 201.43-40.512z" fill="#a8aaad"/>
  <path d="m540.96 576.39h-11.809v-4.3945c-0.023438-16.332-6.0508-32.086-16.938-44.258-10.891-12.176-25.875-19.918-42.102-21.762v-47.668c12.656 0 24.352-6.75 30.68-17.711s6.3281-24.465 0-35.426c-6.3281-10.961-18.023-17.711-30.68-17.711h-91.676c-6.3594-0.023437-12.605 1.6758-18.074 4.918-5.4727 3.2383-9.9609 7.9023-12.996 13.492l-59.629 75.465c-3.9375 5-6.4648 10.965-7.3086 17.273l-21.387 160.44h-13.281c-6.5234 0-11.809 5.2852-11.809 11.809v129.89c0 3.1328 1.2422 6.1367 3.457 8.3477 2.2148 2.2148 5.2188 3.4609 8.3516 3.4609 0.85938-0.003906 1.7188-0.09375 2.5625-0.27344l68.285-15.184v121.73c0 3.1289 1.2422 6.1328 3.457 8.3477 2.2148 2.2148 5.2188 3.457 8.3516 3.457h212.54c3.1328 0 6.1367-1.2422 8.3516-3.457 2.2148-2.2148 3.457-5.2188 3.457-8.3477v-330.62c0-3.1328-1.2422-6.1367-3.457-8.3516s-5.2188-3.457-8.3516-3.457zm-35.426-4.3945 0.003906 4.3945h-128.3l-8.4766-38.152c7.4414-5.8633 16.633-9.0625 26.105-9.082h67.828c11.355 0.011718 22.246 4.5312 30.277 12.562s12.547 18.922 12.562 30.277zm-118.08-66.02c-5.9258 0.64844-11.734 2.1016-17.262 4.3242 4.7227-7.2383 10.98-16.461 17.262-25.695zm59.039-0.43359h-35.422v-47.234h35.426zm-188.93 177.12h11.805c5.918 0 10.922-4.3828 11.703-10.246l22.754-170.68c0.28516-2.1094 1.1289-4.1016 2.4453-5.7734l60.305-76.316c0.49609-0.63672 0.92969-1.3203 1.2969-2.043 1.9844-4.0117 6.082-6.543 10.559-6.5273h91.676c6.5195 0 11.809 5.2852 11.809 11.809 0 6.5195-5.2891 11.805-11.809 11.805h-70.848c-4.8906 0.015625-9.2617 3.0586-10.969 7.6406-0.82422 0.80078-1.5859 1.6641-2.2812 2.5742-10.496 15.246-29.52 42.945-38.73 57.293-5.0703 7.9492-6.7695 17.59-4.7227 26.793l21.598 97.191c1.1992 5.3906 5.9688 9.2305 11.488 9.2461h106.27c4.8516-0.03125 9.4219 2.2656 12.297 6.1758 2.8711 3.9102 3.6953 8.9609 2.2148 13.578-1.4805 4.6211-5.0859 8.2539-9.6953 9.7656l-70.941 15.895c-7.7695 2.2578-14.648 6.8711-19.684 13.199l-51.105 72.535-87.438 19.438zm271.58 224.36h-188.93v-115.16l14.371-3.1875h-0.003906c2.8672-0.64062 5.3945-2.3242 7.0859-4.7266l53.137-75.57c1.7734-2.1836 4.1328-3.8242 6.8008-4.7227l70.93-15.859c12.082-3.4453 21.738-12.539 25.906-24.391 4.168-11.848 2.332-24.984-4.9297-35.234-7.2617-10.25-19.039-16.344-31.602-16.348h-96.828l-2.6211-11.809h146.68z"/>
  <path d="m564.58 470.11h212.54v23.617h-212.54z"/>
  <path d="m547.29 541.9 10.965-20.918 187.91 98.512-10.965 20.918z"/>
  <path d="m547.46 423.73 190.2-95.93 10.629 21.074-190.2 95.93z"/>
  <path d="m788.93 399.27h-23.617v-23.617h-23.613v23.617h-23.617v23.617h23.617v23.613h23.613v-23.613h23.617z"/>
  <path d="m564.58 352.03h23.617v23.617h-23.617z"/>
  <path d="m682.66 529.15h23.617v23.617h-23.617z"/>
  <path d="m871.59 529.15h23.617v23.617h-23.617z"/>
  <path d="m788.93 269.38h23.617v23.617h-23.617z"/>
  <path d="m930.62 304.8h23.617v23.617h-23.617z"/>
  <path d="m881.13 601.18c-4.1562-7.5312-11.23-13.016-19.555-15.164-4.0469-1.0469-8.2539-1.3047-12.398-0.76562-1.4648-3.8867-3.6523-7.4609-6.4492-10.535-5.8164-6.3477-14-10.02-22.609-10.141h-0.48438c-8.4492-0.007813-16.539 3.3984-22.438 9.4453-2.8945 2.9688-5.1953 6.4648-6.7773 10.297-4.1094-0.62109-8.3008-0.46484-12.352 0.46094-8.3828 1.9297-15.609 7.2188-19.98 14.629-4.3711 7.4102-5.5078 16.289-3.1406 24.562 1.1562 4.043 3.082 7.8281 5.668 11.145-2.6094 3.2109-4.582 6.8828-5.8203 10.828-2.4883 8.2383-1.4805 17.137 2.7891 24.609 4.2734 7.4688 11.426 12.855 19.789 14.891 4.0195 1.1289 8.2539 1.293 12.352 0.48438 1.5156 3.9023 3.7656 7.4805 6.6211 10.543 5.9297 6.2656 14.176 9.8125 22.805 9.8008 8.5977 0.007812 16.824-3.5234 22.742-9.7656 2.6133-2.7617 4.7266-5.957 6.2461-9.4453 1.3984 0.20703 2.8125 0.32422 4.2266 0.35547 2.3828-0.003907 4.7578-0.26172 7.0859-0.76953 8.4062-1.8203 15.691-7.0156 20.16-14.367 4.4648-7.3516 5.7109-16.215 3.4531-24.516-1.1016-4.0273-2.9609-7.8047-5.4766-11.137 2.6406-3.1953 4.6445-6.8672 5.9023-10.816 2.6289-8.1836 1.7773-17.094-2.3594-24.629zm-25.613 7.6641c2.1133 0.50391 3.918 1.875 4.9688 3.7812 1.0508 1.9023 1.2539 4.1602 0.55859 6.2188-0.71094 2.0273-2.1016 3.7422-3.9336 4.8633l-0.28125-0.09375-18.148-3.3047 6.9531-8.2656c2.3945-2.8945 6.2344-4.1641 9.8828-3.2617zm-41.469-18.16v-0.003906c1.4883-1.582 3.5742-2.4648 5.7461-2.4336s4.2305 0.97656 5.6719 2.6016c1.4102 1.6484 2.2109 3.7344 2.2656 5.9023l-0.17578 0.17578-11.879 14.168-3.7188-10.121v0.003907c-1.3594-3.5664-0.54688-7.5938 2.0898-10.355zm-35.59 20.805c1.1172-1.8633 2.9453-3.1797 5.0664-3.6484 2.0664-0.46094 4.2266-0.20312 6.1289 0.73047 0.058594 0.15234 0.082031 0.32031 0.14062 0.47266l6.3633 17.297-10.629-1.793h0.003906c-3.6953-0.62109-6.7188-3.2773-7.8086-6.8594-0.63281-2.0977-0.36719-4.3672 0.73438-6.2578zm4.7227 51.141c-2.1172-0.48437-3.9336-1.832-5.0117-3.7148-1.0781-1.8867-1.3164-4.1367-0.65625-6.207 0.70703-2.0391 2.0898-3.7773 3.9219-4.9219h0.21094l18.195 3.0586-6.8242 8.3477c-0.87109 1.0156-1.9453 1.8398-3.1523 2.4219l-0.40234-0.15234c0 0.12891 0 0.27344-0.09375 0.40234v-0.003907c-1.9375 0.91797-4.125 1.1719-6.2227 0.72266zm41.707 17.57c-1.4961 1.5547-3.5586 2.4336-5.7148 2.4336-2.1602 0-4.2227-0.87891-5.7148-2.4336-1.4414-1.6172-2.2734-3.6836-2.3633-5.8477l0.16406-0.16406 11.68-14.277 3.8711 10.07v0.003906c1.3125 3.4844 0.55469 7.4102-1.957 10.156zm34.645-20.168c-1.1484 1.8242-2.9922 3.1055-5.1016 3.5391-1.6992 0.30078-3.4453 0.13281-5.0547-0.48047-0.17578-0.53125-0.28516-1.0742-0.48438-1.6055l-6.3281-16.531 10.07 1.8438v-0.003906c3.6914 0.67969 6.6797 3.3867 7.7227 6.9922 0.57031 2.0938 0.25781 4.3281-0.85938 6.1875z"/>
  <path d="m951.98 388.64c-4.1562-7.5273-11.227-13.012-19.555-15.16-4.0469-1.0469-8.2539-1.3086-12.398-0.76953-1.4648-3.8867-3.6523-7.4609-6.4492-10.531-5.8164-6.3516-14-10.02-22.609-10.145-8.6289-0.26172-16.957 3.1758-22.887 9.4492-2.8906 2.9688-5.1914 6.4648-6.7773 10.297-4.1094-0.62891-8.3008-0.47266-12.352 0.46094-8.3828 1.9258-15.605 7.2148-19.98 14.625-4.3711 7.4102-5.5039 16.293-3.1367 24.562 1.1523 4.0469 3.0781 7.832 5.668 11.148-2.6133 3.207-4.5859 6.8828-5.8242 10.828-2.4883 8.2383-1.4766 17.137 2.793 24.605 4.2695 7.4727 11.426 12.855 19.785 14.891 4.0234 1.1328 8.2539 1.2969 12.352 0.48437 1.5156 3.9062 3.7656 7.4844 6.625 10.547 5.918 6.2578 14.152 9.8008 22.766 9.8008 8.6016 0.007812 16.824-3.5234 22.742-9.7656 2.6133-2.7617 4.7266-5.9609 6.2461-9.4453 1.3984 0.20312 2.8125 0.32422 4.2266 0.35156 2.3828 0 4.7578-0.25781 7.0859-0.76562 8.4062-1.8242 15.695-7.0195 20.16-14.371 4.4648-7.3516 5.7148-16.215 3.457-24.516-1.1055-4.0234-2.9648-7.8047-5.4805-11.133 2.6406-3.1953 4.6445-6.8672 5.9023-10.816 2.6289-8.1875 1.7773-17.094-2.3594-24.633zm-25.613 7.6641c2.1133 0.50781 3.918 1.8789 4.9688 3.7812 1.0547 1.9023 1.2539 4.1602 0.55859 6.2188-0.71094 2.0273-2.1016 3.7461-3.9336 4.8672l-0.28125-0.09375-18.148-3.3047 6.9531-8.2656v-0.003906c2.3945-2.8945 6.2383-4.1602 9.8828-3.2578zm-41.469-18.16c1.4336-1.6602 3.5469-2.5781 5.7383-2.4922 2.168 0.050781 4.2227 0.98828 5.6797 2.5977 1.3984 1.6328 2.1992 3.6953 2.2656 5.8438l-0.17578 0.17578-11.879 14.168-3.7188-10.121v0.007812c-1.3086-3.5352-0.5-7.5039 2.0898-10.238zm-35.59 20.805c1.1172-1.8594 2.9492-3.1797 5.0664-3.6484 2.0664-0.45703 4.2266-0.19922 6.1289 0.73438 0.058594 0.15234 0.082031 0.32031 0.14062 0.47266l6.3633 17.297-10.629-1.793h0.003906c-3.6953-0.62109-6.7188-3.2773-7.8047-6.8633-0.63672-2.0977-0.37109-4.3633 0.73047-6.2578zm4.7227 51.141c-2.1172-0.48047-3.9336-1.8281-5.0117-3.7148-1.0781-1.8828-1.3164-4.1328-0.65625-6.2031 0.70703-2.043 2.0898-3.7773 3.9219-4.9219h0.21094l18.195 3.0586-6.8242 8.3477c-0.87891 0.99219-1.9492 1.7969-3.1523 2.3594l-0.40234-0.15234c0 0.12891 0 0.27344-0.09375 0.40234-1.9297 0.94922-4.1211 1.2227-6.2227 0.77734zm41.707 17.57c-1.4961 1.5586-3.5586 2.4375-5.7148 2.4375s-4.2227-0.87891-5.7148-2.4375c-1.4414-1.6172-2.2734-3.6797-2.3633-5.8438l0.16406-0.16406 11.68-14.277 3.8711 10.07h0.003906c1.3086 3.4844 0.55078 7.4102-1.9609 10.156zm34.645-20.168c-1.1484 1.8281-2.9883 3.1055-5.1016 3.543-1.6953 0.30078-3.4453 0.13281-5.0547-0.48438-0.17578-0.53125-0.28516-1.0742-0.48438-1.6055l-6.3281-16.531 10.07 1.8438h0.003906c3.6875 0.67969 6.6797 3.3828 7.7227 6.9883 0.56641 2.0938 0.25781 4.3281-0.86328 6.1875z"/>
  <path d="m718.08 694.46h23.617v23.617h-23.617z"/>
  <path d="m918.82 729.89h23.617v23.617h-23.617z"/>
 </g>
</svg>
