<?xml version="1.0" encoding="UTF-8"?>
<svg width="1200pt" height="1200pt" version="1.1" viewBox="0 0 1200 1200" xmlns="http://www.w3.org/2000/svg">
 <defs>
  <clipPath id="a">
   <path d="m222.14 290h755.71v559h-755.71z"/>
  </clipPath>
 </defs>
 <path d="m600 0c-78.793 0-156.82 15.52-229.61 45.672s-138.94 74.348-194.65 130.07c-55.719 55.715-99.914 121.86-130.07 194.65s-45.672 150.82-45.672 229.61c0 159.13 63.215 311.74 175.74 424.26 112.52 112.52 265.13 175.73 424.27 175.73 159.13 0 311.74-63.215 424.26-175.74 112.52-112.52 175.74-265.13 175.74-424.26 0-159.13-63.215-311.74-175.73-424.27-112.52-112.52-265.13-175.74-424.26-175.74zm0 67.762c69.121 0 137.56 13.766 201.42 40.516 63.859 26.746 121.88 65.953 170.76 115.38s87.645 108.1 114.09 172.67c26.453 64.574 40.066 133.79 40.066 203.68 0 141.16-55.457 276.53-154.16 376.34-98.707 99.816-232.58 155.89-372.18 155.89-69.121 0-137.57-13.766-201.43-40.516-63.855-26.746-121.88-65.949-170.76-115.37-48.875-49.422-87.645-108.1-114.1-172.67-26.449-64.574-40.066-133.79-40.066-203.68 0-69.898 13.613-139.11 40.066-203.68 26.449-64.574 65.219-123.25 114.1-172.68 48.875-49.422 106.9-88.625 170.76-115.38 63.859-26.746 132.3-40.512 201.43-40.512z" fill="#a8aaad"/>
 <g clip-path="url(#a)">
  <path d="m824.45 848.63c-11.336 0-22.672-0.75391-35.52-3.0234-4.5352-0.75391-6.8008-4.5352-6.0469-9.0703 0.75391-4.5352 4.5352-6.8008 9.0703-6.0469 94.465 15.871 147.36-39.297 164.75-62.723-96.73-19.648-111.09-123.94-123.94-216.13-6.0469-46.098-12.09-89.176-27.207-122.43-33.25-76.328-112.6-123.94-205.55-123.94s-172.3 47.609-206.31 123.18c-15.113 35.52-21.16 79.352-27.961 126.96-12.848 95.219-26.449 193.46-122.43 212.36 17.383 23.426 70.281 78.594 164.75 62.723 4.5352-0.75391 8.3125 2.2656 9.0703 6.0469 0.75391 4.5352-2.2656 8.3125-6.0469 9.0703-126.96 21.16-187.42-78.594-188.18-80.105-1.5117-2.2656-1.5117-5.2891 0-7.5586 1.5117-2.2656 3.7773-3.7773 6.0469-4.5352 95.977-10.578 108.07-102.78 121.67-200.26 6.0469-46.098 12.848-93.707 29.473-130.74 36.273-81.617 120.91-132.25 219.91-132.25 99 0 183.64 50.633 219.91 133 15.871 34.762 21.914 79.352 27.961 126.2 12.848 95.219 26.449 193.46 122.43 204.8 2.2656 0 4.5352 2.2656 6.0469 4.5352 1.5117 2.2656 0.75391 5.2891 0 7.5586 0 0-49.121 82.375-151.9 82.375z"/>
 </g>
 <path d="m600 909.84c-48.367 0-94.465-26.449-123.18-70.281-18.895-30.23-34.008-71.793-44.586-122.43-0.75391-4.5352 1.5117-8.3125 6.0469-9.0703 4.5352-0.75391 8.3125 1.5117 9.0703 6.0469 9.8242 48.367 24.184 87.664 42.32 117.14 25.691 40.055 67.254 63.48 110.33 63.48s83.883-23.426 110.34-63.48c24.184-37.031 39.297-74.816 47.609-119.4 0.75391-4.5352 4.5352-6.8008 9.0703-6.0469 4.5352 0.75391 6.8008 4.5352 6.0469 9.0703-9.0703 46.098-24.938 86.152-49.879 124.69-28.719 44.586-74.816 70.281-123.18 70.281z"/>
 <path d="m699 705.05c-13.602 0-27.207-1.5117-40.809-4.5352-18.895-4.5352-35.52-17.383-44.586-36.273l-3.7773-7.5586c-2.2656-3.7773-6.0469-6.0469-9.8242-6.0469-4.5352 0-8.3125 2.2656-9.8242 6.0469l-3.7773 7.5586c-9.0703 18.137-26.449 31.738-46.098 36.273-21.16 4.5352-43.832 5.2891-66.504 2.2656-34.008-4.5352-60.457-34.008-60.457-69.527-0.75391-33.25 22.672-61.969 55.168-68.77l3.0234-0.75391c85.395-17.383 172.3-17.383 256.94 0l3.0234 0.75391c32.496 6.8008 55.922 35.52 55.922 68.77 0 34.762-25.695 64.992-59.703 69.527-9.8242 1.5117-19.648 2.2695-28.719 2.2695zm-99-70.281c10.578 0 19.648 6.0469 24.184 15.113l3.7773 7.5586c6.8008 14.359 19.648 24.184 34.008 27.207 20.402 4.5352 41.562 5.2891 63.48 2.2656 26.449-3.7773 46.855-27.207 46.855-53.656 0-25.695-18.137-48.367-43.074-53.656l-3.0234-0.75391c-83.129-16.625-167.77-16.625-250.9 0l-3.7773 1.5078c-24.938 5.2891-43.074 27.207-42.32 52.898 0 27.207 20.402 50.633 47.609 54.41 21.16 3.0234 41.562 2.2656 61.211-2.2656 15.113-3.0234 28.719-13.602 35.52-27.961l3.7773-7.5586c3.0234-9.0664 12.094-15.109 22.672-15.109z"/>
 <path d="m754.17 556.17c-4.5352 0-7.5586-3.7773-7.5586-7.5586 0-61.211-65.746-111.09-146.61-111.09s-146.61 49.879-146.61 111.09c0 4.5352-3.7773 7.5586-7.5586 7.5586-3.7773 0-7.5586-3.7773-7.5586-7.5586 0-69.527 72.547-126.2 162.48-126.2 89.176 0 162.48 56.68 162.48 126.2-0.75391 4.5352-4.5312 7.5586-9.0664 7.5586z"/>
</svg>
