<?xml version="1.0" encoding="UTF-8"?>
<svg width="1200pt" height="1200pt" version="1.1" viewBox="0 0 1200 1200" xmlns="http://www.w3.org/2000/svg">
 <path d="m1031.2 37.5h-862.5c-34.797 0.039062-68.16 13.879-92.766 38.484s-38.445 57.969-38.484 92.766v862.5c0.039062 34.797 13.879 68.16 38.484 92.766s57.969 38.445 92.766 38.484h862.5c34.797-0.039062 68.16-13.879 92.766-38.484s38.445-57.969 38.484-92.766v-862.5c-0.039062-34.797-13.879-68.16-38.484-92.766s-57.969-38.445-92.766-38.484zm93.75 993.75c-0.027344 24.855-9.9141 48.684-27.492 66.258-17.574 17.578-41.402 27.465-66.258 27.492h-862.5c-24.855-0.027344-48.684-9.9141-66.258-27.492-17.578-17.574-27.465-41.402-27.492-66.258v-862.5c0.027344-24.855 9.9141-48.684 27.492-66.258 17.574-17.578 41.402-27.465 66.258-27.492h862.5c24.855 0.027344 48.684 9.9141 66.258 27.492 17.578 17.574 27.465 41.402 27.492 66.258zm-93.75-918.75h-862.5c-14.914 0.015625-29.211 5.9492-39.758 16.492-10.543 10.547-16.477 24.844-16.492 39.758v862.5c0.015625 14.914 5.9492 29.211 16.492 39.758 10.547 10.543 24.844 16.477 39.758 16.492h862.5c14.914-0.015625 29.211-5.9492 39.758-16.492 10.543-10.547 16.477-24.844 16.492-39.758v-862.5c-0.015625-14.914-5.9492-29.211-16.492-39.758-10.547-10.543-24.844-16.477-39.758-16.492zm18.75 918.75c-0.007812 4.9727-1.9844 9.7344-5.5 13.25s-8.2773 5.4922-13.25 5.5h-862.5c-4.9727-0.007812-9.7344-1.9844-13.25-5.5s-5.4922-8.2773-5.5-13.25v-862.5c0.007812-4.9727 1.9844-9.7344 5.5-13.25s8.2773-5.4922 13.25-5.5h862.5c4.9727 0.007812 9.7344 1.9844 13.25 5.5s5.4922 8.2773 5.5 13.25zm-412.5-787.5h-281.25c-4.9727 0-9.7422 1.9766-13.258 5.4922-3.5156 3.5156-5.4922 8.2852-5.4922 13.258v656.25c0 4.9727 1.9766 9.7422 5.4922 13.258 3.5156 3.5156 8.2852 5.4922 13.258 5.4922h112.5c4.9727 0 9.7422-1.9766 13.258-5.4922 3.5156-3.5156 5.4922-8.2852 5.4922-13.258v-225h150c59.672 0 116.9-23.707 159.1-65.902 42.195-42.195 65.902-99.426 65.902-159.1s-23.707-116.9-65.902-159.1c-42.195-42.195-99.426-65.902-159.1-65.902zm0 412.5h-168.75c-4.9727 0-9.7422 1.9766-13.258 5.4922-3.5156 3.5156-5.4922 8.2852-5.4922 13.258v225h-75v-618.75h262.5c49.727 0 97.418 19.754 132.58 54.918 35.164 35.164 54.918 82.855 54.918 132.58s-19.754 97.418-54.918 132.58c-35.164 35.164-82.855 54.918-132.58 54.918zm0-300h-168.75c-4.9727 0-9.7422 1.9766-13.258 5.4922-3.5156 3.5156-5.4922 8.2852-5.4922 13.258v187.5c0 4.9727 1.9766 9.7422 5.4922 13.258 3.5156 3.5156 8.2852 5.4922 13.258 5.4922h168.75c40.191 0 77.332-21.441 97.43-56.25 20.094-34.809 20.094-77.691 0-112.5-20.098-34.809-57.238-56.25-97.43-56.25zm0 187.5h-150v-150h150c26.793 0 51.555 14.293 64.953 37.5 13.395 23.207 13.395 51.793 0 75-13.398 23.207-38.16 37.5-64.953 37.5z"/>
</svg>
