<?xml version="1.0" encoding="UTF-8"?>
<svg width="1200pt" height="1200pt" version="1.1" viewBox="0 0 1200 1200" xmlns="http://www.w3.org/2000/svg">
 <defs>
  <clipPath id="d">
   <path d="m705 847h272.86v17h-272.86z"/>
  </clipPath>
  <clipPath id="c">
   <path d="m222.14 245h593.86v229h-593.86z"/>
  </clipPath>
  <clipPath id="b">
   <path d="m222.14 362h557.86v116h-557.86z"/>
  </clipPath>
  <clipPath id="a">
   <path d="m222.14 455h510.86v244h-510.86z"/>
  </clipPath>
 </defs>
 <path d="m600 0c-78.793 0-156.82 15.52-229.61 45.672s-138.94 74.348-194.65 130.07c-55.719 55.715-99.914 121.86-130.07 194.65s-45.672 150.82-45.672 229.61c0 159.13 63.215 311.74 175.74 424.26 112.52 112.52 265.13 175.73 424.27 175.73 159.13 0 311.74-63.215 424.26-175.74 112.52-112.52 175.74-265.13 175.74-424.26 0-159.13-63.215-311.74-175.73-424.27-112.52-112.52-265.13-175.74-424.26-175.74zm0 67.762c69.121 0 137.56 13.766 201.42 40.516 63.859 26.746 121.88 65.953 170.76 115.38s87.645 108.1 114.09 172.67c26.453 64.574 40.066 133.79 40.066 203.68 0 141.16-55.457 276.53-154.16 376.34-98.707 99.816-232.58 155.89-372.18 155.89-69.121 0-137.57-13.766-201.43-40.516-63.855-26.746-121.88-65.949-170.76-115.37-48.875-49.422-87.645-108.1-114.1-172.67-26.449-64.574-40.066-133.79-40.066-203.68 0-69.898 13.613-139.11 40.066-203.68 26.449-64.574 65.219-123.25 114.1-172.68 48.875-49.422 106.9-88.625 170.76-115.38 63.859-26.746 132.3-40.512 201.43-40.512z" fill="#a8aaad"/>
 <path d="m923.45 829.74c-4.5352 0-8.3125-3.7773-8.3125-8.3125l-0.003907-238.8c0-9.8242-8.3125-18.137-18.137-18.137h-55.922c-4.5352 0-8.3125-3.7773-8.3125-8.3125s3.7773-8.3125 8.3125-8.3125h55.922c19.648 0 35.52 15.871 35.52 35.52v238.8c0 3.7773-3.7773 7.5547-9.0664 7.5547z"/>
 <path d="m758.7 829.74c-4.5352 0-8.3125-3.7773-8.3125-8.3125v-238.8c0-19.648 15.871-35.52 35.52-35.52h8.3125v-52.898c0-17.383 13.602-30.984 30.984-30.984h33.25c17.383 0 30.984 13.602 30.984 30.984v61.211c0 4.5352-3.7773 8.3125-8.3125 8.3125s-8.3125-3.7773-8.3125-8.3125v-61.211c0-7.5586-6.0469-13.602-13.602-13.602h-33.25c-7.5586 0-13.602 6.0469-13.602 13.602v70.281h-25.695c-9.8242 0-18.137 8.3125-18.137 18.137v238.8c-0.76172 4.5352-4.5391 8.3125-9.8281 8.3125z"/>
 <path d="m841.07 480.6c-4.5352 0-8.3125-3.7773-8.3125-8.3125v-101.27c0-4.5352 3.7773-8.3125 8.3125-8.3125 4.5352 0 8.3125 3.7773 8.3125 8.3125v101.27c0.75781 4.5352-3.0234 8.3125-8.3125 8.3125z"/>
 <g clip-path="url(#d)">
  <path d="m969.55 863.75h-256.19c-4.5352 0-8.3125-3.7773-8.3125-8.3125s3.7773-8.3125 8.3125-8.3125h256.19c4.5352 0 8.3125 3.7773 8.3125 8.3125s-3.7773 8.3125-8.3125 8.3125z"/>
 </g>
 <path d="m923.45 659.7h-51.391c-4.5352 0-8.3125-3.7773-8.3125-8.3125s3.7773-8.3125 8.3125-8.3125h51.387c4.5352 0 8.3125 3.7773 8.3125 8.3125 0.75781 4.5352-3.0195 8.3125-8.3086 8.3125z"/>
 <path d="m923.45 714.11h-51.391c-4.5352 0-8.3125-3.7773-8.3125-8.3125 0-4.5352 3.7773-8.3125 8.3125-8.3125h51.387c4.5352 0 8.3125 3.7773 8.3125 8.3125 0.75781 4.5352-3.0195 8.3125-8.3086 8.3125z"/>
 <path d="m923.45 768.53h-51.391c-4.5352 0-8.3125-3.7773-8.3125-8.3125s3.7773-8.3125 8.3125-8.3125h51.387c4.5352 0 8.3125 3.7773 8.3125 8.3125 0.75781 4.5312-3.0195 8.3125-8.3086 8.3125z"/>
 <path d="m806.31 955.19c-4.5352 0-8.3125-3.7773-8.3125-8.3125v-90.688c0-4.5352 3.7773-8.3125 8.3125-8.3125s8.3125 3.7773 8.3125 8.3125v90.688c0 3.7773-3.7773 8.3125-8.3125 8.3125z"/>
 <path d="m876.59 955.19c-4.5352 0-8.3125-3.7773-8.3125-8.3125v-90.688c0-4.5352 3.7773-8.3125 8.3125-8.3125s8.3125 3.7773 8.3125 8.3125v90.688c0 3.7773-3.7773 8.3125-8.3125 8.3125z"/>
 <path d="m908.33 955.19h-133.76c-4.5352 0-8.3125-3.7773-8.3125-8.3125s3.7773-8.3125 8.3125-8.3125h133.76c4.5352 0 8.3125 3.7773 8.3125 8.3125 0 3.7773-3.7773 8.3125-8.3125 8.3125z"/>
 <g clip-path="url(#c)">
  <path d="m230.46 473.04c-3.0234 0-5.2891-1.5117-7.5586-3.7773-3.0234-3.7773-1.5117-9.0703 2.2656-12.09 0.75391 0 58.191-39.297 114.11-126.96 1.5117-3.0234 44.586-71.793 114.11-83.129 37.031-6.0469 74.059 4.5352 110.34 32.496 36.273-27.961 73.305-38.543 110.34-32.496 70.281 11.332 113.36 80.859 114.87 83.125 7.5586 12.09 15.871 24.184 24.938 35.52 3.0234 3.7773 2.2656 9.0703-1.5117 12.09-3.7773 3.0234-9.0703 2.2656-12.09-1.5117-9.0703-11.336-17.383-24.184-25.695-37.031-0.75391-0.75391-40.809-64.992-102.78-75.57-34.004-5.2891-68.012 5.293-102.02 33.254l-5.2891 4.5352-5.2891-4.5352c-34.008-27.961-68.016-38.543-102.02-33.25-61.969 10.578-102.02 74.816-102.78 75.57-58.195 91.441-116.38 130.74-118.65 132.25-1.5117 1.5117-3.0234 1.5117-5.2891 1.5117z"/>
 </g>
 <g clip-path="url(#b)">
  <path d="m277.31 477.57c-27.207 0-46.098-4.5352-48.367-4.5352-4.5352-0.75391-7.5586-6.0469-6.8008-10.578 0.75391-4.5352 5.2891-7.5586 10.578-6.8008 0.75391 0 113.36 24.938 181.37-50.633 0.75391-0.75391 63.48-68.77 150.39-30.984 86.906-37.785 149.63 30.23 150.39 30.984 16.625 18.137 36.273 31.738 59.703 40.809 4.5352 1.5117 6.8008 6.8008 4.5352 11.336-1.5117 4.5352-6.8008 6.8008-11.336 4.5352-25.695-10.578-48.367-25.695-66.504-46.098-2.2656-2.2656-56.68-61.211-133.76-25.695l-3.7773 1.5117-3.7773-1.5117c-77.84-36.273-133 24.938-133.76 25.695-44.586 52.141-106.55 61.965-148.88 61.965z"/>
 </g>
 <path d="m564.48 460.2c-61.969 0-123.94-8.3125-163.99-25.695-4.5352-1.5117-6.8008-6.8008-4.5352-11.336 1.5117-4.5352 6.8008-6.8008 11.336-4.5352 76.328 32.496 238.05 32.496 314.38 0 4.5352-1.5117 9.8242 0 11.336 4.5352 1.5117 4.5352 0 9.8242-4.5352 11.336-40.055 17.383-102.02 25.695-163.99 25.695z"/>
 <g clip-path="url(#a)">
  <path d="m565.24 699c-49.879 0-97.488-10.578-134.52-26.449-58.945-25.695-86.152-60.457-120.16-105.04-21.914-28.719-46.855-60.457-85.395-96.73-3.7773-3.0234-3.7773-9.0703-0.75391-12.09 3.0234-3.7773 9.0703-3.7773 12.09-0.75391 40.055 37.031 64.992 69.527 87.664 98.242 32.496 42.32 58.191 75.57 113.36 99.754 74.816 32.496 190.44 40.055 281.88-15.871 3.7773-2.2656 9.0703-1.5117 12.09 3.0234 2.2656 3.7773 1.5117 9.0703-3.0234 12.09-50.633 30.98-108.07 43.828-163.23 43.828z"/>
 </g>
 <path d="m564.48 558.44c-122.43 0-170.79-27.207-218.4-53.656-17.383-9.8242-34.762-19.648-56.68-28.719-4.5352-1.5117-6.8008-6.8008-4.5352-11.336 1.5117-4.5352 6.8008-6.8008 11.336-4.5352 22.672 9.0703 40.809 19.648 58.191 29.473 46.855 26.449 91.441 51.387 209.33 51.387 96.73 0 144.34-17.383 181.37-36.273 4.5352-2.2656 9.8242-0.75391 11.336 3.7773 2.2656 4.5352 0.75391 9.8242-3.7773 11.336-37.785 20.41-87.664 38.547-188.17 38.547z"/>
</svg>
