<?xml version="1.0" encoding="UTF-8"?>
<svg width="1200pt" height="1200pt" version="1.1" viewBox="0 0 1200 1200" xmlns="http://www.w3.org/2000/svg">
 <defs>
  <clipPath id="c">
   <path d="m477 742h324v235.86h-324z"/>
  </clipPath>
  <clipPath id="b">
   <path d="m520 222.14h365v538.86h-365z"/>
  </clipPath>
  <clipPath id="a">
   <path d="m315 763h214v214.86h-214z"/>
  </clipPath>
 </defs>
 <path d="m600 0c-78.793 0-156.82 15.52-229.61 45.672s-138.94 74.348-194.65 130.07c-55.719 55.715-99.914 121.86-130.07 194.65s-45.672 150.82-45.672 229.61c0 159.13 63.215 311.74 175.74 424.26 112.52 112.52 265.13 175.73 424.27 175.73 159.13 0 311.74-63.215 424.26-175.74 112.52-112.52 175.74-265.13 175.74-424.26 0-159.13-63.215-311.74-175.73-424.27-112.52-112.52-265.13-175.74-424.26-175.74zm0 67.762c69.121 0 137.56 13.766 201.42 40.516 63.859 26.746 121.88 65.953 170.76 115.38s87.645 108.1 114.09 172.67c26.453 64.574 40.066 133.79 40.066 203.68 0 141.16-55.457 276.53-154.16 376.34-98.707 99.816-232.58 155.89-372.18 155.89-69.121 0-137.57-13.766-201.43-40.516-63.855-26.746-121.88-65.949-170.76-115.37-48.875-49.422-87.645-108.1-114.1-172.67-26.449-64.574-40.066-133.79-40.066-203.68 0-69.898 13.613-139.11 40.066-203.68 26.449-64.574 65.219-123.25 114.1-172.68 48.875-49.422 106.9-88.625 170.76-115.38 63.859-26.746 132.3-40.512 201.43-40.512z" fill="#a8aaad"/>
 <g clip-path="url(#c)">
  <path d="m608.32 977.86c-49.879 0-97.488-26.449-127.71-71.039l-1.5156-3.0234c-2.2656-3.7773-1.5117-9.0703 2.2656-12.09 3.7773-2.2656 9.0703-1.5117 12.09 2.2656l1.5117 2.2656c27.207 40.055 69.527 64.234 113.36 64.234 45.344 0 88.418-24.938 114.87-65.746 34.008-52.898 53.656-99 59.703-144.34 0.75391-4.5352 5.2891-7.5586 9.8242-7.5586 4.5352 0.75391 7.5586 5.2891 7.5586 9.8242-6.8008 48.367-26.449 96.73-62.723 151.14-29.469 46.102-77.836 74.062-129.22 74.062z"/>
 </g>
 <path d="m432.99 757.95h-2.2656c-15.113-3.7773-28.719-11.336-38.543-22.672-15.871-18.137-68.016-89.176-54.41-222.94 10.578-104.29 90.688-194.22 190.44-214.62 4.5352-0.75391 9.0703 2.2656 9.8242 6.8008s-2.2656 9.0703-6.8008 9.8242c-105.05 20.406-168.53 115.62-176.84 198.75-3.0234 32.496-9.0703 142.07 50.633 210.09 5.2891 6.0469 11.336 10.578 18.137 13.602l-1.5117-26.449c-3.0234-28.719-3.7773-50.633-4.5352-61.211-0.75391-33.25 27.961-74.059 75.57-107.31 36.273-24.938 80.105-41.562 126.2-48.367 4.5352-0.75391 9.0703 2.2656 9.8242 6.8008s-2.2656 9.0703-6.8008 9.8242c-44.586 6.0469-85.395 21.914-119.4 45.344-50.633 35.52-68.77 71.793-68.016 92.953 0 10.578 0.75391 31.738 4.5352 60.457l2.2656 39.297c0 3.0234-0.75391 5.2891-3.0234 6.8008-1.5078 2.2695-3.7734 3.0234-5.2852 3.0234z"/>
 <g clip-path="url(#b)">
  <path d="m791.95 760.21c-1.5117 0-2.2656 0-3.7773-0.75391-3.0234-1.5117-4.5352-4.5352-4.5352-7.5586-0.75391-79.352-44.586-108.07-80.105-131.5-8.3125-5.2891-15.871-10.578-22.672-15.871-35.52-28.719-60.457-70.281-73.305-118.65-9.8242-37.031-29.473-59.703-29.473-60.457l-0.75391-0.75391c-15.113-21.914-35.52-51.387-45.344-69.527-12.09-22.672-14.359-49.121-6.0469-73.305 8.3125-23.426 27.207-42.32 49.879-51.387l3.7773 7.5586-2.2656-6.8008c27.207-9.8242 58.945-11.336 93.707-3.7773 4.5352 0.75391 9.0703 2.2656 15.113 4.5352 93.707 30.23 166.26 110.34 188.17 207.82 7.5586 34.008 11.336 69.527 10.578 106.55-1.5117 96.73-32.496 170.04-88.418 212.36-0.75391 0.75391-3.0195 1.5117-4.5312 1.5117zm-200.27-345.36c3.0234 3.7773 22.672 27.961 33.25 66.504 11.336 44.586 34.762 83.129 67.258 109.58 6.0469 4.5352 12.848 9.8242 21.16 14.359 32.496 21.16 80.105 52.145 86.906 127.71 54.41-50.633 67.258-129.23 68.77-188.17 0.75391-35.52-3.0234-69.527-10.578-102.02-21.156-91.445-89.172-166.26-177.59-194.98-5.2891-2.2695-9.8242-3.0234-13.602-4.5352-30.984-6.8008-59.703-5.2891-83.887 3.7773l-3.7773-7.5586 3.0234 7.5586c-18.895 7.5586-33.25 22.672-40.055 41.562-6.8008 19.648-5.2891 40.809 4.5352 58.945 9.8242 18.141 31.738 49.879 44.586 67.262z"/>
 </g>
 <path d="m446.59 444.32c-1.5117 0-3.0234-0.75391-4.5352-1.5117-3.7773-2.2656-5.2891-7.5586-3.0234-11.336 40.809-67.258 102.78-77.84 105.04-77.84 4.5352-0.75391 9.0703 2.2656 9.8242 6.8008 0.75391 4.5352-2.2656 9.0703-6.8008 9.8242-0.75391 0-56.68 9.8242-93.707 70.281-1.5078 3.0273-3.7773 3.7812-6.8008 3.7812z"/>
 <path d="m488.16 499.49c-1.5117 0-3.0234 0-4.5352-0.75391-3.7773-2.2656-5.2891-7.5586-3.0234-11.336 35.52-63.48 99.754-74.059 102.02-74.816 4.5352-0.75391 9.0703 2.2656 9.8242 6.8008 0.75391 4.5352-2.2656 9.0703-6.8008 9.8242-0.75391 0-58.191 10.578-89.93 66.504-1.5078 2.2656-4.5312 3.7773-7.5547 3.7773z"/>
 <path d="m730.74 630.98c-1.5117 0-3.7773-0.75391-5.2891-1.5117-3.7773-3.0234-4.5352-8.3125-2.2656-12.09 21.16-29.473 28.719-68.016 19.648-103.53-1.5117-4.5352 1.5117-9.0703 6.0469-10.578 4.5352-1.5117 9.0703 1.5117 10.578 6.0469 9.8242 40.055 1.5117 83.883-22.672 117.89-0.75781 3.0195-3.7812 3.7734-6.0469 3.7734z"/>
 <path d="m773.82 684.64c-2.2656 0-4.5352-0.75391-6.0469-2.2656-3.0234-3.0234-3.0234-9.0703 0-12.09 0.75391-0.75391 60.457-60.457 40.809-156.43-0.75391-4.5352 2.2656-9.0703 6.8008-9.8242s9.0703 2.2656 9.8242 6.8008c21.16 105.04-43.074 169.28-45.344 171.55-1.5078 1.5117-3.7773 2.2656-6.043 2.2656z"/>
 <g clip-path="url(#a)">
  <path d="m358.17 977.86c-11.336 0-22.672-4.5352-30.23-12.848-8.3125-8.3125-12.848-18.895-12.848-30.23s4.5352-22.672 12.848-30.23l137.54-138.29c3.0234-3.0234 9.0703-3.0234 12.09 0l49.121 49.121c3.0234 3.0234 3.0234 9.0703 0 12.09l-138.29 137.54c-8.3125 8.3125-18.895 12.848-30.23 12.848zm113.36-193.46-132.25 131.5c-5.2891 5.2891-7.5586 11.336-7.5586 18.137 0 6.8008 3.0234 13.602 7.5586 18.137 5.2891 5.2891 11.336 7.5586 18.137 7.5586s13.602-3.0234 18.137-7.5586l132.25-132.25z"/>
 </g>
 <path d="m544.84 834.27c-16.625 0-27.207-5.2891-28.719-5.2891-4.5352-2.2656-6.0469-6.8008-3.7773-11.336 2.2656-4.5352 6.8008-6.0469 11.336-3.7773 1.5117 0.75391 39.297 16.625 80.105-24.184 3.0234-3.0234 9.0703-3.0234 12.09 0 3.0234 3.0234 3.0234 9.0703 0 12.09-26.449 26.449-52.145 32.496-71.035 32.496z"/>
 <path d="m471.53 780.62c-3.0234 0-6.0469-1.5117-7.5586-4.5352-0.75391-2.2656-22.672-49.121 27.207-99 3.0234-3.0234 9.0703-3.0234 12.09 0 3.0234 3.0234 3.0234 9.0703 0 12.09-41.562 40.812-24.184 78.598-24.184 79.355 2.2656 4.5352 0 9.0703-3.7773 11.336-1.5117 0.75391-3.0234 0.75391-3.7773 0.75391z"/>
 <path d="m504.03 748.12c-2.2656 0-4.5352-0.75391-6.0469-2.2656-3.0234-3.0234-3.0234-9.0703 0-12.09l29.473-29.473c3.0234-3.0234 9.0703-3.0234 12.09 0 3.0234 3.0234 3.0234 9.0703 0 12.09l-29.473 29.473c-1.5117 0.75391-3.7773 2.2656-6.043 2.2656z"/>
 <path d="m528.96 772.3c-2.2656 0-4.5352-0.75391-6.0469-2.2656-3.0234-3.0234-3.0234-9.0703 0-12.09l29.473-29.473c3.0234-3.0234 9.0703-3.0234 12.09 0 3.0234 3.0234 3.0234 9.0703 0 12.09l-29.473 29.473c-2.2656 1.5078-3.7773 2.2656-6.043 2.2656z"/>
 <path d="m553.15 796.49c-2.2656 0-4.5352-0.75391-6.0469-2.2656-3.0234-3.0234-3.0234-9.0703 0-12.09l29.473-29.473c3.0234-3.0234 9.0703-3.0234 12.09 0 3.0234 3.0234 3.0234 9.0703 0 12.09l-29.473 29.473c-1.5078 1.5078-3.7773 2.2656-6.043 2.2656z"/>
</svg>
