<?xml version="1.0" encoding="UTF-8"?>
<svg width="1200pt" height="1200pt" version="1.1" viewBox="0 0 1200 1200" xmlns="http://www.w3.org/2000/svg">
 <g>
  <path d="m600 0c-78.793 0-156.82 15.52-229.61 45.672s-138.94 74.348-194.65 130.07c-55.719 55.715-99.914 121.86-130.07 194.65s-45.672 150.82-45.672 229.61c0 159.13 63.215 311.74 175.74 424.26 112.52 112.52 265.13 175.73 424.27 175.73 159.13 0 311.74-63.215 424.26-175.74 112.52-112.52 175.74-265.13 175.74-424.26 0-159.13-63.215-311.74-175.73-424.27-112.52-112.52-265.13-175.74-424.26-175.74zm0 67.762c69.121 0 137.56 13.766 201.42 40.516 63.859 26.746 121.88 65.953 170.76 115.38s87.645 108.1 114.09 172.67c26.453 64.574 40.066 133.79 40.066 203.68 0 141.16-55.457 276.53-154.16 376.34-98.707 99.816-232.58 155.89-372.18 155.89-69.121 0-137.57-13.766-201.43-40.516-63.855-26.746-121.88-65.949-170.76-115.37-48.875-49.422-87.645-108.1-114.1-172.67-26.449-64.574-40.066-133.79-40.066-203.68 0-69.898 13.613-139.11 40.066-203.68 26.449-64.574 65.219-123.25 114.1-172.68 48.875-49.422 106.9-88.625 170.76-115.38 63.859-26.746 132.3-40.512 201.43-40.512z" fill="#a8aaad"/>
  <path d="m550.94 413.62c38.715-2.1406 75.57-2.4414 76.297-2.4414 0.72266 0 37.582 0.30078 76.297 2.4414-12.805-5.25-24.875-12.129-35.914-20.469-9.9336-11.918 7.8711-35.094 7.8711-47.672s-31.125-13.242-45.027-13.242h-6.6133c-13.902 0-45.027 0.66016-45.027 13.242 0 12.578 17.887 35.754 7.8711 47.672h0.003907c-10.992 8.3281-23.008 15.207-35.758 20.469z"/>
  <path d="m335.27 510.26c9.2578 31.125 14.168 85.695 31.707 123.01 3.4102 6.4258 7.5586 12.434 12.359 17.898 0-1.3086-0.15625-2.5195-0.15625-3.8555 0-23.867 16.012-81.16 35.691-131.76l-51.797-62.977h-66.219c17.109 15.984 30.262 35.734 38.414 57.688z"/>
  <path d="m932.52 469.89c-31.125-16.801-85.348-10.613-116.51-5.0391 5.8867 11.242 12.012 24.043 18.059 37.957 21.617-3.9375 52.789-7.3203 70.234 1.2891 30.211 14.926 20.859 53.121 3.7305 86.34l0.003906 0.003906c-8.8516 17.527-20.027 33.777-33.223 48.316 0.21875 2.9297 0.48828 5.918 0.48828 8.5664 0.097657 17.574-2.4844 35.062-7.6484 51.859 29.684-21.703 54.574-49.301 73.113-81.062 32.953-55.656 37.094-123.73-8.25-148.23z"/>
  <path d="m495.13 783.03-3.418 11.918h0.003906c44.844 6.7734 90.176 9.8203 135.52 9.1133 47.711 0.96094 95.406-2.5273 142.47-10.422 9.6367-2.0977 18.219-7.5469 24.215-15.383-55.152 8.4219-110.89 12.352-166.68 11.746-44.133 0.19531-88.242-2.1328-132.11-6.9727z"/>
  <path d="m627.24 434.8c-38.398 0-139.04 4.6289-149.57 11.258-10.531 6.625-74.875 139.77-74.875 201.27-0.070313 13.441 1.6328 26.836 5.0664 39.832 66.676 4.7227 100.48 20.277 100.48 46.383h0.003906c0 3.7188-0.73047 7.3984-2.1562 10.832l-4.4727 15.633c41.695 4.4141 83.602 6.543 125.53 6.3789 58.793 1.1719 117.56-3.4453 175.45-13.777 0 0 48.996-29.141 48.996-105.28 0-61.574-64.219-194.66-74.816-201.27-10.598-6.6094-111.23-11.254-149.63-11.254z"/>
  <path d="m359.34 709.19c-69.273 0-125.39 10.91-125.39 24.371 0 13.461 56.129 24.355 125.39 24.355 69.258 0 125.39-10.91 125.39-24.355-0.003906-13.445-56.145-24.371-125.39-24.371z"/>
  <path d="m243.09 767.79 7.1641 26.766h-0.003906c6.2891 21.184 19.254 39.77 36.961 52.984 17.711 13.215 39.219 20.355 61.316 20.352h20.469-0.003907c21.781 0 43-6.9414 60.57-19.812 17.57-12.871 30.586-31.008 37.152-51.777l8.0781-28.184v0.003907c-37.539 10.617-76.539 15.168-115.52 13.477-39.223 1.7266-78.465-2.9375-116.19-13.809z"/>
 </g>
</svg>
