<?xml version="1.0" encoding="UTF-8"?>
<svg width="1200pt" height="1200pt" version="1.1" viewBox="0 0 1200 1200" xmlns="http://www.w3.org/2000/svg">
 <g>
  <path d="m600 0c-78.793 0-156.82 15.52-229.61 45.672s-138.94 74.348-194.65 130.07c-55.719 55.715-99.914 121.86-130.07 194.65s-45.672 150.82-45.672 229.61c0 159.13 63.215 311.74 175.74 424.26 112.52 112.52 265.13 175.73 424.27 175.73 159.13 0 311.74-63.215 424.26-175.74 112.52-112.52 175.74-265.13 175.74-424.26 0-159.13-63.215-311.74-175.73-424.27-112.52-112.52-265.13-175.74-424.26-175.74zm0 67.762c69.121 0 137.56 13.766 201.42 40.516 63.859 26.746 121.88 65.953 170.76 115.38s87.645 108.1 114.09 172.67c26.453 64.574 40.066 133.79 40.066 203.68 0 141.16-55.457 276.53-154.16 376.34-98.707 99.816-232.58 155.89-372.18 155.89-69.121 0-137.57-13.766-201.43-40.516-63.855-26.746-121.88-65.949-170.76-115.37-48.875-49.422-87.645-108.1-114.1-172.67-26.449-64.574-40.066-133.79-40.066-203.68 0-69.898 13.613-139.11 40.066-203.68 26.449-64.574 65.219-123.25 114.1-172.68 48.875-49.422 106.9-88.625 170.76-115.38 63.859-26.746 132.3-40.512 201.43-40.512z" fill="#a8aaad"/>
  <path d="m570.98 403.79v-33.656h-16.234v33.656c2.6914-0.12891 13.547-0.12891 16.234 0z"/>
  <path d="m730.88 579.92h33.656v-16.234h-33.656c0.125 2.6875 0.125 13.543 0 16.234z"/>
  <path d="m394.85 563.68h-33.66v16.234h33.656c-0.125-2.6875-0.125-13.543 0.003906-16.234z"/>
  <path d="m485.87 422.21-16.812-29.121-14.062 8.1172 16.82 29.133c4.5391-2.9258 9.2305-5.6406 14.055-8.1289z"/>
  <path d="m384.15 665.6 8.1172 14.062 29.133-16.82c-2.9258-4.5391-5.6406-9.2266-8.1289-14.055z"/>
  <path d="m704.32 662.84 29.133 16.82 8.1172-14.062-29.121-16.812c-2.4844 4.8281-5.1992 9.5156-8.1289 14.055z"/>
  <path d="m421.4 480.75-29.133-16.82-8.1172 14.062 29.121 16.812c2.4883-4.8281 5.2031-9.5156 8.1289-14.055z"/>
  <path d="m670.73 401.2-14.062-8.1172-16.812 29.121c4.8242 2.4883 9.5156 5.2031 14.055 8.1289z"/>
  <path d="m454.99 742.39 14.062 8.1172 16.812-29.121c-4.8242-2.4883-9.5156-5.2031-14.055-8.1289z"/>
  <path d="m722.27 500.06c0.99219-3.6992 1.0898-7.4922 0.37891-11.145l18.918-10.922-8.1172-14.062-18.918 10.922c-2.8086-2.4414-6.1406-4.25-9.8398-5.2422-6.4141-1.7188-13.109-0.83594-18.863 2.4844l-116.93 67.508c-0.87891-0.16406-1.7617-0.31641-2.6641-0.40625l-99.699-57.562c-7.0703-4.082-15.316-5.168-23.203-3.0547-7.8906 2.1133-14.484 7.1758-18.566 14.246-4.0859 7.0742-5.168 15.312-3.0547 23.203s7.1719 14.484 14.246 18.566l99.73 57.582c0.72266 0.41797 1.4844 0.69922 2.2578 0.875 6.0156 7.043 14.941 11.527 24.91 11.527 14.258 0 26.387-9.168 30.887-21.906l116.95-67.52c5.7461-3.3203 9.8594-8.6797 11.578-15.094zm-192.11 70.176-86.078-49.699c-3.3164-1.9141-5.6914-5.0078-6.6797-8.707-0.99219-3.6992-0.48047-7.5664 1.4336-10.883 1.9141-3.3164 5.0078-5.6914 8.707-6.6797 1.2344-0.33203 2.4883-0.49609 3.7344-0.49609 2.4844 0 4.9375 0.65234 7.1484 1.9297l85.527 49.379c-7.9766 5.6523-13.297 14.773-13.793 25.156zm32.699 18.105c-9.1211 0-16.543-7.4219-16.543-16.543s7.4219-16.543 16.543-16.543 16.543 7.4219 16.543 16.543-7.4219 16.543-16.543 16.543zm143.73-92.484c-0.59766 2.2266-2.0234 4.082-4.0195 5.2344l-108.05 62.383c-1.5117-5.7422-4.5117-10.883-8.6094-14.941l108.04-62.375c1.9961-1.1523 4.3242-1.457 6.543-0.86328 2.2266 0.59766 4.0859 2.0234 5.2344 4.0195 1.1523 1.9961 1.457 4.3203 0.86328 6.543z"/>
  <path d="m905.78 829.23c0.027344-0.125 0.054687-0.25391 0.078125-0.38281 0.074219-0.41016 7.4961-41.531 18.371-71.543 0.95313-2.625 0.48828-5.5547-1.2305-7.7578s-4.4531-3.3711-7.2227-3.0859c-2.6133 0.26562-40.535 4.3242-76.645 18.988-2.1016-13.977-2.7617-27.324 1.6289-39.91 4.7969-13.758 0.50391-19.863-3.9414-22.562-2.7148-1.6484-6.1641-2.6836-11.75-1.6016 19.391-39.078 30.316-83.07 30.316-129.57 0-161.3-131.23-292.52-292.52-292.52s-292.52 131.23-292.52 292.52c0 158.15 126.16 287.37 283.12 292.36 4.7383 5.25 10.281 9.7812 16.637 13.543 1.5547 0.91797 3.1406 1.7617 4.7422 2.5664-9.9688 2.6602-20.047 4.0078-30.676 2.6797-2.9844-0.37109-5.918 0.92969-7.6445 3.3828-1.7266 2.4531-1.9609 5.6602-0.60547 8.3359 8.1172 16.055 31.406 24.203 53.117 30.059 13.414 3.6172 27.844 5.4258 42.59 5.4258 15.102 0 30.535-1.8945 45.559-5.6836 15.172-3.8281 30.777-8.582 42.117-17.406 0.035157-0.027344 3.1172-0.027344 3.1523 0 11.344 8.8242 26.945 13.582 42.117 17.406 15.023 3.7891 30.457 5.6836 45.559 5.6836 14.742 0 29.176-1.8086 42.59-5.4258 21.711-5.8555 45.004-14.004 53.117-30.059 1.3555-2.6758 1.1211-5.8828-0.60547-8.3359s-4.6602-3.7539-7.6445-3.3828c-10.629 1.3281-20.707-0.015624-30.676-2.6797 1.6055-0.80469 3.1914-1.6484 4.7461-2.5664 17.672-10.465 29.16-26.773 34.133-48.473zm-79.617-111.38c-0.17578 0.66016-0.41406 1.4414-0.73047 2.3438-7.4492 21.359-3.4023 43.113 0.50781 64.148 3.8828 20.887 7.5547 40.617-0.082031 58.473-6.2188 14.547-20.328 26.953-37.75 33.188-0.88672 0.31641-1.7773 0.59375-2.668 0.875 1.4531-1.5117 2.8516-3.0703 4.1445-4.7148 6.9922-8.9141 10.363-19.602 10.031-31.766 0.09375-3.0664-0.089843-6.207-0.54688-9.3359-3.6133-24.742-18.52-47.996-31.672-68.516-0.85156-1.332-1.6953-2.6484-2.5352-3.9648 4.2266-3.75 16.066-13.375 29.66-22.82 18.051-12.551 27.328-16.609 31.641-17.91zm-539.59-146.05c0-152.35 123.94-276.29 276.29-276.29s276.29 123.94 276.29 276.29c0 51.309-14.074 99.383-38.543 140.6-3.7812 2.2852-7.9531 4.9648-12.59 8.125-12.469 8.4922-24.562 17.949-31.371 23.715-4.8828-8.7812-11.199-20.23-15.988-28.906 31.758-39.266 50.812-89.211 50.812-143.53 0-126.05-102.55-228.61-228.61-228.61-126.05-0.003906-228.61 102.55-228.61 228.61 0 114.65 84.836 209.84 195.02 226.14 4.1133 17.141 6.5586 30.672 6.5977 30.906 0.023437 0.12891 0.050781 0.25781 0.078125 0.38281 1.4961 6.5234 3.5938 12.551 6.2578 18.09-142.74-10.594-255.64-130.12-255.64-275.52zm355.54 268.6c-0.33594 12.164 3.0391 22.848 10.031 31.766 1.293 1.6484 2.6953 3.2031 4.1484 4.7188-0.89062-0.28125-1.7852-0.55859-2.6719-0.875-17.418-6.2344-31.531-18.641-37.75-33.188-7.6367-17.859-3.9688-37.586-0.082032-58.473 3.9141-21.035 7.9609-42.789 0.51172-64.148-0.31641-0.90625-0.55469-1.6836-0.73047-2.3438 4.3125 1.3008 13.59 5.3594 31.645 17.91 13.594 9.4492 25.434 19.074 29.66 22.82-0.83984 1.3164-1.6836 2.6367-2.5352 3.9648-13.152 20.52-28.059 43.777-31.672 68.516-0.46484 3.1172-0.64844 6.2578-0.55469 9.332zm11.598-119.88c-32.184-21.922-42.469-21.391-48.805-17.547-4.4453 2.6992-8.7383 8.8047-3.9414 22.562 4.3867 12.582 3.7305 25.934 1.6289 39.91-10.703-4.3477-21.562-7.7656-31.617-10.426v-15.211c-2.6914 0.12891-13.547 0.12891-16.234 0v11.367c-15.902-3.3477-27.395-4.5781-28.789-4.7188-2.7734-0.28125-5.5078 0.88281-7.2227 3.0859-1.7188 2.2031-2.1836 5.1328-1.2305 7.7578 2.6836 7.3984 5.1523 15.48 7.3594 23.461-99.035-17.965-174.37-104.83-174.37-208.96 0-117.1 95.27-212.38 212.38-212.38s212.38 95.27 212.38 212.38c0 48.078-16.07 92.473-43.105 128.11-2.6055-4.5625-4.1719-6.3398-8.3086-6.3398h-5.918c-4.8125 0-6.1328 2.3867-9.6641 8.7695-1.5859 2.8633-3.7891 6.8672-6.3047 11.426-4.8828 8.8555-11.676 21.164-16.852 30.473-6.8125-5.7656-18.902-15.219-31.375-23.715zm-101.89 105.26c-0.55859-3.0977-6.1445-33.453-14.82-61.363 14.656 2.4297 39.699 7.6211 62.75 17.379-4.1289 22.211-8.3125 45.164 1.1914 67.402 2.6914 6.2891 6.5039 12.238 11.184 17.672-0.64062 0.23828-11.934 4.6016-12.895 4.9805-7.3281-1.7188-14.438-4.3125-20.871-8.1211-13.84-8.1992-22.523-20.613-26.539-37.949zm121.38 82.938c-27.043 6.8203-55.434 6.9375-79.949 0.32422-6.2031-1.6719-18.727-5.0508-28.836-10.133 15.422-2.0234 29.691-7.6133 43.629-13.078 2.6406-1.0352 5.293-2.0742 7.9727-3.1016 3.2695-1.25 6.4531-2.3672 9.5859-3.4141 6.7383 4.9531 14.355 9.0391 22.543 11.973 10.938 3.918 21.867 5.3672 32.453 5.3672 3.1055 0 6.1836-0.13281 9.2227-0.35547 3.918 1.1016 8.0039 1.9336 12.211 2.5312-8.3086 4.332-18.637 7.3164-28.832 9.8867zm47.957-25.117c-0.097656-0.003906-0.19531-0.003906-0.29297-0.003906-0.097656 0-0.19531 0-0.29297 0.003906-23.605 0.83984-44.441-7.1641-55.648-21.457-4.6914-5.9844-6.8398-13.016-6.5703-21.5 0.007813-0.18359 0.007813-0.36719 0-0.55469-0.078124-2.1836 0.046876-4.4297 0.375-6.6797 3.1094-21.273 16.41-42.031 29.277-62.102 1.1445-1.7891 15.695-27.129 28.148-49.703 1.6758-3.0391 3.3164-6.0117 4.7148-8.543 1.4141 2.5625 3.082 5.582 4.7812 8.668 12.414 22.508 26.934 47.793 28.078 49.578 12.863 20.07 26.168 40.828 29.277 62.102 0.32812 2.2539 0.45703 4.5039 0.37891 6.6797-0.007812 0.18359-0.007812 0.36719 0 0.55078 0.26953 8.4844-1.8789 15.52-6.5703 21.5-11.211 14.297-31.988 22.316-55.656 21.461zm156.15 15.312c-10.109 5.082-22.629 8.457-28.832 10.133-24.508 6.6094-52.902 6.4961-79.949-0.32422-10.176-2.5664-20.484-5.543-28.785-9.8594 4.1797-0.59766 8.2148-1.4688 12.105-2.5625 3.0586 0.22656 6.1523 0.35938 9.2812 0.35938 10.586 0 21.516-1.4531 32.453-5.3672 8.1914-2.9297 15.809-7.0195 22.547-11.973 3.1289 1.0508 6.3086 2.168 9.582 3.418 2.6797 1.0234 5.332 2.0664 7.9727 3.1016 13.938 5.4609 28.199 11.051 43.625 13.074zm-13.902-35.211c-6.4414 3.8203-13.574 6.418-20.934 8.1367-0.95312-0.37109-12.234-4.7305-12.871-4.9688 4.6758-5.4336 8.4922-11.379 11.18-17.672 9.5078-22.238 5.3242-45.191 1.1914-67.402 23.051-9.7578 48.098-14.949 62.75-17.379-8.6719 27.906-14.258 58.266-14.82 61.363-4.0039 17.32-12.676 29.727-26.496 37.922z"/>
 </g>
</svg>
