<?xml version="1.0" encoding="UTF-8"?>
<svg width="1200pt" height="1200pt" version="1.1" viewBox="0 0 1200 1200" xmlns="http://www.w3.org/2000/svg">
 <path d="m587.57 77.91c-60.363 0.26953-116.75 16.484-168.29 44.336-57.246 30.941-108.65 76.266-153.02 130.17-54.922 66.688-87.691 146.48-97.059 228.9-8.1211 71.449 1.3164 144.92 29.07 213.62 83-136.21 167.3-173.27 251.88-210.45 71.262-31.324 142.8-62.773 213.08-160.21 11.281-15.633 20.539-31.676 27.922-47.891 7.7109-16.895 13.422-34.102 17.348-51.363 3.6133-15.973 4.0391-32.285 0.32422-48.418-3.1055-13.508-9.0703-26.477-17.758-38.496-22.848-4.8633-44.148-3.8398-63.824 3.0469-21.727 7.6094-42.094 22.551-61.043 44.758-6.4492 7.5273-17.789 8.4062-25.312 1.957-7.5273-6.4492-8.4062-17.789-1.957-25.312 23.117-27.086 48.629-45.539 76.492-55.305 10.984-3.8398 22.266-6.3203 33.816-7.4414-3.6406-2.3516-7.3828-4.5781-11.184-6.6484-16.992-9.2539-34.922-15.309-50.484-15.25zm159.73 119.23c74.539 12.117 133.34 35.066 176.39 68.785 45.242 35.461 72.938 82.391 82.973 140.68 4.4375 3.0469 8.6875 6.3516 12.727 9.8789 23.926 20.918 40.324 49.863 49.109 86.785 0.35547 1.4883 0.51172 2.9609 0.48047 4.4219 1.957 39.941-1.1328 80.262-9.3672 119.89-7.3125 35.121-18.652 69.66-34.074 102.9l0.027344 3.7266c0.070313 117.06-47.367 223-124.02 299.67-76.664 76.648-182.61 124.09-299.6 124.09s-222.93-47.438-299.6-124.09c-75.742-75.742-122.94-180.09-124.07-295.4-40.254-82.66-54.781-173.31-44.801-261.1 10.148-89.191 45.625-175.55 105.08-247.75 47.227-57.375 102.19-105.78 163.7-139.01 56.453-30.5 118.48-48.273 185.16-48.559 21.984-0.097656 45.895 7.6953 67.777 19.617 41.98 22.891 77.613 59.203 88.625 106.91 2.1406 9.3242 3.3008 18.863 3.4727 28.559zm217.89 189.75c-11.324-37.461-32.527-68.371-63.582-92.707-37.871-29.664-90.598-50.117-158.11-61.301v0.015626c-4.4492 19.602-10.957 39.148-19.73 58.395-8.3203 18.285-18.75 36.34-31.438 53.93-21.43 29.707-42.848 53.703-64.246 73.59 40.125 29.777 81 47.75 121.76 65.664 84.602 37.191 168.9 74.27 251.9 210.47 9.8945-24.434 17.449-49.438 22.707-74.68 7.5547-36.367 10.418-73.375 8.6875-110.07-7.0859-28.871-19.574-51.125-37.375-66.699-20.195-17.66-46.121-25.754-72.738-28.531-9.8516-1.0078-17.035-9.8359-16.031-19.688 1.0078-9.8516 9.8359-17.035 19.688-16.031 13.75 1.418 26.574 3.9844 38.496 7.6406zm24.293 358.33c-0.72266-0.94922-1.332-1.9258-1.8555-2.9766-82.703-150.32-167.32-187.53-252.26-224.86-44.758-19.672-89.676-39.402-135.26-74.777-45.254 35.137-90.41 54.992-135.48 74.793-84.273 37.035-168.24 73.957-250.34 221.45 1.2188 105.24 44.375 200.43 113.53 269.58 70.145 70.129 167.09 113.54 274.14 113.54s204-43.414 274.14-113.54c67.734-67.75 110.54-160.48 113.39-263.2z"/>
</svg>
