<?xml version="1.0" encoding="UTF-8"?>
<svg width="1200pt" height="1200pt" version="1.1" viewBox="0 0 1200 1200" xmlns="http://www.w3.org/2000/svg">
 <defs>
  <clipPath id="a">
   <path d="m222.14 222.14h755.71v755.71h-755.71z"/>
  </clipPath>
 </defs>
 <path d="m600 0c-78.793 0-156.82 15.52-229.61 45.672s-138.94 74.348-194.65 130.07c-55.719 55.715-99.914 121.86-130.07 194.65s-45.672 150.82-45.672 229.61c0 159.13 63.215 311.74 175.74 424.26 112.52 112.52 265.13 175.73 424.27 175.73 159.13 0 311.74-63.215 424.26-175.74 112.52-112.52 175.74-265.13 175.74-424.26 0-159.13-63.215-311.74-175.73-424.27-112.52-112.52-265.13-175.74-424.26-175.74zm0 67.762c69.121 0 137.56 13.766 201.42 40.516 63.859 26.746 121.88 65.953 170.76 115.38s87.645 108.1 114.09 172.67c26.453 64.574 40.066 133.79 40.066 203.68 0 141.16-55.457 276.53-154.16 376.34-98.707 99.816-232.58 155.89-372.18 155.89-69.121 0-137.57-13.766-201.43-40.516-63.855-26.746-121.88-65.949-170.76-115.37-48.875-49.422-87.645-108.1-114.1-172.67-26.449-64.574-40.066-133.79-40.066-203.68 0-69.898 13.613-139.11 40.066-203.68 26.449-64.574 65.219-123.25 114.1-172.68 48.875-49.422 106.9-88.625 170.76-115.38 63.859-26.746 132.3-40.512 201.43-40.512z" fill="#a8aaad"/>
 <g clip-path="url(#a)">
  <path d="m723.36 222.14-18.184 141.83-47.527-27.16c-19.645-11.223-41.988-17.156-64.613-17.156h-20.926c-53.98 0-102.98 33.961-121.94 84.508-4.668 12.445-11.543 23.766-20.434 33.645l-195.61 217.34c-7.7266 8.582-11.98 19.668-11.98 31.215v1.0508c0 17.664 9.8672 33.066 24.379 40.988v139.76h24.379v-134.13c11.68-0.51172 22.586-5.2969 30.906-13.613l22.898-22.906h33.324c33.262 0 64.867-16.016 84.539-42.84l31.152-42.48h53.145c26.715 0 52.23-12.758 68.258-34.129 11.004-14.672 17.066-32.855 17.066-51.195v-12.188h73.66l-14.199 110.76c-6.6445 51.844-27.652 100.63-60.754 141.08-35.664 43.586-83.07 75.027-137.1 90.918l-114.38 33.641c-8.625-6.957-19.285-10.734-30.527-10.734h-9.2305c-26.883 0-48.754 21.871-48.754 48.754 0 26.883 21.871 48.754 48.754 48.754h445.38c43.418 0 78.742-35.324 78.742-78.742v-0.64844c0-4.7383-0.47266-9.4961-1.3984-14.141l-8.5039-42.508c-1.5156-7.5859-2.2852-15.41-2.2852-23.258v-0.60547c0-27.629 9.9023-54.391 27.883-75.367l27.391-31.945c58.68-68.438 90.992-155.78 90.996-245.93v-242.57zm-438.79 481.03c-4.2109 4.207-9.8086 6.5273-15.762 6.5273-12.289 0-22.285-10-22.285-22.285v-1.0508c0-5.5156 2.0312-10.809 5.7227-14.91l17.195-19.109 32.977 32.977zm138.34-62.918c-15.102 20.59-39.355 32.879-64.883 32.879h-33.324l-38.938-38.934 162.08-180.09c10.941-12.156 19.398-26.082 25.141-41.395 15.41-41.082 55.242-68.684 99.117-68.684h20.926c18.391 0 36.551 4.8203 52.516 13.945l88.531 50.59v81.73h-170.31c-12.133 0-23.887 3.668-33.781 10.254l-43.25-43.25-17.238 17.238 43.238 43.238zm359.92-203.83v53.871h-24.379v-67.801zm-195.02 90.438c0 13.102-4.3281 26.086-12.188 36.566-11.449 15.266-29.676 24.379-48.754 24.379h-35.266l42.672-58.191c6.8594-9.3555 17.883-14.941 29.488-14.941h24.047zm365.67-62.156c0 84.336-30.23 166.04-85.121 230.07l-27.391 31.945c-21.766 25.387-33.754 57.789-33.754 91.234v0.60547c0 9.4492 0.92969 18.883 2.7617 28.039l8.5039 42.508c0.61328 3.0703 0.92578 6.2188 0.92578 9.3594v0.64844c0 29.977-24.391 54.363-54.367 54.363l-445.38-0.003906c-13.441 0-24.379-10.938-24.379-24.379 0-13.441 10.938-24.379 24.379-24.379h9.2305c6.5117 0 12.633 2.5352 17.238 7.1406l6.5977 6.5938 127.95-37.633c58.754-17.281 110.31-51.469 149.09-98.867 35.992-43.988 58.836-97.043 66.062-153.42l14.598-113.86h96.789v-36.566h50.852c5.0312 14.188 18.582 24.379 34.469 24.379 20.164 0 36.566-16.406 36.566-36.566 0-20.16-16.402-36.566-36.566-36.566-15.891 0-29.438 10.191-34.469 24.379l-50.852-0.003906v-31.453l-79.145-45.223 16.734-130.54h208.68zm-73.133 1.2109c0-6.7188 5.4688-12.188 12.188-12.188s12.188 5.4688 12.188 12.188-5.4688 12.188-12.188 12.188c-6.7188 0.003906-12.188-5.4648-12.188-12.188z"/>
 </g>
</svg>
