<?xml version="1.0" encoding="UTF-8"?>
<svg width="1200pt" height="1200pt" version="1.1" viewBox="0 0 1200 1200" xmlns="http://www.w3.org/2000/svg">
 <defs>
  <clipPath id="a">
   <path d="m410 222.14h444v755.71h-444z"/>
  </clipPath>
 </defs>
 <path d="m600 0c-78.793 0-156.82 15.52-229.61 45.672s-138.94 74.348-194.65 130.07c-55.719 55.715-99.914 121.86-130.07 194.65s-45.672 150.82-45.672 229.61c0 159.13 63.215 311.74 175.74 424.26 112.52 112.52 265.13 175.73 424.27 175.73 159.13 0 311.74-63.215 424.26-175.74 112.52-112.52 175.74-265.13 175.74-424.26 0-159.13-63.215-311.74-175.73-424.27-112.52-112.52-265.13-175.74-424.26-175.74zm0 67.762c69.121 0 137.56 13.766 201.42 40.516 63.859 26.746 121.88 65.953 170.76 115.38s87.645 108.1 114.09 172.67c26.453 64.574 40.066 133.79 40.066 203.68 0 141.16-55.457 276.53-154.16 376.34-98.707 99.816-232.58 155.89-372.18 155.89-69.121 0-137.57-13.766-201.43-40.516-63.855-26.746-121.88-65.949-170.76-115.37-48.875-49.422-87.645-108.1-114.1-172.67-26.449-64.574-40.066-133.79-40.066-203.68 0-69.898 13.613-139.11 40.066-203.68 26.449-64.574 65.219-123.25 114.1-172.68 48.875-49.422 106.9-88.625 170.76-115.38 63.859-26.746 132.3-40.512 201.43-40.512z" fill="#a8aaad"/>
 <g clip-path="url(#a)">
  <path d="m839.15 919.61-30.891-20.562c1.4023-11.258 4.832-33.062 9.4453-62.977 3.1484-19.602 6.707-42.824 10.754-69.18 2.457-16.09 9.9492-65.008-33.281-75.824-11.508-2.8672-32.324-6.0156-50.27-8.4219 3.4258-8.1289 3.332-17.316-0.26172-25.375-3.5898-8.0586-10.359-14.273-18.695-17.164l-75.773-26.246c-4.6797-1.6172-8.8438-4.4453-12.078-8.1875-3.2344-3.7461-5.4258-8.2812-6.3438-13.145l-12.074-63.746h28.828-0.003907c1.207 2.4805 2.2617 5.0352 3.1484 7.6484-1.4023 11.535-6.1055 22.418-13.539 31.348-3.8242 5.2734-2.6562 12.652 2.6133 16.484 2.5352 1.8438 5.6992 2.5977 8.793 2.1016s5.8633-2.2031 7.6914-4.7461c5.3828-7.4453 22.516-33.172 17.051-51.812-1.8398-5.8867-4.2344-11.586-7.1484-17.02-0.27344-0.59375-0.59766-1.1602-0.96094-1.7031-7.4102-13.082-15.781-25.598-25.047-37.438-2.6914-3.5898-5.3203-7.1172-7.8711-10.547v-0.003906c-5.7695-9.1211-9.707-19.281-11.59-29.91v-29.285l0.37891 0.09375c14.168 3.3516 33.062 5.0078 42.098-6.2031 2-2.5039 7.8711-9.8555 1.0703-39.359 9.9023-13.305 9.9023-15.523 9.9023-18.703h0.003906c-0.23437-4.3789-2.418-8.4258-5.9531-11.023-6.1445-4.6797-9.7773-11.938-9.8398-19.664 0-1.8594 0.34766-4.25 0.66016-6.9414h0.003906c2.5977-13.328 1.4609-27.113-3.293-39.832-11.633-24.672-45.656-40.605-84.781-40.117-45.219 0.80469-75.492 30.324-92.574 90.246-5.4844 15.039-4.2539 31.711 3.3828 45.781 4.6016 7.3672 11.309 13.184 19.258 16.691 1.8867 15.301 10.855 28.824 24.215 36.523 5.2031 2.0898 10.762 3.1602 16.371 3.1484 0.5 8.25 0.33203 16.527-0.50391 24.75-1.4688 4.2617-3.3125 8.3789-5.5078 12.312-11.434 19.434-17.328 41.629-17.035 64.172 0.69141 10.469 2.0312 19.742 3.4492 29.566l-0.003906 0.003906c4.4531 26.895 5.75 54.215 3.8594 81.41-0.30078 5.0234-0.70703 10.328-1.2109 15.949h-0.003906c-0.91406 10.93-4.6641 21.43-10.879 30.465-6.2227 9.6953-10.859 20.328-13.727 31.488-6.1094 19.156-2.668 40.078 9.2578 56.27 0.85156 1.0391 1.875 1.9531 2.8008 2.9453h-90.766c-6.5195 0-11.805 5.2852-11.805 11.805v190.38c0 6.5195 5.2852 11.809 11.805 11.809h296.12c6.5195 0 11.805-5.2891 11.805-11.809v-187.36l17.727-1.1484-10.312 129.92 0.003906 0.003906c-0.82031 11.934 4.7617 23.41 14.656 30.133l51.406 34.855c7.0078 4.707 15.598 6.4336 23.879 4.8008 8.2812-1.6289 15.578-6.4805 20.281-13.488 4.7031-7.0117 6.4297-15.602 4.8008-23.883-1.6289-8.2812-6.4805-15.578-13.492-20.281zm-314.72-553.56c3.4414-21.738 11.496-42.484 23.617-60.852 9.3867-12.504 19.605-24.359 30.59-35.488 4.5-4.6133 4.4688-11.98-0.070313-16.559-4.5352-4.5742-11.902-4.668-16.555-0.20703-11.898 11.98-22.945 24.781-33.062 38.305-11.73 16.988-20.156 36.035-24.828 56.141-0.48828-0.49219-0.94141-1.0156-1.3555-1.5742-3.9805-8.4688-4.2695-18.211-0.80078-26.906 14.168-49.957 35.93-72.422 70.297-73.117h2v0.003907c11.32-0.10547 22.574 1.7422 33.266 5.4609-4.8789 20.168-16.973 69.922-20.422 90.547-3.3359 16.199-11.824 30.887-24.195 41.863-7.8359 6.25-18.172 8.4102-27.852 5.8242-5.1016-2.0312-9.3516-14.625-10.629-23.441zm52.066 36.984v-0.003906c17.66-14.531 29.672-34.793 33.945-57.262 2.9766-17.68 12.926-59.371 18.453-82.074h-0.003906c2.6875 2.4727 4.9023 5.4141 6.5352 8.6758 2.6016 8.7422 2.9883 17.992 1.1328 26.922-0.42578 3.5586-0.75391 6.6758-0.82031 9.1641h0.003907c-0.26563 12.203 4.3203 24.016 12.75 32.844-1.5742 2.2656-3.5586 4.8789-5.4336 7.3359h0.003906c-2.2148 2.8906-2.9766 6.6445-2.0625 10.172 2.1211 7.8125 3.4141 15.828 3.8555 23.914-5.8242 0.44531-11.688-0.125-17.316-1.6836-3.1875-0.61719-6.1992-1.918-8.832-3.8125-3.2695-3.6367-8.4375-4.8828-13.004-3.1406-4.5664 1.7461-7.582 6.125-7.5898 11.012v49.203c0 0.62109 0.046875 1.2422 0.14062 1.8555 2.4805 14.539 7.8984 28.418 15.918 40.793 2.5664 3.543 5.2734 7.1641 8.0469 10.832 4.2969 5.7617 8.5352 11.57 12.594 17.32h-19.602l-0.62891-3.2891v-0.003906c-0.49219-3.1602-2.2461-5.9844-4.8594-7.832-2.6133-1.8438-5.8633-2.5469-9.0078-1.9531-3.1406 0.59375-5.9102 2.4414-7.668 5.1133-1.7578 2.6719-2.3555 5.9453-1.6562 9.0664l17.16 90.672v-0.003906c1.6914 8.9688 5.7227 17.332 11.688 24.242 5.9648 6.9062 13.648 12.117 22.273 15.105l75.715 26.246-0.003906-0.003907c2.6289 0.89844 4.6562 3.0234 5.4219 5.6953 0.76953 2.668 0.1875 5.5469-1.5625 7.7031-1.9727 2.375-5.0742 3.5039-8.1094 2.9453l-1.2109-0.14062-109.89-26.023v-0.003907c-4.9492-1.2383-9.4844-3.7656-13.137-7.3281-3.6562-3.5625-6.2969-8.0312-7.6602-12.949l-35.676-90.246v-0.078125c-1.3555-9.3359-2.6289-18.168-3.2422-27.711l-0.003906 0.003907c0.10937-18.312 5.1406-36.258 14.566-51.957 3.4648-5.9648 6.0625-12.398 7.7148-19.098 1.2031-11.344 1.4023-22.77 0.59766-34.148 3.6445-1.7344 7.1367-3.7734 10.438-6.0938zm130.09 384.5v23.918h-247.54c-6.5234 0-11.809 5.2852-11.809 11.809 0 6.5195 5.2852 11.805 11.809 11.805h1.1641v97.047c0 6.5234 5.2852 11.809 11.809 11.809 6.5195 0 11.809-5.2852 11.809-11.809v-97.047h75.082v97.047c0 6.5234 5.2852 11.809 11.809 11.809 6.5195 0 11.809-5.2852 11.809-11.809v-97.047h75.066v97.047c0 6.5234 5.2852 11.809 11.809 11.809 6.5195 0 11.809-5.2852 11.809-11.809v-97.047h25.379v119.18h-74.723v-98.32c0-6.5234-5.2852-11.809-11.809-11.809-6.5195 0-11.809 5.2852-11.809 11.809v98.32h-75.082v-98.32c0-6.5234-5.2852-11.809-11.809-11.809-6.5195 0-11.809 5.2852-11.809 11.809v98.32h-75.461v-166.71h142.64c4.7227 0.1875 9.6992 0.23438 14.863 0zm120.71 164.34-0.003906 0.003907c-2.7812 2.7461-7.1172 3.1484-10.359 0.95703l-51.418-34.793c-2.9102-1.9609-4.5664-5.3125-4.3633-8.8164l11.398-143.41c0.26172-3.4141-0.95703-6.7734-3.3516-9.2227-2.4023-2.4492-5.7578-3.7188-9.1797-3.4805l-69.871 4.5195 12.957-35.141c2.0977-6.0742-1.0469-12.711-7.0742-14.934-6.0273-2.2227-12.727 0.78125-15.078 6.7617l-16.594 44.98-72.629 4.7227h-13.145c-18.395 1.3516-36.508-5.0859-49.926-17.742-7.207-10.48-8.9648-23.781-4.7227-35.773 2.3203-8.9414 6.0742-17.449 11.117-25.188 8.0781-12.051 12.953-25.961 14.168-40.418 0.50391-5.8555 0.92969-11.383 1.2422-16.625 0.21875-3.7148 0.34766-7.1484 0.47266-10.578l8.8633 22.402h0.003906c5.3164 17.668 19.621 31.184 37.562 35.488l110.59 26.199c0.33203 0.078124 0.66016 0 0.99219 0.10937 0.12891 0.046876 0.26172 0.089844 0.39453 0.125 0.59766 0 59.168 6.7383 80.184 11.996 7.8711 1.9531 22.355 5.6055 15.648 49.344-4.0312 26.324-7.668 49.516-10.738 69.117-4.8789 31.109-8.4062 53.531-9.7773 64.883l0.003906-0.003906c-0.47656 4 0.16797 8.0586 1.8672 11.711 1.6992 3.6562 4.3828 6.7617 7.7539 8.9766l31.789 21.145h-0.003907c2.0352 1.3633 3.3555 3.5664 3.5938 6.0078 0.23438 2.4375-0.63281 4.8555-2.3672 6.5859z"/>
 </g>
 <path d="m815.46 522.86c1.4805 2.832 2.9766 5.668 4.2812 8.582h0.003907c3.0508 5.543 3.9336 12.023 2.4727 18.184-1.1797 2.8984-1.1562 6.1484 0.066406 9.0312 1.2188 2.8828 3.5352 5.1602 6.4336 6.3359 1.4102 0.56641 2.918 0.85938 4.4414 0.86328 4.8398 0.03125 9.207-2.8945 11.02-7.3828 4.1953-12.074 3.1875-25.352-2.7852-36.652-1.5742-3.3711-3.1484-6.6445-4.9297-9.918-2.5898-4.5664-4.7539-9.3633-6.4531-14.328-3.5586-12.488-0.30859-25.926 8.5625-35.406 2.1992-2.25 3.4102-5.2773 3.3672-8.4219-0.042969-3.1406-1.3398-6.1367-3.5977-8.3242-2.2578-2.1836-5.293-3.3789-8.4375-3.3164-3.1406 0.058594-6.1289 1.3711-8.3047 3.6406-14.844 15.629-20.242 37.98-14.168 58.66 2.0781 6.3945 4.7656 12.574 8.0273 18.453z"/>
 <path d="m760.77 522.86c1.4805 2.832 2.9766 5.668 4.2656 8.582 3.0625 5.5391 3.9492 12.023 2.4883 18.184-1.1836 2.8984-1.1602 6.1484 0.058594 9.0312 1.2227 2.8867 3.5391 5.1641 6.4414 6.3359 1.4062 0.56641 2.9102 0.85938 4.4258 0.86328 4.8398 0.03125 9.207-2.8945 11.02-7.3828 4.1992-12.074 3.1875-25.352-2.7852-36.652-1.5742-3.3711-3.1484-6.6445-4.9297-9.918-2.5898-4.5703-4.7539-9.3633-6.4688-14.328-3.5547-12.488-0.29688-25.93 8.5781-35.406 2.4023-2.2031 3.7852-5.3008 3.8242-8.5547 0.039062-3.2578-1.2695-6.3867-3.6133-8.6484-2.3477-2.2578-5.5195-3.4492-8.7734-3.2891-3.2539 0.15625-6.2969 1.6523-8.4102 4.1328-14.844 15.629-20.242 37.98-14.168 58.66 2.0859 6.375 4.7812 12.531 8.0469 18.391z"/>
 <path d="m416.09 565.05c2.9062 1.1758 6.1602 1.1484 9.043-0.074219 2.8867-1.2188 5.168-3.5391 6.3398-6.4453 4.1992-12.074 3.1836-25.355-2.8008-36.652-1.5742-3.3516-3.1484-6.6289-4.9141-9.9023-2.5898-4.5703-4.7539-9.3711-6.4531-14.344-3.5625-12.488-0.3125-25.93 8.5625-35.406 2.1992-2.2461 3.4102-5.2773 3.3672-8.4219-0.042969-3.1406-1.3359-6.1367-3.5977-8.3203-2.2578-2.1875-5.293-3.3828-8.4375-3.3203-3.1406 0.058594-6.1289 1.3711-8.3008 3.6406-14.852 15.625-20.25 37.98-14.172 58.66 2.1133 6.3984 4.8398 12.578 8.1406 18.453 1.4805 2.832 2.9766 5.668 4.2656 8.582 3.0508 5.543 3.9336 12.027 2.4727 18.184-2.4453 6.0352 0.45703 12.91 6.4844 15.367z"/>
 <path d="m369.07 511.98c-2.5898-4.5742-4.7539-9.375-6.4688-14.344-3.5586-12.488-0.30078-25.93 8.5781-35.406 2.1992-2.2461 3.4102-5.2773 3.3672-8.4219-0.042969-3.1406-1.3359-6.1367-3.5977-8.3203-2.2578-2.1875-5.293-3.3828-8.4375-3.3203-3.1406 0.058594-6.1289 1.3711-8.3008 3.6406-14.852 15.625-20.25 37.98-14.172 58.66 2.0938 6.375 4.793 12.535 8.0625 18.391 1.4961 2.832 2.9766 5.668 4.2812 8.582 3.0625 5.5391 3.9531 12.02 2.5039 18.184-2.4453 6.0469 0.47656 12.93 6.5273 15.375 6.0469 2.4414 12.93-0.48047 15.371-6.5273 4.1992-12.074 3.1836-25.355-2.8008-36.652-1.4961-3.2891-3.2109-6.5664-4.9141-9.8398z"/>
</svg>
