<?xml version="1.0" encoding="UTF-8"?>
<svg width="1200pt" height="1200pt" version="1.1" viewBox="0 0 1200 1200" xmlns="http://www.w3.org/2000/svg">
 <g>
  <path d="m600 0c-78.793 0-156.82 15.52-229.61 45.672s-138.94 74.348-194.65 130.07c-55.719 55.715-99.914 121.86-130.07 194.65s-45.672 150.82-45.672 229.61c0 159.13 63.215 311.74 175.74 424.26 112.52 112.52 265.13 175.73 424.27 175.73 159.13 0 311.74-63.215 424.26-175.74 112.52-112.52 175.74-265.13 175.74-424.26 0-159.13-63.215-311.74-175.73-424.27-112.52-112.52-265.13-175.74-424.26-175.74zm0 67.762c69.121 0 137.56 13.766 201.42 40.516 63.859 26.746 121.88 65.953 170.76 115.38s87.645 108.1 114.09 172.67c26.453 64.574 40.066 133.79 40.066 203.68 0 141.16-55.457 276.53-154.16 376.34-98.707 99.816-232.58 155.89-372.18 155.89-69.121 0-137.57-13.766-201.43-40.516-63.855-26.746-121.88-65.949-170.76-115.37-48.875-49.422-87.645-108.1-114.1-172.67-26.449-64.574-40.066-133.79-40.066-203.68 0-69.898 13.613-139.11 40.066-203.68 26.449-64.574 65.219-123.25 114.1-172.68 48.875-49.422 106.9-88.625 170.76-115.38 63.859-26.746 132.3-40.512 201.43-40.512z" fill="#a8aaad"/>
  <path d="m959.67 600c0-52.645-33.312-98.234-80.961-115.44 21.531-45.855 12.84-101.65-24.387-138.88-23.172-23.172-53.988-35.934-86.758-35.934-18.055 0-35.891 4.0273-52.105 11.609-17.184-47.688-62.789-81.02-115.46-81.02-52.664 0-98.273 33.336-115.46 81.012-16.219-7.5703-34.051-11.609-52.105-11.609-32.773 0-63.586 12.766-86.758 35.934-37.227 37.227-45.91 93.02-24.387 138.88-47.648 17.215-80.957 62.809-80.957 115.45 0 52.645 33.309 98.238 80.957 115.45-21.531 45.855-12.84 101.65 24.387 138.88 23.172 23.172 53.988 35.934 86.758 35.934 18.055 0 35.891-4.0273 52.105-11.609 17.184 47.68 62.801 81.012 115.46 81.012s98.273-33.336 115.46-81.012c16.219 7.5703 34.051 11.602 52.105 11.609h0.007812c32.77 0 63.578-12.766 86.75-35.934 37.227-37.227 45.91-93.02 24.387-138.88 47.648-17.207 80.961-62.801 80.961-115.45zm-112.85 84.379c-6.8008 0.79297-12.645 5.207-15.266 11.539-2.6211 6.332-1.6172 13.582 2.6367 18.953 26.73 33.789 23.902 82.25-6.582 112.73-16.043 16.035-37.355 24.871-60.035 24.871h-0.007812c-19.082 0-37.801-6.4922-52.703-18.281-5.375-4.2461-12.621-5.2539-18.953-2.6367-6.3242 2.6211-10.738 8.4648-11.531 15.266-4.9883 42.789-41.262 75.059-84.375 75.059s-79.387-32.27-84.375-75.059c-0.79297-6.8008-5.207-12.645-11.531-15.266-2.3359-0.96875-4.793-1.4375-7.2305-1.4375-4.1875 0-8.3281 1.3906-11.723 4.0742-14.902 11.789-33.613 18.281-52.703 18.281-22.68 0-44.004-8.8359-60.043-24.871-30.484-30.484-33.312-78.949-6.582-112.74 4.2539-5.375 5.2539-12.621 2.6367-18.953-2.6133-6.332-8.457-10.738-15.266-11.539-42.797-4.9883-75.066-41.262-75.066-84.375 0-43.113 32.27-79.387 75.066-84.375 6.8008-0.79297 12.645-5.207 15.266-11.539 2.6211-6.332 1.6172-13.582-2.6367-18.953-26.73-33.789-23.902-82.25 6.582-112.73 16.035-16.035 37.363-24.871 60.043-24.871 19.082 0 37.801 6.4922 52.703 18.281 5.375 4.2539 12.629 5.2617 18.953 2.6367 6.3242-2.6211 10.738-8.4648 11.531-15.266 4.9883-42.789 41.262-75.059 84.375-75.059s79.387 32.27 84.375 75.059c0.79297 6.8008 5.207 12.645 11.531 15.266 6.3164 2.6211 13.582 1.6094 18.953-2.6367 14.902-11.789 33.613-18.281 52.703-18.281 22.68 0 44.004 8.8359 60.043 24.871 30.484 30.484 33.312 78.949 6.582 112.74-4.2539 5.375-5.2539 12.621-2.6367 18.953 2.6133 6.332 8.457 10.738 15.266 11.539 42.797 4.9883 75.066 41.262 75.066 84.375 0 43.109-32.27 79.387-75.066 84.375zm-127.26-200.62-262.21 202.59c-8.2617 6.3789-9.7773 18.25-3.4023 26.504 3.7266 4.8203 9.3086 7.3438 14.965 7.3438 4.0273 0 8.0938-1.2852 11.531-3.9375l262.21-202.59c8.2617-6.3789 9.7773-18.25 3.4023-26.504-6.3711-8.2422-18.227-9.7852-26.496-3.3984zm-175.17 73.32c17.668 0 34.273-6.8828 46.762-19.367 25.785-25.785 25.785-67.734 0-93.512-12.484-12.492-29.094-19.367-46.758-19.367-17.66 0-34.273 6.8789-46.762 19.367-25.785 25.785-25.785 67.727 0 93.512 12.484 12.48 29.094 19.367 46.758 19.367zm-20.043-86.168c5.3594-5.3516 12.469-8.3047 20.043-8.3047 7.5664 0 14.684 2.9492 20.035 8.3047 11.047 11.039 11.047 29.027 0 40.074-10.707 10.699-29.359 10.715-40.082 0-11.043-11.047-11.043-29.023 0.003906-40.074zm131.28 172.02c-17.66 0-34.273 6.8828-46.762 19.367-25.785 25.785-25.785 67.734 0 93.512 12.484 12.492 29.094 19.367 46.762 19.367 17.66 0 34.266-6.8789 46.758-19.367 25.777-25.785 25.777-67.734 0-93.512-12.484-12.48-29.094-19.367-46.758-19.367zm20.043 86.176c-10.707 10.707-29.383 10.699-40.082 0-11.047-11.039-11.047-29.027 0-40.074 5.3594-5.3516 12.469-8.3047 20.043-8.3047 7.5664 0 14.676 2.9492 20.035 8.3047 11.051 11.039 11.051 29.016 0.003906 40.074z"/>
 </g>
</svg>
