<?xml version="1.0" encoding="UTF-8"?>
<svg width="1200pt" height="1200pt" version="1.1" viewBox="0 0 1200 1200" xmlns="http://www.w3.org/2000/svg">
 <g>
  <path d="m600 0c-78.793 0-156.82 15.52-229.61 45.672s-138.94 74.348-194.65 130.07c-55.719 55.715-99.914 121.86-130.07 194.65s-45.672 150.82-45.672 229.61c0 159.13 63.215 311.74 175.74 424.26 112.52 112.52 265.13 175.73 424.27 175.73 159.13 0 311.74-63.215 424.26-175.74 112.52-112.52 175.74-265.13 175.74-424.26 0-159.13-63.215-311.74-175.73-424.27-112.52-112.52-265.13-175.74-424.26-175.74zm0 67.762c69.121 0 137.56 13.766 201.42 40.516 63.859 26.746 121.88 65.953 170.76 115.38s87.645 108.1 114.09 172.67c26.453 64.574 40.066 133.79 40.066 203.68 0 141.16-55.457 276.53-154.16 376.34-98.707 99.816-232.58 155.89-372.18 155.89-69.121 0-137.57-13.766-201.43-40.516-63.855-26.746-121.88-65.949-170.76-115.37-48.875-49.422-87.645-108.1-114.1-172.67-26.449-64.574-40.066-133.79-40.066-203.68 0-69.898 13.613-139.11 40.066-203.68 26.449-64.574 65.219-123.25 114.1-172.68 48.875-49.422 106.9-88.625 170.76-115.38 63.859-26.746 132.3-40.512 201.43-40.512z" fill="#a8aaad"/>
  <path d="m809.92 610.5h-52.48c-5.7969 0-10.496-4.6992-10.496-10.496s4.6992-10.496 10.496-10.496h52.48c5.7969 0 10.496 4.6992 10.496 10.496s-4.6992 10.496-10.496 10.496z"/>
  <path d="m904.41 411.07h-367.39v-73.445c0-29.051-23.461-52.508-52.508-52.508h-146.89c-29.051 0-52.508 23.457-52.508 52.508v524.75c0 29.047 23.457 52.504 52.508 52.504h146.89c29.047 0 52.508-23.457 52.508-52.508v-73.445h367.39c5.7461 0 10.469-4.7227 10.469-10.469v-356.92c0-5.7461-4.7227-10.469-10.469-10.469zm-493.34-41.961c-17.398 0-31.41 14.09-31.488 31.488v398.8c0 17.398 14.09 31.488 31.488 31.488 17.398 0 31.488-14.09 31.488-31.488v-10.469h31.488v62.977h-125.95v-503.81h125.95v62.977h-31.488v-10.469c-0.082031-17.398-14.094-31.492-31.488-31.492zm31.488 220.42h-41.957l-0.003907-115.48h410.37c4.2539 20.625 20.312 36.684 40.938 40.934v170.04c-20.625 4.25-36.684 20.309-40.934 40.934h-410.37v-115.48h41.961c5.8242 0 10.469-4.6445 10.469-10.469 0-5.8281-4.6445-10.473-10.469-10.473zm451.3 178.38h-493.26v-20.941l419.82 0.003906c5.8242 0 10.469-4.7227 10.469-10.547 0.078125-17.32 14.168-31.41 31.488-31.488 5.8242 0 10.547-4.6445 10.547-10.469l0.003906-188.93c0-5.8242-4.7227-10.469-10.547-10.469-17.32-0.078124-31.41-14.168-31.488-31.488 0-5.8242-4.6445-10.547-10.469-10.547l-419.82-0.003906v-20.941h493.26z"/>
  <path d="m600 484.52c-63.762 0-115.48 51.719-115.48 115.48 0.003906 63.762 51.723 115.48 115.48 115.48 63.766 0 115.48-51.719 115.48-115.48-0.078125-63.762-51.719-115.4-115.48-115.48zm0 105.01c23.539 0 41.957 13.777 41.957 31.488 0 14.879-13.227 27-31.488 30.387l0.003906 11.57c0 5.8242-4.6445 10.469-10.469 10.469-5.8281 0.003907-10.473-4.6406-10.473-10.469v-11.57c-18.262-3.4648-31.488-15.508-31.488-30.387 0-5.8242 4.6445-10.547 10.469-10.547s10.469 4.7227 10.469 10.547c0.003906 4.25 8.1914 10.469 21.02 10.469 12.832 0 21.02-6.2188 21.02-10.469 0-4.3281-8.1875-10.547-21.02-10.547-23.539 0-41.957-13.777-41.957-31.488 0-14.879 13.227-27 31.488-30.387v-11.57c0-5.8242 4.6445-10.469 10.469-10.469 5.8281-0.003906 10.473 4.6406 10.473 10.469v11.57c18.262 3.4648 31.488 15.508 31.488 30.387 0 5.8242-4.6445 10.547-10.469 10.547-5.8242 0-10.469-4.7227-10.469-10.547-0.003907-4.2539-8.1914-10.473-21.023-10.473s-21.02 6.2188-21.02 10.469c0.003906 4.332 8.1914 10.551 21.02 10.551z"/>
 </g>
</svg>
