<?xml version="1.0" encoding="UTF-8"?>
<svg width="1200pt" height="1200pt" version="1.1" viewBox="0 0 1200 1200" xmlns="http://www.w3.org/2000/svg">
 <defs>
  <clipPath id="a">
   <path d="m310 226h626v751.86h-626z"/>
  </clipPath>
 </defs>
 <path d="m600 0c-78.793 0-156.82 15.52-229.61 45.672s-138.94 74.348-194.65 130.07c-55.719 55.715-99.914 121.86-130.07 194.65s-45.672 150.82-45.672 229.61c0 159.13 63.215 311.74 175.74 424.26 112.52 112.52 265.13 175.73 424.27 175.73 159.13 0 311.74-63.215 424.26-175.74 112.52-112.52 175.74-265.13 175.74-424.26 0-159.13-63.215-311.74-175.73-424.27-112.52-112.52-265.13-175.74-424.26-175.74zm0 67.762c69.121 0 137.56 13.766 201.42 40.516 63.859 26.746 121.88 65.953 170.76 115.38s87.645 108.1 114.09 172.67c26.453 64.574 40.066 133.79 40.066 203.68 0 141.16-55.457 276.53-154.16 376.34-98.707 99.816-232.58 155.89-372.18 155.89-69.121 0-137.57-13.766-201.43-40.516-63.855-26.746-121.88-65.949-170.76-115.37-48.875-49.422-87.645-108.1-114.1-172.67-26.449-64.574-40.066-133.79-40.066-203.68 0-69.898 13.613-139.11 40.066-203.68 26.449-64.574 65.219-123.25 114.1-172.68 48.875-49.422 106.9-88.625 170.76-115.38 63.859-26.746 132.3-40.512 201.43-40.512z" fill="#a8aaad"/>
 <g clip-path="url(#a)">
  <path d="m858.77 722.74c-0.33984-1.6992 0.75391-3.3516 2.457-3.6914 1.6992-0.33984 3.3516 0.75391 3.6914 2.457 0.71875 3.5391 1.3984 5.5664 2.5078 6.5234 1.0469 0.90625 2.9492 1.1836 6.1211 1.2461l28.148 0.51562c1.7383 0.023437 3.1094 1.4492 3.0859 3.1875s-1.4492 3.1094-3.1875 3.0859l-28.148-0.51562c-4.7109-0.089843-7.7695-0.69141-10.152-2.7695-2.3164-2.0156-3.5156-5.0625-4.5234-10.039zm-81.48-72.207c19.27 5.7422 37.445 12.543 54.449 21.336 17.281 8.9414 33.34 19.926 48.09 33.945 4.2188 0.15234 8.4258 0.25 12.621 0.36719 5.3164 0.13672 10.617 0.26562 15.629 0.48047 10.82 0.44141 17.207 1.2578 21.562 5.125 4.5469 4.0312 5.6797 10.078 5.7695 20.781 0.15234 18.125-5.3398 30.406-14.824 38.867-9.2305 8.2383-22.078 12.531-37.082 14.938-2.9961 0.48047-5.6797 0.95703-8.2617 1.4219-19.082 3.4141-34.02 6.082-52.07-7.6719-24.32-18.527-33.227-11.891-42.473-5-5.2773 3.9297-10.629 7.9102-18.289 9.3203-73.141 13.477-116.04-46.84-149.59-94-6.0195-8.4648-11.727-16.488-17.168-23.453-2.0156 3.8281-4.1797 7.5938-6.5625 11.273-13.375 20.668-32.824 37.91-63.633 46.062-3.4883 0.91797-6.4609 1.5352-8.9805 2.0547-7.8086 1.6133-10.227 2.1016-17.32 14.184-13.691 23.328-25.316 67.902-36.953 112.55-6.6875 25.668-13.391 51.352-20.492 73.141-10.957 33.578-34.109 49.699-57.863 52.371-9.7344 1.0977-19.574-0.10156-28.703-3.3125-9.1445-3.2109-17.57-8.4375-24.496-15.402-16.84-16.941-24.812-43.996-12.344-77.031 8.1133-21.488 18.957-45.684 29.789-69.867 18.867-42.094 37.699-84.109 41.613-110.91 2.0273-13.855 0.45312-15.77-4.6367-21.902-1.5-1.8125-3.2617-3.9414-5.6914-7.2422-18.918-25.645-23.301-51.262-20.793-75.734 0.73047-7.1055 2.0273-14.07 3.7148-20.895-4.1172-1.8516-7.7969-3.7539-10.934-5.707-3.9922-2.4805-7.2188-5.1133-9.5469-7.9102-23.352-28.125-13.074-68.758-2.168-111.88 6.3984-25.305 13.023-51.516 12.871-75.762-0.27734-42.797-14.309-70.547-26.98-95.625-5.7305-11.336-11.184-22.129-15.113-33.578-0.90625-2.6328 0.50391-5.4922 3.125-6.3984 2.6328-0.90625 5.4922 0.50391 6.3984 3.125 3.7422 10.922 9.0195 21.363 14.559 32.32 13.176 26.059 27.762 54.902 28.051 100.11 0.16406 25.594-6.6133 52.371-13.148 78.242-10.266 40.605-19.938 78.859 0.125 103.03 1.5859 1.9141 4.0039 3.8398 7.1406 5.793 2.418 1.5 5.2031 2.9727 8.3242 4.4336 3.8398-12.746 8.7656-24.938 13.438-36.426l0.011719-0.011719c2.9102-7.8203 10.895-10.191 19.863-9.0938 3.5625 0.44141 7.3672 1.4727 11.02 2.9219 0.42969 0.16406 0.84375 0.33984 1.2734 0.52734 2.9336-5.8438 6.6133-11.047 10.719-14.672 5.7578-5.0898 12.332-7.2539 19.094-4.5234 0.074219 0.023437 0.13672 0.0625 0.20312 0.089844 0.074218 0.023437 0.039062 0.011719 0.125 0.050781l0.67969 0.23828c1.1836-2.5312 2.5586-4.9258 4.0547-7.0391 5.4648-7.6562 12.859-12.066 20.695-8.793l108.37 38.113c8.125 2.3945 11.109 10.418 10.578 19.773-0.15234 2.6055-0.56641 5.3281-1.2227 8.0234 5.9844 2.0156 9.5078 6.8633 11.082 13.25 1.4219 5.7812 1.1328 12.934-0.41406 20.152 0.26563 0.074219 0.52734 0.15234 0.79297 0.23828 3.7266 1.1445 7.3438 2.7188 10.43 4.6367 7.6953 4.7617 12.445 11.613 9.8125 19.523-4.1953 14.043-8.7148 29.043-15.152 43.504 6.6133 8.1133 13.352 17.582 20.52 27.66 31.918 44.875 72.738 102.27 139.59 89.957 5.3516-0.98438 9.7734-4.2812 14.121-7.5195 12.332-9.1836 24.219-18.035 54.562 5.0898 14.547 11.082 27.57 8.7539 44.195 5.7812 2.7969-0.50391 5.6797-1.0195 8.4648-1.4609 13.211-2.1289 24.348-5.7578 31.965-12.543 7.3555-6.5625 11.602-16.41 11.488-31.273-0.0625-7.6836-0.54297-11.699-2.3789-13.352-2.0391-1.8008-6.8281-2.2656-15.305-2.6055-5.2656-0.21484-10.367-0.35156-15.48-0.48047-4.8242-0.125-9.6602-0.23828-14.508-0.42969-0.125 0-0.23828 0-0.36719-0.011718-27.242-1.0586-54.551-4.1953-78.984-20.605-20.203-13.566-25.945-28.918-33.113-48.062-1.2227-3.25-2.4805-6.6133-3.8164-9.9883-36.188-91.113-78.395-158.3-120.02-224.56-35.004-55.707-69.59-110.77-100.01-178.98-1.1328-2.5312 0.011719-5.5039 2.543-6.6367 2.5312-1.1328 5.5039 0.011719 6.6367 2.543 30.113 67.535 64.512 122.3 99.34 177.72 41.855 66.629 84.301 134.19 120.85 226.21 1.4219 3.5898 2.6836 6.9531 3.8906 10.191 0.89453 2.3789 1.75 4.6836 2.6328 6.9414zm49.852 30.277c-14.02-7.2539-28.883-13.098-44.523-18.125 4.6211 9.043 10.73 16.992 21.348 24.133 18.211 12.242 38.77 16.438 59.777 18.113-11.438-9.5352-23.652-17.434-36.602-24.121zm-400.95 79.363c0.85547-2.6445 3.6914-4.082 6.3359-3.2227 2.6445 0.85547 4.082 3.6914 3.2227 6.3359l-13.324 40.656c-0.85547 2.6445-3.6914 4.082-6.3359 3.2227-2.6445-0.85547-4.082-3.6914-3.2227-6.3359zm66.605-82.473c24.285-0.125 39.875-11.914 50.496-27.484 3.5273-5.1758 6.5352-10.809 9.1445-16.574-26.902-11.766-65.258-21.488-101.81-30.77-12.695-3.2227-25.18-6.3867-37.242-9.6719-0.80469 4.207-1.3594 8.4375-1.5977 12.66-1.082 19.359 4.7617 38.805 26.184 54.148 5.4805 3.918 15.895 8.3867 26.715 11.879 10.656 3.4375 21.488 5.8711 28.113 5.832zm58.793-21.816c-12.305 18.035-30.43 31.703-58.758 31.852-7.7227 0.039063-19.699-2.582-31.223-6.3086-11.738-3.793-23.227-8.7539-29.512-13.25-24.836-17.785-31.625-40.379-30.367-62.887 1.2109-21.625 9.9609-42.797 16.93-59.336 0.050782-0.13672 0.10156-0.27734 0.16406-0.41406 0.98438-2.2305-1.5234-5.2891-5.3398-8.0625-0.62891-0.45312-1.2852-0.89453-1.9648-1.3086-0.13672-0.039063-0.26563-0.089844-0.40234-0.13672-0.57812-0.23828-1.0977-0.56641-1.5234-0.96875-1.2734-0.67969-2.5938-1.2969-3.9414-1.8398-2.8086-1.1211-5.7422-1.9141-8.5391-2.2539-4.4727-0.55469-8.2383 0.0625-9.2188 2.582-0.039063 0.10156-0.074219 0.20312-0.11328 0.30078-8.0625 19.824-16.879 41.754-19.184 64.387-2.2656 22.242 1.6992 45.508 18.867 68.77 1.8125 2.457 3.7422 4.7852 5.3789 6.7617 7.2539 8.7656 9.5078 11.488 6.8398 29.773-4.1172 28.113-23.238 70.797-42.406 113.55-10.742 23.98-21.5 47.977-29.562 69.312-10.855 28.781-4.2305 52.043 10.051 66.414 5.8438 5.8828 12.961 10.289 20.668 13 7.7227 2.7188 16.047 3.7266 24.297 2.7969 20.129-2.2656 39.852-16.246 49.398-45.48 7.0898-21.727 13.715-47.156 20.34-72.547 11.812-45.332 23.602-90.574 38.012-115.11 9.3594-15.934 12.82-16.652 23.969-18.941 2.3047-0.48047 5.0117-1.0312 8.4258-1.9414 27.961-7.4062 45.621-23.062 57.762-41.816 12.355-19.082 19.207-41.703 25.328-62.207h0.011719c0.023437-0.074219 0.050781-0.15234 0.074219-0.21484 0.90625-2.6055-1.6641-5.5039-5.5312-7.8828-2.3672-1.4609-5.1523-2.6836-8.0742-3.5625-2.9219-0.89453-5.957-1.4492-8.7773-1.5859-4.6211-0.22656-8.4375 0.55469-9.1836 2.7852-0.011719 0.074219-0.039062 0.15234-0.0625 0.23828-4.7734 16.75-10.957 38.051-22.871 55.531zm4.6719-31.551c3.5156-9.2812 6.1836-18.566 8.5156-26.738 0.023438-0.089844 0.050781-0.17578 0.074219-0.25 2.2422-7.6094 10.164-10.492 19.309-10.051l0.54297 0.023437c1.3086-5.9062 1.625-11.613 0.54297-15.984-0.75391-3.0859-2.2422-5.3672-4.6211-6.1602-1.1094 2.3945-2.3945 4.6602-3.8164 6.7148-5.3789 7.7578-12.758 12.305-20.793 9.168l-108.53-38.164c-8.3633-2.5312-11.297-10.73-10.645-20.203 0.17578-2.4688 0.60547-5.0508 1.2461-7.6211l-0.64062-0.22656c-0.21484-0.0625-0.42969-0.13672-0.64062-0.22656l-0.10156-0.050782-0.039062-0.011718c-2.707-1.0977-5.7422 0.125-8.6641 2.707-3.1992 2.832-6.1602 7.1289-8.5781 12.078 7.5195 5.4648 11.902 12.809 8.6289 20.242-0.039063 0.089844-0.074219 0.17578-0.125 0.25-4.1445 9.8477-8.957 21.41-12.27 33.555 11.625 3.1602 24.41 6.3984 37.406 9.6992 36.867 9.3594 75.535 19.172 103.21 31.234zm15.102-86.918-108.5-38.152c-0.16406-0.050781-0.32812-0.11328-0.49219-0.17578-2.6562-1.1328-5.8828 1.3711-8.7031 5.3164-1.8516 2.5938-3.4492 5.7422-4.6367 9.043-1.1836 3.2891-1.9648 6.7266-2.1797 9.9258-0.33984 4.9375 0.60547 9.043 3.5508 9.9141 0.074219 0.023438 0.16406 0.050782 0.23828 0.074219l108.67 38.215v0.011719c0.074219 0.023437 0.16406 0.0625 0.23828 0.089844 2.8594 1.1719 6.1719-1.4375 8.9922-5.4922 1.8008-2.5938 3.3516-5.7695 4.4961-9.1328 1.1602-3.3516 1.8906-6.8008 2.0664-9.9375 0.27734-4.8477-0.66797-8.8281-3.4258-9.6094-0.10156-0.023437-0.21484-0.0625-0.31641-0.10156zm-93.723-49.16c-1.6367-0.56641-2.5078-2.3555-1.9258-3.9922 0.56641-1.6367 2.3555-2.5078 3.9922-1.9258l94.641 32.988c1.6367 0.56641 2.5078 2.3555 1.9258 3.9922-0.56641 1.6367-2.3555 2.5078-3.9922 1.9258zm-131.47-229.62c-0.70703-1.5859 0-3.4375 1.5859-4.1445 1.5859-0.70703 3.4375 0 4.1445 1.5859l21.992 49.324c0.70703 1.5859 0 3.4375-1.5859 4.1445s-3.4375 0-4.1445-1.5859z"/>
 </g>
</svg>
