<?xml version="1.0" encoding="UTF-8"?>
<svg width="1200pt" height="1200pt" version="1.1" viewBox="0 0 1200 1200" xmlns="http://www.w3.org/2000/svg">
 <g>
  <path d="m600 0c-78.793 0-156.82 15.52-229.61 45.672s-138.94 74.348-194.65 130.07c-55.719 55.715-99.914 121.86-130.07 194.65s-45.672 150.82-45.672 229.61c0 159.13 63.215 311.74 175.74 424.26 112.52 112.52 265.13 175.73 424.27 175.73 159.13 0 311.74-63.215 424.26-175.74 112.52-112.52 175.74-265.13 175.74-424.26 0-159.13-63.215-311.74-175.73-424.27-112.52-112.52-265.13-175.74-424.26-175.74zm0 67.762c69.121 0 137.56 13.766 201.42 40.516 63.859 26.746 121.88 65.953 170.76 115.38s87.645 108.1 114.09 172.67c26.453 64.574 40.066 133.79 40.066 203.68 0 141.16-55.457 276.53-154.16 376.34-98.707 99.816-232.58 155.89-372.18 155.89-69.121 0-137.57-13.766-201.43-40.516-63.855-26.746-121.88-65.949-170.76-115.37-48.875-49.422-87.645-108.1-114.1-172.67-26.449-64.574-40.066-133.79-40.066-203.68 0-69.898 13.613-139.11 40.066-203.68 26.449-64.574 65.219-123.25 114.1-172.68 48.875-49.422 106.9-88.625 170.76-115.38 63.859-26.746 132.3-40.512 201.43-40.512z" fill="#a8aaad"/>
  <path d="m600 623.62c46.977 0 92.027-18.66 125.25-51.875 33.215-33.219 51.875-78.27 51.875-125.25 0-46.973-18.66-92.027-51.875-125.24-33.219-33.215-78.27-51.879-125.25-51.879-46.973 0-92.023 18.664-125.24 51.879-33.215 33.215-51.875 78.27-51.875 125.24 0.046876 46.961 18.727 91.984 51.93 125.19 33.207 33.207 78.23 51.883 125.19 51.934zm0-307.01c34.449 0 67.488 13.684 91.848 38.043s38.043 57.395 38.043 91.844c0 34.449-13.684 67.488-38.043 91.848-24.359 24.355-57.398 38.043-91.848 38.043-34.445 0-67.484-13.688-91.844-38.043-24.359-24.359-38.043-57.398-38.043-91.848 0.039063-34.438 13.734-67.453 38.086-91.801 24.348-24.352 57.367-38.051 91.801-38.086zm23.617 330.62h-47.23c-56.352 0.0625-110.38 22.477-150.22 62.32-39.848 39.848-62.262 93.871-62.324 150.22 0 18.793 7.4648 36.812 20.754 50.098 13.285 13.289 31.305 20.75 50.094 20.75h330.62c18.793 0 36.812-7.4609 50.098-20.75 13.289-13.285 20.754-31.305 20.754-50.098-0.0625-56.352-22.477-110.38-62.324-150.22-39.844-39.844-93.871-62.258-150.22-62.32zm141.7 236.16h-330.62c-6.2617 0-12.27-2.4883-16.699-6.918-4.4258-4.4297-6.9141-10.434-6.9141-16.699 0.050781-43.828 17.48-85.848 48.473-116.84 30.992-30.992 73.012-48.426 116.84-48.477h47.23c43.828 0.050781 85.848 17.484 116.84 48.477 30.992 30.988 48.422 73.008 48.473 116.84 0 6.2656-2.4883 12.27-6.918 16.699-4.4258 4.4297-10.434 6.918-16.699 6.918z"/>
 </g>
</svg>
