<?xml version="1.0" encoding="UTF-8"?>
<svg width="1200pt" height="1200pt" version="1.1" viewBox="0 0 1200 1200" xmlns="http://www.w3.org/2000/svg">
 <g>
  <path d="m600 0c-78.793 0-156.82 15.52-229.61 45.672s-138.94 74.348-194.65 130.07c-55.719 55.715-99.914 121.86-130.07 194.65s-45.672 150.82-45.672 229.61c0 159.13 63.215 311.74 175.74 424.26 112.52 112.52 265.13 175.73 424.27 175.73 159.13 0 311.74-63.215 424.26-175.74 112.52-112.52 175.74-265.13 175.74-424.26 0-159.13-63.215-311.74-175.73-424.27-112.52-112.52-265.13-175.74-424.26-175.74zm0 67.762c69.121 0 137.56 13.766 201.42 40.516 63.859 26.746 121.88 65.953 170.76 115.38s87.645 108.1 114.09 172.67c26.453 64.574 40.066 133.79 40.066 203.68 0 141.16-55.457 276.53-154.16 376.34-98.707 99.816-232.58 155.89-372.18 155.89-69.121 0-137.57-13.766-201.43-40.516-63.855-26.746-121.88-65.949-170.76-115.37-48.875-49.422-87.645-108.1-114.1-172.67-26.449-64.574-40.066-133.79-40.066-203.68 0-69.898 13.613-139.11 40.066-203.68 26.449-64.574 65.219-123.25 114.1-172.68 48.875-49.422 106.9-88.625 170.76-115.38 63.859-26.746 132.3-40.512 201.43-40.512z" fill="#a8aaad"/>
  <path d="m804.82 283.29-102.53-49.695-102.5 49.695-102.39-49.695-102.39 49.695-102.43-49.695v732.81l102.57-49.695 102.55 49.695 102.5-49.695 102.41 49.695 102.39-49.695 102.43 49.695v-732.81zm-175.19 479.6v54.457h-64.375v-49.672c-39.551-2.1523-77.93-12.273-99.961-22.969l18.641-73.695c25.375 11.727 60.434 23.473 99.387 23.473 28.215 0 48.57-7.4648 48.57-24.527 0-16.578-16.398-26.727-58.715-38.977-61.578-18.688-105.07-45.984-105.07-99.867 0-48.617 35.609-87.043 99.41-99.344v-49.117h64.395v44.84c38.977 1.6016 65.473 9.1133 85.832 17.105l-18.07 71.039c-15.25-5.8633-42.367-18.16-85.258-18.16-33.344 0-43.512 11.199-43.512 22.969 0 13.352 19.215 23.52 66.641 39.551 71.152 21.871 97.145 52.328 97.145 100.9 0.003906 49.648-37.301 90.25-105.06 102z"/>
 </g>
</svg>
