<?xml version="1.0" encoding="UTF-8"?>
<svg width="1200pt" height="1200pt" version="1.1" viewBox="0 0 1200 1200" xmlns="http://www.w3.org/2000/svg">
 <g>
  <path d="m600 0c-78.793 0-156.82 15.52-229.61 45.672s-138.94 74.348-194.65 130.07c-55.719 55.715-99.914 121.86-130.07 194.65s-45.672 150.82-45.672 229.61c0 159.13 63.215 311.74 175.74 424.26 112.52 112.52 265.13 175.73 424.27 175.73 159.13 0 311.74-63.215 424.26-175.74 112.52-112.52 175.74-265.13 175.74-424.26 0-159.13-63.215-311.74-175.73-424.27-112.52-112.52-265.13-175.74-424.26-175.74zm0 67.762c69.121 0 137.56 13.766 201.42 40.516 63.859 26.746 121.88 65.953 170.76 115.38s87.645 108.1 114.09 172.67c26.453 64.574 40.066 133.79 40.066 203.68 0 141.16-55.457 276.53-154.16 376.34-98.707 99.816-232.58 155.89-372.18 155.89-69.121 0-137.57-13.766-201.43-40.516-63.855-26.746-121.88-65.949-170.76-115.37-48.875-49.422-87.645-108.1-114.1-172.67-26.449-64.574-40.066-133.79-40.066-203.68 0-69.898 13.613-139.11 40.066-203.68 26.449-64.574 65.219-123.25 114.1-172.68 48.875-49.422 106.9-88.625 170.76-115.38 63.859-26.746 132.3-40.512 201.43-40.512z" fill="#a8aaad"/>
  <path d="m544.91 627.09c0-7.9336-6.4219-14.359-14.359-14.359h-76.402c-7.9336 0-14.434 6.4219-14.434 14.359v28.867h105.2z"/>
  <path d="m531.23 415.87-77.762 79.199v102.55h77.762z"/>
  <path d="m341.77 754.43h21.234v-42.473c0-7.9336-6.5-14.434-14.434-14.434h-11.574v-39.844c0-7.9492-6.4453-14.395-14.395-14.395h-13.043l0.003906-117.18h23.141c4.1719 0 7.5586-3.3789 7.5586-7.5586 0-4.1758-3.3828-7.5586-7.5586-7.5586h-23.141v-22.066h41.73c4.1719 0 7.5586-3.3789 7.5586-7.5586 0-4.1758-3.3828-7.5586-7.5586-7.5586h-41.73v-22.066h41.73c4.1719 0 7.5586-3.3789 7.5586-7.5586 0-4.1758-3.3828-7.5586-7.5586-7.5586h-41.73v-22.066h41.73c4.1719 0 7.5586-3.3789 7.5586-7.5586 0-4.1758-3.3828-7.5586-7.5586-7.5586h-41.73v-22.074h41.73c4.1719 0 7.5586-3.3789 7.5586-7.5586 0-4.1758-3.3828-7.5586-7.5586-7.5586h-41.73v-22.066h41.73c4.1719 0 7.5586-3.3789 7.5586-7.5586 0-4.1758-3.3828-7.5586-7.5586-7.5586h-41.73v-22.066l23.141 0.019531c4.1719 0 7.5586-3.3789 7.5586-7.5586 0-4.1758-3.3828-7.5586-7.5586-7.5586h-23.141v-15.23c0-4.1758-3.3828-7.5586-7.5586-7.5586-4.1719 0-7.5586 3.3789-7.5586 7.5586v15.23l-23.137 0.003907c-4.1719 0-7.5586 3.3789-7.5586 7.5586 0 4.1758 3.3828 7.5586 7.5586 7.5586h23.141v22.066l-41.73-0.003906c-4.1719 0-7.5586 3.3789-7.5586 7.5586 0 4.1758 3.3828 7.5586 7.5586 7.5586h41.73v22.066l-41.73-0.003907c-4.1719 0-7.5586 3.3789-7.5586 7.5586 0 4.1758 3.3828 7.5586 7.5586 7.5586h41.73v22.074l-41.73-0.003907c-4.1719 0-7.5586 3.3789-7.5586 7.5586 0 4.1758 3.3828 7.5586 7.5586 7.5586h41.73v22.066l-41.73-0.003906c-4.1719 0-7.5586 3.3789-7.5586 7.5586 0 4.1758 3.3828 7.5586 7.5586 7.5586h41.73v22.066h-41.73c-4.1719 0-7.5586 3.3789-7.5586 7.5586 0 4.1758 3.3828 7.5586 7.5586 7.5586h41.73v22.066l-23.141-0.003907c-4.1719 0-7.5586 3.3789-7.5586 7.5586 0 4.1758 3.3828 7.5586 7.5586 7.5586h23.141v117.19l-13.047-0.003907c-7.9492 0-14.395 6.4453-14.395 14.395v39.844l-11.617-0.003906c-7.9336 0-14.359 6.5-14.359 14.434v208.58c0 7.9336 6.4258 14.359 14.359 14.359h60.684c-2.418-4.2305-3.7773-9.1445-3.7773-14.359v-136.63c0-16.246 13.227-29.473 29.473-29.473z"/>
  <path d="m578.84 918.88c0 5.8945-1.6641 11.336-4.457 16.023h255.05c52.75-0.003907 95.52-42.777 95.52-95.527h-346.12z"/>
  <path d="m547.71 671.07h-110.79c-8.8438 0-15.945 7.1055-15.945 15.945v67.41h13.98c16.246 0 29.547 13.227 29.547 29.473v136.63c0 5.2148-1.3594 10.125-3.7031 14.359h86.906c8.8398 0 16.02-7.1797 16.02-16.023l0.003906-231.85c0-8.8398-7.1797-15.945-16.02-15.945z"/>
  <path d="m434.96 769.52h-93.18c-7.9492 0-14.395 6.4453-14.395 14.395v136.59c0 7.9492 6.4453 14.395 14.395 14.395h93.18c7.9492 0 14.395-6.4453 14.395-14.395l-0.003906-136.59c0-7.9492-6.4414-14.395-14.391-14.395z"/>
  <path d="m682.81 618.57-57.504 57.512c-2.9531 2.9531-2.9531 7.7344 0 10.688 2.9531 2.9531 7.7344 2.9531 10.688 0l57.504-57.512c2.9531-2.9531 2.9531-7.7344 0-10.688s-7.7344-2.9531-10.688 0z"/>
  <path d="m761.42 539.97-47.797 47.801c-2.9531 2.9531-2.9531 7.7344 0 10.688s7.7344 2.9531 10.688 0l47.797-47.801c2.9531-2.9531 2.9531-7.7344 0-10.688s-7.7344-2.9531-10.688 0z"/>
  <path d="m671.62 722.39c-2.9531 2.9531-2.9531 7.7344 0 10.688s7.7344 2.9531 10.688 0l17.938-17.934c2.9531-2.9531 2.9531-7.7344 0-10.688-2.9531-2.9531-7.7344-2.9531-10.688 0z"/>
  <path d="m720.81 683.9c2.9531 2.9531 7.7344 2.9531 10.688 0l86.926-86.93c2.9531-2.9531 2.9531-7.7344 0-10.688s-7.7344-2.9531-10.688 0l-86.926 86.93c-2.9492 2.9531-2.9492 7.7344 0 10.688z"/>
  <path d="m721.9 436.43c102.02 0 185 82.977 185 185 0 102.02-82.98 185-185 185-57.586 0-109.12-26.449-143.05-67.863v71.867c6.5742 4.9883 13.375 9.5977 20.48 13.828l245.3 0.003906c70.887-42.848 114.34-119.33 114.34-202.83 0-130.74-106.33-237.07-237.07-237.07-67.41 0-130.89 28.566-175.55 77.762v101.04c24.406-73.531 93.859-126.73 175.55-126.73z"/>
 </g>
</svg>
