<?xml version="1.0" encoding="UTF-8"?>
<svg width="1200pt" height="1200pt" version="1.1" viewBox="0 0 1200 1200" xmlns="http://www.w3.org/2000/svg">
 <g>
  <path d="m600 0c-78.793 0-156.82 15.52-229.61 45.672s-138.94 74.348-194.65 130.07c-55.719 55.715-99.914 121.86-130.07 194.65s-45.672 150.82-45.672 229.61c0 159.13 63.215 311.74 175.74 424.26 112.52 112.52 265.13 175.73 424.27 175.73 159.13 0 311.74-63.215 424.26-175.74 112.52-112.52 175.74-265.13 175.74-424.26 0-159.13-63.215-311.74-175.73-424.27-112.52-112.52-265.13-175.74-424.26-175.74zm0 67.762c69.121 0 137.56 13.766 201.42 40.516 63.859 26.746 121.88 65.953 170.76 115.38s87.645 108.1 114.09 172.67c26.453 64.574 40.066 133.79 40.066 203.68 0 141.16-55.457 276.53-154.16 376.34-98.707 99.816-232.58 155.89-372.18 155.89-69.121 0-137.57-13.766-201.43-40.516-63.855-26.746-121.88-65.949-170.76-115.37-48.875-49.422-87.645-108.1-114.1-172.67-26.449-64.574-40.066-133.79-40.066-203.68 0-69.898 13.613-139.11 40.066-203.68 26.449-64.574 65.219-123.25 114.1-172.68 48.875-49.422 106.9-88.625 170.76-115.38 63.859-26.746 132.3-40.512 201.43-40.512z" fill="#a8aaad"/>
  <path d="m248.71 541.96 29.223-254.07c0.63281-5.5352 5.1758-9.6836 10.559-10.016l0.27734-0.035156 253.2-29.16c2.8008-0.32031 5.4883 0.41797 7.6602 1.8906l396.08 228.67c5.3984 3.0977 7.2578 10.004 4.1602 15.406l-152.36 263.94c-3.125 5.3984-10.051 7.2383-15.449 4.1133l-45.754-26.43 26.43 45.781c3.125 5.3984 1.2852 12.328-4.1133 15.449l-263.9 152.36c-5.3984 3.125-12.328 1.2852-15.449-4.1133l-229.11-396.88c-1.25-2.168-1.6875-4.5859-1.4453-6.9102zm83.68-246.36 195.92 84.93c2.3125 1 4.125 2.6797 5.293 4.7031l180.11 311.94 69.855 40.316 141.08-244.35-383.76-221.55-208.51 24.012zm232.17 376.76-1.3672 0.76953c-4.3555 2.7773-7.3281 7.0977-8.6055 11.863-1.3477 5.043-0.80469 10.594 1.9648 15.387l5.0977 8.8086c2.7852 4.8203 7.3008 8.0781 12.328 9.418 4.9883 1.3398 10.496 0.8125 15.246-1.8672l0.17969-0.10547c4.7852-2.7578 8.0234-7.2852 9.3711-12.328 1.3477-5.043 0.80469-10.594-1.9648-15.387l-5.4531-9.4258c-2.8008-4.4805-7.1484-7.5078-11.969-8.8008-4.8477-1.2852-10.156-0.83203-14.824 1.668zm-11.871-19.254c10.219-5.918 21.949-7.1055 32.535-4.2852 10.605 2.8398 20.164 9.7305 26.062 19.941l5.0859 8.8203c5.918 10.246 7.1055 21.965 4.2656 32.562-2.7305 10.191-9.2383 19.441-18.871 25.387-0.69531 0.51953-1.4453 0.94531-2.2227 1.2852-9.9688 5.375-21.215 6.3906-31.41 3.6602-10.316-2.7578-19.629-9.3555-25.555-19.109l-5.5977-9.6484c-5.918-10.246-7.1055-21.965-4.2656-32.562 2.8398-10.578 9.7305-20.129 19.969-26.047zm-155.96-82.582c0.69531-0.51953 1.4453-0.94531 2.2227-1.2852 9.9688-5.375 21.215-6.3906 31.41-3.6602l0.59766 0.17969c10.094 2.8555 19.156 9.3828 24.957 18.922l5.5977 9.6562c5.918 10.246 7.1055 21.965 4.2656 32.562-2.8398 10.578-9.7188 20.129-19.957 26.035-10.238 5.9375-21.957 7.1211-32.551 4.2852-10.578-2.8398-20.129-9.7188-26.035-19.957l-5.1055-8.793c-5.918-10.246-7.1055-21.965-4.2656-32.562 2.7305-10.191 9.2383-19.441 18.871-25.387zm27.797 16.922c-4.9883-1.3398-10.496-0.8125-15.246 1.8672l-0.17969 0.10547c-4.7734 2.75-8.0234 7.2852-9.3711 12.328-1.3477 5.043-0.80469 10.594 1.9648 15.387l5.0859 8.8008c2.75 4.8203 7.2852 8.0703 12.328 9.418 5.043 1.3477 10.594 0.80469 15.387-1.9648 4.8281-2.7578 8.0703-7.2852 9.418-12.328 1.3477-5.043 0.80469-10.594-1.9648-15.387l-5.0977-8.8203c-2.7227-4.7031-7.0781-7.9258-11.934-9.3086l-0.39453-0.097657zm73.273 202.61c-0.55469 6.2031-6.0625 10.781-12.266 10.23-6.2031-0.55469-10.781-6.0625-10.23-12.266l25.387-272.02c0.55469-6.2031 6.0625-10.781 12.266-10.23 6.2031 0.55469 10.781 6.0625 10.23 12.266zm-142-386.81-1.3555 0.76953c-4.4023 2.8008-7.3906 7.1055-8.6562 11.863-1.3477 5.043-0.77734 10.594 2.0078 15.434 2.7773 4.8125 7.3008 8.0781 12.328 9.418 5.043 1.3477 10.594 0.77734 15.434-2.0078 4.8125-2.7773 8.0781-7.3008 9.418-12.328 1.2773-4.7852 0.83203-10.023-1.5977-14.676l-0.77734-1.3281c-2.8125-4.5078-7.1602-7.5586-11.961-8.8438-4.8281-1.2852-10.129-0.8125-14.836 1.7031zm-11.871-19.254c10.246-5.9375 21.949-7.1484 32.543-4.3203s20.129 9.7383 26.055 19.984l0.42969 0.8125c5.5508 10.078 6.6328 21.449 3.8828 31.758-2.8203 10.578-9.7461 20.117-20.039 26.055-10.266 5.9258-21.957 7.1328-32.516 4.3125-10.578-2.8203-20.117-9.7578-26.055-20.039-5.9258-10.266-7.1328-21.949-4.3125-32.516 2.8203-10.566 9.7383-20.102 20.012-26.047zm-45.234-78.395-27.082 235.29 221.56 383.77 244.34-141.07-221.61-383.82-217.21-94.16z"/>
 </g>
</svg>
