<?xml version="1.0" encoding="UTF-8"?>
<svg width="1200pt" height="1200pt" version="1.1" viewBox="0 0 1200 1200" xmlns="http://www.w3.org/2000/svg">
 <defs>
  <clipPath id="c">
   <path d="m222.14 918h755.71v25h-755.71z"/>
  </clipPath>
  <clipPath id="b">
   <path d="m222.14 304h755.71v592h-755.71z"/>
  </clipPath>
  <clipPath id="a">
   <path d="m222.14 257h755.71v25h-755.71z"/>
  </clipPath>
 </defs>
 <path d="m600 0c-78.793 0-156.82 15.52-229.61 45.672s-138.94 74.348-194.65 130.07c-55.719 55.715-99.914 121.86-130.07 194.65s-45.672 150.82-45.672 229.61c0 159.13 63.215 311.74 175.74 424.26 112.52 112.52 265.13 175.73 424.27 175.73 159.13 0 311.74-63.215 424.26-175.74 112.52-112.52 175.74-265.13 175.74-424.26 0-159.13-63.215-311.74-175.73-424.27-112.52-112.52-265.13-175.74-424.26-175.74zm0 67.762c69.121 0 137.56 13.766 201.42 40.516 63.859 26.746 121.88 65.953 170.76 115.38s87.645 108.1 114.09 172.67c26.453 64.574 40.066 133.79 40.066 203.68 0 141.16-55.457 276.53-154.16 376.34-98.707 99.816-232.58 155.89-372.18 155.89-69.121 0-137.57-13.766-201.43-40.516-63.855-26.746-121.88-65.949-170.76-115.37-48.875-49.422-87.645-108.1-114.1-172.67-26.449-64.574-40.066-133.79-40.066-203.68 0-69.898 13.613-139.11 40.066-203.68 26.449-64.574 65.219-123.25 114.1-172.68 48.875-49.422 106.9-88.625 170.76-115.38 63.859-26.746 132.3-40.512 201.43-40.512z" fill="#a8aaad"/>
 <g clip-path="url(#c)">
  <path d="m966.05 918.7h-732.1c-6.5312 0-11.809 5.2773-11.809 11.809s5.2773 11.809 11.809 11.809h732.1c6.5312 0 11.809-5.2773 11.809-11.809 0-6.5273-5.2773-11.809-11.809-11.809z"/>
 </g>
 <g clip-path="url(#b)">
  <path d="m977.86 364.01c0-6.5312-5.2773-11.809-11.809-11.809h-166.29c-16.355-28.246-46.832-47.328-81.746-47.328-34.918 0-65.395 19.082-81.746 47.328h-402.31c-6.5312 0-11.809 5.2773-11.809 11.809s5.2773 11.809 11.809 11.809h392.68c-1.9375 7.5352-3.082 15.375-3.082 23.496v47.207 0.11719l-389.59 0.003906c-6.5312 0-11.809 5.2773-11.809 11.809s5.2773 11.809 11.809 11.809h392.73c6.4219 24.68 22.543 45.426 44.09 57.93v12.871h-35.094c-0.12891 0-0.22266-0.070313-0.34375-0.070313-0.39062 0-0.74219 0.10547-1.1445 0.11719l-400.24-0.003907c-6.5312 0-11.809 5.2773-11.809 11.809s5.2773 11.809 11.809 11.809h117.28c-1.5234 0.10547-3.0586 0.50781-4.5117 1.2266-5.207 2.6094-11.809 8.7734-13.227 17.535-0.94531 5.8203 0.058593 14.879 10.168 24.973 2.7031 2.7148 3.4844 4.4297 3.6953 4.0625-0.12891 0.21094-0.58984 0.60156-0.63672 0.64844-5.832 2.918-8.1953 10.012-5.2773 15.848 2.0664 4.1445 6.2344 6.5312 10.578 6.5312 1.7695 0 3.5781-0.40234 5.2656-1.2383 5.207-2.6094 11.809-8.7617 13.238-17.523 0.94531-5.8086-0.046876-14.879-10.168-24.996-2.7148-2.7148-3.4141-4.3555-3.6953-4.0508 0.12891-0.21094 0.56641-0.58984 0.88672-0.79297 5.6562-2.9883 7.8984-9.9648 5.0195-15.715-2.1836-4.3555-6.6953-6.7773-11.277-6.4961h243.33c-4.0273 6.9531-6.5078 14.914-6.5078 23.496v11.832c0 0.34375 0.17578 0.63672 0.19922 0.96875v34.527h-354.36c-6.5312 0-11.809 5.2773-11.809 11.809s5.2773 11.809 11.809 11.809h354.36v52.57c0 0.1875-0.058594 0.36719-0.058594 0.56641 0 6.3633 1.5703 12.328 4.1445 17.711h-63.008c-0.046875 0-0.070313-0.023437-0.11719-0.023437h-11.656c-0.035157 0-0.082032 0.023437-0.11719 0.023437h-35.578v-11.855c0-6.5312-5.2773-11.809-11.809-11.809h-6.9414l-31.941-31.941c-4.6172-4.6172-12.078-4.6172-16.695 0l-27.078 27.066-27.074-27.074c-4.6172-4.6172-12.078-4.6172-16.695 0l-27.078 27.074-27.074-27.074c-4.6172-4.6172-12.078-4.6172-16.695 0l-31.953 31.941-6.9336-0.003906c-6.5312 0-11.809 5.2773-11.809 11.809v118.15c0 13.227 4.5234 25.328 11.902 35.176h-0.09375c-6.5312 0-11.809 5.2773-11.809 11.809s5.2773 11.809 11.809 11.809h44.719c0.84766 0.023438 1.6641 0.24609 2.5117 0.24609 0.44922 0 0.82812-0.21094 1.25-0.24609h139.18c0.42578 0.046875 0.80469 0.24609 1.25 0.24609 0.85156 0 1.6641-0.22266 2.5156-0.24609h220.73c0.39062 0.035156 0.74219 0.23438 1.1445 0.23438s0.74219-0.19922 1.1445-0.23438h68.652c0.39062 0.035156 0.74219 0.23438 1.1445 0.23438s0.74219-0.19922 1.1445-0.23438h68.617c0.39062 0.035156 0.74219 0.23438 1.1445 0.23438s0.74219-0.19922 1.1445-0.23438h175.81c6.5312 0 11.809-5.2773 11.809-11.809s-5.2773-11.809-11.809-11.809h-165.14v-82.359h165.14c6.5312 0 11.809-5.2773 11.809-11.809s-5.2773-11.809-11.809-11.809h-165.14v-0.023437c0-4.1211-0.69531-8.0547-1.6992-11.855h7.2148c0.082031 0 0.15234 0.023438 0.23437 0.023438 0.082032 0 0.15234-0.023438 0.23438-0.023438h159.15c6.5312 0 11.809-5.2773 11.809-11.809s-5.2773-11.809-11.809-11.809h-122.19c2.5859-5.3828 4.1445-11.336 4.1445-17.688 0-0.30859-0.082031-0.60156-0.09375-0.91016v-52.25h118.14c6.5312 0 11.809-5.2773 11.809-11.809s-5.2773-11.809-11.809-11.809h-118.14v-47.328c0-8.5977-2.4805-16.543-6.5078-23.496h124.65c6.5312 0 11.809-5.2773 11.809-11.809s-5.2773-11.809-11.809-11.809h-164.23c-0.39062-0.011718-0.74219-0.11719-1.1445-0.11719-0.12891 0-0.22266 0.070313-0.34375 0.070313h-35.094v-12.871c21.551-12.516 37.668-33.25 44.09-57.93h156.72c6.5312 0 11.809-5.2773 11.809-11.809s-5.2773-11.809-11.809-11.809l-153.57 0.003906v-0.11719-47.207c0-8.125-1.1445-15.977-3.082-23.496l156.66-0.007812c6.5312 0 11.809-5.2891 11.809-11.805zm-554.98 335.44 6.8945 6.8945h-13.793zm-70.852 0 6.8945 6.8945h-13.793zm-70.848 0 6.8945 6.8945h-13.789zm177.12 136.86c0 18.668-14.57 33.855-32.91 35.176h-146.73c-18.336-1.3242-32.906-16.508-32.906-35.176v-70.871h212.54zm0-94.488h-212.54v-11.855h70.73c0.035156 0 0.070312 0.023437 0.11719 0.023437s0.082031-0.023437 0.11719-0.023437h70.613c0.035156 0 0.070312 0.023437 0.11719 0.023437s0.082031-0.023437 0.11719-0.023437h70.613c0.035156 0 0.070312 0.023437 0.11719 0.023437zm188.86-342.5c0-39.062 31.777-70.824 70.848-70.824 14.191 0 27.395 4.2266 38.496 11.453l-109.34 62.582zm-11.703 472.16h-165.44c7.3789-9.8477 11.902-21.941 11.902-35.164v-47.184h153.54zm0-105.99v0.023437h-153.54v-11.879h147.46c0.082032 0 0.15234 0.023438 0.23438 0.023438s0.15234-0.023438 0.23438-0.023438h7.3086c-1 3.8008-1.6953 7.7344-1.6953 11.855zm-5.6211-35.473h-0.46094c-9.6133-0.12891-17.395-7.9102-17.488-17.523 0-0.058594 0.035156-0.11719 0.035156-0.1875v-0.57812c0.30859-9.5156 8.1016-17.18 17.688-17.18 9.7773 0 17.734 7.9688 17.734 17.758 0.003906 9.6953-7.8359 17.582-17.508 17.711zm29.273 141.46c0.17578-12.895 10.699-23.344 23.629-23.344 12.93 0 23.449 10.449 23.629 23.344zm47.289-40.371c-6.9922-4.0742-15.008-6.5898-23.664-6.5898s-16.672 2.5156-23.664 6.5898v-53.68c0-0.046875 0.023437-0.070313 0.023437-0.11719s-0.023437-0.070312-0.023437-0.11719v-11.715c0-13.035 10.617-23.664 23.664-23.664 12.965 0 23.512 10.496 23.641 23.426 0 0.082031-0.023437 0.15234-0.023437 0.23438 0 0.082031 0.046875 0.15234 0.046875 0.23438zm11.785-96.566c-8.668-9.9297-21.266-16.332-35.449-16.332-4.0977 0-7.9922 0.68359-11.773 1.6641v-107.98h59.039v112.9c-4.4727 2.5977-8.4258 5.8672-11.816 9.7539zm11.832 136.94v-0.23828c0.30859-12.777 10.758-23.098 23.605-23.098 12.941 0 23.449 10.449 23.629 23.344l-47.234 0.003907zm47.281-40.359c-6.9922-4.0859-15.008-6.6016-23.676-6.6016-8.6328 0-16.625 2.5039-23.605 6.5664v-65.605c0-0.082031-0.023437-0.15234-0.023437-0.23438 0.12891-12.941 10.676-23.426 23.641-23.426 13.035 0 23.664 10.617 23.664 23.664zm-23.676-112.91v-106.32h11.715v107.96c-3.7578-0.97656-7.6523-1.6406-11.715-1.6406zm53.266 11.809h-0.46094c-9.6602-0.12891-17.477-8.0039-17.477-17.688 0-9.7773 7.9453-17.734 17.711-17.734 9.4688 0 17.145 7.4727 17.629 16.828v0.91016c0 0.10547 0.058593 0.19922 0.058593 0.29688-0.16406 9.5469-7.8867 17.258-17.461 17.387zm-6.4375-165.34c0.082031 0 0.15234 0.046875 0.23438 0.046875h1.1445c12.48 0.61328 22.469 10.875 22.469 23.496v86.859c-5.3594-2.5625-11.301-4.1094-17.629-4.1094-6.3633 0-12.328 1.5703-17.711 4.1562v-75.039c0-6.5312-5.2773-11.809-11.809-11.809l-35.219 0.003906c-0.046875 0-0.070313-0.023438-0.11719-0.023438s-0.070312 0.023438-0.11719 0.023438h-82.539c-6.5312 0-11.809 5.2773-11.809 11.809v75.016c-5.3945-2.5977-11.371-4.168-17.734-4.168-6.3516 0-12.305 1.5586-17.688 4.1328v-26.84c0.023437-0.28516 0.17578-0.55469 0.17578-0.85156s-0.15234-0.56641-0.17578-0.85156v-46.453c0-0.34375-0.16406-0.63672-0.19922-0.96875v-10.863c0-12.621 10-22.883 22.469-23.496h1.5117c0.082031 0 0.15234-0.046876 0.23437-0.046876h46.641c6.5312 0 11.809-5.2773 11.809-11.809v-15.008c7.5703 1.9609 15.457 3.1172 23.617 3.1172 8.1602 0 16.047-1.1562 23.617-3.1172v14.949c0 0.011719 0.011719 0.023437 0.011719 0.035156s-0.011719 0.023438-0.011719 0.035157c0 6.5312 5.2773 11.809 11.809 11.809h47.016zm-11.594-118.15c0 39.062-31.777 70.824-70.848 70.824-34.855 0-63.848-25.328-69.703-58.508 0.011718-0.14063 0.082031-0.24609 0.082031-0.39063 0-1.0156-0.33203-1.9141-0.57812-2.8477-0.37891-2.9766-0.64844-6-0.64844-9.082v-16.785l70.836-40.547 70.859 40.547zm0-44.008-47.066-26.934 32.766-18.762c8.9375 11.855 14.301 26.543 14.301 42.496z"/>
 </g>
 <g clip-path="url(#a)">
  <path d="m966.05 257.69h-732.1c-6.5312 0-11.809 5.2773-11.809 11.809s5.2773 11.809 11.809 11.809h732.1c6.5312 0 11.809-5.2773 11.809-11.809s-5.2773-11.809-11.809-11.809z"/>
 </g>
 <path d="m299.56 616.8c0.94531-5.7969-0.023438-14.832-10.012-24.949-2.7031-2.7266-3.4727-4.4648-3.6602-4.1797 0.11719-0.19922 0.53125-0.56641 0.85156-0.75391 5.6328-3.0352 7.8281-10.023 4.9258-15.75-2.9648-5.8086-10.047-8.125-15.883-5.1719-5.1484 2.6211-11.656 8.7617-13.07 17.477-0.94531 5.7969 0.035156 14.844 10.023 24.973 2.6797 2.7031 3.4375 4.4648 3.0703 4.7695-5.8086 2.9414-8.1367 10.047-5.1836 15.871 2.0625 4.0938 6.2188 6.4531 10.527 6.4531 1.7812 0 3.625-0.40234 5.3242-1.2734 5.1484-2.6094 11.668-8.75 13.086-17.465z"/>
 <path d="m441.39 616.77c0.94531-5.8086-0.046875-14.879-10.168-24.996-2.7031-2.7148-3.4844-4.2383-3.6953-4.0625 0.12891-0.19922 0.56641-0.57813 0.88672-0.78125 5.6562-3 7.8984-9.9766 5.0195-15.715-2.9062-5.8203-10.012-8.1719-15.848-5.2539-5.207 2.6094-11.809 8.7734-13.227 17.535-0.93359 5.8086 0.058594 14.879 10.168 24.973 2.7031 2.7148 3.5312 4.4297 3.6953 4.0625-0.12891 0.21094-0.58984 0.60156-0.63672 0.64844-5.832 2.918-8.1953 10.012-5.2773 15.848 2.0664 4.1445 6.2344 6.5312 10.578 6.5312 1.7695 0 3.5781-0.40234 5.2656-1.2383 5.2227-2.625 11.812-8.7891 13.238-17.551z"/>
</svg>
