<?xml version="1.0" encoding="UTF-8"?>
<svg width="1200pt" height="1200pt" version="1.1" viewBox="0 0 1200 1200" xmlns="http://www.w3.org/2000/svg">
 <g>
  <path d="m600 0c-78.793 0-156.82 15.52-229.61 45.672s-138.94 74.348-194.65 130.07c-55.719 55.715-99.914 121.86-130.07 194.65s-45.672 150.82-45.672 229.61c0 159.13 63.215 311.74 175.74 424.26 112.52 112.52 265.13 175.73 424.27 175.73 159.13 0 311.74-63.215 424.26-175.74 112.52-112.52 175.74-265.13 175.74-424.26 0-159.13-63.215-311.74-175.73-424.27-112.52-112.52-265.13-175.74-424.26-175.74zm0 67.762c69.121 0 137.56 13.766 201.42 40.516 63.859 26.746 121.88 65.953 170.76 115.38s87.645 108.1 114.09 172.67c26.453 64.574 40.066 133.79 40.066 203.68 0 141.16-55.457 276.53-154.16 376.34-98.707 99.816-232.58 155.89-372.18 155.89-69.121 0-137.57-13.766-201.43-40.516-63.855-26.746-121.88-65.949-170.76-115.37-48.875-49.422-87.645-108.1-114.1-172.67-26.449-64.574-40.066-133.79-40.066-203.68 0-69.898 13.613-139.11 40.066-203.68 26.449-64.574 65.219-123.25 114.1-172.68 48.875-49.422 106.9-88.625 170.76-115.38 63.859-26.746 132.3-40.512 201.43-40.512z" fill="#a8aaad"/>
  <path d="m906.38 515.71h-612.75c-18.59 0-33.711 15.137-33.711 33.727v101.15c0 18.582 15.121 33.711 33.711 33.711h612.75c18.582 0 33.711-15.129 33.711-33.711v-101.15c0-18.59-15.133-33.727-33.715-33.727zm20.367 134.87c0 11.23-9.1367 20.375-20.367 20.375h-612.75c-11.238 0-20.383-9.1445-20.383-20.375v-101.14c0-11.238 9.1445-20.391 20.383-20.391h612.75c11.23 0 20.367 9.1445 20.367 20.391z"/>
  <path d="m364.39 582.45-16.527-31.543-16.523 31.543-35.094 5.9648 24.895 25.457-5.1797 35.234 31.902-15.812 31.906 15.812-5.1797-35.234 24.895-25.457z"/>
  <path d="m490.45 582.45-16.52-31.543-16.52 31.543-35.102 5.9648 24.898 25.457-5.168 35.234 31.891-15.812 31.922 15.812-5.1836-35.234 24.891-25.457z"/>
  <path d="m616.54 582.45-16.527-31.543-16.52 31.543-35.102 5.9648 24.895 25.457-5.1719 35.234 31.898-15.812 31.914 15.812-5.168-35.234 24.887-25.457z"/>
  <path d="m742.63 582.45-16.527-31.543-16.52 31.543-35.105 5.9648 24.887 25.457-5.1602 35.234 31.898-15.812 31.906 15.812-5.1797-35.234 24.902-25.457z"/>
  <path d="m868.71 582.45-16.535-31.543-16.512 31.543-35.102 5.9648 24.883 25.457-5.1836 35.234 31.914-15.812 31.93 15.812-5.1836-35.234 24.883-25.457z"/>
 </g>
</svg>
