<?xml version="1.0" encoding="UTF-8"?>
<svg width="1200pt" height="1200pt" version="1.1" viewBox="0 0 1200 1200" xmlns="http://www.w3.org/2000/svg">
 <g>
  <path d="m600 0c-78.793 0-156.82 15.52-229.61 45.672s-138.94 74.348-194.65 130.07c-55.719 55.715-99.914 121.86-130.07 194.65s-45.672 150.82-45.672 229.61c0 159.13 63.215 311.74 175.74 424.26 112.52 112.52 265.13 175.73 424.27 175.73 159.13 0 311.74-63.215 424.26-175.74 112.52-112.52 175.74-265.13 175.74-424.26 0-159.13-63.215-311.74-175.73-424.27-112.52-112.52-265.13-175.74-424.26-175.74zm0 67.762c69.121 0 137.56 13.766 201.42 40.516 63.859 26.746 121.88 65.953 170.76 115.38s87.645 108.1 114.09 172.67c26.453 64.574 40.066 133.79 40.066 203.68 0 141.16-55.457 276.53-154.16 376.34-98.707 99.816-232.58 155.89-372.18 155.89-69.121 0-137.57-13.766-201.43-40.516-63.855-26.746-121.88-65.949-170.76-115.37-48.875-49.422-87.645-108.1-114.1-172.67-26.449-64.574-40.066-133.79-40.066-203.68 0-69.898 13.613-139.11 40.066-203.68 26.449-64.574 65.219-123.25 114.1-172.68 48.875-49.422 106.9-88.625 170.76-115.38 63.859-26.746 132.3-40.512 201.43-40.512z" fill="#a8aaad"/>
  <path d="m909.84 910.6h-72.547c5.2891-7.5586 8.3125-15.871 8.3125-25.695v-139.05c0-20.402-12.848-39.297-31.738-46.855-0.75391-0.75391-2.2656-0.75391-3.7773-0.75391l-105.8-14.359-0.003907-108.07c0-12.848-3.7773-24.184-9.0703-34.762 29.473-13.602 49.879-43.074 49.879-78.594 0-42.32-30.23-77.082-69.527-84.641l0.003907-84.641c0-25.695-20.402-46.098-45.344-46.098-24.938 0-45.344 20.402-45.344 46.098v83.129c-3.0234 0.75391-5.2891 1.5117-8.3125 2.2656-12.848 5.2891-23.426 15.871-28.719 28.719-5.2891 13.602-5.2891 27.961 0 41.562 5.2891 13.602 15.871 24.184 28.719 29.473l9.0703 3.7773v42.32c-12.848 12.848-21.16 30.984-21.16 51.387v117.89c-3.7773 7.5586-18.137 32.496-46.855 59.703-19.648 18.137-77.082 53.656-154.92 95.219-15.871 8.3164-24.184 27.207-19.648 46.102 1.5117 6.0469 4.5352 11.336 7.5586 15.871h-75.574c-8.3125 0-15.113 6.8008-15.113 15.113s6.8008 15.113 15.113 15.113h433.02c8.3125 0 15.113-6.8008 15.113-15.113s-6.8008-15.113-15.113-15.113h-287.93c14.359-7.5586 34.008-15.871 50.633-23.426 9.8242-4.5352 19.648-8.3125 27.961-12.09 7.5586-3.7773 10.578-12.848 7.5586-20.402-3.7773-7.5586-12.09-11.336-19.648-7.5586-7.5586 3.7773-17.383 7.5586-27.207 12.09-27.961 12.09-55.922 24.938-71.039 34.762-3.0234 1.5117-6.0469 2.2656-9.0703 0.75391s-5.2891-3.7773-6.0469-7.5586c-1.5117-4.5352 0.75391-9.8242 5.2891-12.09 47.609-25.695 132.25-71.793 161.72-99.754 27.961-25.695 43.074-50.633 50.633-62.723h69.527c-24.938 27.961-69.527 74.059-121.67 107.31-6.8008 4.5352-9.0703 13.602-4.5352 21.16 3.0234 4.5352 7.5586 7.5586 12.848 7.5586 3.0234 0 5.2891-0.75391 7.5586-2.2656 37.031-23.426 70.281-52.898 95.977-78.594 2.2656 1.5117 3.7773 3.0234 6.8008 3.0234l91.441 15.113c7.5586 3.0234 12.848 9.8242 12.848 18.137v80.105c0 9.8242 3.0234 18.137 8.3125 25.695h-9.8242c-8.3125 0-15.113 6.8008-15.113 15.113s6.8008 15.113 15.113 15.113l149.64-0.003906c8.3125 0 15.113-6.8008 15.113-15.113 0-8.3164-6.8008-14.359-15.113-14.359zm-193.46-447.38c0 24.938-16.625 46.098-39.297 52.898v-105.8c22.672 6.0469 39.297 27.207 39.297 52.902zm-139.81-24.941c-2.2656-6.0469-2.2656-12.09 0-18.137 2.2656-4.5352 5.2891-8.3125 9.8242-10.578v39.297c-4.5352-2.2695-8.3125-6.0469-9.8242-10.582zm70.281 99v9.0703c0 8.3125-6.8008 15.113-15.113 15.113s-15.113-6.8008-15.113-15.113v-253.16c0-8.3125 6.8008-15.113 15.113-15.113s15.113 6.8008 15.113 15.113zm-52.145 38.543c0-0.75391 0.75391-1.5117 0.75391-2.2656 8.3125 11.336 21.16 18.895 36.273 18.895 18.895 0 34.762-11.336 41.562-27.961 1.5117 3.7773 2.2656 7.5586 2.2656 12.09v106.55l-80.855-0.003906zm159.46 180.61-81.617-13.602c11.336-12.848 19.648-22.672 24.938-28.719l107.31 14.359c6.8008 3.0234 10.578 9.8242 10.578 17.383v138.3c0 7.5586-6.0469 13.602-13.602 13.602-7.5586 0-13.602-6.0469-13.602-13.602v-80.109c0.75391-21.16-12.094-40.051-34.008-47.609z" fill-rule="evenodd"/>
 </g>
</svg>
