<?xml version="1.0" encoding="UTF-8"?>
<svg width="1200pt" height="1200pt" version="1.1" viewBox="0 0 1200 1200" xmlns="http://www.w3.org/2000/svg">
 <defs>
  <clipPath id="c">
   <path d="m222.14 375h359.86v366h-359.86z"/>
  </clipPath>
  <clipPath id="b">
   <path d="m393 661h584.86v164h-584.86z"/>
  </clipPath>
  <clipPath id="a">
   <path d="m877 549h100.86v31h-100.86z"/>
  </clipPath>
 </defs>
 <path d="m600 0c-78.793 0-156.82 15.52-229.61 45.672s-138.94 74.348-194.65 130.07c-55.719 55.715-99.914 121.86-130.07 194.65s-45.672 150.82-45.672 229.61c0 159.13 63.215 311.74 175.74 424.26 112.52 112.52 265.13 175.73 424.27 175.73 159.13 0 311.74-63.215 424.26-175.74 112.52-112.52 175.74-265.13 175.74-424.26 0-159.13-63.215-311.74-175.73-424.27-112.52-112.52-265.13-175.74-424.26-175.74zm0 67.762c69.121 0 137.56 13.766 201.42 40.516 63.859 26.746 121.88 65.953 170.76 115.38s87.645 108.1 114.09 172.67c26.453 64.574 40.066 133.79 40.066 203.68 0 141.16-55.457 276.53-154.16 376.34-98.707 99.816-232.58 155.89-372.18 155.89-69.121 0-137.57-13.766-201.43-40.516-63.855-26.746-121.88-65.949-170.76-115.37-48.875-49.422-87.645-108.1-114.1-172.67-26.449-64.574-40.066-133.79-40.066-203.68 0-69.898 13.613-139.11 40.066-203.68 26.449-64.574 65.219-123.25 114.1-172.68 48.875-49.422 106.9-88.625 170.76-115.38 63.859-26.746 132.3-40.512 201.43-40.512z" fill="#a8aaad"/>
 <g clip-path="url(#c)">
  <path d="m279.11 684.85c4.2812 8.9727 16.461 23.844 49.988 26.82h-0.003906c3.2773 2.043 6.6992 3.8359 10.246 5.3594-1.1445 0.3125-1.8477 0.48828-1.9219 0.50781-5.8008 1.418-9.6328 6.9453-8.918 12.879 0.71094 5.9297 5.7383 10.395 11.711 10.402 0.94531 0 1.8867-0.11328 2.8008-0.33594 4.2188-1.0273 103.78-25.934 142.1-92.355 32.641-56.578 64.855-67.617 65.656-67.879l0.003906 0.003906c6.2188-1.875 9.7578-8.418 7.9219-14.648-1.8359-6.2266-8.3594-9.8047-14.598-8.0078-1.668 0.48047-41.254 12.551-79.438 78.723-17.703 30.68-52.363 51.648-81.047 64.586v0.003906c-2.8438-2.1758-6.5156-2.9414-9.9883-2.0859-1.9883 0.48828-4.0195 0.75781-6.0664 0.79688-0.003907-0.27344 0.035156-0.53516 0.015624-0.8125v0.003906c-0.55078-6.5-6.2617-11.32-12.762-10.777-13.262 1.6992-26.727 0.68359-39.582-2.9844 34.613-10.688 66.016-46.926 72.418-65.066 0.14062-0.45703 0.25391-0.91797 0.33594-1.3867 0.019531-0.082031 0.042969-0.16016 0.058593-0.24219 0.13672-0.67578 0.21094-1.3633 0.22266-2.0547l0.007812-0.17578v-0.003906c0.003907-0.67578-0.050781-1.3516-0.16797-2.0195-0.015624-0.09375-0.027343-0.18359-0.042968-0.27734-0.12109-0.60937-0.28906-1.2109-0.50391-1.793-0.054688-0.15625-0.10938-0.3125-0.17188-0.46875-0.21484-0.51562-0.46484-1.0117-0.75-1.4922-0.11719-0.20312-0.23047-0.40625-0.36328-0.60547v0.003906c-0.28906-0.41797-0.60156-0.81641-0.9375-1.1914-0.13281-0.15234-0.23438-0.32813-0.375-0.47656h-0.003906c-2.625-2.543-4.4023-5.8359-5.0781-9.4297 0.050781-0.37891 0.85938-1.2109 2.3047-2.0625 6.832-3.9805 15.156-4.4531 22.395-1.2734 7.8086 3.2031 13.609 9.9492 15.613 18.145 1.0195 4.375 1.5117 8.8516 1.4688 13.344 0 6.5195 5.2852 11.805 11.809 11.805 6.5195 0 11.809-5.2852 11.809-11.805 0.042968-6.3789-0.67578-12.738-2.1445-18.949-2.6641-10.664-8.7578-20.156-17.348-27.016 27.203-11.289 59.676-28.895 65.652-50.316v0.003907c0.5625-2.0664 0.99609-4.1641 1.3008-6.2852 26.281 4.4102 53.027 5.3555 79.559 2.8164 0.19531-0.58203 0.36328-1.168 0.58984-1.75l9.0273-22.812c-56.852 5.7578-87.625-2.0391-88.375-2.2422v0.003906c-0.93359-0.24219-1.8984-0.37109-2.8633-0.375-5.6211-17.484-20.523-34.395-47.5-45.332 0.29688-15.258-4.0469-30.246-12.465-42.973-8.4141-12.73-20.5-22.602-34.652-28.301-32.816-11.844-60.523-9.4688-82.352 7.0898-13.898 11.363-22.055 28.293-22.277 46.246-0.14844 3.2031-0.14453 6.3086-0.015625 9.332-32.336 12.738-56.461 40.406-64.68 74.176-15.07 57.723 9.5 125.02 33.031 151.4 5.2617 6.0273 11.895 10.695 19.344 13.613zm-29.523-159.05c5.8867-24.953 23.012-45.762 46.367-56.336 3.3438 9.207 8.8867 17.461 16.141 24.043 18.68 16.961 45.207 19.957 61.617 19.957 4.9609 0.035156 9.918-0.26172 14.84-0.88281 6.4531-0.92578 10.934-6.9062 10.012-13.359s-6.8984-10.938-13.352-10.02c-0.36719 0.046875-37.34 4.9688-57.301-13.23-9.4805-8.6523-13.699-21.258-12.891-38.539l0.003906-0.003906c-0.070312-10.949 4.6641-21.383 12.957-28.535 15.035-11.41 35.242-12.648 60.062-3.6875 1.4453 0.52344 35.402 13.277 31.18 55.98-0.027344 0.26172 0.011719 0.51172 0 0.76953-0.03125 0.5-0.03125 1 0.003906 1.5 0.035156 0.35938 0.125 0.69922 0.19141 1.0508h-0.003906c0.0625 0.39844 0.14453 0.79688 0.24609 1.1875 0.10938 0.375 0.27734 0.72266 0.42188 1.082 0.14062 0.34375 0.26172 0.69531 0.43359 1.0273 0.17188 0.33203 0.39062 0.62891 0.59375 0.94141 0.21094 0.32812 0.40625 0.66016 0.64844 0.96484 0.21875 0.27344 0.48047 0.51172 0.72266 0.76562v0.003907c0.27344 0.30469 0.55859 0.59375 0.86328 0.86719 0.28906 0.24609 0.61328 0.44141 0.92578 0.66016s0.60938 0.45313 0.94922 0.64453l-0.003906-0.003906c0.41406 0.21484 0.84375 0.40625 1.2773 0.56641 0.26953 0.10938 0.50781 0.25781 0.78906 0.35156 37.488 12.328 45.734 34.816 41.41 50.324-4.0195 14.398-47.734 35.578-85.934 46.945l-0.078125 0.03125v0.003906c-4.3867 1.0977-8.5977 2.8125-12.504 5.0977-7.4219 3.8789-12.523 11.086-13.719 19.375-0.65625 7.9258 1.5586 15.828 6.2422 22.258-9.1992 15.656-35.672 41.48-59.359 46.145-4.6602 1.2422-9.5781 1.125-14.172-0.33203-4.5977-1.457-8.6836-4.1953-11.777-7.8945-19.918-22.336-40.133-82.492-27.805-129.72z"/>
 </g>
 <g clip-path="url(#b)">
  <path d="m970.28 724.14c-92.027-35.297-184.01-10.613-187.89-9.5469-102.11 28.203-166.55 9.0156-194.37-3.7305 25.031-15.75 42.695-26.855 43.289-27.23l0.003906-0.003906c5.5195-3.4688 7.1836-10.758 3.7109-16.281-3.4688-5.5195-10.762-7.1836-16.281-3.7109-8.3477 5.2461-204.69 128.67-220.2 139.12-5.4062 3.6445-6.8359 10.98-3.1914 16.387 3.6445 5.4062 10.984 6.8359 16.391 3.1914 9.4922-6.3984 91.973-58.402 153.07-96.867 14.938 8.9609 53.445 27.504 116.77 27.504v-0.003906c36.238-0.35938 72.262-5.6133 107.09-15.617 0.86328-0.23047 88.289-23.715 173.15 8.832 2.9258 1.1289 6.1797 1.0469 9.0469-0.22656 2.8672-1.2734 5.1055-3.6328 6.2305-6.5625 1.1211-2.9258 1.0312-6.1797-0.24609-9.043-1.2812-2.8633-3.6484-5.1016-6.5781-6.2148z"/>
 </g>
 <path d="m651.45 519.04c14.805-0.5 29.625-0.14453 44.387 1.0586l9.1016-22.996v-0.003906c-14.625-1.4609-29.324-2.1211-44.02-1.9844z"/>
 <g clip-path="url(#a)">
  <path d="m877.1 575.25c13.254 3.0977 26.82 4.668 40.43 4.6758 17.305-0.085938 34.527-2.3555 51.266-6.7539 6.3164-1.6172 10.125-8.0508 8.5078-14.367-1.6172-6.3164-8.0508-10.129-14.367-8.5078-25.125 6.8438-51.492 7.7734-77.039 2.7148z"/>
 </g>
 <path d="m766.96 532.9c15.141 4.3047 29.98 9.6094 44.422 15.879l8.6992-21.98c-14.449-6.2422-29.273-11.582-44.379-15.996z"/>
 <path d="m601.48 549.04c2.9141 1.1523 6.1641 1.1016 9.0391-0.14062 2.875-1.2461 5.1367-3.582 6.2891-6.4961l21.715-54.891c9.0742-0.94141 17.207-6.0234 22.031-13.766 4.8242-7.7422 5.8047-17.281 2.6523-25.844-3.1484-8.5586-10.078-15.188-18.77-17.957-8.6914-2.7656-18.176-1.3672-25.699 3.7969-7.5195 5.1641-12.238 13.512-12.777 22.617-0.53906 9.1094 3.1523 17.953 10.012 23.973l-21.129 53.383c-2.3984 6.0625 0.57422 12.926 6.6367 15.324zm33.949-96.637c2.3867 0 4.5391 1.4375 5.4531 3.6445 0.91406 2.207 0.41016 4.7461-1.2773 6.4336-1.6914 1.6875-4.2305 2.1914-6.4336 1.2812-2.207-0.91406-3.6445-3.0703-3.6445-5.457 0-3.2578 2.6445-5.8984 5.9023-5.9023z"/>
 <path d="m722.48 549.04c2.9102 1.1523 6.1641 1.1016 9.0352-0.14062 2.875-1.2461 5.1367-3.582 6.2891-6.4961l21.719-54.887h-0.003906c9.0781-0.93359 17.211-6.0039 22.047-13.738 4.832-7.7383 5.8242-17.273 2.6836-25.84s-10.059-15.199-18.75-17.977c-8.6875-2.7773-18.176-1.3906-25.703 3.7656-7.5273 5.1523-12.25 13.496-12.801 22.602-0.55078 9.1055 3.1328 17.957 9.9844 23.98l-21.129 53.406h-0.003906c-2.3984 6.0625 0.57031 12.922 6.6328 15.324zm33.98-96.637c2.3906 0 4.543 1.4375 5.457 3.6445 0.91406 2.207 0.40625 4.7461-1.2812 6.4336s-4.2266 2.1914-6.4336 1.2812c-2.207-0.91406-3.6445-3.0703-3.6445-5.457 0.003906-3.2578 2.6445-5.8984 5.9023-5.9023z"/>
 <path d="m837.57 578.88c2.9102 1.1523 6.1641 1.1016 9.0352-0.14453 2.875-1.2422 5.1367-3.5781 6.2891-6.4922l21.805-55.105v-0.003906c9.0781-0.66406 17.34-5.4805 22.387-13.055 5.0469-7.5742 6.3125-17.055 3.4336-25.688-2.8789-8.6328-9.582-15.453-18.168-18.48-8.582-3.0273-18.082-1.9219-25.742 2.9961-7.6562 4.9141-12.617 13.094-13.438 22.156-0.82031 9.0664 2.5898 18 9.2422 24.215l-21.477 54.277v-0.003906c-2.3984 6.0625 0.57031 12.922 6.6328 15.328zm35.004-96.953c2.3867 0 4.5391 1.4375 5.4531 3.6445 0.91406 2.207 0.41016 4.7461-1.2812 6.4336-1.6875 1.6875-4.2266 2.1953-6.4336 1.2812s-3.6445-3.0664-3.6445-5.457c0.003906-3.2578 2.6445-5.8984 5.9062-5.9023z"/>
</svg>
