<?xml version="1.0" encoding="UTF-8"?>
<svg width="1200pt" height="1200pt" version="1.1" viewBox="0 0 1200 1200" xmlns="http://www.w3.org/2000/svg">
 <g>
  <path d="m600 0c-78.793 0-156.82 15.52-229.61 45.672s-138.94 74.348-194.65 130.07c-55.719 55.715-99.914 121.86-130.07 194.65s-45.672 150.82-45.672 229.61c0 159.13 63.215 311.74 175.74 424.26 112.52 112.52 265.13 175.73 424.27 175.73 159.13 0 311.74-63.215 424.26-175.74 112.52-112.52 175.74-265.13 175.74-424.26 0-159.13-63.215-311.74-175.73-424.27-112.52-112.52-265.13-175.74-424.26-175.74zm0 67.762c69.121 0 137.56 13.766 201.42 40.516 63.859 26.746 121.88 65.953 170.76 115.38s87.645 108.1 114.09 172.67c26.453 64.574 40.066 133.79 40.066 203.68 0 141.16-55.457 276.53-154.16 376.34-98.707 99.816-232.58 155.89-372.18 155.89-69.121 0-137.57-13.766-201.43-40.516-63.855-26.746-121.88-65.949-170.76-115.37-48.875-49.422-87.645-108.1-114.1-172.67-26.449-64.574-40.066-133.79-40.066-203.68 0-69.898 13.613-139.11 40.066-203.68 26.449-64.574 65.219-123.25 114.1-172.68 48.875-49.422 106.9-88.625 170.76-115.38 63.859-26.746 132.3-40.512 201.43-40.512z" fill="#a8aaad"/>
  <path d="m411.07 527.32h-58.613c-2.0664 0-4.0469 0.81641-5.5117 2.2773-1.4609 1.4609-2.2812 3.4414-2.2812 5.5078v58.637c0 2.0625 0.82031 4.0469 2.2812 5.5039 1.4648 1.4609 3.4453 2.2812 5.5117 2.2773h58.613c2.0625 0 4.043-0.82031 5.5039-2.2773 1.457-1.4609 2.2773-3.4414 2.2773-5.5039v-58.637c0-4.3008-3.4844-7.7852-7.7812-7.7852zm-7.793 58.629h-43.074v-43.074h43.074zm123.18-58.629h-58.633c-4.3008 0-7.7891 3.4844-7.793 7.7852v58.637c0.011719 4.293 3.4961 7.7656 7.793 7.7656h58.629c4.2969 0 7.7852-3.4805 7.7891-7.7812v-58.621c-0.003906-4.3008-3.4922-7.7852-7.7891-7.7852zm-7.7852 58.629h-43.074v-43.074h43.074zm123.18-58.629h-58.66c-4.3008 0-7.7852 3.4844-7.7852 7.7852v58.637c0 2.0625 0.82031 4.043 2.2812 5.5039 1.457 1.457 3.4375 2.2773 5.5039 2.2773h58.637c2.0625 0 4.043-0.82031 5.5039-2.2773 1.457-1.4609 2.2773-3.4414 2.2773-5.5039v-58.637c0-2.0664-0.82031-4.0469-2.2773-5.5039-1.4609-1.4609-3.4414-2.2812-5.5039-2.2812zm-7.8477 58.629h-43.074v-43.074h43.074zm64.562 15.559h58.621c4.3008 0 7.7852-3.4805 7.7891-7.7812v-58.621c-0.003907-4.3008-3.4883-7.7852-7.7891-7.7852h-58.621c-4.3008 0-7.7891 3.4844-7.793 7.7852v58.637c0.011718 4.293 3.4961 7.7656 7.793 7.7656zm7.7852-58.629h43.074v43.074h-43.074zm-295.28 90.75h-58.613c-2.0664-0.003906-4.0469 0.81641-5.5117 2.2734-1.4609 1.4609-2.2812 3.4414-2.2812 5.5078v58.629c0 2.0664 0.82031 4.0508 2.2812 5.5117 1.4609 1.4609 3.4453 2.2812 5.5117 2.2812h58.613c2.0664 0 4.0469-0.82422 5.5039-2.2852 1.4609-1.4609 2.2812-3.4414 2.2773-5.5078v-58.629c0-4.2969-3.4844-7.7812-7.7812-7.7812zm-7.793 58.629h-43.074v-43.074h43.074zm123.18-58.629h-58.633c-4.3008 0-7.7891 3.4805-7.793 7.7812v58.629c0 4.3047 3.4883 7.793 7.793 7.793h58.629c2.0664 0 4.0508-0.82031 5.5117-2.2812 1.4648-1.4609 2.2852-3.4453 2.2852-5.5117v-58.629c0-2.0664-0.82422-4.0469-2.2852-5.5078-1.4648-1.457-3.4453-2.2773-5.5117-2.2734zm-7.7852 58.629h-43.074v-43.074h43.074zm123.18-58.629h-58.66c-4.3008 0-7.7852 3.4844-7.7852 7.7812v58.629c0 2.0664 0.81641 4.0469 2.2773 5.5078 1.4609 1.4609 3.4414 2.2852 5.5078 2.2852h58.637c2.0625 0 4.0469-0.82422 5.5039-2.2852 1.4609-1.4609 2.2812-3.4414 2.2773-5.5078v-58.629c0-2.0625-0.82031-4.043-2.2773-5.5039-1.4609-1.4609-3.4414-2.2773-5.5039-2.2773zm-7.8477 58.625h-43.074v-43.074h43.074zm-222.93 47.68h-58.613c-2.0664-0.003906-4.0469 0.81641-5.5117 2.2773-1.4609 1.4609-2.2812 3.4414-2.2812 5.5078v58.629-0.003906c0 4.3047 3.4883 7.793 7.793 7.793h58.613c4.3008-0.003906 7.7812-3.4922 7.7812-7.793v-58.625c0-2.0664-0.82031-4.0469-2.2773-5.5039-1.4609-1.4609-3.4414-2.2812-5.5039-2.2812zm-7.793 58.629h-43.074v-43.074h43.074zm123.18-58.629h-58.633c-4.3008 0-7.7891 3.4844-7.793 7.7852v58.629-0.003906c0.003906 4.3047 3.4922 7.7891 7.793 7.793h58.629c4.3047 0 7.793-3.4883 7.7969-7.793v-58.625c0-2.0664-0.82422-4.0508-2.2852-5.5078-1.4648-1.4609-3.4453-2.2812-5.5117-2.2773zm-7.7852 58.629h-43.074v-43.074h43.074zm123.18-58.629h-58.66c-4.3008 0-7.7852 3.4844-7.7852 7.7852v58.629-0.003906c0 4.3008 3.4844 7.7891 7.7852 7.793h58.637c4.2969-0.003906 7.7812-3.4922 7.7812-7.793v-58.625c0-2.0664-0.82031-4.0469-2.2773-5.5039-1.4609-1.4609-3.4414-2.2812-5.5039-2.2812zm-7.8477 58.629h-43.074v-43.074h43.074zm215.38-141.76 0.33984-264.63c-0.03125-14.422-5.7734-28.242-15.973-38.438-10.195-10.199-24.016-15.941-38.438-15.973h-15.793v-29.699c-0.011719-5.8555-2.3398-11.469-6.4766-15.605-4.1406-4.1406-9.7539-6.4688-15.605-6.4766h-20.707c-5.8555 0.007813-11.469 2.3359-15.605 6.4766-4.1406 4.1367-6.4688 9.75-6.4766 15.605v29.699h-127.39v-29.699c-0.007813-5.8555-2.3398-11.469-6.4805-15.609-4.1406-4.1406-9.7539-6.4688-15.609-6.4727h-20.691c-5.8555 0.007813-11.469 2.3359-15.605 6.4766-4.1406 4.1367-6.4688 9.75-6.4766 15.605v29.699h-127.4v-29.699c-0.007812-5.8555-2.3359-11.469-6.4766-15.609-4.1367-4.1406-9.75-6.4688-15.605-6.4727h-20.691c-5.8555 0.007813-11.469 2.3359-15.605 6.4766-4.1406 4.1367-6.4688 9.75-6.4766 15.605v29.699h-15.805c-14.426 0.015625-28.254 5.7539-38.457 15.953-10.199 10.203-15.938 24.031-15.953 38.457v418.92c0.015624 14.426 5.7539 28.258 15.953 38.457 10.203 10.203 24.031 15.941 38.457 15.957h391.73c26.266 32.148 66.133 50.051 107.61 48.324 41.48-1.7305 79.723-22.887 103.22-57.109 23.5-34.219 29.512-77.508 16.23-116.84s-44.305-70.113-83.742-83.082zm-119.16-348.74c0.003907-3.5938 2.9141-6.5039 6.5078-6.5078h20.699c3.5898 0.003906 6.5 2.9141 6.5039 6.5078v74.914c-0.003906 3.5898-2.9141 6.5-6.5039 6.5039h-20.699c-3.5938-0.003906-6.5039-2.9141-6.5078-6.5039zm-192.25 0c0.003906-3.5938 2.9141-6.5039 6.5078-6.5078h20.691c3.5938 0.003906 6.5039 2.9141 6.5117 6.5078v74.914c-0.007813 3.5938-2.918 6.5-6.5117 6.5039h-20.691c-3.5938-0.003906-6.5039-2.9141-6.5078-6.5039zm-192.25 0c0.003906-3.5938 2.9141-6.5039 6.5078-6.5078h20.691c3.5898 0.003906 6.5 2.9141 6.5039 6.5078v74.914c-0.003906 3.5898-2.9141 6.5-6.5039 6.5039h-20.691c-3.5938-0.003906-6.5039-2.9141-6.5078-6.5039zm-31.379 45.242h15.801v29.668l0.003906 0.003906c0.007813 5.8516 2.3359 11.465 6.4766 15.605 4.1367 4.1367 9.75 6.4688 15.605 6.4766h20.691c5.8555-0.007812 11.469-2.3359 15.605-6.4766 4.1406-4.1406 6.4688-9.7539 6.4766-15.605v-29.672h127.4v29.672c0.007812 5.8516 2.3359 11.465 6.4766 15.605 4.1367 4.1367 9.75 6.4688 15.605 6.4766h20.691c5.8555-0.007812 11.469-2.3359 15.609-6.4766 4.1406-4.1367 6.4727-9.75 6.4805-15.605v-29.672h127.39v29.672c0.007812 5.8516 2.3359 11.465 6.4766 15.605 4.1367 4.1367 9.75 6.4688 15.605 6.4766h20.699c5.8516-0.007812 11.465-2.3398 15.605-6.4766 4.1367-4.1406 6.4688-9.7539 6.4766-15.605v-29.672h15.793c10.297 0.03125 20.16 4.1367 27.438 11.422 7.2773 7.2812 11.375 17.148 11.398 27.445l-0.089843 69.609h-558.55v-69.609c0.007813-10.301 4.1016-20.18 11.383-27.465s17.152-11.387 27.453-11.402zm0 496.62c-10.293-0.011719-20.164-4.1055-27.445-11.387s-11.379-17.152-11.391-27.449v-333.77h558.53l-0.24219 175.4v-0.003907c-22.941-4.5352-46.672-2.8906-68.77 4.7617v-16.074c-0.003906-2.0703-0.82812-4.0547-2.2969-5.5156-1.4688-1.4609-3.4609-2.2773-5.5312-2.2656h-58.621c-4.3008 0-7.7891 3.4805-7.793 7.7812v58.629c0 4.3047 3.4883 7.793 7.793 7.793h0.67188c-14.215 20.801-22.164 45.242-22.898 70.426-0.73828 25.184 5.7656 50.051 18.742 71.648zm397.35-157.65h-0.55859-4.7773v-43.074h43.074v14.852l0.003907-0.003906c-14.164 7.082-26.945 16.641-37.742 28.227zm96.484 206.15c-30.855 0-60.441-12.258-82.258-34.074-21.816-21.816-34.07-51.406-34.07-82.258s12.258-60.441 34.078-82.258c21.816-21.812 51.406-34.066 82.258-34.066 30.855 0.003906 60.441 12.262 82.254 34.082 21.816 21.816 34.066 51.41 34.062 82.262-0.035156 30.84-12.305 60.402-34.113 82.207-21.809 21.805-51.375 34.07-82.211 34.105zm55.922-154.92c1.4805 1.4414 2.3281 3.4102 2.3516 5.4766 0.027344 2.0625-0.76562 4.0547-2.207 5.5352l-64.234 65.996h-0.003906c-2.9531 3.0352-7.793 3.1523-10.887 0.26562l-36.758-34.25c-3.0742-2.9492-3.207-7.8203-0.30469-10.934 2.9062-3.1133 7.7695-3.3203 10.93-0.46484l31.18 29.059 58.945-60.539c1.4453-1.4805 3.418-2.3242 5.4844-2.3477 2.0664-0.023437 4.0586 0.77734 5.5352 2.2266z"/>
 </g>
</svg>
