<?xml version="1.0" encoding="UTF-8"?>
<svg width="1200pt" height="1200pt" version="1.1" viewBox="0 0 1200 1200" xmlns="http://www.w3.org/2000/svg">
 <defs>
  <clipPath id="a">
   <path d="m223 332h754.86v534h-754.86z"/>
  </clipPath>
 </defs>
 <path d="m600 0c-78.793 0-156.82 15.52-229.61 45.672s-138.94 74.348-194.65 130.07c-55.719 55.715-99.914 121.86-130.07 194.65s-45.672 150.82-45.672 229.61c0 159.13 63.215 311.74 175.74 424.26 112.52 112.52 265.13 175.73 424.27 175.73 159.13 0 311.74-63.215 424.26-175.74 112.52-112.52 175.74-265.13 175.74-424.26 0-159.13-63.215-311.74-175.73-424.27-112.52-112.52-265.13-175.74-424.26-175.74zm0 67.762c69.121 0 137.56 13.766 201.42 40.516 63.859 26.746 121.88 65.953 170.76 115.38s87.645 108.1 114.09 172.67c26.453 64.574 40.066 133.79 40.066 203.68 0 141.16-55.457 276.53-154.16 376.34-98.707 99.816-232.58 155.89-372.18 155.89-69.121 0-137.57-13.766-201.43-40.516-63.855-26.746-121.88-65.949-170.76-115.37-48.875-49.422-87.645-108.1-114.1-172.67-26.449-64.574-40.066-133.79-40.066-203.68 0-69.898 13.613-139.11 40.066-203.68 26.449-64.574 65.219-123.25 114.1-172.68 48.875-49.422 106.9-88.625 170.76-115.38 63.859-26.746 132.3-40.512 201.43-40.512z" fill="#a8aaad"/>
 <g clip-path="url(#a)">
  <path d="m731.04 342.3c-4.8281-5.7891-11.863-9.2812-19.395-9.6211-7.5273-0.33984-14.852 2.5039-20.18 7.832s-8.1719 12.652-7.832 20.18c0.33984 7.5273 3.832 14.566 9.6211 19.395l192.78 193.01h-637.22c-9.2578 0.49219-17.613 5.7188-22.105 13.828-4.4961 8.1094-4.4961 17.965 0 26.074 4.4922 8.1133 12.848 13.34 22.105 13.828h637.22l-193.09 192.79c-4.8594 5.0898-7.5703 11.855-7.5703 18.891 0 7.0391 2.7109 13.805 7.5703 18.895 5.0078 5.0195 11.805 7.8438 18.895 7.8438s13.887-2.8242 18.895-7.8438l238.8-238.8c5.1328-4.9453 8.0352-11.766 8.0352-18.895 0-7.1289-2.9023-13.949-8.0352-18.895z"/>
 </g>
</svg>
