<?xml version="1.0" encoding="UTF-8"?>
<svg width="1200pt" height="1200pt" version="1.1" viewBox="0 0 1200 1200" xmlns="http://www.w3.org/2000/svg">
 <g>
  <path d="m600 0c-78.793 0-156.82 15.52-229.61 45.672s-138.94 74.348-194.65 130.07c-55.719 55.715-99.914 121.86-130.07 194.65s-45.672 150.82-45.672 229.61c0 159.13 63.215 311.74 175.74 424.26 112.52 112.52 265.13 175.73 424.27 175.73 159.13 0 311.74-63.215 424.26-175.74 112.52-112.52 175.74-265.13 175.74-424.26 0-159.13-63.215-311.74-175.73-424.27-112.52-112.52-265.13-175.74-424.26-175.74zm0 67.762c69.121 0 137.56 13.766 201.42 40.516 63.859 26.746 121.88 65.953 170.76 115.38s87.645 108.1 114.09 172.67c26.453 64.574 40.066 133.79 40.066 203.68 0 141.16-55.457 276.53-154.16 376.34-98.707 99.816-232.58 155.89-372.18 155.89-69.121 0-137.57-13.766-201.43-40.516-63.855-26.746-121.88-65.949-170.76-115.37-48.875-49.422-87.645-108.1-114.1-172.67-26.449-64.574-40.066-133.79-40.066-203.68 0-69.898 13.613-139.11 40.066-203.68 26.449-64.574 65.219-123.25 114.1-172.68 48.875-49.422 106.9-88.625 170.76-115.38 63.859-26.746 132.3-40.512 201.43-40.512z" fill="#a8aaad"/>
  <path d="m788.93 576.39h-13.199c-2.6914-13.312-9.8984-25.289-20.402-33.898-10.508-8.6055-23.664-13.316-37.246-13.336h-59.039c-6.5234 0-11.809-5.2852-11.809-11.809v-24.582c25.523-14.781 42.688-40.625 46.418-69.879h0.8125c9.6094 0.035157 18.816-3.8516 25.5-10.758 6.6797-6.9062 10.254-16.238 9.8984-25.844-0.35547-9.6016-4.6094-18.645-11.781-25.039v-9.2109c-0.03125-28.176-11.238-55.188-31.16-75.109-19.926-19.922-46.938-31.129-75.113-31.16h-23.613c-28.176 0.03125-55.191 11.238-75.113 31.16s-31.129 46.934-31.16 75.109v9.2109c-7.1719 6.3945-11.43 15.438-11.781 25.039-0.35547 9.6055 3.2188 18.938 9.8984 25.844 6.6797 6.9062 15.891 10.793 25.5 10.758h0.81641-0.003907c3.7305 29.254 20.895 55.098 46.418 69.879v24.582c0 3.1328-1.2422 6.1367-3.457 8.3516-2.2148 2.2148-5.2188 3.457-8.3516 3.457h-59.039c-13.594-0.003906-26.766 4.6953-37.285 13.309-10.516 8.6094-17.723 20.598-20.398 33.926h-13.164c-6.5234 0-11.809 5.2852-11.809 11.809v354.24c0 3.1328 1.2422 6.1367 3.457 8.3516s5.2188 3.457 8.3516 3.457h377.86c3.1328 0 6.1367-1.2422 8.3516-3.457s3.457-5.2188 3.457-8.3516v-354.24c0-3.1328-1.2422-6.1367-3.457-8.3516s-5.2188-3.457-8.3516-3.457zm-366.05 239.29v-93.344l354.24 110.7v93.355zm354.24-7.3789-288.7-90.215h288.7zm-82.66-409.03v-23.617c6.5234 0 11.809 5.2891 11.809 11.809s-5.2852 11.809-11.809 11.809zm0-47.23h-5.4922l-13.344-20.004h0.003906c-20.43-30.648-51.234-52.898-86.754-62.656h22.93c21.914 0.03125 42.922 8.7461 58.418 24.242 15.492 15.496 24.211 36.504 24.238 58.414zm-150.46-69.668 35.426 8.8555c20.184 5.0508 38.852 14.891 54.422 28.691-8.4141-2.1445-17.059-3.2539-25.742-3.3047h-16.223c-28.199-0.078125-55.254 11.129-75.137 31.125l-4.2969 4.2969h-6.918c0.046876-28.277 14.562-54.562 38.469-69.664zm-50.277 105.09c0-6.5195 5.2852-11.809 11.809-11.809v23.617c-6.5234 0-11.809-5.2891-11.809-11.809zm35.426 23.617-0.003906-42.344 4.3008-4.3008c15.465-15.543 36.508-24.262 58.438-24.203h16.223c21.93-0.058593 42.973 8.6602 58.438 24.203l4.2969 4.2969 0.003906 42.348c0 25.309-13.504 48.699-35.426 61.355s-48.926 12.656-70.848 0-35.426-36.047-35.426-61.355zm-47.234 141.7h59.039c9.3945 0 18.406-3.7305 25.051-10.375 6.6406-6.6445 10.375-15.652 10.375-25.051v-14.91c15.469 4.1406 31.758 4.1406 47.23 0v14.91c0 9.3984 3.7344 18.406 10.375 25.051 6.6445 6.6445 15.656 10.375 25.051 10.375h59.039c7.3047 0.015625 14.422 2.2969 20.379 6.5273 5.9531 4.2266 10.449 10.199 12.871 17.09h-302.66c2.4141-6.8984 6.9062-12.875 12.863-17.105s13.082-6.5078 20.391-6.5117zm-59.039 47.23h354.24v94.465h-354.24zm0 240.41 288.68 90.215h-288.68z"/>
  <path d="m625.05 461.77 6.918-6.918v-0.003906c4.4766-4.6328 4.4102-11.996-0.14453-16.551-4.5547-4.5547-11.918-4.6172-16.551-0.14453l-6.918 6.918v0.003906c-4.6133 4.6094-12.086 4.6094-16.699 0l-6.918-6.918v-0.003906c-4.6328-4.4727-12-4.4102-16.555 0.14453-4.5547 4.5547-4.6172 11.918-0.14063 16.551l6.918 6.918v0.003906c6.6445 6.6406 15.652 10.371 25.043 10.371 9.3945 0 18.402-3.7305 25.047-10.371z"/>
 </g>
</svg>
