<?xml version="1.0" encoding="UTF-8"?>
<svg width="1200pt" height="1200pt" version="1.1" viewBox="0 0 1200 1200" xmlns="http://www.w3.org/2000/svg">
 <defs>
  <clipPath id="a">
   <path d="m222.14 222.14h755.71v755.71h-755.71z"/>
  </clipPath>
 </defs>
 <path d="m600 0c-78.793 0-156.82 15.52-229.61 45.672s-138.94 74.348-194.65 130.07c-55.719 55.715-99.914 121.86-130.07 194.65s-45.672 150.82-45.672 229.61c0 159.13 63.215 311.74 175.74 424.26 112.52 112.52 265.13 175.73 424.27 175.73 159.13 0 311.74-63.215 424.26-175.74 112.52-112.52 175.74-265.13 175.74-424.26 0-159.13-63.215-311.74-175.73-424.27-112.52-112.52-265.13-175.74-424.26-175.74zm0 67.762c69.121 0 137.56 13.766 201.42 40.516 63.859 26.746 121.88 65.953 170.76 115.38s87.645 108.1 114.09 172.67c26.453 64.574 40.066 133.79 40.066 203.68 0 141.16-55.457 276.53-154.16 376.34-98.707 99.816-232.58 155.89-372.18 155.89-69.121 0-137.57-13.766-201.43-40.516-63.855-26.746-121.88-65.949-170.76-115.37-48.875-49.422-87.645-108.1-114.1-172.67-26.449-64.574-40.066-133.79-40.066-203.68 0-69.898 13.613-139.11 40.066-203.68 26.449-64.574 65.219-123.25 114.1-172.68 48.875-49.422 106.9-88.625 170.76-115.38 63.859-26.746 132.3-40.512 201.43-40.512z" fill="#a8aaad"/>
 <path d="m596.22 448.86c37.785 0 75.57 15.113 102.02 45.344l52.902-52.902c-41.562-45.344-98.242-68.012-154.92-68.012-60.457 0-113.36 22.672-158.7 68.016-86.906 86.906-86.906 230.49 0 321.18 41.562 41.559 98.242 64.23 158.7 64.23 60.457 0 113.36-22.672 158.7-68.016l-52.898-52.898c-56.68 56.68-151.14 56.68-204.04 0-56.68-60.457-56.68-154.92 0-215.38 22.672-26.449 56.68-41.562 98.242-41.562z"/>
 <g clip-path="url(#a)">
  <path d="m600 222.14c-207.82 0-377.86 170.04-377.86 377.86s170.04 377.86 377.86 377.86 377.86-170.04 377.86-377.86c0.003906-207.82-170.03-377.86-377.86-377.86zm0 680.14c-166.26 0-302.29-136.03-302.29-302.29 0-166.26 136.03-302.29 302.29-302.29s302.29 136.03 302.29 302.29c0.003906 166.25-136.03 302.29-302.29 302.29z"/>
 </g>
</svg>
