<?xml version="1.0" encoding="UTF-8"?>
<svg width="1200pt" height="1200pt" version="1.1" viewBox="0 0 1200 1200" xmlns="http://www.w3.org/2000/svg">
 <defs>
  <clipPath id="b">
   <path d="m584 592h393.86v385.86h-393.86z"/>
  </clipPath>
  <clipPath id="a">
   <path d="m222.14 222.14h385.86v393.86h-385.86z"/>
  </clipPath>
 </defs>
 <path d="m600 0c-78.793 0-156.82 15.52-229.61 45.672s-138.94 74.348-194.65 130.07c-55.719 55.715-99.914 121.86-130.07 194.65s-45.672 150.82-45.672 229.61c0 159.13 63.215 311.74 175.74 424.26 112.52 112.52 265.13 175.73 424.27 175.73 159.13 0 311.74-63.215 424.26-175.74 112.52-112.52 175.74-265.13 175.74-424.26 0-159.13-63.215-311.74-175.73-424.27-112.52-112.52-265.13-175.74-424.26-175.74zm0 67.762c69.121 0 137.56 13.766 201.42 40.516 63.859 26.746 121.88 65.953 170.76 115.38s87.645 108.1 114.09 172.67c26.453 64.574 40.066 133.79 40.066 203.68 0 141.16-55.457 276.53-154.16 376.34-98.707 99.816-232.58 155.89-372.18 155.89-69.121 0-137.57-13.766-201.43-40.516-63.855-26.746-121.88-65.949-170.76-115.37-48.875-49.422-87.645-108.1-114.1-172.67-26.449-64.574-40.066-133.79-40.066-203.68 0-69.898 13.613-139.11 40.066-203.68 26.449-64.574 65.219-123.25 114.1-172.68 48.875-49.422 106.9-88.625 170.76-115.38 63.859-26.746 132.3-40.512 201.43-40.512z" fill="#a8aaad"/>
 <g clip-path="url(#b)">
  <path d="m972.5 832.16c-4.1992-5.1641-10.422-8.3672-17.074-8.7891-32-2.0312-93.289-13.035-144.19-63.938-50.906-50.906-61.91-112.19-63.941-144.19-0.42188-6.6523-3.625-12.875-8.7891-17.074-5.1562-4.1953-11.891-6.0586-18.477-5.1211-12.258 1.7539-21.082 12.434-20.516 24.84 0.007812 0.12109 0.011719 0.25 0.019531 0.36719-15.016 6.8047-31.449 10.539-47.773 10.816-14.562 0.23828-28.91-2.1367-42.695-7.082-3.1211-1.1172-6.5508 0.5-7.668 3.6211-1.1172 3.1172 0.5 6.5508 3.6211 7.668 14.441 5.1836 29.465 7.8047 44.691 7.8047 19.418-1.8672 36.758-5 50.754-10.168 0.67187 6.875 1.6914 14.461 3.2031 22.602-19.578 7-39.91 11.609-60.527 13.645-17.211 1.6992-34.668 1.625-51.895-0.22266-3.2773-0.35156-6.25 2.0312-6.6016 5.3242s2.0312 6.25 5.3242 6.6016c9.3984 1.0078 18.863 1.5117 28.324 1.5117 8.6992 0 17.398-0.42578 26.027-1.2773 21.051-2.0781 41.812-6.707 61.832-13.727 1.8008 7.75 4.043 15.875 6.8516 24.281-16.582 5.1641-33.211 10.32-49.891 15.465-23.043 7.1016-46.316 14.223-69.168 21.16-3.168 0.96094-4.9609 4.3125-3.9961 7.4805 0.78516 2.5898 3.1641 4.2578 5.7383 4.2578 0.57812 0 1.1641-0.082031 1.7422-0.26172 22.867-6.9453 46.152-14.07 69.215-21.176 16.859-5.1953 33.66-10.406 50.422-15.629 2.1172 5.5 4.4961 11.09 7.1328 16.738-14.879 6.7188-29.355 14.504-43.109 23.188-21.238 13.41-41.113 29.172-59.074 46.84-2.3594 2.3242-2.3906 6.1211-0.070313 8.4805 1.1758 1.1953 2.7227 1.7891 4.2773 1.7891 1.5195 0 3.0391-0.57422 4.207-1.7227 17.352-17.074 36.551-32.297 57.066-45.25 13.406-8.4648 27.527-16.039 42.035-22.57 3.0273 5.7812 6.3516 11.598 10 17.43-14.574 9.8438-28.266 21.035-40.746 33.348-19.535 19.27-36.215 41.281-49.566 65.426-1.6016 2.8984-0.55469 6.5469 2.3438 8.1523 3.6016 0.89844 6.1914-0.125 8.1523-2.3438 12.797-23.141 28.777-44.23 47.492-62.691 11.922-11.758 25-22.453 38.918-31.863 4.8359 6.9883 10.172 13.957 16.035 20.863-14.219 12.496-27.062 26.504-38.211 41.734-15.395 21.031-27.523 44.238-36.047 68.973-1.082 3.1328 0.58594 6.5469 3.7148 7.625 3.6367 0.30469 6.4727-0.51953 7.625-3.7148 8.1367-23.602 19.707-45.738 34.387-65.797 10.648-14.547 22.914-27.918 36.496-39.848 2.3516 2.5352 4.75 5.0625 7.2578 7.5664 3.6406 3.6406 7.3203 7.0938 11.016 10.41-12.812 12.867-23.691 27.441-32.359 43.422-10.656 19.641-17.711 40.809-20.973 62.918 0.58594 3.4531 1.9609 6.25 5.9414 6.875 2.9258 0 5.4883-2.1445 5.9258-5.125 3.0547-20.715 9.6641-40.547 19.648-58.949 8.2656-15.234 18.68-29.098 30.965-41.309 6.8906 5.6484 13.84 10.773 20.793 15.418-11.02 14.133-20.102 29.609-27.016 46.102-10.441 24.91-15.723 51.316-15.699 78.488 0.003906 3.3125 2.6875 5.9922 5.9961 5.9922h0.007812c3.3125-0.003906 5.9961-2.6914 5.9922-6.0039-0.023438-25.566 4.9453-50.41 14.77-73.84 6.6484-15.871 15.445-30.73 26.137-44.27 8.1055 4.8906 16.176 9.168 24.137 12.898-8.293 16.926-13.691 34.953-16.059 53.691-2.9062 23.043-1.1367 46.059 5.2617 68.41 0.75391 2.6328 3.1562 4.3477 5.7656 4.3477 3.6445-0.76562 5.7539-3.125 5.7695-7.6523-5.8672-20.488-7.5586-42.484-4.8945-63.605 2.2188-17.578 7.332-34.473 15.156-50.332 9.5859 3.9688 18.941 7.1836 27.91 9.7773-6.6562 16.098-12.582 39.043-9.2695 65.926 2.0703 16.809 7.4414 32.934 15.969 47.934 1.1055 1.9414 3.1328 3.0352 5.2188 3.0352 1.0039 0 2.0234-0.25391 2.9609-0.78516 2.8789-1.6406 3.8867-5.3008 2.25-8.1797-7.7422-13.613-12.621-28.238-14.496-43.469-3.1055-25.219 2.7812-46.652 9.0859-61.363 8.2461 1.9844 16.066 3.4492 23.34 4.5312-4.1719 12.418-7.2422 29.324-3.6523 48.512 2.5469 13.625 8.0117 26.387 16.246 37.926 1.168 1.6406 3.0156 2.5156 4.8867 2.5156 1.207 0 2.4219-0.36328 3.4805-1.1172 2.6992-1.9219 3.3242-5.668 1.3984-8.3672-7.2109-10.105-11.996-21.266-14.219-33.164-3.3555-17.957-0.015625-33.699 4.0352-44.785l15.117 1.0664c11.922 0 22.016-8.6523 23.715-20.543 0.92578-6.5859-0.94141-13.32-5.1367-18.477zm-6.7539 16.777c-0.875 6.1172-6.2148 10.508-12.418 10.23-66.785-0.50391-121.65-27.422-167.48-74.352-3.7305-3.7305-7.2734-7.5-10.645-11.293-40.18-40.305-61.645-92.227-63.699-156.19-0.28125-6.207 4.1172-11.547 10.23-12.418 3.4102-0.074219 6.4258 0.91797 9.2109 2.5508 2.6133 2.1289 4.1719 5.1562 4.3867 8.5273 2.1367 33.688 13.738 98.223 67.43 151.91 53.691 53.691 118.23 65.293 151.91 67.43 3.375 0.21484 6.4023 1.7734 8.5273 4.3867 2.1133 2.6094 3.0156 5.8828 2.543 9.2109z"/>
 </g>
 <g clip-path="url(#a)">
  <path d="m601.84 461.5c-4.1992-5.1641-10.426-8.3672-17.074-8.7891-32-2.0312-93.285-13.035-144.19-63.941-50.902-50.906-61.91-112.19-63.938-144.2-0.42187-6.6523-3.6289-12.875-8.7891-17.074-5.1562-4.1914-11.887-6.0547-18.473-5.1172-12.262 1.7539-21.082 12.43-20.52 24.84 0.19141 4.2422 0.52734 8.9414 1.0391 13.996-11.086 4.0508-26.832 7.3906-44.785 4.0352-11.898-2.2227-23.059-7.0078-33.164-14.219-2.6953-1.9219-6.4414-1.3008-8.3672 1.3984-1.9219 2.6953-1.2969 6.4414 1.3984 8.3672 11.539 8.2344 24.297 13.699 37.926 16.246 5.9375 1.1094 11.656 1.582 17.098 1.582 12.129 0 22.84-2.3555 31.418-5.2344 1.082 7.2734 2.5469 15.094 4.5312 23.336-14.711 6.3047-36.137 12.191-61.363 9.0859-15.227-1.875-29.852-6.7539-43.465-14.496-2.8789-1.6406-6.543-0.62891-8.1797 2.25s-0.62891 6.5391 2.25 8.1797c15 8.5273 31.125 13.902 47.93 15.969 5.2969 0.65234 10.441 0.94531 15.41 0.94531 20.258 0 37.586-4.8789 50.516-10.223 2.5898 8.9727 5.8086 18.328 9.7773 27.918-15.867 7.8281-32.766 12.941-50.34 15.16-21.121 2.668-43.117 0.97266-63.605-4.8945-3.1836-0.91406-6.5078 0.93359-7.418 4.1133-0.91016 3.1836 0.92969 6.5078 4.1133 7.418 21.41 4.5 44.203 6.2734 68.41 5.2617 18.738-2.3672 36.766-7.7656 53.691-16.059 3.7305 7.9609 8.0078 16.031 12.898 24.137-13.539 10.691-28.398 19.488-44.27 26.137-23.379 9.8008-48.164 14.77-73.672 14.77h-0.17578c-3.3125 0-5.9961 2.6836-5.9961 5.9922-0.003906 3.3125 2.6797 6 5.9922 6.0039h0.17969c27.105 0 53.453-5.2812 78.309-15.699 16.496-6.9141 31.973-15.992 46.102-27.016 4.6445 6.9531 9.7695 13.898 15.418 20.793-12.215 12.281-26.074 22.695-41.309 30.965-18.398 9.9844-38.234 16.594-58.949 19.648-3.2773 0.48437-5.543 3.5312-5.0586 6.8086 0.4375 2.9805 3 5.125 5.9258 5.125 20.793-1.4258 42.172-9.7461 63.801-21.039 15.98-8.668 30.551-19.547 43.422-32.359 3.3125 3.6992 6.7695 7.375 10.41 11.016 2.5078 2.5078 5.0312 4.9062 7.5664 7.2578-11.93 13.578-25.305 25.848-39.848 36.496-20.062 14.684-42.199 26.254-65.797 34.387-3.1289 1.0781-4.7969 4.4922-3.7148 7.625 0.85547 2.4844 3.1797 4.043 5.668 4.043 0.64844 0 1.3086-0.10547 1.957-0.32812 24.734-8.5273 47.941-20.652 68.973-36.047 15.234-11.148 29.238-23.992 41.734-38.211 6.9062 5.8633 13.879 11.199 20.863 16.035-9.4102 13.918-20.105 26.992-31.863 38.918-18.461 18.715-39.551 34.695-62.691 47.492-2.8984 1.6016-3.9492 5.2539-2.3438 8.1523 1.0938 1.9805 3.1406 3.0977 5.2539 3.0977 0.98047 0 1.9766-0.24219 2.8984-0.75 24.148-13.352 46.16-30.027 65.426-49.566 12.309-12.484 23.5-26.172 33.348-40.746 5.8281 3.6523 11.648 6.9727 17.43 10-6.5312 14.508-14.105 28.629-22.57 42.035-12.957 20.516-28.18 39.715-45.25 57.066-2.3242 2.3633-2.293 6.1562 0.070313 8.4805 1.168 1.1484 2.6875 1.7227 4.207 1.7227 1.5508 0 3.1016-0.59766 4.2773-1.7891 17.672-17.961 33.43-37.836 46.84-59.074 8.6875-13.754 16.469-28.23 23.188-43.109 5.6484 2.6367 11.238 5.0117 16.738 7.1328-5.2227 16.762-10.434 33.562-15.629 50.422-7.1055 23.059-14.234 46.344-21.176 69.211-0.96484 3.168 0.82812 6.5195 3.9961 7.4805 3.8242 0.61328 6.3242-0.71094 7.4805-3.9961 6.9375-22.852 14.059-46.121 21.16-69.164 5.1406-16.68 10.297-33.309 15.465-49.891 8.4062 2.8086 16.531 5.0508 24.281 6.8516-7.0195 20.02-11.648 40.785-13.727 61.832-1.7812 18.02-1.7031 36.305 0.23047 54.352 0.32812 3.0781 2.9297 5.3594 5.957 5.3594 3.5195-0.44531 5.5859-2.5703 5.9727-6.6367-1.8477-17.23-1.9219-34.691-0.22266-51.895 2.0352-20.617 6.6445-40.949 13.645-60.527 8.1445 1.5117 15.727 2.5312 22.602 3.2031-6.3711 15.391-9.8633 31.988-10.145 48.492-0.27344 16 2.3477 31.797 7.7852 46.953 0.87891 2.4492 3.1836 3.9727 5.6445 3.9727 3.3633-0.74609 5.6133-2.9453 5.6445-8.0234-4.9453-13.789-7.332-28.152-7.082-42.695 0.27734-16.328 4.0117-32.758 10.816-47.773 13.441 1.4375 21.836-5.4141 25.207-20.5 0.92969-6.5977-0.9375-13.328-5.1289-18.488zm-6.7578 16.777c-0.875 6.1133-6.2305 10.539-12.418 10.23-23.344-0.11719-47.922-5.7656-73.191-14.492-31.707-7.8711-58.895-25.266-82.992-49.207-17.996-14.059-32.977-33.258-46.645-54.691-25.355-36.453-38.555-75.379-39.004-123.44-0.28125-6.207 4.1172-11.543 10.23-12.418 3.3359-0.48047 6.6016 0.42969 9.2109 2.5508 2.6133 2.125 4.1719 5.1562 4.3867 8.5273 2.1367 33.691 13.738 98.227 67.43 151.91 53.691 53.695 118.23 65.293 151.91 67.43 3.3711 0.21484 6.4023 1.7734 8.5273 4.3867 2.1211 2.6094 3.0273 5.8789 2.5508 9.207z"/>
 </g>
</svg>
