<?xml version="1.0" encoding="UTF-8"?>
<svg width="1200pt" height="1200pt" version="1.1" viewBox="0 0 1200 1200" xmlns="http://www.w3.org/2000/svg">
 <g>
  <path d="m600 0c-78.793 0-156.82 15.52-229.61 45.672s-138.94 74.348-194.65 130.07c-55.719 55.715-99.914 121.86-130.07 194.65s-45.672 150.82-45.672 229.61c0 159.13 63.215 311.74 175.74 424.26 112.52 112.52 265.13 175.73 424.27 175.73 159.13 0 311.74-63.215 424.26-175.74 112.52-112.52 175.74-265.13 175.74-424.26 0-159.13-63.215-311.74-175.73-424.27-112.52-112.52-265.13-175.74-424.26-175.74zm0 67.762c69.121 0 137.56 13.766 201.42 40.516 63.859 26.746 121.88 65.953 170.76 115.38s87.645 108.1 114.09 172.67c26.453 64.574 40.066 133.79 40.066 203.68 0 141.16-55.457 276.53-154.16 376.34-98.707 99.816-232.58 155.89-372.18 155.89-69.121 0-137.57-13.766-201.43-40.516-63.855-26.746-121.88-65.949-170.76-115.37-48.875-49.422-87.645-108.1-114.1-172.67-26.449-64.574-40.066-133.79-40.066-203.68 0-69.898 13.613-139.11 40.066-203.68 26.449-64.574 65.219-123.25 114.1-172.68 48.875-49.422 106.9-88.625 170.76-115.38 63.859-26.746 132.3-40.512 201.43-40.512z" fill="#a8aaad"/>
  <path d="m311.86 923.1c-3.793 0-7.3945-1.4336-10.141-4.0273-9.1055-8.5781-16.191-18.805-21.078-30.391-4.8281-11.469-7.2617-23.719-7.2344-36.43l0.003906-91.984c0-8.1328 6.6133-14.762 14.762-14.762 8.1328 0 14.762 6.625 14.762 14.762v91.984c0.03125 12.738 3.3359 24.281 9.8438 34.301l299.6-299.36-46.598-42.953c-2.9062-2.6562-4.5898-6.3008-4.7539-10.242-0.16406-3.9414 1.2266-7.7031 3.8984-10.598 2.7891-3.0273 6.7461-4.7656 10.863-4.7656 3.7031 0 7.2617 1.3867 9.9922 3.9102l57.902 53.371c2.9375 2.6992 4.6797 6.5547 4.7539 10.555 0.089843 3.9844-1.4922 7.9102-4.3242 10.73l-321.81 321.59c-2.793 2.7734-6.4961 4.3086-10.438 4.3086zm-23.688-202.68c-8.1484 0-14.762-6.6289-14.762-14.762 0-8.1328 6.6133-14.762 14.762-14.762 8.1328 0 14.762 6.625 14.762 14.762-0.003907 8.1328-6.6289 14.762-14.762 14.762zm0-57.562c-8.1484 0-14.762-6.6289-14.762-14.762v-300.23c-0.03125-12.855 2.5078-25.297 7.5586-36.961 5.0039-11.586 12.266-21.902 21.578-30.672 2.7461-2.6133 6.3477-4.043 10.141-4.043 3.7344 0 7.2773 1.3867 10.008 3.9102l180.61 166.42c5.9766 5.5195 6.3633 14.879 0.83984 20.871-2.7891 3.0117-6.7461 4.7539-10.863 4.7539-3.7031 0-7.2617-1.3867-9.9922-3.9102l-169.4-156.12c-7.2344 10.465-10.906 22.496-10.953 35.75v300.23c0 8.1328-6.625 14.762-14.758 14.762zm245.27-153.71c-3.7188 0-7.2617-1.3867-9.9922-3.9102-5.9922-5.5039-6.375-14.863-0.85547-20.84 2.7891-3.0273 6.7461-4.7656 10.863-4.7656 3.7031 0 7.2617 1.3867 9.9922 3.9102 5.9922 5.5195 6.3633 14.863 0.85547 20.855-2.7891 3.0195-6.7461 4.75-10.863 4.75z"/>
  <path d="m778.38 734.89c-3.7188 0-7.2773-1.3867-10.008-3.9102l-113.49-104.7-31.188-28.664c-2.9531-2.6992-4.6953-6.5547-4.7656-10.555-0.089843-4 1.4922-7.9258 4.3242-10.746l120.16-120.09c2.7734-2.7734 6.4922-4.3086 10.449-4.3086 2.4805 0 4.9453 0.63281 7.1133 1.832l46.555 25.684c7.1133 3.9258 9.7266 12.93 5.7852 20.059-2.5977 4.707-7.5391 7.6328-12.93 7.6328-2.4805 0-4.9453-0.63281-7.1133-1.8438l-36.84-20.309-101.43 101.34 19.867 18.258 105.68 97.477 82.125-45.504c21.785-12.234 34.332-32.828 34.406-56.488-0.015625-14.406-4.7656-27.957-13.727-39.203-2.0977-2.6133-3.2461-5.9023-3.2305-9.2539 0.015625-4.5 2.0195-8.6797 5.5352-11.484 2.6406-2.125 5.8281-3.2461 9.207-3.2461 4.5195 0 8.7227 2.0234 11.543 5.5508 6.4805 8.0898 11.512 17.105 14.953 26.832 3.4844 9.8906 5.2578 20.234 5.2383 30.805 0.042969 16.84-4.5625 33.371-13.328 47.793-8.6641 14.273-21.211 26.199-36.281 34.508l-91.453 50.688c-2.2031 1.1992-4.668 1.8359-7.1641 1.8359zm69.832-201.39c-2.4805 0-4.9453-0.63281-7.1133-1.8438-3.4531-1.9023-5.9648-5.0312-7.0547-8.8281-1.0938-3.7773-0.64844-7.7656 1.2578-11.219 2.5977-4.707 7.5586-7.6328 12.93-7.6328 2.4805 0 4.9453 0.63281 7.1289 1.832 7.1133 3.9258 9.7266 12.93 5.7852 20.059-2.6016 4.7109-7.5625 7.6328-12.934 7.6328z"/>
  <path d="m633.67 601.52c-3.7031 0-7.2617-1.3867-9.9922-3.9102l-320.98-295.82c-2.9375-2.6992-4.6797-6.5391-4.7539-10.539-0.089844-4 1.4922-7.9102 4.3086-10.746 5.6836-5.6367 12.133-9.918 17.684-13.359l0.11719-0.074219c15.484-9.3438 33.062-14.273 50.848-14.273h0.074219c16.766 0 33.578 4.4141 48.664 12.766l0.015626 0.015625 57.227 31.543c7.1289 3.9414 9.7266 12.93 5.8008 20.059-2.5977 4.707-7.5586 7.6328-12.945 7.6328-2.4648 0-4.9297-0.63281-7.1133-1.832l-57.285-31.586c-10.879-6.0234-22.449-9.0781-34.391-9.0781-12.43 0-24.266 3.293-35.219 9.7695l297.55 274.21 96.234-96.176-168.65-92.988c-4.6797-2.582-7.6016-7.5-7.6445-12.855-0.015626-2.4961 0.62109-4.9883 1.8438-7.1875 0.14844-0.26562 0.29687-0.53125 0.45703-0.78125 2.7148-4.2969 7.3789-6.8633 12.473-6.8633 2.4805 0 4.9453 0.63281 7.1133 1.8438l185.86 102.46c4.043 2.2305 6.8477 6.2891 7.5 10.863 0.63281 4.5625-0.91406 9.2383-4.1914 12.5l-120.16 120.07c-2.7891 2.7969-6.4961 4.332-10.438 4.332zm-116.12-250.33c-2.4648 0-4.9297-0.63281-7.0977-1.8438-3.4531-1.9023-5.9648-5.0312-7.0547-8.8281-1.1055-3.7773-0.64844-7.7773 1.2539-11.219 2.5977-4.7227 7.543-7.6445 12.93-7.6445 2.4805 0 4.9297 0.63281 7.1133 1.8438 3.4531 1.9023 5.9648 5.0312 7.0547 8.8281 1.0938 3.7773 0.64844 7.7656-1.2539 11.219-2.5977 4.707-7.5547 7.6445-12.945 7.6445z"/>
  <path d="m370.89 947.2h-0.058593c-18.289 0-35.836-4.8867-50.746-14.125-6.832-3.9414-13.121-8.7539-18.672-14.289-2.7891-2.7891-4.3242-6.4922-4.3242-10.449 0-3.9414 1.5352-7.6445 4.3242-10.434l58.715-58.672c2.7891-2.7734 6.4805-4.3086 10.422-4.3086 3.957 0 7.6602 1.5352 10.449 4.3242 2.7891 2.7891 4.3242 6.4961 4.3086 10.434 0 3.9414-1.5352 7.6445-4.3242 10.434l-46.953 46.922c0.30859 0.17578 0.62109 0.36719 0.94531 0.54688l0.48828 0.29688c10.422 6.4961 22.332 9.7852 35.426 9.8008 12.457 0 24.266-3.0391 34.168-8.7969l0.29688-0.17578 347.95-191.61-98.449-90.805-20.766-19.086-173.74 173.61c0 0.015625 0 0.015625-0.015625 0.015625-2.7734 2.7891-6.4805 4.3242-10.422 4.3242-3.957 0-7.6602-1.5352-10.449-4.3242-0.23438-0.23438-0.45703-0.47266-0.66406-0.72266-0.16406-0.17578-0.32422-0.36719-0.48828-0.5625-4.6328-5.8711-4.1484-14.301 1.168-19.602l183.76-183.61c2.7891-2.8047 6.4922-4.3398 10.434-4.3398 3.6914 0 7.2461 1.3867 9.9805 3.9102l31.203 28.68 113.52 104.71c3.4844 3.2031 5.2266 7.9258 4.6484 12.633-0.57812 4.6953-3.3945 8.8555-7.5273 11.145l-365.82 201.46c-14.391 8.2969-31.25 12.676-48.785 12.676zm38.305-121.37c-3.9414 0-7.6602-1.5352-10.449-4.3242-2.7734-2.7891-4.3086-6.4922-4.3086-10.434 0-3.9414 1.5352-7.6484 4.3242-10.434 2.7891-2.7891 6.4961-4.3242 10.434-4.3242 3.9414 0 7.6445 1.5508 10.434 4.3398 2.7891 2.7734 4.3242 6.4961 4.3242 10.434 0 3.9414-1.5352 7.6445-4.3242 10.434-2.7891 2.7852-6.4922 4.3086-10.434 4.3086z"/>
 </g>
</svg>
