<?xml version="1.0" encoding="UTF-8"?>
<svg width="1200pt" height="1200pt" version="1.1" viewBox="0 0 1200 1200" xmlns="http://www.w3.org/2000/svg">
 <g>
  <path d="m600 0c-78.793 0-156.82 15.52-229.61 45.672s-138.94 74.348-194.65 130.07c-55.719 55.715-99.914 121.86-130.07 194.65s-45.672 150.82-45.672 229.61c0 159.13 63.215 311.74 175.74 424.26 112.52 112.52 265.13 175.73 424.27 175.73 159.13 0 311.74-63.215 424.26-175.74 112.52-112.52 175.74-265.13 175.74-424.26 0-159.13-63.215-311.74-175.73-424.27-112.52-112.52-265.13-175.74-424.26-175.74zm0 67.762c69.121 0 137.56 13.766 201.42 40.516 63.859 26.746 121.88 65.953 170.76 115.38s87.645 108.1 114.09 172.67c26.453 64.574 40.066 133.79 40.066 203.68 0 141.16-55.457 276.53-154.16 376.34-98.707 99.816-232.58 155.89-372.18 155.89-69.121 0-137.57-13.766-201.43-40.516-63.855-26.746-121.88-65.949-170.76-115.37-48.875-49.422-87.645-108.1-114.1-172.67-26.449-64.574-40.066-133.79-40.066-203.68 0-69.898 13.613-139.11 40.066-203.68 26.449-64.574 65.219-123.25 114.1-172.68 48.875-49.422 106.9-88.625 170.76-115.38 63.859-26.746 132.3-40.512 201.43-40.512z" fill="#a8aaad"/>
  <path d="m900.92 270.85c-3.7578-2.0742-8.3398-1.9492-11.98 0.32422l-90.176 56.352-300.47-76.754v0.003906c-32.59-8.1484-66.891-6.168-98.324 5.6758-31.434 11.84-58.516 32.984-77.629 60.609s-29.352 60.418-29.352 94.012c-0.078126 25.125 5.6133 49.934 16.633 72.516 11.02 22.578 27.074 42.328 46.93 57.73 6.6523 5.1641 13.688 9.8203 21.043 13.926l41.547 193.87c1.4688 6.6758 4.8281 12.789 9.6797 17.605 4.8516 4.8164 10.984 8.1328 17.672 9.5508v12.66c0.023437 7.3008 2.3047 14.418 6.5352 20.371 4.2266 5.9531 10.195 10.453 17.082 12.879v49.406c0 29.531 15.754 56.816 41.328 71.582 25.574 14.766 57.082 14.766 82.656 0 25.574-14.766 41.328-42.051 41.328-71.582v-141.7c0-21.094 11.254-40.586 29.52-51.129 18.27-10.547 40.773-10.547 59.039 0 18.27 10.543 29.523 30.035 29.523 51.129v212.54c0 6.5234 5.2852 11.809 11.805 11.809 6.5234 0 11.809-5.2852 11.809-11.809v-212.54c0-29.531-15.754-56.816-41.328-71.582s-57.082-14.766-82.656 0-41.328 42.051-41.328 71.582v141.7c0 21.094-11.25 40.586-29.52 51.129-18.266 10.547-40.773 10.547-59.039 0-18.27-10.543-29.52-30.035-29.52-51.129v-49.406c6.8867-2.4258 12.855-6.9258 17.082-12.879s6.5117-13.07 6.5312-20.371v-13.984c6.8906-2.4258 12.855-6.9219 17.086-12.875 4.2266-5.9531 6.5078-13.07 6.5312-20.371v-118.08h11.809c9.3906-0.007813 18.395-3.7461 25.039-10.387 6.6406-6.6406 10.375-15.645 10.387-25.035v-39.785l210.57-53.793 90.176 56.352c3.6406 2.2812 8.2266 2.4023 11.984 0.32422 3.7578-2.082 6.0859-6.0391 6.0859-10.332v-259.78c-0.003907-4.293-2.3359-8.25-6.0898-10.332zm-584.31 140.22c0.015625-37.504 14.895-73.477 41.375-100.03 26.484-26.559 62.414-41.535 99.918-41.656 11.668 0.007812 23.297 1.4414 34.617 4.2812l296.41 75.723v123.36l-296.35 75.715c-42.309 10.574-87.133 1.0703-121.5-25.77-34.375-26.836-54.465-68.016-54.465-111.62zm165.31 389.66c-6.5195-0.003906-11.805-5.2891-11.809-11.809v-11.809h23.617v11.809c-0.003907 6.5195-5.2891 11.805-11.809 11.809zm23.617-47.23h-51.754c-5.5625-0.023437-10.367-3.9062-11.555-9.3438l-37.887-176.8c17.207 5.9648 35.289 9.0078 53.5 9.0078 13.656-0.007812 27.262-1.6914 40.508-5.0156l18.992-4.8516v175.19c-0.003906 6.5195-5.2852 11.801-11.805 11.809zm59.039-165.31c-0.003906 6.5195-5.2891 11.801-11.809 11.805h-11.809v-39.527l23.617-6.0312zm318.82-68.543-70.848-44.273v-128.61l70.848-44.273zm-330.62-108.58c0-25.055-9.9531-49.082-27.668-66.797-17.715-17.715-41.742-27.668-66.797-27.668-25.055 0-49.082 9.9531-66.797 27.668-17.715 17.715-27.668 41.742-27.668 66.797 0 25.051 9.9531 49.078 27.668 66.797 17.715 17.715 41.742 27.668 66.797 27.668 25.047-0.03125 49.055-9.9922 66.766-27.703 17.707-17.707 27.672-41.719 27.699-66.762zm-94.465 70.848c-18.789 0-36.809-7.4648-50.098-20.75-13.285-13.289-20.75-31.309-20.75-50.098 0-18.793 7.4648-36.812 20.75-50.098 13.289-13.289 31.309-20.75 50.098-20.75 18.789 0 36.812 7.4609 50.098 20.75 13.285 13.285 20.75 31.305 20.75 50.098-0.019532 18.781-7.4922 36.793-20.773 50.074s-31.289 20.754-50.074 20.773z"/>
 </g>
</svg>
