<?xml version="1.0" encoding="UTF-8"?>
<svg width="1200pt" height="1200pt" version="1.1" viewBox="0 0 1200 1200" xmlns="http://www.w3.org/2000/svg">
 <g>
  <path d="m600 0c-78.793 0-156.82 15.52-229.61 45.672s-138.94 74.348-194.65 130.07c-55.719 55.715-99.914 121.86-130.07 194.65s-45.672 150.82-45.672 229.61c0 159.13 63.215 311.74 175.74 424.26 112.52 112.52 265.13 175.73 424.27 175.73 159.13 0 311.74-63.215 424.26-175.74 112.52-112.52 175.74-265.13 175.74-424.26 0-159.13-63.215-311.74-175.73-424.27-112.52-112.52-265.13-175.74-424.26-175.74zm0 67.762c69.121 0 137.56 13.766 201.42 40.516 63.859 26.746 121.88 65.953 170.76 115.38s87.645 108.1 114.09 172.67c26.453 64.574 40.066 133.79 40.066 203.68 0 141.16-55.457 276.53-154.16 376.34-98.707 99.816-232.58 155.89-372.18 155.89-69.121 0-137.57-13.766-201.43-40.516-63.855-26.746-121.88-65.949-170.76-115.37-48.875-49.422-87.645-108.1-114.1-172.67-26.449-64.574-40.066-133.79-40.066-203.68 0-69.898 13.613-139.11 40.066-203.68 26.449-64.574 65.219-123.25 114.1-172.68 48.875-49.422 106.9-88.625 170.76-115.38 63.859-26.746 132.3-40.512 201.43-40.512z" fill="#a8aaad"/>
  <path d="m292.55 581.24c-20.602 16.375-45.586-15.031-24.977-31.422l298.31-237.56c20.398-16.242 47.852-16.242 68.242 0l298.32 237.56c20.602 16.391-4.3906 47.805-24.977 31.422l-298.32-237.56c-5.6523-4.5039-12.629-4.5039-18.289 0zm46.574 16.277v250.31c0 28.711 23.465 52.105 52.105 52.105h132.77c11.102 0 20.109-9.0078 20.109-20.109l0.003906-179.01h111.78v179.01c0 11.102 9 20.109 20.109 20.109h132.78c28.617 0 52.105-23.48 52.105-52.105l0.003906-250.31c0-26.473-40.219-26.473-40.219 0v250.31c0 6.6133-5.2734 11.887-11.879 11.887h-112.67v-179.01c0-11.102-9.0078-20.109-20.109-20.109h-152c-11.109 0-20.109 9.0078-20.109 20.109v179.01h-112.66c-6.6641 0-11.887-5.4492-11.887-11.887v-250.31c0-26.473-40.219-26.473-40.219 0z" fill-rule="evenodd"/>
 </g>
</svg>
