<?xml version="1.0" encoding="UTF-8"?>
<svg width="1200pt" height="1200pt" version="1.1" viewBox="0 0 1200 1200" xmlns="http://www.w3.org/2000/svg">
 <defs>
  <clipPath id="a">
   <path d="m222.14 225h755.71v750h-755.71z"/>
  </clipPath>
 </defs>
 <path d="m600 0c-78.793 0-156.82 15.52-229.61 45.672s-138.94 74.348-194.65 130.07c-55.719 55.715-99.914 121.86-130.07 194.65s-45.672 150.82-45.672 229.61c0 159.13 63.215 311.74 175.74 424.26 112.52 112.52 265.13 175.73 424.27 175.73 159.13 0 311.74-63.215 424.26-175.74 112.52-112.52 175.74-265.13 175.74-424.26 0-159.13-63.215-311.74-175.73-424.27-112.52-112.52-265.13-175.74-424.26-175.74zm0 67.762c69.121 0 137.56 13.766 201.42 40.516 63.859 26.746 121.88 65.953 170.76 115.38s87.645 108.1 114.09 172.67c26.453 64.574 40.066 133.79 40.066 203.68 0 141.16-55.457 276.53-154.16 376.34-98.707 99.816-232.58 155.89-372.18 155.89-69.121 0-137.57-13.766-201.43-40.516-63.855-26.746-121.88-65.949-170.76-115.37-48.875-49.422-87.645-108.1-114.1-172.67-26.449-64.574-40.066-133.79-40.066-203.68 0-69.898 13.613-139.11 40.066-203.68 26.449-64.574 65.219-123.25 114.1-172.68 48.875-49.422 106.9-88.625 170.76-115.38 63.859-26.746 132.3-40.512 201.43-40.512z" fill="#a8aaad"/>
 <path d="m697.51 426.4c20.16 0 36.566-16.402 36.566-36.566 0-20.164-16.406-36.566-36.566-36.566-20.16 0-36.566 16.402-36.566 36.566 0 20.164 16.406 36.566 36.566 36.566zm0-48.758c6.7188 0 12.188 5.4688 12.188 12.188s-5.4688 12.188-12.188 12.188-12.188-5.4688-12.188-12.188 5.4688-12.188 12.188-12.188z"/>
 <g clip-path="url(#a)">
  <path d="m885.65 362.36-11.371-10.234c-11.633-10.469-18.309-25.453-18.309-41.105 0-10.023 2.7266-19.863 7.8828-28.457l26.949-44.914-20.906-12.543-26.945 44.91c-7.4297 12.383-11.359 26.562-11.359 41.004 0 22.555 9.6172 44.141 26.379 59.23l11.371 10.234c24.324 21.891 43.91 48.082 58.055 76.895-56.375 18.859-140.88 29.973-229.88 29.973-89 0-173.49-11.109-229.87-29.965 14.23-28.941 33.902-55.172 58.039-76.898l11.371-10.234c16.766-15.094 26.379-36.684 26.379-59.234 0-14.441-3.9258-28.617-11.355-40.996l-26.945-44.918-20.906 12.543 26.949 44.914c5.1562 8.5938 7.8828 18.434 7.8828 28.457 0 15.652-6.6719 30.637-18.309 41.109l-11.371 10.234c-43.656 39.293-73.988 92.012-86.16 149.36l-53.09-0.003906c-20.422 0-39.379 10.145-50.711 27.141l-24.852 37.281c-7.5078 11.258-11.477 24.367-11.477 37.898 0 37.676 30.652 68.328 68.328 68.328h29.184v146.27c0 22.676 15.562 41.785 36.566 47.211v13.73c0 6.7188-5.4688 12.188-12.188 12.188l-146.27 0.003906c-20.16 0-36.566 16.406-36.566 36.566 0 20.16 16.406 36.566 36.566 36.566h268.16v-24.379l-268.16 0.003907c-6.7188 0-12.188-5.4688-12.188-12.188s5.4688-12.188 12.188-12.188h146.27c20.16 0 36.566-16.406 36.566-36.566v-13.73c21.004-5.4258 36.566-24.535 36.566-47.211v-81.828l66.379 106.21h306.04l84.98-135.97c27.699-44.32 42.34-95.371 42.34-147.63 0.007813-78.852-33.605-154.32-92.203-207.06zm-72.727 143.17c-39.031 49.648-69.578 104.91-90.93 164.7l-4.0391 11.309c-6.3711 0.53125-13.18 0.83594-20.438 0.83594s-14.066-0.30469-20.438-0.83594l-4.0391-11.309c-21.352-59.789-51.902-115.05-90.93-164.7 36.047 4.0547 75.027 6.1953 115.41 6.1953s79.359-2.1406 115.41-6.1953zm-442.79 30.574h118.46c12.254 0 23.629 6.0859 30.426 16.281l5.3984 8.0938-190.11 0.003906 5.3984-8.0938c6.7969-10.199 18.168-16.285 30.426-16.285zm-62.66 77.941c0-8.7031 2.5547-17.133 7.3828-24.379l3.207-4.8086h222.61l3.207 4.8086c4.8281 7.2422 7.3828 15.672 7.3828 24.379 0 24.234-19.715 43.949-43.949 43.949h-155.89c-24.234 0-43.945-19.715-43.945-43.949zm121.89 238.97c-13.441 0-24.379-10.938-24.379-24.379v-146.27h48.754v146.27c0.003906 13.441-10.934 24.379-24.375 24.379zm50.824-148.9c-0.69141-1.1094-1.3828-2.2344-2.0664-3.3672v-18.383h29.184c37.676 0 68.328-30.652 68.328-68.328 0-13.531-3.9688-26.641-11.477-37.898l-24.852-37.281c-11.332-16.992-30.285-27.141-50.711-27.141h-40.391c2.5352-10.848 5.7773-21.504 9.7031-31.891 25.207 8.6289 55.277 15.672 88.703 20.926 45.055 52.254 79.734 111.64 103.09 176.62-24.582-5.6641-37.496-14.73-37.496-19.379h-24.379c0 29.617 47.262 46.16 97.512 48.465v122.18h-127.32zm434.66 0.003907-77.82 124.52h-127.32v-122.18c50.25-2.3047 97.512-18.844 97.512-48.465h-24.379c0 4.6484-12.914 13.715-37.5 19.387 23.348-64.977 58.031-124.36 103.09-176.62 33.426-5.2539 63.492-12.297 88.699-20.926 10.688 28.359 16.359 58.68 16.359 89.574 0 47.688-13.359 94.273-38.637 134.71z"/>
 </g>
 <path d="m441.55 621.42c0 6.7305-5.457 12.188-12.191 12.188-6.7305 0-12.188-5.457-12.188-12.188 0-6.7344 5.457-12.191 12.188-12.191 6.7344 0 12.191 5.457 12.191 12.191"/>
 <path d="m392.79 621.42c0 6.7305-5.457 12.188-12.188 12.188-6.7344 0-12.191-5.457-12.191-12.188 0-6.7344 5.457-12.191 12.191-12.191 6.7305 0 12.188 5.457 12.188 12.191"/>
 <path d="m490.3 621.42c0 6.7305-5.457 12.188-12.188 12.188-6.7344 0-12.191-5.457-12.191-12.188 0-6.7344 5.457-12.191 12.191-12.191 6.7305 0 12.188 5.457 12.188 12.191"/>
</svg>
