<?xml version="1.0" encoding="UTF-8"?>
<svg width="1200pt" height="1200pt" version="1.1" viewBox="0 0 1200 1200" xmlns="http://www.w3.org/2000/svg">
 <defs>
  <clipPath id="b">
   <path d="m222.14 249h98.855v701h-98.855z"/>
  </clipPath>
  <clipPath id="a">
   <path d="m809 440h168.86v230h-168.86z"/>
  </clipPath>
 </defs>
 <path d="m600 0c-78.793 0-156.82 15.52-229.61 45.672s-138.94 74.348-194.65 130.07c-55.719 55.715-99.914 121.86-130.07 194.65s-45.672 150.82-45.672 229.61c0 159.13 63.215 311.74 175.74 424.26 112.52 112.52 265.13 175.73 424.27 175.73 159.13 0 311.74-63.215 424.26-175.74 112.52-112.52 175.74-265.13 175.74-424.26 0-159.13-63.215-311.74-175.73-424.27-112.52-112.52-265.13-175.74-424.26-175.74zm0 67.762c69.121 0 137.56 13.766 201.42 40.516 63.859 26.746 121.88 65.953 170.76 115.38s87.645 108.1 114.09 172.67c26.453 64.574 40.066 133.79 40.066 203.68 0 141.16-55.457 276.53-154.16 376.34-98.707 99.816-232.58 155.89-372.18 155.89-69.121 0-137.57-13.766-201.43-40.516-63.855-26.746-121.88-65.949-170.76-115.37-48.875-49.422-87.645-108.1-114.1-172.67-26.449-64.574-40.066-133.79-40.066-203.68 0-69.898 13.613-139.11 40.066-203.68 26.449-64.574 65.219-123.25 114.1-172.68 48.875-49.422 106.9-88.625 170.76-115.38 63.859-26.746 132.3-40.512 201.43-40.512z" fill="#a8aaad"/>
 <path d="m495.71 949.9c-4.5352 0-8.3125-3.7773-8.3125-8.3125l-0.003906-118.65c0-2.2656 0.75391-4.5352 2.2656-6.0469l50.633-50.633c3.0234-3.0234 8.3125-3.0234 11.336 0 3.0234 3.0234 3.0234 8.3125 0 11.336l-47.605 49.121v115.62c0 3.7773-3.7812 7.5586-8.3125 7.5586z"/>
 <g clip-path="url(#b)">
  <path d="m298.47 949.9c-3.0234 0-5.2891-1.5117-6.8008-3.7773-46.855-77.086-70.281-160.21-69.527-247.12 0-54.41 14.359-108.82 40.809-161.72 8.3125-16.625 15.871-34.008 21.914-50.633l11.336-37.785c26.453-113.36-18.137-185.15-18.891-185.91-2.2695-3.7773-1.5117-9.0703 2.2656-12.09 3.7773-2.2656 9.0703-1.5117 11.336 2.2656 2.2656 3.0234 49.121 78.594 21.16 198.75l-11.336 38.543c-6.0469 18.137-13.602 35.52-22.672 52.898-25.691 51.387-39.297 103.53-39.297 155.68 0 83.883 21.914 164.75 66.504 238.8 2.2656 3.7773 0.75391 9.0703-3.0234 11.336-0.75391 0.75781-2.2656 0.75781-3.7773 0.75781z"/>
 </g>
 <path d="m697.49 949.9c-1.5117 0-3.0234 0-4.5352-1.5117-3.7773-2.2656-5.2891-7.5586-3.0234-11.336 44.586-74.059 67.258-154.92 66.504-238.8 0-52.145-13.602-104.29-39.297-154.16l-13.602-28.719c-2.2656-3.7773 0-9.0703 3.7773-11.336s9.0703 0 11.336 3.7773l13.602 28.719c27.207 52.898 40.809 107.31 40.809 161.72 0.75391 86.906-22.672 170.79-68.77 247.12-0.75391 3.0234-3.7773 4.5352-6.8008 4.5352z"/>
 <path d="m683.13 382.36c-4.5352 0-8.3125-3.7773-8.3125-8.3125 0.75391-74.059 28.719-118.65 30.23-120.16 2.2656-3.7773 7.5586-5.2891 11.336-2.2656 3.7773 2.2656 5.2891 7.5586 2.2656 11.336 0 0.75391-26.449 42.32-27.207 111.85 0 3.7773-3.7773 7.5547-8.3125 7.5547z"/>
 <path d="m495.71 831.25c-2.2656 0-4.5352-0.75391-6.0469-2.2656l-50.633-50.633c-3.0234-3.0234-3.0234-8.3125 0-11.336 3.0234-3.0234 8.3125-3.0234 11.336 0l50.633 50.633c3.0234 3.0234 3.0234 8.3125 0 11.336-1.5117 1.5117-3.0234 2.2656-5.2891 2.2656z"/>
 <path d="m525.94 615.12c-47.609 0-96.73-9.8242-137.54-29.473-3.0234-1.5117-4.5352-4.5352-4.5352-7.5586v-51.387c0-2.2656 0.75391-4.5352 3.0234-6.8008 142.07-115.62 256.94-133 432.27-126.2 24.184 0.75391 49.121 4.5352 63.48 22.672 9.8242 12.848 12.09 30.23 6.0469 46.098-6.8008 17.383-21.914 29.473-40.809 32.496-12.848 2.2656-24.938 0-37.031-2.2656l-3.0234-0.75391c-48.367-9.0703-98.242-10.578-147.36-3.7773-12.848 1.5117-28.719 5.2891-33.25 15.113-6.0469 12.848 9.8242 37.031 24.184 58.191 3.0234 3.7773 5.2891 8.3125 7.5586 12.09 1.5117 2.2656 1.5117 4.5352 0.75391 6.8008-0.75391 2.2656-2.2656 3.7773-3.7773 5.2891-35.523 19.645-81.621 29.469-129.99 29.469zm-125.45-41.566c74.816 33.25 174.57 34.008 239.56 1.5117-0.75391-1.5117-1.5117-3.0234-3.0234-4.5352-17.383-26.449-34.762-53.656-24.938-74.816 6.0469-12.848 21.16-21.16 46.098-24.184 50.633-6.8008 102.02-5.2891 151.9 3.7773l3.0234 0.75391c11.336 2.2656 21.914 3.7773 31.738 2.2656 12.848-2.2656 23.426-10.578 27.961-21.914 3.7773-10.578 2.2656-21.16-3.7773-29.473-10.578-13.602-31.738-15.871-50.633-16.625-173.06-6.0391-280.37 10.586-417.91 120.92z"/>
 <path d="m526.7 566c-48.367 0-97.488-9.8242-137.54-29.473-3.7773-2.2656-6.0469-6.8008-3.7773-11.336 2.2656-3.7773 6.8008-6.0469 11.336-3.7773 54.41 25.695 129.23 34.762 191.2 21.914 4.5352-0.75391 9.0703 2.2656 9.8242 6.8008 0.75391 4.5352-2.2656 9.0703-6.8008 9.8242-21.164 3.7773-43.082 6.0469-64.238 6.0469z"/>
 <path d="m866.77 776.08c-2.2656 0-4.5352-0.75391-6.0469-3.0234-3.0234-3.7773-2.2656-9.0703 0.75391-11.336 17.383-14.359 37.031-32.496 51.387-54.41 18.895-27.207 26.449-52.145 24.184-77.082-0.75391-4.5352 3.0234-8.3125 7.5586-9.0703 4.5352-0.75391 8.3125 3.0234 9.0703 7.5586 3.0234 28.719-6.0469 57.434-27.207 87.664-15.867 23.426-36.273 42.32-54.41 57.434-1.5117 1.5117-3.0234 2.2656-5.2891 2.2656z"/>
 <g clip-path="url(#a)">
  <path d="m882.64 669.53c-12.09 0-23.426-2.2656-34.762-7.5586-23.426-10.578-37.785-29.473-38.543-51.387-0.75391-22.672 11.336-45.344 31.738-55.922 17.383-9.8242 37.785-11.336 57.434-3.7773 18.137 6.8008 34.008 20.402 43.832 39.297 2.2656 3.7773 0.75391 9.0703-3.0234 11.336s-9.0703 0.75391-11.336-3.0234c-8.3125-15.113-20.402-26.449-35.52-31.738-14.359-5.2891-30.23-4.5352-43.074 3.0234-14.359 7.5586-23.426 24.938-22.672 40.809 0.75391 15.871 10.578 28.719 28.719 37.031 24.938 11.336 52.898 6.8008 74.059-11.336 30.23-25.695 40.055-72.547 26.449-124.69-8.3125-31.738-37.785-54.41-71.793-54.41-4.5352 0-8.3125-3.7773-8.3125-8.3125 0-4.5352 3.7773-8.3125 8.3125-8.3125 40.809 0 77.082 27.207 87.664 66.504 15.871 58.191 3.7773 111.09-31.738 141.32-17.383 13.59-37.031 21.148-57.434 21.148z"/>
 </g>
 <path d="m495.71 671.79c-15.871 0-31.738-5.2891-45.344-15.113-3.7773-3.0234-4.5352-7.5586-1.5117-11.336s7.5586-4.5352 11.336-1.5117c20.402 14.359 46.855 15.871 68.016 2.2656l3.7773-2.2656c3.7773-2.2656 9.0703-1.5117 11.336 2.2656s1.5117 9.0703-2.2656 11.336l-3.7773 2.2656c-13.605 7.5625-27.965 12.094-41.566 12.094z"/>
 <path d="m494.96 715.62c-26.449 0-52.898-8.3125-75.57-24.938-3.7773-3.0234-4.5352-7.5586-1.5117-11.336 3.0234-3.7773 7.5586-4.5352 11.336-1.5117 37.031 27.207 86.152 28.719 125.45 3.7773l6.8008-4.5352c3.7773-2.2656 9.0703-1.5117 11.336 2.2656s1.5117 9.0703-2.2656 11.336l-6.8008 4.5352c-21.164 13.605-44.59 20.406-68.773 20.406z"/>
</svg>
