<?xml version="1.0" encoding="UTF-8"?>
<svg width="1200pt" height="1200pt" version="1.1" viewBox="0 0 1200 1200" xmlns="http://www.w3.org/2000/svg">
 <g>
  <path d="m600 0c-78.793 0-156.82 15.52-229.61 45.672s-138.94 74.348-194.65 130.07c-55.719 55.715-99.914 121.86-130.07 194.65s-45.672 150.82-45.672 229.61c0 159.13 63.215 311.74 175.74 424.26 112.52 112.52 265.13 175.73 424.27 175.73 159.13 0 311.74-63.215 424.26-175.74 112.52-112.52 175.74-265.13 175.74-424.26 0-159.13-63.215-311.74-175.73-424.27-112.52-112.52-265.13-175.74-424.26-175.74zm0 67.762c69.121 0 137.56 13.766 201.42 40.516 63.859 26.746 121.88 65.953 170.76 115.38s87.645 108.1 114.09 172.67c26.453 64.574 40.066 133.79 40.066 203.68 0 141.16-55.457 276.53-154.16 376.34-98.707 99.816-232.58 155.89-372.18 155.89-69.121 0-137.57-13.766-201.43-40.516-63.855-26.746-121.88-65.949-170.76-115.37-48.875-49.422-87.645-108.1-114.1-172.67-26.449-64.574-40.066-133.79-40.066-203.68 0-69.898 13.613-139.11 40.066-203.68 26.449-64.574 65.219-123.25 114.1-172.68 48.875-49.422 106.9-88.625 170.76-115.38 63.859-26.746 132.3-40.512 201.43-40.512z" fill="#a8aaad"/>
  <path d="m600 297.71c-19.27 0-37.031 9.6719-47.457 25.844-49.652 77.082-108.82 184.47-108.82 258.08 0 104.52 58.492 181.98 141.17 190.44v115.09c0 8.3125 6.8008 15.113 15.113 15.113s15.113-6.8008 15.113-15.113v-115.09c37.258-3.8555 71.039-22.066 96.277-52.297 29.32-35.141 44.891-82.902 44.891-138.14 0-73.605-59.172-180.99-108.82-258.08-10.43-16.172-28.188-25.844-47.457-25.844zm88.191 402.72c-19.348 23.125-44.891 37.406-73.078 41.109v-38.617l44.586-44.586c5.8945-5.8945 5.8945-15.492 0-21.387s-15.492-5.8945-21.387 0l-23.199 23.199v-68.391l44.586-44.586c5.8945-5.8945 5.8945-15.492 0-21.387-5.8945-5.8945-15.492-5.8945-21.387 0l-23.199 23.199v-115.25c0-8.3125-6.8008-15.113-15.113-15.113s-15.113 6.8008-15.113 15.113v61.363l-23.199-23.199c-5.8945-5.8945-15.492-5.8945-21.387 0s-5.8945 15.492 0 21.387l44.586 44.586v75.801l-23.199-23.199c-5.8945-5.8945-15.492-5.8945-21.387 0s-5.8945 15.492 0 21.387l44.586 44.586v85.094c-65.066-8.6914-110.94-73.23-110.94-159.91 0-69.754 65.141-181.37 104.06-241.75 4.9141-7.6328 12.922-12.016 21.992-12.016 9.0703 0 17.078 4.3828 21.992 12.016 38.844 60.305 104.06 171.93 104.06 241.75 0 48.062-13.074 89.098-37.859 118.72z"/>
 </g>
</svg>
