<?xml version="1.0" encoding="UTF-8"?>
<svg width="1200pt" height="1200pt" version="1.1" viewBox="0 0 1200 1200" xmlns="http://www.w3.org/2000/svg">
 <g>
  <path d="m600 0c-78.793 0-156.82 15.52-229.61 45.672s-138.94 74.348-194.65 130.07c-55.719 55.715-99.914 121.86-130.07 194.65s-45.672 150.82-45.672 229.61c0 159.13 63.215 311.74 175.74 424.26 112.52 112.52 265.13 175.73 424.27 175.73 159.13 0 311.74-63.215 424.26-175.74 112.52-112.52 175.74-265.13 175.74-424.26 0-159.13-63.215-311.74-175.73-424.27-112.52-112.52-265.13-175.74-424.26-175.74zm0 67.762c69.121 0 137.56 13.766 201.42 40.516 63.859 26.746 121.88 65.953 170.76 115.38s87.645 108.1 114.09 172.67c26.453 64.574 40.066 133.79 40.066 203.68 0 141.16-55.457 276.53-154.16 376.34-98.707 99.816-232.58 155.89-372.18 155.89-69.121 0-137.57-13.766-201.43-40.516-63.855-26.746-121.88-65.949-170.76-115.37-48.875-49.422-87.645-108.1-114.1-172.67-26.449-64.574-40.066-133.79-40.066-203.68 0-69.898 13.613-139.11 40.066-203.68 26.449-64.574 65.219-123.25 114.1-172.68 48.875-49.422 106.9-88.625 170.76-115.38 63.859-26.746 132.3-40.512 201.43-40.512z" fill="#a8aaad"/>
  <path d="m600 269.38c-65.742 0.078125-128.77 26.227-175.26 72.711-46.484 46.488-72.633 109.52-72.711 175.26 0 233.61 224.35 401.64 233.96 408.68v0.003907c4.0586 2.9883 8.9648 4.5977 14.004 4.5977 5.043 0 9.9492-1.6094 14.008-4.5977 9.5664-7.0859 233.96-175.07 233.96-408.56h-0.003906c-0.042969-65.766-26.176-128.82-72.668-175.34-46.488-46.512-109.54-72.676-175.3-72.754zm0 607.38c-47.727-39.887-200.73-181.7-200.73-359.41 0-53.238 21.148-104.3 58.793-141.94 37.645-37.645 88.703-58.793 141.94-58.793 53.242 0 104.3 21.148 141.95 58.793 37.645 37.645 58.793 88.703 58.793 141.94 0 177.71-153.01 319.53-200.74 359.41zm0-512.92c-37.578 0-73.621 14.93-100.19 41.504-26.574 26.574-41.504 62.613-41.504 100.2 0 37.578 14.93 73.621 41.504 100.19 26.57 26.574 62.613 41.504 100.19 41.504 37.582 0 73.621-14.93 100.2-41.504 26.574-26.57 41.504-62.613 41.504-100.19-0.039063-37.57-14.98-73.59-41.543-100.16-26.566-26.562-62.586-41.504-100.16-41.543zm0 236.16c-25.051 0-49.078-9.9492-66.793-27.668-17.719-17.715-27.668-41.742-27.668-66.793 0-25.055 9.9492-49.082 27.668-66.797 17.715-17.715 41.742-27.668 66.793-27.668 25.055 0 49.082 9.9531 66.797 27.668 17.715 17.715 27.668 41.742 27.668 66.797 0 25.051-9.9531 49.078-27.668 66.793-17.715 17.719-41.742 27.668-66.797 27.668z"/>
 </g>
</svg>
