<?xml version="1.0" encoding="UTF-8"?>
<svg width="1200pt" height="1200pt" version="1.1" viewBox="0 0 1200 1200" xmlns="http://www.w3.org/2000/svg">
 <g>
  <path d="m600 0c-78.793 0-156.82 15.52-229.61 45.672s-138.94 74.348-194.65 130.07c-55.719 55.715-99.914 121.86-130.07 194.65s-45.672 150.82-45.672 229.61c0 159.13 63.215 311.74 175.74 424.26 112.52 112.52 265.13 175.73 424.27 175.73 159.13 0 311.74-63.215 424.26-175.74 112.52-112.52 175.74-265.13 175.74-424.26 0-159.13-63.215-311.74-175.73-424.27-112.52-112.52-265.13-175.74-424.26-175.74zm0 67.762c69.121 0 137.56 13.766 201.42 40.516 63.859 26.746 121.88 65.953 170.76 115.38s87.645 108.1 114.09 172.67c26.453 64.574 40.066 133.79 40.066 203.68 0 141.16-55.457 276.53-154.16 376.34-98.707 99.816-232.58 155.89-372.18 155.89-69.121 0-137.57-13.766-201.43-40.516-63.855-26.746-121.88-65.949-170.76-115.37-48.875-49.422-87.645-108.1-114.1-172.67-26.449-64.574-40.066-133.79-40.066-203.68 0-69.898 13.613-139.11 40.066-203.68 26.449-64.574 65.219-123.25 114.1-172.68 48.875-49.422 106.9-88.625 170.76-115.38 63.859-26.746 132.3-40.512 201.43-40.512z" fill="#a8aaad"/>
  <path d="m612.93 328.89c-0.1875-0.050781 0.15234 0.050781-0.074219-0.011719-0.10156-0.023437-0.1875-0.050781-0.28906-0.074218-1.5625-0.32813-3.4375-0.11328-5.5781 0.56641-0.49219 0.28906-0.96875 0.56641-1.4727 0.84375-0.70703 0.39062-1.4492 0.60547-2.2031 0.64062-11.324 5.4414-27.773 20.379-43.605 37.66-21.84 23.832-41.805 51.906-45.898 66.504l-0.13672 0.55469c-0.039063 0.13672-0.074219 0.26562-0.125 0.40234-0.95703 3.9531-0.90625 6.8633-0.011719 9.2188 0.93359 2.4453 2.9102 4.6367 5.6914 6.9648 2.7969 2.3438 5.2891 3.918 7.8594 4.4102 2.543 0.48047 5.5312-0.023437 9.4609-1.8008 14.133-6.3984 40.367-33.328 60.758-60.621 12.469-16.688 22.672-33.215 26.262-44.613 0-0.54297 0.089844-1.0977 0.27734-1.625 0.1875-0.54297 0.37891-1.0703 0.59375-1.5977 0.61719-2.832 0.70703-5.2539 0.16406-7.1406-0.32812-1.1602-2.1914-3.2227-4.4453-5.2656-2.7344-2.4688-5.6914-4.5703-7.2422-5zm-354.3 277.94c47.699-34.047 97.738-68.809 153.85-97.613 17.344-8.9062 35.242-17.219 53.82-24.762 2.0156-3.3125 4.207-6.6484 6.5742-10.012 8.4883-12.078 19.082-24.371 29.988-35.52l0.050781-0.050781c0.15234-1.6758 0.45312-3.4492 0.91797-5.3672 0.023437-0.15234 0.050781-0.30078 0.089843-0.44141l0.21484-0.78125c4.4844-15.984 25.43-45.723 48.176-70.547 16.148-17.621 33.492-32.875 47.207-39.484 0.31641-0.31641 0.67969-0.59375 1.082-0.82031 9.6992-5.4531 17.785-13.25 26.035-21.184 3.6016-3.4766 7.2422-6.9648 11.184-10.441 0.39062-0.40234 0.86719-0.75391 1.3984-1.0078 2.8828-1.4102 5.8203-1.875 8.6289-1.6133 1.5117 0.13672 2.9609 0.49219 4.332 1.0195 52.055-53.516 98.105-38.77 142.28-24.609 28.629 9.168 56.414 18.074 83.684 5.8555 2.5312-1.1328 5.5039 0.011719 6.6367 2.543 1.1328 2.5312-0.011719 5.5039-2.543 6.6367-30.77 13.793-60.355 4.3086-90.848-5.4531-41.125-13.176-83.996-26.902-131.63 21.652 0.62891 1.1211 1.1211 2.332 1.4727 3.6016 0.74219 2.7344 0.79297 5.707-0.089844 8.7773h-0.011718c-0.125 0.41406-0.30078 0.83203-0.52734 1.2227-3.3633 5.543-7.168 10.68-10.969 15.832-6.4727 8.7539-12.949 17.508-16.262 26.965-0.125 0.36719-0.28906 0.69141-0.48047 1.0078-4.2188 13.414-14.688 30.848-27.484 47.949-16.953 22.684-38.152 45.305-53.934 57.094 16.473-3.8672 33.465-7.0547 51.035-9.4609 28.805-3.9531 56.375-0.1875 83.215 10.277 26.59 10.367 52.41 27.344 77.914 49.914 5.6289 4.9141 8.4023 9.8477 8.957 13.805 0.32812 2.293-0.023437 4.3828-0.95703 6.1445-1.0469 1.9648-2.707 3.4023-4.8867 4.1953-2.9219 1.0586-6.8008 0.84375-11.16-1.1211-0.33984-0.15234-0.65625-0.33984-0.94531-0.55469-42.117-31.438-74.172-45.809-105.76-45.141-31.676 0.67969-63.605 16.473-105.33 45.355-20.844 14.422-41.035 30.492-60.531 45.996-40.316 32.066-77.699 61.805-113.96 71.555-14.246 3.8281-34.16 6.2344-54.992 6.4727-18.781 0.21484-38.352-1.3359-55.219-5.2031-5.918-1.3594-10.379-3.3008-13.504-5.7188-3.6406-2.8086-5.5547-6.2461-5.9062-10.152-0.32812-3.6016 0.76953-7.3555 3.1367-11.16 3.125-5.0117 8.6289-10.328 16.059-15.629l0.011718 0.011719zm200.29-108.38c-14.332 6.1445-28.277 12.758-41.855 19.738v-0.011719c-55.418 28.441-105.16 63-152.59 96.855-6.3477 4.5352-10.922 8.8672-13.34 12.758-1.2227 1.9531-1.8008 3.6406-1.6875 4.9766 0.089844 1.0312 0.75391 2.0664 2.0547 3.0742 1.9766 1.5352 5.1406 2.832 9.5977 3.8672 16.098 3.6914 34.852 5.1758 52.887 4.9609 19.926-0.22656 38.918-2.5195 52.473-6.1602 34.258-9.207 70.848-38.316 110.31-69.703 19.559-15.555 39.812-31.664 61.086-46.387 43.328-29.988 76.832-46.387 110.85-47.117 33.98-0.73047 67.762 14.168 111.53 46.766 0.98438 0.41406 1.7617 0.62891 2.332 0.69141-0.44141-1.7891-2.168-4.2695-5.5312-7.2031l-0.023438-0.011719c-24.625-21.789-49.461-38.137-74.941-48.09-25.254-9.8477-51.176-13.391-78.215-9.6875-25.895 3.5508-50.52 8.8281-74.074 15.492-8.1367 10.957-16.777 21.199-25.594 29.875-8.7266 8.5898-17.633 15.645-26.387 20.316l-28.766 20.09c-1.4375 1.1602-3.4648 1.4727-5.2539 0.64062-2.5195-1.1602-3.6289-4.1445-2.457-6.6758l15-32.27c0.73047-2.2031 1.5977-4.4727 2.6055-6.7617zm46.25-47.422c-8.7773 9.3594-17.156 19.359-24.082 29.207-6.9141 9.8359-12.344 19.461-15.191 27.988-0.42969 3.6914-0.15234 5.8711 0.79297 6.6367 0.94531 0.76953 3.1875 0.59375 6.625-0.45312 7.8203-4.2305 15.855-10.617 23.805-18.438 8.7773-8.6289 17.445-19.008 25.633-30.164-3.5273-1.1328-6.7148-3.1875-9.9883-5.9453-3.2891-2.7578-5.8711-5.543-7.6094-8.8281zm126.73-119.11c2.9844-4.6719 6.3086-9.168 9.6367-13.664 3.5391-4.7852 7.0781-9.5859 10.039-14.371 0.21484-1.0469 0.1875-2.0039-0.050781-2.8477-0.27734-1.0195-0.84375-1.9648-1.625-2.7695-0.91797-0.60547-1.9414-0.99609-2.9844-1.082-0.88281-0.074219-1.8281 0.050781-2.8086 0.44141-3.5508 3.1484-7.0547 6.5234-10.531 9.875-4.75 4.5703-9.4453 9.0938-14.484 13.25 2.4805 1.3867 5.3008 3.4648 7.7852 5.707 1.8906 1.7148 3.6523 3.6016 5.0117 5.4648zm-318.45 271.75c-1.3477 1.082-3.3242 0.86719-4.4219-0.48047-1.082-1.3477-0.86719-3.3242 0.48047-4.4219 4.2695-3.4492 8.7539-6.7383 13.34-9.7617 4.457-2.9492 9.043-5.6562 13.652-8.0625 1.5352-0.79297 3.4375-0.1875 4.2305 1.3477s0.1875 3.4375-1.3477 4.2305c-4.3945 2.2812-8.7773 4.8867-13.074 7.707-4.4453 2.9336-8.7656 6.1094-12.871 9.4219l0.011719 0.011719zm83.305 154.93c-2.0156-0.26562-4.0195-0.52734-6.0312-0.80469l-3.8555-0.55469-1.4727 9.9609c2.6211 0.39062 5.2266 0.75391 7.8477 1.1094l2.2305 0.28906 1.2852-10zm344.78-151.09c-1.2227 1.7148-2.457 3.4141-3.6914 5.125l-2.168 2.9336 8.0742 6.0312 2.2305-3.0352c1.2578-1.7383 2.5195-3.4648 3.7656-5.2148l-8.1992-5.8555-0.011719 0.011719zm-24.473 31.438c-1.6641 1.9648-3.3633 3.9062-5.0742 5.832l-1.4844 1.6641 7.4961 6.7383c0.88281-0.98438 1.7617-1.9766 2.6445-2.9727 1.3594-1.5625 2.7188-3.125 4.0664-4.7109l-7.6445-6.5625v0.011718zm-27.281 28.98c-1.5625 1.5-3.1367 2.9844-4.7109 4.457l-2.543 2.332 6.7617 7.4688c2.0898-1.9023 4.1562-3.8281 6.2109-5.7695l1.2578-1.2109-6.9766-7.2812zm-30.09 25.922-3.6406 2.7578c-1.4375 1.0703-2.8828 2.1289-4.332 3.1875l5.8828 8.1758c1.5-1.082 2.9961-2.1914 4.4844-3.2891 1.2344-0.93359 2.4805-1.875 3.7148-2.8086zm-32.836 22.305c-2.832 1.7148-5.7188 3.3516-8.6016 4.9609l4.8867 8.8164c1.3711-0.76953 2.7344-1.5352 4.1055-2.3164 1.5859-0.91797 3.1875-1.8398 4.7617-2.7969l-5.1406-8.6641zm-35.242 18.148c-1.9258 0.83203-3.8398 1.6641-5.7812 2.4688-1.1211 0.46484-2.2422 0.93359-3.375 1.3867l3.7266 9.3594c2.1797-0.85547 4.3438-1.7617 6.5-2.6836l2.9336-1.2734zm-37.23 13.652c-1.9883 0.59375-3.9805 1.1602-5.9844 1.7148-1.1836 0.32813-2.3789 0.64063-3.5625 0.96875l2.5586 9.75c1.2344-0.32812 2.4805-0.66797 3.7148-1.0078 1.5859-0.44141 3.1758-0.89453 4.7617-1.3594l1.3594-0.40234-2.832-9.6719-0.011719 0.011719zm-38.656 9.043c-1.8633 0.33984-3.7422 0.62891-5.6172 0.93359-1.3984 0.21484-2.7969 0.42969-4.207 0.61719l1.4102 9.9766 2.6445-0.39062c2.4805-0.39062 4.9766-0.76953 7.4453-1.2109l-1.6875-9.9375zm-39.461 4.5586c-3.3125 0.1875-6.625 0.35156-9.9375 0.46484l0.33984 10.078c2.2812-0.074219 4.5469-0.17578 6.8281-0.28906l3.3359-0.1875-0.56641-10.062zm-39.801 0.39062-2.6445-0.11328c-1.8281-0.089844-3.6641-0.17578-5.4922-0.27734l-1.8125-0.11328-0.62891 10.051c2.4922 0.15234 5 0.28906 7.4961 0.40234l2.6836 0.11328 0.41406-10.062zm-83.016-30.707c1.0703-2.5703 4.0312-3.7656 6.5859-2.6953 2.5703 1.0703 3.7656 4.0312 2.6953 6.5859-3.9805 9.4727-8.0742 18.629-12.332 27.457-3.4883 7.2188-7.0391 14.105-10.68 20.633 20.191 6.6992 42.938 11.285 67.121 13.715 0.41406-0.011719 0.83203 0.023437 1.2461 0.125 21.148 2.0664 43.379 2.4805 65.949 1.2461 0.1875-0.023437 0.39062-0.039062 0.59375-0.039062 3.1367-0.17578 6.2734-0.37891 9.4102-0.61719 0.1875-0.023437 0.40234-0.050781 0.59375-0.050781 4.1328-0.31641 8.2617-0.69141 12.395-1.1211 0.1875-0.039062 0.39062-0.0625 0.57812-0.089844 0.13672-0.011718 0.26562-0.011718 0.40234-0.011718 6.5742-0.69141 13.176-1.5352 19.75-2.5078l0.039063-0.011719c0.20312-0.039062 0.40234-0.074218 0.60547-0.089843 2.8477-0.42969 5.6914-0.88281 8.5273-1.3594 0.13672-0.050782 0.26562-0.10156 0.41406-0.15234 0.59375-0.1875 1.1953-0.26562 1.7891-0.22656 9.4961-1.6484 18.957-3.5898 28.312-5.8438 0.20313-0.0625 0.41406-0.11328 0.61719-0.15234 9.9766-2.4062 19.836-5.1523 29.523-8.2383 1.9531-0.61719 3.8906-1.2578 5.832-1.9023 0.039062-0.011719 0.074219-0.023438 0.11328-0.050781 0.15234-0.0625 0.30078-0.10156 0.45312-0.15234 3.1484-1.0586 6.2852-2.168 9.3828-3.3008 0.60547-0.40234 1.3242-0.65625 2.0391-0.75391 19.219-7.1523 37.52-15.707 54.324-25.707 0.17578-0.11328 0.35156-0.22656 0.52734-0.31641 12.66-7.5703 24.461-15.957 35.164-25.164 0.35156-0.41406 0.75391-0.76953 1.1953-1.0312 22.078-19.27 39.371-42.105 49.688-68.555 0.99609-2.582 3.9062-3.8789 6.5-2.8711 0.23828 0.089844 0.48047 0.20312 0.69141 0.32812 25.73 13.438 54.852 19.207 81.934 14.949 24.348-3.8281 47.082-15.809 64.234-37.684 1.6992-2.1797 4.8633-2.5703 7.0391-0.86719 1.9141 1.4844 2.4453 4.0938 1.4102 6.1719-13.906 28.125-35.027 49.5-65.746 58.113-31.074 8.7148-66.086 2.543-98.395-10.453-0.73047 1.2344-1.4609 2.457-2.2148 3.6797 27.938 12.871 58.781 22.621 88.734 24.309 24.938 1.4102 49.246-2.7969 70.633-15.516 2.3945-1.4102 5.4805-0.61719 6.8906 1.7773s0.61719 5.4805-1.7773 6.8906c-23.25 13.828-49.488 18.402-76.301 16.891-31.312-1.7617-63.391-11.879-92.359-25.215 34.145 20.973 73.961 34.801 112.94 37.785 36.754 2.8086 72.711-4.0195 102.32-23.617 2.3164-1.5352 5.4297-0.89453 6.9648 1.4219 1.3984 2.1172 0.99609 4.8984-0.84375 6.5234-29.801 31.312-66.328 44.145-104.93 44.75-46.578 0.73047-96.051-16.449-140.13-40.355-0.1875-0.10156-0.36719-0.21484-0.52734-0.32813-1.3984 1.3867-2.8203 2.7461-4.2578 4.0938l0.15234 0.1875c2.2539 3.0352 4.6367 5.9961 7.1172 8.8672 16.035 11.789 32.898 21.539 49.75 27.91 18.879 7.1406 37.699 10.012 55.203 6.6641 2.7344-0.51562 5.3672 1.2734 5.8828 3.9922 0.51562 2.7344-1.2734 5.3672-3.9922 5.8828-18.426 3.5273-37.926 0.94531-57.371-5.9453 14.609 7.5586 30.344 13.113 46.5 16.375 38.453 7.7578 79.301 2.4805 113.17-19.938 2.3164-1.5352 5.4297-0.89453 6.9648 1.4219 1.4375 2.168 0.96875 5.0508-1.0078 6.6641-6.2617 5.125-12.887 9.8008-19.812 13.969-38.266 23.051-82.699 29.008-123.17 22.355-5.3281-0.86719-10.578-1.9648-15.758-3.2734-15.82-1.2227-32.004-6.9414-47.926-15.934-18-10.164-35.684-24.496-52.055-41.188l-2.5703 1.625 1.5234 1.7891c37.434 43.82 79.059 92.539 214.51 80.863 2.7695-0.22656 5.2031 1.8398 5.4297 4.6094s-1.8398 5.2031-4.6094 5.4297h-0.0625c-71.477 9.8359-118.71 0.86719-153.34-16.121 0.60547 1.0977 0.80469 2.418 0.45312 3.7266-0.71875 2.6836-3.4766 4.2812-6.1602 3.5625-15.141-4.0547-30.328-12.52-45.039-24.184-14.699-11.664-28.945-26.562-42.156-43.465-0.42969 0.21484-0.86719 0.41406-1.2969 0.62891 15.707 23.691 34.613 47.762 60.961 65.457 26.285 17.66 60.191 29.121 106.11 27.824 1.1836-0.11328 2.3672-0.23828 3.5625-0.36719 2.7578-0.30078 5.2383 1.6875 5.5547 4.4453 0.011719 0.15234 0.023437 0.30078 0.023437 0.44141 0 0.050782 0.011719 0.10156 0.011719 0.13672 0.11328 2.7695-2.0273 5.1133-4.7969 5.2383-1.1836 0.050782-2.3555 0.089844-3.5273 0.125-45.152 4.3711-80.23-4.75-108.51-20.555-28.945-16.184-50.582-39.285-68.582-62.07-1.4492-1.8281-3.7266-5.4648-5.9336-8.9805-0.85547-1.3594-1.6992-2.707-2.4453-3.8789-2.7344 1.1328-5.4922 2.2305-8.2617 3.3125 10.164 16.133 21.137 30.684 32.598 42.863 11.812 12.559 24.105 22.52 36.5 28.996 2.457 1.2852 3.4141 4.3086 2.1289 6.7773-1.2852 2.457-4.3086 3.4141-6.7773 2.1289-13.465-7.0273-26.641-17.672-39.184-30.996-12.293-13.062-24.031-28.754-34.875-46.176-0.71875 0.25-1.4219 0.50391-2.1406 0.75391 16.199 40.859 37.406 70.582 60.695 90.75 27.305 23.629 57.473 34.094 85.699 33.918h0.011719c2.7695-0.20312 5.1875 1.875 5.3906 4.6484 0.20312 2.7695-1.875 5.1875-4.6484 5.3906-30.152 2.3555-62.988-7.9727-93.656-32.156-26.867-21.199-52.105-53.078-72.387-96.441-1.4219 0.42969-2.832 0.83203-4.2695 1.2461 7.457 17.434 15.582 33.527 24.422 47.434 9.3594 14.711 19.535 26.992 30.617 35.797 2.1797 1.7266 2.5312 4.8867 0.80469 7.0664-1.7266 2.1797-4.8867 2.5312-7.0664 0.80469-11.965-9.5078-22.871-22.633-32.824-38.277-9.4219-14.801-17.973-31.828-25.746-50.141-1.1836 0.31641-2.3672 0.61719-3.5625 0.91797 7.6445 22.898 16.07 43.895 29.285 62.801 13.602 19.461 32.434 36.93 61.023 52.371 1.0312 0.46484 2.0664 0.93359 3.125 1.3867 2.543 1.1094 3.7031 4.0664 2.5938 6.6133-0.011718 0.039062-0.039062 0.074218-0.050781 0.125-0.0625 0.15234-0.125 0.28906-0.20312 0.42969-1.2852 2.4688-4.3203 3.4258-6.7891 2.1406-1.1719-0.60547-2.3164-1.2227-3.4492-1.8398-30.973-14.121-52.031-31.172-67.84-50.77-16.375-20.289-26.965-43.125-37.094-68.164-0.074219-0.20312-0.15234-0.40234-0.20312-0.60547-3.4375 0.70703-6.8906 1.3867-10.34 2.0156 6.0469 18.414 12.809 35.645 20.418 50.984 8.3008 16.727 17.621 31.25 28.102 42.66 1.875 2.0391 1.75 5.2266-0.28906 7.1055-2.0391 1.875-5.2266 1.75-7.1055-0.28906-11.16-12.141-20.996-27.457-29.711-45.027-8.0625-16.246-15.152-34.387-21.438-53.707l-0.55469 0.089843c6.1445 27.684 14.723 53.227 27.621 75.371 13.551 23.277 31.941 42.863 57.371 57.332 2.418 1.3711 3.2617 4.4336 1.8906 6.8516s-4.4336 3.2617-6.8516 1.8906l-0.023437-0.011719c-27.773-13.969-48.34-33.703-63.996-57.574-15.469-23.602-26.086-51.211-34.094-81.301-1.082 0.125-2.1523 0.26562-3.2383 0.37891 2.1914 20.328 6.9648 40.016 13.844 58.176 7.5703 19.965 17.672 38.09 29.688 53.227 1.7266 2.1797 1.3711 5.3398-0.80469 7.0664-2.1797 1.7266-5.3398 1.3711-7.0664-0.80469-12.645-15.945-23.289-35.004-31.223-55.949-7.1914-18.98-12.18-39.512-14.461-60.672-1.2109 0.11328-2.4062 0.22656-3.6133 0.32812l4.5078 137.28c0.089844 2.7695-2.0898 5.0898-4.8633 5.1758-2.7695 0.089844-5.0898-2.0898-5.1758-4.8633l-4.4961-136.82-0.36719 0.023438c-0.78125 25-2.8711 47.824-7.0391 67.824-4.4961 21.574-11.398 39.953-21.637 54.398-1.6133 2.2539-4.75 2.7852-7.0039 1.1836-2.2539-1.6133-2.7852-4.75-1.1836-7.0039 9.3828-13.227 15.77-30.355 19.988-50.621 3.9922-19.207 6.0312-41.148 6.8125-65.23-1.8398 0.074219-3.6641 0.15234-5.4922 0.20312-1.625 17.645-3.9414 34.059-7.2305 48.969-3.5625 16.199-8.2891 30.695-14.508 43.152-1.2344 2.4922-4.2578 3.5-6.75 2.2656s-3.5-4.2578-2.2656-6.75c5.832-11.676 10.277-25.391 13.68-40.832 3.125-14.195 5.3516-29.801 6.9414-46.59-2.2305 0.023437-4.4453 0.023437-6.6641 0.023437-4.2188 23.844-10.758 47.699-19.887 68.531-8.5508 19.512-19.41 36.426-32.797 48.352-2.0781 1.8516-5.2539 1.6641-7.1055-0.41406-1.8516-2.0781-1.6641-5.2539 0.41406-7.1055 12.254-10.906 22.281-26.625 30.277-44.84 8.6016-19.609 14.836-42.082 18.918-64.664-2.3438-0.0625-4.6719-0.13672-7.0039-0.23828-4.082 18.238-8.9688 34.789-15.027 49.262-6.6133 15.793-14.625 29.156-24.473 39.598-1.9023 2.0273-5.0898 2.1172-7.1055 0.21484-2.0273-1.9023-2.1172-5.0898-0.21484-7.1055 8.9805-9.5234 16.348-21.867 22.508-36.562 5.6445-13.477 10.254-28.918 14.133-45.949-3.1367-0.20312-6.2461-0.45312-9.3438-0.71875-6.4375 18.176-14.371 35.57-22.922 50.707-9.3438 16.551-19.461 30.43-29.195 39.824-2.0039 1.9258-5.1758 1.8633-7.1055-0.13672-1.9258-2.0039-1.8633-5.1758 0.13672-7.1055 9.0703-8.7422 18.566-21.828 27.418-37.496 7.8828-13.957 15.254-29.977 21.363-46.84-2.4453-0.27734-4.875-0.57812-7.293-0.90625-5.3906 14.637-11.336 27.836-18.062 39.336-7.2188 12.344-15.34 22.758-24.609 30.895-2.0898 1.8281-5.2656 1.6133-7.0898-0.48047-1.8281-2.0898-1.6133-5.2656 0.48047-7.0898 8.4258-7.3945 15.883-16.965 22.57-28.414 6.1211-10.453 11.586-22.457 16.574-35.758-2.5586-0.41406-5.0898-0.85547-7.6094-1.3242-3.8672 9.5859-7.9609 17.859-12.949 25.316-5.5938 8.3633-12.23 15.629-20.809 22.469-2.1797 1.7266-5.3398 1.3711-7.0664-0.80469-1.7266-2.1797-1.3711-5.3398 0.80469-7.0664 7.7461-6.1719 13.715-12.707 18.715-20.176 4.2695-6.3867 7.8711-13.516 11.273-21.754-3.7539-0.82031-7.457-1.6992-11.082-2.6445-6.0469 11.539-12.48 21.941-19.398 31.008-7.6094 9.9883-15.809 18.34-24.738 24.801-2.2539 1.625-5.3906 1.1328-7.0273-1.1211-1.625-2.2539-1.1328-5.3906 1.1211-7.0273 8.125-5.8828 15.629-13.539 22.645-22.758 6.1445-8.0742 11.941-17.344 17.457-27.672-3.2109-0.95703-6.375-1.9648-9.4727-3.0234-6.0703 10.051-12.785 19.789-20.469 28.691-1.8125 2.1016-4.9883 2.332-7.0898 0.51562-2.1016-1.8125-2.332-4.9883-0.51563-7.0898 3.8906-4.5078 7.6719-9.4336 11.348-14.75 3.6914-5.3281 7.3047-11.082 10.844-17.219 4.3203-7.4805 8.5156-15.504 12.621-24.008 4.0547-8.4023 8.0859-17.434 12.09-26.98l0.050782-0.011719zm512.45 8.6133c-14.773 5.707-30.305 7.2656-46.125 5.7812 11.488 1.8516 22.91 2.7695 34.121 2.5938 22.191-0.33984 43.629-5.0117 63.305-15.34-16.41 4.7734-33.703 6.9922-51.301 6.9766zm-92.602-6.2852c-17.117-6.9414-34.008-16.211-50.039-26.461-0.88281 1.0078-1.7773 2.0039-2.6953 2.9961 16.977 9.0938 34.727 17.141 52.723 23.465zm-43.543-34.246c21.086 13.391 43.594 24.965 65.949 31.398 9.7617 2.8086 19.484 4.6367 29.02 5.1875-33.086-6.1602-65.809-19.258-94.477-37.23-0.16406 0.21484-0.32812 0.42969-0.50391 0.62891l0.011718 0.011719zm-20.242 38.832c-3.4258-2.5312-6.8125-5.1641-10.152-7.8594-3.5273 2.9492-7.168 5.8203-10.906 8.6016 2.3945 3.8906 5.0898 7.6562 8.0625 11.285 18.098 22.078 46.086 38.555 77.863 46.703 0.84375 0.050782 1.6758 0.10156 2.5078 0.125 1.2109 0.039063 2.3164 0.49219 3.1602 1.2344 3.3125 0.74219 6.6758 1.3867 10.062 1.9414 21.688 3.5625 44.562 3.3008 66.895-1.5352-15.555 1.0586-31.273-0.089843-46.629-3.1875-38.754-7.8203-75.207-28.176-100.86-57.309zm-59.613 24.773c12.383 15.629 25.645 29.398 39.258 40.203 12.43 9.8633 25.129 17.23 37.699 21.25-28.301-15.453-47.914-36.273-66.176-55.672-2.4688-2.6211-4.9141-5.2266-7.2422-7.6562-1.1719 0.62891-2.3438 1.2461-3.5273 1.8633zm98.938-93.18c30.141 11.941 62.461 17.582 90.824 9.6211 12.203-3.4258 23.703-9.4102 34.031-18.555-11.512 6.3242-23.918 10.391-36.727 12.406-27.57 4.332-56.992-0.90625-83.379-13.602-1.4727 3.4375-3.0469 6.8008-4.7344 10.113z"/>
 </g>
</svg>
