<?xml version="1.0" encoding="UTF-8"?>
<svg width="1200pt" height="1200pt" version="1.1" viewBox="0 0 1200 1200" xmlns="http://www.w3.org/2000/svg">
 <g>
  <path d="m600 0c-78.793 0-156.82 15.52-229.61 45.672s-138.94 74.348-194.65 130.07c-55.719 55.715-99.914 121.86-130.07 194.65s-45.672 150.82-45.672 229.61c0 159.13 63.215 311.74 175.74 424.26 112.52 112.52 265.13 175.73 424.27 175.73 159.13 0 311.74-63.215 424.26-175.74 112.52-112.52 175.74-265.13 175.74-424.26 0-159.13-63.215-311.74-175.73-424.27-112.52-112.52-265.13-175.74-424.26-175.74zm0 67.762c69.121 0 137.56 13.766 201.42 40.516 63.859 26.746 121.88 65.953 170.76 115.38s87.645 108.1 114.09 172.67c26.453 64.574 40.066 133.79 40.066 203.68 0 141.16-55.457 276.53-154.16 376.34-98.707 99.816-232.58 155.89-372.18 155.89-69.121 0-137.57-13.766-201.43-40.516-63.855-26.746-121.88-65.949-170.76-115.37-48.875-49.422-87.645-108.1-114.1-172.67-26.449-64.574-40.066-133.79-40.066-203.68 0-69.898 13.613-139.11 40.066-203.68 26.449-64.574 65.219-123.25 114.1-172.68 48.875-49.422 106.9-88.625 170.76-115.38 63.859-26.746 132.3-40.512 201.43-40.512z" fill="#a8aaad"/>
  <path d="m930.62 696.5v-320.85c0-3.9453-1.9727-7.6328-5.2539-9.8242l-154.42-102.94c-7.6523-8.2773-17.727-13.926-28.781-16.133-11.055-2.2031-22.527-0.85547-32.77 3.8516l-24.016 10.961-1.0078-1.4961c-3.6484-5.4062-10.984-6.8359-16.391-3.1914l-39.16 26.418c-5.4062 3.6445-6.8359 10.984-3.1875 16.391l20.562 30.504c-10.008 7.5312-18.727 16.637-25.809 26.969l19.465 13.371c5.4102-7.8789 12.02-14.867 19.586-20.707l27.895 41.359-21.391-7.7266c-4.5742 12.641-6.9102 25.984-6.9023 39.43h23.617-0.003906c0-10.496 1.7891-20.91 5.293-30.801l3.7109 5.5c3.6445 5.4023 10.977 6.8281 16.383 3.1875l39.16-26.41-0.003906 0.003906c2.5977-1.7539 4.3945-4.4609 4.9922-7.5352s-0.050781-6.2617-1.8008-8.8594l-1.0117-1.4961 13.238-12.547 97.16 61.82v288.72h-70.848c-0.011719-12.52-4.9961-24.527-13.848-33.383-8.8555-8.8516-20.863-13.836-33.383-13.848v-70.848c0-7.8555-0.64844-15.695-1.9375-23.441 21.777-17.105 35.281-42.641 37.16-70.27 0.13281-2.0859 0.20312-4.2188 0.20312-6.3359l-0.003906-29.844c0-3.1289-1.2422-6.1328-3.457-8.3477-2.2148-2.2148-5.2188-3.4609-8.3516-3.4609h-70.848c-2.5547 0.003906-5.0391 0.83203-7.082 2.3633l-19.746 14.805h-0.003907c-42.184-22.887-93.082-22.887-135.27 0l-19.746-14.805c-2.043-1.5312-4.5273-2.3594-7.082-2.3633h-70.852c-6.5195 0-11.805 5.2891-11.805 11.809v29.844c0 2.1172 0.066407 4.2461 0.20313 6.3477h-0.003907c1.8789 27.625 15.383 53.156 37.16 70.258-1.2891 7.7461-1.9375 15.586-1.9375 23.441v70.848c-12.523 0.011719-24.527 4.9961-33.383 13.848-8.8555 8.8555-13.836 20.863-13.848 33.383h-129.89c-11.227 0.003906-21.789 5.332-28.465 14.363-6.6797 9.0273-8.6797 20.688-5.3945 31.426 3.2852 10.738 11.469 19.281 22.051 23.027v61.074c0.039062 34.434 13.738 67.449 38.09 91.801 24.348 24.352 57.363 38.047 91.801 38.086h401.47c34.438-0.039063 67.453-13.734 91.801-38.086 24.352-24.352 38.047-57.367 38.086-91.801v-61.051c9.2695-3.2773 16.758-10.258 20.676-19.273 3.9219-9.0117 3.9219-19.25 0-28.262-3.918-9.0156-11.406-15.996-20.676-19.273zm-225.99-321.91-52.82-78.316 19.582-13.207 52.816 78.32zm47.676-53.414-16.309 15.453-37.23-55.203 20.434-9.3242v-0.003906c8.6836-3.9648 18.742-3.5586 27.082 1.0938 8.3398 4.6523 13.965 12.996 15.152 22.473 1.1914 9.4766-2.2031 18.949-9.1367 25.52zm25.98 4.7344c4.3711-7.6445 6.7852-16.254 7.0234-25.059l121.7 81.121v312.5h-23.617v-295.2c0.003907-4.0352-2.0586-7.793-5.4609-9.9648zm-36.594 344.95c6.2617 0.003907 12.262 2.4961 16.691 6.9219 4.4258 4.4297 6.918 10.43 6.9219 16.691-0.003906 6.5195-5.2891 11.801-11.805 11.809h-23.617c-6.5195-0.007813-11.801-5.2891-11.809-11.809 0.007813-6.2617 2.4961-12.262 6.9258-16.691 4.4258-4.4258 10.43-6.918 16.691-6.9219zm-141.7-22.543-0.003906-0.003906c15.184 5.957 32.055 5.957 47.234 0v22.547c12.129-0.015624 23.965-3.7617 33.895-10.73 9.9297-6.9648 17.477-16.816 21.621-28.219 5.4922-1.9961 10.66-4.8008 15.332-8.3164v30.004c-14.602 8.4336-23.602 24.012-23.617 40.875h-188.93c-0.015624-16.863-9.0156-32.441-23.617-40.875v-30.004c4.6719 3.5156 9.8359 6.3203 15.332 8.3164 4.1406 11.402 11.691 21.254 21.621 28.219 9.9297 6.9688 21.762 10.715 33.895 10.73v-22.547c15.18 5.957 32.051 5.957 47.23 0zm-11.809-60.113v-11.809h23.617v11.809h-0.003906c0 6.5195-5.2852 11.805-11.809 11.805-6.5195 0-11.805-5.2852-11.805-11.805zm144.76-60.867v-0.003906c-4.4219-11.945-10.43-23.246-17.863-33.594h36.32c-3.1055 12.621-9.4727 24.203-18.457 33.594zm-286.46-69.023h55.105l22.859 17.137c3.8984 2.9258 9.1914 3.1523 13.324 0.57812 18.688-11.578 40.234-17.715 62.215-17.715s43.527 6.1367 62.215 17.715c4.1328 2.5742 9.4258 2.3477 13.324-0.57812l22.863-17.137h55.105v11.809h-48.312c-3.1953 0-6.2539 1.293-8.4766 3.5898l-8.0273 8.2812c-4.3008 4.4375-4.457 11.438-0.35156 16.059 19.203 21.57 29.793 49.461 29.742 78.344 0.003907 10.07-4.293 19.668-11.809 26.375v-14.566h-23.617v23.617-0.003906c-0.011719 8.8984-3.3633 17.461-9.3945 24-6.0352 6.5391-14.301 10.57-23.168 11.301 0.8125-0.36328 1.625-0.72266 2.4219-1.1211l-10.562-21.121v-0.003907c-9.3594 4.6484-20.133 5.5703-30.145 2.582v-5.8594c6.9023-2.4492 12.875-6.9727 17.105-12.949 4.2266-5.9805 6.5039-13.121 6.5117-20.441v-23.617c0-3.1328-1.2422-6.1367-3.457-8.3516-2.2148-2.2148-5.2188-3.457-8.3516-3.457h-47.23c-6.5234 0-11.809 5.2852-11.809 11.809v23.617c0.007813 7.3203 2.2852 14.461 6.5117 20.441 4.2266 5.9766 10.203 10.5 17.105 12.949v5.8711c-10.016 2.9844-20.785 2.0625-30.145-2.5859l-10.562 21.121c0.79688 0.39844 1.6094 0.75781 2.4219 1.1211v0.003907c-8.8672-0.73047-17.137-4.7617-23.168-11.305-6.0312-6.5391-9.3867-15.105-9.3984-24.004v-23.613h-23.613v14.566c-7.5156-6.707-11.812-16.305-11.809-26.375-0.050781-28.883 10.539-56.77 29.742-78.344 4.1055-4.6211 3.9492-11.621-0.35156-16.059l-8.0273-8.2812c-2.2227-2.2969-5.2812-3.5898-8.4766-3.5898h-48.312zm2.0938 35.426h36.324c-7.4336 10.348-13.441 21.648-17.859 33.594-8.9883-9.3867-15.355-20.973-18.465-33.594zm9.7148 177.12c6.2617 0.003907 12.266 2.4961 16.691 6.9219 4.4258 4.4297 6.918 10.43 6.9258 16.691-0.007813 6.5195-5.2891 11.801-11.809 11.809h-23.617c-6.5156-0.007813-11.801-5.2891-11.809-11.809 0.007812-6.2617 2.5-12.262 6.9258-16.691 4.4297-4.4258 10.43-6.918 16.691-6.9219zm448.71 153.5c-0.03125 28.176-11.238 55.188-31.164 75.109-19.922 19.922-46.934 31.129-75.109 31.16h-401.47c-28.176-0.03125-55.188-11.238-75.113-31.16-19.922-19.922-31.129-46.934-31.16-75.109v-11.809h59.039c6.5234 0 11.809-5.2891 11.809-11.809s-5.2852-11.809-11.809-11.809h-59.039v-23.617h614.02zm20.184-86.121c-2.2188 2.2227-5.2344 3.4688-8.375 3.4648h-637.64c-6.5195 0-11.809-5.2891-11.809-11.809 0-6.5234 5.2891-11.809 11.809-11.809h138.94c6.707 7.5156 16.305 11.809 26.375 11.809h23.617c10.074 0 19.668-4.293 26.375-11.809h207.03c6.707 7.5156 16.301 11.809 26.375 11.809h23.617c10.07 0 19.664-4.293 26.375-11.809h138.94c4.7695 0.003907 9.0703 2.8789 10.902 7.2852 1.832 4.4062 0.83203 9.4805-2.5273 12.867z"/>
  <path d="m537.23 529.76 35.422-11.809 7.4688 22.406-35.422 11.809z"/>
  <path d="m619.88 540.36 7.4688-22.406 35.422 11.809-7.4688 22.406z"/>
  <path d="m540.96 422.88h23.617c-0.007813-10.711 1.8555-21.344 5.4961-31.414l-22.211-8.0234c-4.5742 12.645-6.9102 25.988-6.9023 39.438z"/>
  <path d="m597.32 323.34c-14.289 8.543-26.555 20.078-35.961 33.816l19.469 13.371c7.4883-10.941 17.262-20.133 28.645-26.938l8.4141-5.0469-12.152-20.25z"/>
  <path d="m600 422.88h23.617c-0.003907-10.711 1.8555-21.344 5.5-31.414l-22.211-8.0234h-0.003906c-4.5742 12.645-6.9102 25.988-6.9023 39.438z"/>
  <path d="m281.18 611.81c0 15.66 6.2227 30.676 17.293 41.75 11.074 11.07 26.09 17.293 41.75 17.293 15.656 0 30.676-6.2227 41.746-17.293 11.07-11.074 17.293-26.09 17.293-41.75 0-15.656-6.2227-30.676-17.293-41.746-11.07-11.074-26.09-17.293-41.746-17.293-15.656 0.019531-30.66 6.2422-41.73 17.312-11.066 11.066-17.293 26.074-17.312 41.727zm59.039-35.426 0.003906 0.003907c9.3945 0 18.402 3.7305 25.047 10.375 6.6445 6.6445 10.375 15.652 10.375 25.047 0 9.3945-3.7305 18.406-10.375 25.051-6.6445 6.6406-15.652 10.375-25.047 10.375-9.3984 0-18.406-3.7344-25.051-10.375-6.6445-6.6445-10.375-15.656-10.375-25.051 0.011719-9.3906 3.7461-18.395 10.387-25.035 6.6406-6.6406 15.645-10.375 25.039-10.387z"/>
  <path d="m292.99 446.5c-12.527 0-24.539 4.9766-33.398 13.836-8.8555 8.8555-13.832 20.871-13.832 33.398 0 12.527 4.9766 24.539 13.832 33.398 8.8594 8.8555 20.871 13.832 33.398 13.832 12.527 0 24.539-4.9766 33.398-13.832 8.8594-8.8594 13.836-20.871 13.836-33.398-0.015624-12.523-4.9961-24.527-13.852-33.383-8.8555-8.8555-20.859-13.836-33.383-13.852zm0 70.848c-6.2617 0-12.27-2.4883-16.699-6.9141-4.4297-4.4297-6.918-10.438-6.918-16.699 0-6.2656 2.4883-12.27 6.918-16.699 4.4297-4.4297 10.438-6.918 16.699-6.918 6.2656 0 12.27 2.4883 16.699 6.918 4.4297 4.4297 6.918 10.434 6.918 16.699-0.007813 6.2617-2.5 12.262-6.9258 16.691-4.4258 4.4258-10.43 6.918-16.691 6.9219z"/>
  <path d="m765.31 600c0 9.3984 3.7344 18.406 10.379 25.051 6.6406 6.6445 15.652 10.375 25.047 10.375s18.406-3.7305 25.047-10.375c6.6445-6.6445 10.379-15.652 10.379-25.051 0-9.3945-3.7344-18.402-10.379-25.047-6.6406-6.6445-15.652-10.375-25.047-10.375-9.3906 0.011719-18.395 3.7461-25.035 10.387s-10.379 15.645-10.391 25.035zm35.426-11.809v0.003906c4.7773 0 9.082 2.875 10.91 7.2891 1.8281 4.4102 0.81641 9.4883-2.5625 12.867-3.375 3.375-8.4531 4.3867-12.867 2.5586-4.4102-1.8281-7.2891-6.1328-7.2891-10.91 0.007812-6.5156 5.2891-11.801 11.809-11.805z"/>
  <path d="m399.27 812.55h11.809c6.5195 0 11.809-5.2891 11.809-11.809s-5.2891-11.809-11.809-11.809h-11.809c-6.5234 0-11.809 5.2891-11.809 11.809s5.2852 11.809 11.809 11.809z"/>
  <path d="m600 836.16c3.1328 0 6.1367-1.2461 8.3516-3.4609 2.2148-2.2148 3.457-5.2188 3.457-8.3477v-11.809c0-6.5234-5.2852-11.809-11.809-11.809-6.5195 0-11.805 5.2852-11.805 11.809v11.809c0 3.1289 1.2422 6.1328 3.457 8.3477s5.2188 3.4609 8.3477 3.4609z"/>
  <path d="m564.58 859.78c3.1328 0 6.1328-1.2422 8.3477-3.457 2.2148-2.2148 3.4609-5.2188 3.4609-8.3516v-11.809 0.003906c0-6.5234-5.2891-11.809-11.809-11.809-6.5234 0-11.809 5.2852-11.809 11.809v11.809-0.003906c0 3.1328 1.2422 6.1367 3.457 8.3516 2.2148 2.2148 5.2188 3.457 8.3516 3.457z"/>
  <path d="m635.43 859.78c3.1328 0 6.1367-1.2422 8.3477-3.457 2.2148-2.2148 3.4609-5.2188 3.4609-8.3516v-11.809 0.003906c0-6.5234-5.2891-11.809-11.809-11.809s-11.809 5.2852-11.809 11.809v11.809-0.003906c0 3.1328 1.2461 6.1367 3.4609 8.3516 2.2109 2.2148 5.2148 3.457 8.3477 3.457z"/>
  <path d="m564.58 883.39c0 3.1328 1.2422 6.1367 3.457 8.3477 2.2148 2.2148 5.2188 3.4609 8.3516 3.4609h47.23c6.5234 0 11.809-5.2891 11.809-11.809s-5.2852-11.809-11.809-11.809h-11.809v-11.809c0-6.5195-5.2852-11.809-11.809-11.809-6.5195 0-11.805 5.2891-11.805 11.809v11.809h-11.809c-6.5234 0-11.809 5.2891-11.809 11.809z"/>
  <path d="m788.93 907.01c25.047-0.027344 49.055-9.9922 66.766-27.699 17.711-17.711 27.672-41.723 27.699-66.766 0-6.5234-5.2852-11.809-11.809-11.809-6.5195 0-11.809 5.2852-11.809 11.809-0.019532 18.781-7.4922 36.793-20.773 50.074s-31.289 20.754-50.074 20.773c-6.5195 0-11.809 5.2852-11.809 11.809 0 6.5195 5.2891 11.809 11.809 11.809z"/>
  <path d="m729.89 907.01h11.809c6.5195 0 11.809-5.2891 11.809-11.809 0-6.5234-5.2891-11.809-11.809-11.809h-11.809c-6.5234 0-11.809 5.2852-11.809 11.809 0 6.5195 5.2852 11.809 11.809 11.809z"/>
 </g>
</svg>
