<?xml version="1.0" encoding="UTF-8"?>
<svg width="1200pt" height="1200pt" version="1.1" viewBox="0 0 1200 1200" xmlns="http://www.w3.org/2000/svg">
 <g>
  <path d="m600 0c-78.793 0-156.82 15.52-229.61 45.672s-138.94 74.348-194.65 130.07c-55.719 55.715-99.914 121.86-130.07 194.65s-45.672 150.82-45.672 229.61c0 159.13 63.215 311.74 175.74 424.26 112.52 112.52 265.13 175.73 424.27 175.73 159.13 0 311.74-63.215 424.26-175.74 112.52-112.52 175.74-265.13 175.74-424.26 0-159.13-63.215-311.74-175.73-424.27-112.52-112.52-265.13-175.74-424.26-175.74zm0 67.762c69.121 0 137.56 13.766 201.42 40.516 63.859 26.746 121.88 65.953 170.76 115.38s87.645 108.1 114.09 172.67c26.453 64.574 40.066 133.79 40.066 203.68 0 141.16-55.457 276.53-154.16 376.34-98.707 99.816-232.58 155.89-372.18 155.89-69.121 0-137.57-13.766-201.43-40.516-63.855-26.746-121.88-65.949-170.76-115.37-48.875-49.422-87.645-108.1-114.1-172.67-26.449-64.574-40.066-133.79-40.066-203.68 0-69.898 13.613-139.11 40.066-203.68 26.449-64.574 65.219-123.25 114.1-172.68 48.875-49.422 106.9-88.625 170.76-115.38 63.859-26.746 132.3-40.512 201.43-40.512z" fill="#a8aaad"/>
  <path d="m741.7 836.16c12.527 0 24.539-4.9766 33.398-13.836 8.8555-8.8594 13.832-20.871 13.832-33.398v-215.26c30.703-9.1367 58.602-25.867 81.121-48.648 40.504-44.633 48.77-113.95 20.309-180.78-22.195-53.254-65.297-82.418-128.59-86.668h-373.37l-140.75-23.617c-3.4297-0.54688-6.9297 0.44531-9.5625 2.7148-2.6562 2.2695-4.168 5.6016-4.1328 9.0938v330.62c-0.066406 3.5625 1.4805 6.9609 4.207 9.2539 2.7305 2.293 6.3477 3.2305 9.8438 2.5547l139.45-23.617h166.61c9.0469 0 17.73 3.5938 24.129 9.9961 6.3984 6.3984 9.9961 15.078 9.9961 24.129v190.23c0 12.527 4.9727 24.539 13.832 33.398s20.871 13.836 33.398 13.836h35.426v97.062c0 21.727 11.809 32.828 36.961 32.828l143.82-0.003907c34.125 0 55.379-21.965 55.379-57.387v-85.727c9.5469-1.668 18.246-6.5234 24.68-13.77 6.4336-7.25 10.219-16.465 10.742-26.141-0.1875-10.227-4.4375-19.953-11.809-27.043v-49.711h-23.613v36.84c-7.7617-1.8867-15.859-1.8867-23.617 0v-36.84h-23.617v49.711c-7.3711 7.0898-11.617 16.816-11.809 27.043 0.52344 9.6758 4.3125 18.891 10.746 26.141 6.4336 7.2461 15.133 12.102 24.68 13.77v85.727c0 27.867-17.238 33.77-31.762 33.77h-143.82c-13.344 0-13.344-2.0078-13.344-9.2109v-97.059zm129.89-53.137c0-9.5664 10.863-17.711 23.617-17.711s23.617 8.1484 23.617 17.711-10.863 17.711-23.617 17.711-23.617-8.1484-23.617-17.711zm-472.32-501.84h23.617v259.78h-23.617zm-141.7 281.27v-302.76l118.08 19.719v263.08l-109.7 18.539zm296.5-21.492h-107.57v-259.78h314.45c53.609 3.6602 88.797 27.277 107.69 72.266 24.324 58.215 18.184 118.08-16.059 155.75v0.003907c-21.539 21.391-48.535 36.461-78.051 43.57-5.4922 1.2383-9.3477 6.1797-9.2109 11.809v200.73h-153.5v-166.61c0-15.312-6.082-30-16.91-40.828-10.828-10.828-25.516-16.914-40.828-16.914zm57.738 247.97h153.5c0 6.2656-2.4883 12.27-6.9141 16.699-4.4297 4.4297-10.438 6.918-16.699 6.918h-106.27c-6.2617 0-12.27-2.4883-16.699-6.918-4.4297-4.4297-6.918-10.434-6.918-16.699z"/>
  <path d="m688.56 576.39c-30.348 0-53.137 15.23-53.137 35.426 0 20.191 22.789 35.426 53.137 35.426 30.348-0.003906 53.137-15.238 53.137-35.43s-22.789-35.422-53.137-35.422zm0 47.23c-19.129 0-29.52-8.3828-29.52-11.809 0-3.4258 10.391-11.809 29.52-11.809s29.52 8.3828 29.52 11.809c0 3.4258-10.391 11.809-29.52 11.809z"/>
  <path d="m688.56 659.04c-30.348 0-53.137 15.23-53.137 35.426 0 20.191 22.789 35.426 53.137 35.426 30.348-0.003906 53.137-15.238 53.137-35.43s-22.789-35.422-53.137-35.422zm0 47.23c-19.129 0-29.52-8.3828-29.52-11.809 0-3.4258 10.391-11.809 29.52-11.809s29.52 8.3828 29.52 11.809c0 3.4258-10.391 11.809-29.52 11.809z"/>
  <path d="m777.12 416.98c-0.83203-27.383-12.484-53.324-32.402-72.137-19.918-18.809-46.48-28.961-73.867-28.23-27.391-0.73047-53.953 9.4219-73.871 28.23-19.918 18.812-31.57 44.754-32.402 72.137-0.003906 4.8203 0.35156 9.6367 1.0625 14.406 4.5234 24.465 17.582 46.527 36.844 62.27 19.266 15.738 43.492 24.137 68.367 23.691 27.387 0.73438 53.949-9.418 73.867-28.23s31.57-44.75 32.402-72.137zm-106.27-76.75c23.887-0.14062 46.746 9.7031 63.055 27.156l-140.99 75.102c-1.8359-4.7227-3.1445-9.6328-3.8984-14.645-0.57031-3.5898-0.84766-7.2266-0.82422-10.863 0.82813-21.121 9.9922-41.055 25.48-55.438 15.492-14.387 36.047-22.047 57.176-21.312zm-66.125 122.68 142.29-75.453c4.2266 9.2695 6.4414 19.332 6.4961 29.52-0.83203 21.121-9.9961 41.055-25.484 55.441-15.492 14.383-36.047 22.047-57.172 21.312-25.547 0.15234-49.816-11.16-66.125-30.82z"/>
 </g>
</svg>
