<?xml version="1.0" encoding="UTF-8"?>
<svg width="1200pt" height="1200pt" version="1.1" viewBox="0 0 1200 1200" xmlns="http://www.w3.org/2000/svg">
 <defs>
  <clipPath id="e">
   <path d="m485 515h492.86v237h-492.86z"/>
  </clipPath>
  <clipPath id="d">
   <path d="m222.14 355h669.86v217h-669.86z"/>
  </clipPath>
  <clipPath id="c">
   <path d="m222.14 657h260.86v314h-260.86z"/>
  </clipPath>
  <clipPath id="b">
   <path d="m381 228h596.86v189h-596.86z"/>
  </clipPath>
  <clipPath id="a">
   <path d="m877 387h100.86v40h-100.86z"/>
  </clipPath>
 </defs>
 <path d="m600 0c-78.793 0-156.82 15.52-229.61 45.672s-138.94 74.348-194.65 130.07c-55.719 55.715-99.914 121.86-130.07 194.65s-45.672 150.82-45.672 229.61c0 159.13 63.215 311.74 175.74 424.26 112.52 112.52 265.13 175.73 424.27 175.73 159.13 0 311.74-63.215 424.26-175.74 112.52-112.52 175.74-265.13 175.74-424.26 0-159.13-63.215-311.74-175.73-424.27-112.52-112.52-265.13-175.74-424.26-175.74zm0 67.762c69.121 0 137.56 13.766 201.42 40.516 63.859 26.746 121.88 65.953 170.76 115.38s87.645 108.1 114.09 172.67c26.453 64.574 40.066 133.79 40.066 203.68 0 141.16-55.457 276.53-154.16 376.34-98.707 99.816-232.58 155.89-372.18 155.89-69.121 0-137.57-13.766-201.43-40.516-63.855-26.746-121.88-65.949-170.76-115.37-48.875-49.422-87.645-108.1-114.1-172.67-26.449-64.574-40.066-133.79-40.066-203.68 0-69.898 13.613-139.11 40.066-203.68 26.449-64.574 65.219-123.25 114.1-172.68 48.875-49.422 106.9-88.625 170.76-115.38 63.859-26.746 132.3-40.512 201.43-40.512z" fill="#a8aaad"/>
 <g clip-path="url(#e)">
  <path d="m614.58 539.36 111.69 40.934c5.2188 1.8906 10.027 4.7617 14.168 8.457l26.766 23.789c7.793 6.9883 18.066 10.551 28.512 9.8867l171.12-10.344c6.4844-0.42969 11.406-6.0156 11.02-12.5-0.60547-6.3984-6.0781-11.227-12.5-11.023l-171.17 10.344h-0.003906c-4.1758 0.27344-8.2852-1.1523-11.398-3.9492l-26.672-23.789h0.003906c-6.3555-5.6719-13.73-10.082-21.727-13.008l-111.69-40.934h-0.003906c-9.4023-3.4609-19.898-2.2148-28.23 3.3555-8.332 5.5703-13.496 14.789-13.895 24.805-0.39844 10.012 4.0195 19.613 11.883 25.828l36.918 29.301-115.43 3.4648v-0.003906c-7.2383 0.23047-14.137 3.1133-19.383 8.1055-5.2461 4.9922-8.4688 11.738-9.0586 18.953-0.58984 7.2188 1.4961 14.398 5.8633 20.176l49.594 65.242c16.668 21.918 42.621 34.785 70.156 34.793 4.3672 0 8.7305-0.32031 13.051-0.96094l155.87-23.316 184.88 18.531c6.3867 0.48047 11.992-4.2188 12.633-10.594 0.64062-6.3711-3.918-12.094-10.273-12.895l-186.41-18.641c-0.97266-0.12109-1.957-0.12109-2.9297 0l-157.28 23.523-0.003906-0.003907c-11.441 1.6992-23.129 0.29688-33.848-4.0586-10.715-4.3555-20.066-11.504-27.082-20.707l-49.594-65.242c-1.3438-1.7539-1.5898-4.1094-0.64062-6.1055 0.94922-1.9922 2.9375-3.2852 5.1445-3.3398l147.76-4.4258c4.9531-0.15625 9.2812-3.3867 10.84-8.0898 1.5586-4.7031 0.015625-9.8789-3.8633-12.961l-62.27-49.391v0.003906c-2.9922-2.3555-3.8242-6.5391-1.9609-9.8633 1.8672-3.3203 5.8711-4.7891 9.4414-3.457z"/>
 </g>
 <g clip-path="url(#d)">
  <path d="m233.95 471.26h0.21875c8.875-0.078125 17.562 2.5586 24.895 7.5625 7.3281 5 12.957 12.125 16.121 20.414l33.551 65.688c2.2891 4.4297 7.1133 6.9531 12.059 6.2969l84.434-11.117c3.7109-0.49219 6.9727-2.7109 8.7852-5.9883 1.8164-3.2734 1.9766-7.2109 0.42578-10.621-11.965-26.23-25.191-70.406-17.176-86.465 1.2227-2.7305 3.7383-4.6562 6.6914-5.1172l20.941-4.6445c26.152-5.8242 41.926-9.3516 65.418-13.305h-0.003906c6.3633-0.84766 12.328-3.5742 17.129-7.832 4.8008-4.2578 8.2227-9.8516 9.8242-16.066 0.83203-3.6406 1.4727-7.3164 1.9219-11.023 0.375-3.2734 0.98047-6.5195 1.8086-9.7109 4.7227 0.56641 15.305 2.5195 23.316 4.0156l0.003906-0.003906c12.367 3.0938 25.039 4.8438 37.785 5.2109 4.3516-0.83984 8.6133-2.082 12.734-3.7148 25.949-9.6992 53.316-15.07 81.004-15.898 20.699-1.5391 41.305 4.0156 58.426 15.742 0.20312 0.1875 0.48828 0.26953 0.69141 0.44141s0.23438 0.31641 0.41016 0.44141c0.89844 0.67578 21.805 17.129 1.9062 72.422-7.8203 17.129-18.191 32.977-30.762 46.996-2.0625 2.4102-3.0703 5.5469-2.793 8.7031 0.27734 3.1602 1.8125 6.0742 4.2617 8.0898 2.4453 2.0156 5.6016 2.9609 8.7539 2.625 3.1562-0.33594 6.0391-1.9297 8.0078-4.4141 14.387-16.078 26.141-34.332 34.824-54.082 10.5-23.719 12.543-50.32 5.7969-75.367 26.527 4.7227 62.852 15.887 79.445 38.746h-0.003906c23.066 34.68 29.211 77.926 16.723 117.66-1.7656 6.2734 1.8828 12.793 8.1523 14.562 1.0234 0.30078 2.0859 0.45312 3.1523 0.45703 5.2812-0.003907 9.9219-3.5117 11.367-8.5938 14.441-46.695 6.957-97.418-20.359-137.95-30.23-41.645-100.15-49.734-117.36-51.105v0.003906c-20.41-13.25-44.402-19.898-68.723-19.051h-2.1875c-30.195 0.90234-60.043 6.707-88.371 17.191-3.7773 1.3086-6.5508 2.332-7.5742 2.5664h-0.09375c-4.0312 0-20.105-2.9922-30.812-4.9766-10.496-2.7852-21.305-4.2305-32.164-4.2969-16.973 2.5352-19.363 19.758-20.797 30.055-0.42578 2.9453-0.80469 5.9336-1.4961 8.7539-1.2344 3.3867-4.2891 5.7734-7.8711 6.1562-24.105 4.0469-40.133 7.6211-66.66 13.523l-20.875 4.6445h-0.003906c-9.9141 2.0078-18.324 8.5312-22.734 17.633-12.266 24.578 1.7461 68.895 10.738 92.211l-60.898 8.0312-29.348-57.309c-5.0195-12.531-13.73-23.242-24.977-30.707-11.25-7.4648-24.5-11.336-38-11.09-6.5195 0.058593-11.758 5.3945-11.695 11.918 0.058594 6.5195 5.3945 11.758 11.918 11.695z"/>
 </g>
 <g clip-path="url(#c)">
  <path d="m466.08 658.71-82.105 34.387c-5.8516 2.4609-8.7148 9.1055-6.4844 15.051l30.512 80.781c8.3359 21.602 7.6562 45.648-1.8945 66.742-9.5469 21.098-27.164 37.477-48.898 45.465l-127.34 46.902c-5.375 1.9727-8.5586 7.5195-7.5547 13.156 1.0039 5.6367 5.9062 9.7383 11.633 9.7344 1.3906 0.003906 2.7734-0.25 4.0781-0.73828l127.38-46.855c27.652-10.18 50.07-31.02 62.23-57.859 12.164-26.84 13.055-57.434 2.4805-84.938l-26.465-70.062 71.605-29.914h-0.003906c6.0156-2.5195 8.8516-9.4414 6.3281-15.461-2.5195-6.0156-9.4414-8.8477-15.461-6.3281z"/>
 </g>
 <g clip-path="url(#b)">
  <path d="m396.21 416.02c2 0.003906 3.9688-0.50781 5.7148-1.4805 5.6914-3.1719 7.7461-10.352 4.5977-16.059-1.1172-2.75-1.4258-5.7656-0.88281-8.6875 0.53906-2.9219 1.9062-5.625 3.9375-7.7969 19.234-7.2734 39-13.062 59.117-17.316 9.9961-2.457 18.168-4.4883 21.867-5.6992h0.003906c36.676-10.586 73.891-19.207 111.48-25.836 5.0938-0.88281 9.0195-4.9766 9.6836-10.102 0.66406-5.1289-2.0859-10.09-6.7852-12.238l-84.277-38.969c-5.0859-2.6484-7.1719-8.8398-4.7227-14.027 3.1484-6.5664 12.281-5.2734 16.027-4.4258 26.008 5.8867 45.453 11.523 66.125 17.492 17.32 5.0078 35.125 10.172 58.727 16.105 50.082 12.594 71.559 28.246 80.75 39.125 6.2148 7.1641 14.34 12.41 23.426 15.121 9.0859 2.7148 18.758 2.7812 27.883 0.19922l180.29-49.406c6.2852-1.7383 9.9727-8.2422 8.2344-14.531-1.7383-6.2852-8.2461-9.9727-14.531-8.2344l-180.35 49.391c-4.7812 1.4023-9.8633 1.4141-14.652 0.035156-4.7852-1.3828-9.082-4.0977-12.383-7.8281-16.625-19.664-47.926-35.395-93.016-46.762-23.223-5.8555-40.934-11.02-57.938-15.902-20.922-6.0586-40.746-11.789-67.398-17.836-7.9922-2.6055-16.645-2.2969-24.426 0.875-7.7852 3.168-14.191 8.9961-18.086 16.441-3.8047 8.1367-4.2891 17.438-1.3516 25.922 2.9414 8.4883 9.0742 15.496 17.098 19.531l51.453 23.789c-23.914 4.9453-55.105 12.012-78.516 19.617-3.4336 1.1016-11.02 2.9453-20.262 5.2266l-0.003906 0.003906c-22.793 4.2891-45.023 11.156-66.266 20.465-7.0977 5.4492-12.074 13.199-14.07 21.926-1.9922 8.7227-0.88281 17.867 3.1445 25.859 2.1133 3.7305 6.0742 6.0273 10.359 6.0117z"/>
 </g>
 <g clip-path="url(#a)">
  <path d="m966.05 387.16c-1.4805 0-4.2344 0-79.223 16.121v0.003906c-5.9258 1.2422-9.9531 6.7656-9.3203 12.789 0.63281 6.0234 5.7188 10.59 11.773 10.574 0.83594-0.003906 1.6719-0.09375 2.4883-0.26953 26.418-5.668 69.793-14.863 75.195-15.633 6.5195-0.25 11.602-5.7422 11.352-12.266-0.25391-6.5195-5.7461-11.602-12.266-11.352z"/>
 </g>
 <path d="m580.42 425.56c-5.625 10.371-5.9219 22.809-0.80469 33.438 5.1211 11.047 13.602 20.195 24.23 26.137 8.9141 5.25 19.047 8.082 29.395 8.2188 1.7891 0 3.5742-0.09375 5.3516-0.28516 11.777-0.88672 22.414-7.375 28.59-17.441 11.18-19.363 0.86719-45.531-23.457-59.59-24.324-14.062-52.129-9.8281-63.305 9.5234zm66.312 38.289c-2.5039 3.4492-6.4453 5.5664-10.707 5.7461-7.1172 0.35938-14.191-1.3438-20.363-4.9062-6.1719-3.5664-11.184-8.8359-14.43-15.184-1.9844-3.7734-2.1172-8.2539-0.36328-12.137 3.1836-4.1875 8.3086-6.4219 13.539-5.9062 6.1758 0.14062 12.211 1.8828 17.508 5.0547 13.523 7.8086 18.656 20.672 14.816 27.332z"/>
</svg>
