<?xml version="1.0" encoding="UTF-8"?>
<svg width="1200pt" height="1200pt" version="1.1" viewBox="0 0 1200 1200" xmlns="http://www.w3.org/2000/svg">
 <g>
  <path d="m600 0c-78.793 0-156.82 15.52-229.61 45.672s-138.94 74.348-194.65 130.07c-55.719 55.715-99.914 121.86-130.07 194.65s-45.672 150.82-45.672 229.61c0 159.13 63.215 311.74 175.74 424.26 112.52 112.52 265.13 175.73 424.27 175.73 159.13 0 311.74-63.215 424.26-175.74 112.52-112.52 175.74-265.13 175.74-424.26 0-159.13-63.215-311.74-175.73-424.27-112.52-112.52-265.13-175.74-424.26-175.74zm0 67.762c69.121 0 137.56 13.766 201.42 40.516 63.859 26.746 121.88 65.953 170.76 115.38s87.645 108.1 114.09 172.67c26.453 64.574 40.066 133.79 40.066 203.68 0 141.16-55.457 276.53-154.16 376.34-98.707 99.816-232.58 155.89-372.18 155.89-69.121 0-137.57-13.766-201.43-40.516-63.855-26.746-121.88-65.949-170.76-115.37-48.875-49.422-87.645-108.1-114.1-172.67-26.449-64.574-40.066-133.79-40.066-203.68 0-69.898 13.613-139.11 40.066-203.68 26.449-64.574 65.219-123.25 114.1-172.68 48.875-49.422 106.9-88.625 170.76-115.38 63.859-26.746 132.3-40.512 201.43-40.512z" fill="#a8aaad"/>
  <path d="m787.1 427.2 13.992-8.2344c-6.1172-10.395-13.777-18.902-22.762-25.277l-9.3945 13.238c7 4.9727 13.281 11.984 18.164 20.273z"/>
  <path d="m671.96 381.78h30.848v16.234h-30.848z"/>
  <path d="m752.66 399.32 3.9375-15.75c-4.7617-1.1914-9.6562-1.793-14.551-1.793h-18.125v16.234h18.125c3.5703 0 7.1406 0.44141 10.613 1.3086z"/>
  <path d="m458.58 535.05v-16.234s-26.934-0.22266-31.18-0.050781l0.66797 16.223c3.9258-0.16406 30.512 0.0625 30.512 0.0625z"/>
  <path d="m689.96 530.73-9.3984 13.238c7.0039 4.9688 13.285 11.98 18.168 20.273l13.992-8.2344c-6.1211-10.398-13.781-18.902-22.762-25.277z"/>
  <path d="m583.6 518.82h30.848v16.234h-30.848z"/>
  <path d="m664.29 536.36 3.9375-15.75c-4.7617-1.1914-32.68-1.793-32.68-1.793v16.234s25.27 0.44141 28.742 1.3086z"/>
  <path d="m479.68 518.82h30.848v16.234h-30.848z"/>
  <path d="m302.19 641.37c-8.6719 49.043-3.5469 84.496 15.301 105.52 2.6172 2.9219 5.3711 5.3711 8.1641 7.4805 0 0-20.59 21.816-23.465 52.863-8.6719 49.047-3.5469 84.496 15.301 105.52 15.426 17.207 35.285 19.219 43.73 19.219 1.6328 0 246.6-0.12891 246.6-0.12891 23.27 0 44.023-13.605 57.43-34.742 0.30469-0.33203 19.461-29.492 31.801-48.223 0.10156-0.027344 0.20312-0.058594 0.30469-0.089844-7.2266 13.43-11.969 31.559-8.6328 48.406 2.4805 12.531 9.25 22.402 19.582 28.547 47.945 23.285 69.957-25.859 74.434-43.336 8.0156 12.973 39.141 51.035 72.113 28.992 13.867-7.7695 21.668-19.691 22.555-34.48 1.1836-19.676-9.957-39.039-22.848-51.648 15.238-0.46094 33.297-5.418 46.215-16.723 9.6133-8.4141 14.773-19.211 14.93-31.23 0.20312-15.895-6.2227-28.609-18.586-36.773-16.453-10.863-38.789-10.883-56.16-6.0195 7.2266-13.43 11.969-31.555 8.6328-48.402-2.4805-12.527-9.25-22.402-19.582-28.547-2.3594-1.4023-4.7344-2.5703-7.1172-3.5352 11.262-18.566 18.863-32.133 21.465-38.883 4.6602-12.09 8.9727-25.18 8.9727-38.988 0-33.434-14.582-62.695-36.238-78.512 14.453-23.441 24.238-40.512 27.266-48.363 4.6602-12.09 8.9727-25.18 8.9727-38.988 0-50.172-32.812-90.992-73.145-90.992h-158.18c-8.0195-11.227-19.078-16.855-31.961-16.262-12.98 0.59766-25.129 7.3164-34.449 15.875-2.0391-0.082031-4.5508-0.10547-7.4453 0.007813-2.8594-10.512-8.3047-21.285-16.734-29.074-8.1992-7.5742-18.074-11.066-28.547-10.082-13.82 1.2891-24.273 8.0586-30.234 19.574-7.3711 14.238-6.0312 32.035-1.0742 46.125-11.781-4.2578-26.508-6.043-39.66-1.9531-10.66 3.3125-18.613 10.117-23.008 19.68-5.793 12.613-5.1602 25.051 1.832 35.973 5.7266 8.9453 14.727 15.352 24.414 19.469l-119.8 185.85c0.003906 0-10.281 10.602-13.156 36.879zm534.9-65.207c0 11.152-3.7891 22.523-7.8867 33.148-1.8125 4.707-6.832 13.867-14.074 26.094-0.28125-10.18-1.8906-20.113-4.8203-29.566l-15.512 4.8008c2.7539 8.8945 4.1523 18.316 4.1523 27.996h14.254c-2.2891 3.8281-4.7695 7.918-7.4219 12.238-5.7344 0.19531-11.41 1.6484-16.918 4.4023-17.637 8.8164-28.82 28.156-33.293 45.629-8.0156-12.973-21.344-26.141-37.602-31.68-3.4688-1.1836-6.9258-1.9336-10.34-2.2852 21.773-33.07 42.766-65.055 61.523-93.977 6.9141 4.9609 13.113 11.902 17.945 20.105l13.992-8.2344c-6.1172-10.395-13.777-18.902-22.762-25.277 0 0 19.852-31.641 30.211-48.164 17.047 12.93 28.551 37.109 28.551 64.77zm-159.98 131.21c0.54688-9.125 5.3555-16.285 14.285-21.289 3.7344-2.0938 7.7148-3.1406 11.902-3.1406 3.043 0 6.1953 0.55078 9.4414 1.6602 14.684 5 27.594 19.852 32.758 31.941 6.2578 14.652 10.566 39.082 11.406 55.523l-4.0859 3.25c-15.832-4.5156-38.668-14.203-51.543-23.602-14.648-10.703-25.039-29.766-24.164-44.344zm6.6445 50.672c-10.812 0.32422-23.035 2.9336-33.848 8.4531-3.7695-3.3125-7.8008-6.1914-12.047-8.5781 10.77-6.0625 20.152-15.27 27.391-26.684 0.042969-0.046875 0.089844-0.089844 0.13281-0.14062 4.2539 10.387 11.023 19.762 18.371 26.949zm-127.03-415.14c7.4844-12.926 22.129-23.09 34.066-23.641 7.3242-0.32812 13.27 2.7891 18.074 9.5703 3.3945 4.7891 4.3867 10.438 2.9492 16.793-2.8086 12.426-13.844 24.273-23.293 29.555-11.453 6.4023-30.977 12.07-44.578 14.297l-2.1836-2.2148c2.4336-13.562 8.3906-33 14.965-44.359zm75.145 72.426c3.9727 6.2031 4.2188 12.891 0.75 20.438-2.4492 5.332-6.8477 9.0195-13.066 10.953-12.164 3.7812-27.941 0.14844-37.242-5.3945-11.27-6.7188-25.941-20.793-34.668-31.457l0.82812-3c12.945-4.6719 32.719-9.2227 45.84-9.2227h0.058594c14.934 0.015625 31.059 7.6172 37.5 17.684zm-66.09 42.285c7.4531 12.945 8.9336 30.707 3.4375 41.32-3.3867 6.543-9.0547 10.098-17.324 10.867-5.8438 0.55469-11.234-1.4219-16.02-5.8398-9.3555-8.6445-14.098-24.125-13.949-34.953 0.18359-13.121 5.0391-32.863 9.9062-45.754l3.0078-0.78125c10.539 8.8906 24.395 23.773 30.941 35.141zm-36.215-59.598 3.5195 3.5703-1.3594 4.9219-4.9453 1.2852-3.5859-3.6367 1.3594-4.9258 4.6797-1.2148zm-42.508-91.207c3.3867-6.543 9.0547-10.098 17.324-10.871 0.63672-0.058594 1.2656-0.089844 1.8906-0.089844 5.1211 0 9.8672 1.9883 14.133 5.9297 9.3555 8.6445 14.098 24.125 13.949 34.949-0.18359 13.121-5.0391 32.863-9.9062 45.754l-3.0117 0.78125c-10.531-8.8867-24.391-23.766-30.938-35.137-7.4531-12.938-8.9336-30.703-3.4414-41.316zm27.457 111.67c-2.4297 13.566-8.3906 33.004-14.961 44.359-7.4844 12.926-22.129 23.09-34.062 23.641-7.3906 0.32813-13.273-2.7891-18.078-9.5703-3.3945-4.7891-4.3867-10.438-2.9492-16.793 2.8086-12.426 13.844-24.273 23.293-29.555 11.453-6.4023 30.977-12.066 44.578-14.297zm-90.109-28.062c-3.9727-6.207-4.2188-12.891-0.75-20.441 2.4492-5.332 6.8477-9.0195 13.07-10.953 3.4688-1.0781 7.2305-1.5508 11.051-1.5508 9.582 0 19.543 2.9883 26.191 6.9492 11.27 6.7148 25.941 20.793 34.668 31.457l-0.82812 3c-12.945 4.6719-32.723 9.2266-45.84 9.2266h-0.058594c-14.934-0.023437-31.059-7.625-37.504-17.688zm-44.613 144.07 6.9883 12.219c6.7812-3.8789 14.219-6.8633 22.105-8.875l-4.0078-15.73c-7.9727 2.0312-15.574 4.9258-22.648 8.6055l45.824-71.09c-1.4766 9.7422 0.60156 18.914 6.1094 26.684 7.6445 10.785 18.066 16.441 30.23 16.441 0.60547 0 1.2227-0.015625 1.8359-0.042969 16.02-0.73828 30.762-10.793 40.48-22.133 2.2031 12.332 8.0234 25.98 18.141 35.324 2.1484 1.9883 4.4258 3.6562 6.7891 5.0742v14.094h30.848v-10.883c9.3516-2.918 16.574-8.9414 21.145-17.773 7.3711-14.242 6.0312-32.043 1.0703-46.133 7.1562 2.5859 15.391 4.2656 23.707 4.2656 5.3789 0 10.789-0.69922 15.957-2.3047 10.66-3.3125 18.613-10.117 23.004-19.68 5.793-12.613 5.1602-25.051-1.832-35.973-2.0273-3.168-4.4727-6.0117-7.2031-8.5547h12.52v-16.234h-30.848v4.8633c-4.5898-1.8594-9.2969-3.2031-13.879-4.0625 9.5781-8.0742 18.484-19.938 21.523-33.371 1.0625-4.6953 1.3047-9.2812 0.75391-13.664h151.78c31.379 0 56.91 33.535 56.91 74.758 0 11.152-3.7891 22.523-7.8867 33.148-1.8164 4.707-6.832 13.867-14.074 26.094-0.28125-10.18-1.8906-20.113-4.8203-29.566l-15.512 4.8008c2.7539 8.8945 4.1523 18.316 4.1523 27.996h14.254c-19.852 33.191-54.297 86.41-86.414 135.45-0.14844-10.754-1.7656-21.246-4.8477-31.207l-15.512 4.8008c2.7539 8.8945 4.1523 18.316 4.1523 27.996h15.164c-13.684 20.887-26.91 40.965-38.359 58.348-0.58203 0.88281-1.1406 1.7344-1.7188 2.6055-0.74219 0.35937-1.4844 0.74219-2.2148 1.1484-0.86719 0.48438-1.7109 0.98828-2.5273 1.5039-0.67578-49.449-33.203-89.426-73.109-89.426h-254.8c-1.8164 0-3.6055 0.12891-5.3711 0.35547zm-65.359 153.34c9.3633 13.32 23.191 21.766 38.594 21.766h254.22c16.07 0 29.145-15.664 29.145-34.914s-13.074-34.914-29.145-34.914h-248.37v16.234h248.37c6.9961 0 12.906 8.5547 12.906 18.676 0 10.125-5.9102 18.676-12.906 18.676h-254.22c-19.18 0-34.785-20.887-34.785-46.562 0-1.1523 0.03125-2.293 0.09375-3.4219 0.91797-5.125 1.9922-10.414 3.2305-15.859l-0.18359-0.042969c5.4922-16.055 17.613-27.234 31.645-27.234h254.8c31.379 0 56.906 33.535 56.906 74.754 0 41.223-25.527 74.758-56.906 74.758l-243.48 0.003906c-0.30859 0-0.61719 0.015625-0.92578 0.050781-0.19141 0.023438-19.676 2.0586-33.844-13.746-9.4844-10.578-14.555-26.887-15.148-48.223zm3.8984 121.41c0.91797-5.125 1.9922-10.414 3.2305-15.859l-0.18359-0.042969c5.4922-16.055 17.613-27.234 31.645-27.234h7.2852c0.30469 0.003906 0.63281 0.015625 0.91406 0.015625 0.42969 0 0.82812-0.003906 1.1953-0.015625h245.41c10.305 0 19.973 3.6367 28.32 9.957-8.7109 8.2148-13.383 18.531-13.531 29.949-0.023437 1.7266 0.046875 3.4102 0.18359 5.0586-4.5039-3.4219-9.8281-5.4336-15.547-5.4336h-248.37v16.234h248.37c6.9961 0 12.906 8.5547 12.906 18.676 0 10.125-5.9102 18.68-12.906 18.68h-254.22c-19.18 0-34.785-20.887-34.785-46.562-0.003906-1.1523 0.027344-2.293 0.089844-3.4219zm289.49 106.38h-243.47c-0.30859 0-0.61719 0.015625-0.92578 0.050781-0.1875 0.023438-19.676 2.0547-33.844-13.742-9.4844-10.582-14.551-26.891-15.148-48.227 9.3633 13.32 23.191 21.766 38.594 21.766h254.22c16.07 0 29.145-15.664 29.145-34.914 0-0.50781-0.046875-1-0.0625-1.5039 1.5078 1.332 3.1211 2.5859 4.8672 3.7383 6.8945 4.5508 14.824 7.168 22.988 8.3555-3.832 36.371-27.641 64.477-56.363 64.477zm42.316-86.383c-7.625-5.0352-11.426-12.781-11.293-23.016 0.09375-7.3867 3.2539-13.855 9.3867-19.227 9.9766-8.7305 25.535-12.742 37.996-12.742 2.1211 0 4.1484 0.11719 6.0469 0.34375 15.82 1.9062 39.129 10.387 53.785 17.883l0.77344 5.1641c-11.828 11.457-31.637 26.387-46.211 32.836-16.59 7.3398-38.293 6.8047-50.484-1.2422zm118.36 41.188c-1.9375 18.039-13.254 36.566-26.32 43.098-8.1719 4.0898-16.777 3.5078-25.578-1.7266-6.3516-3.7773-10.371-9.7461-11.953-17.742-3.0117-15.215 3.3945-33.824 11.281-44.34 9.5625-12.75 28.562-28.695 42.383-37.641l4.8555 1.9141c4.0078 15.969 7.0352 40.594 5.332 56.438zm1.8008-71.074-7.2266-2.8477-1.1484-7.6836 6.0781-4.8359 7.2266 2.8438 1.1484 7.6836zm4.8398-30.004c-4.0078-15.973-7.0352-40.594-5.332-56.438 1.9375-18.039 13.254-36.566 26.32-43.098 8.1797-4.0898 16.781-3.5078 25.578 1.7266 6.3516 3.7773 10.371 9.75 11.953 17.742 3.0117 15.215-3.3945 33.824-11.281 44.34-9.5625 12.75-28.562 28.691-42.383 37.641zm86.059 106.61c-0.54688 9.125-5.3516 16.285-14.281 21.289-6.4492 3.6133-13.629 4.1094-21.344 1.4805-14.684-5-27.594-19.852-32.758-31.941-6.2578-14.652-10.566-39.078-11.406-55.523l4.082-3.25c15.836 4.5156 38.672 14.207 51.543 23.602 14.648 10.699 25.039 29.762 24.164 44.344zm28.879-79.617c-11.672 10.219-30.988 13.969-44.039 12.398-15.82-1.9062-39.129-10.391-53.789-17.887l-0.77344-5.1641c11.828-11.457 31.641-26.387 46.211-32.836 16.59-7.3398 38.293-6.8047 50.484 1.2422 7.625 5.0352 11.426 12.781 11.293 23.016-0.09375 7.3906-3.25 13.859-9.3867 19.23z"/>
 </g>
</svg>
