<?xml version="1.0" encoding="UTF-8"?>
<svg width="1200pt" height="1200pt" version="1.1" viewBox="0 0 1200 1200" xmlns="http://www.w3.org/2000/svg">
 <path d="m957.51 525h-1.2617c-0.050781-39.887-12.801-78.719-36.398-110.88-23.598-32.156-56.816-55.965-94.852-67.977v-27.398c-0.035156-11.594-3.6602-22.895-10.375-32.348s-16.188-16.594-27.125-20.449v-59.703c-0.050781-44.738-17.844-87.633-49.48-119.27s-74.531-49.43-119.27-49.48h-262.5c-44.738 0.050781-87.633 17.844-119.27 49.48s-49.43 74.531-49.48 119.27v937.5c0 4.9727 1.9727 9.7422 5.4922 13.258 3.5156 3.5195 8.2852 5.4922 13.258 5.4922h75c4.9727 0 9.7422-1.9727 13.258-5.4922 3.5195-3.5156 5.4922-8.2852 5.4922-13.258v-187.5h37.5v18.75c0 20.098 10.723 38.664 28.125 48.715 17.402 10.047 38.848 10.047 56.25 0 17.402-10.051 28.125-28.617 28.125-48.715v-150c0-20.098-10.723-38.664-28.125-48.715-17.402-10.047-38.848-10.047-56.25 0-17.402 10.051-28.125 28.617-28.125 48.715v18.75h-37.5v-637.5c0.015625-14.914 5.9492-29.211 16.492-39.758 10.547-10.543 24.844-16.477 39.758-16.492h262.5c14.914 0.015625 29.211 5.9492 39.758 16.492 10.543 10.547 16.477 24.844 16.492 39.758v59.703c-10.938 3.8555-20.41 10.996-27.125 20.449s-10.34 20.754-10.375 32.348v27.398c-38.035 12.012-71.254 35.82-94.852 67.977-23.598 32.156-36.348 70.988-36.398 110.88h-1.2617c-14.578 0.015625-28.555 5.8125-38.863 16.117-10.309 10.309-16.109 24.281-16.125 38.859v2.5469c0.015625 14.578 5.8164 28.551 16.125 38.859 10.309 10.305 24.285 16.102 38.863 16.117h452.52c14.578-0.015625 28.555-5.8125 38.863-16.117 10.309-10.309 16.109-24.281 16.125-38.859v-2.5469c-0.015625-14.578-5.8164-28.551-16.125-38.859-10.309-10.305-24.285-16.102-38.863-16.117zm-582.51 300c0-6.6992 3.5742-12.887 9.375-16.238 5.8008-3.3477 12.949-3.3477 18.75 0 5.8008 3.3516 9.375 9.5391 9.375 16.238v150c0 6.6992-3.5742 12.887-9.375 16.238-5.8008 3.3477-12.949 3.3477-18.75 0-5.8008-3.3516-9.375-9.5391-9.375-16.238zm-37.5 56.25v37.5h-37.5v-37.5zm281.25-768.75h-262.5c-24.855 0.027344-48.684 9.9141-66.258 27.492-17.578 17.574-27.465 41.402-27.492 66.258v918.75h-37.5v-918.75c0.039062-34.797 13.883-68.156 38.488-92.762s57.965-38.449 92.762-38.488h262.5c34.797 0.039062 68.156 13.883 92.762 38.488s38.449 57.965 38.488 92.762v56.25h-37.5v-56.25c-0.027344-24.855-9.9141-48.684-27.492-66.258-17.574-17.578-41.402-27.465-66.258-27.492zm56.25 206.25c0.003906-4.9727 1.9805-9.7383 5.4961-13.254s8.2812-5.4922 13.254-5.4961h75c4.9727 0.003906 9.7383 1.9805 13.254 5.4961s5.4922 8.2812 5.4961 13.254v19.699c-6.168-0.61328-12.422-0.94922-18.75-0.94922h-75c-6.3281 0-12.582 0.33594-18.75 0.94922zm18.75 56.25h75c39.77 0.046875 77.895 15.863 106.02 43.984s43.938 66.246 43.984 106.02h-375c0.046875-39.77 15.863-77.895 43.984-106.02s66.246-43.938 106.02-43.984zm281.25 207.52c-0.003906 4.6328-1.8477 9.0781-5.1289 12.355-3.2773 3.2773-7.7227 5.1172-12.359 5.1211h-452.52c-4.6367-0.003906-9.082-1.8438-12.359-5.1211-3.2812-3.2773-5.125-7.7227-5.1289-12.355v-2.5469c0.003906-4.6328 1.8477-9.0781 5.1289-12.355 3.2773-3.2773 7.7227-5.1172 12.359-5.1211h452.52c4.6367 0.003906 9.082 1.8438 12.359 5.1211 3.2812 3.2773 5.125 7.7227 5.1289 12.355zm-393.75 129.98v37.5c0 6.6992-3.5742 12.887-9.375 16.238-5.8008 3.3477-12.949 3.3477-18.75 0-5.8008-3.3516-9.375-9.5391-9.375-16.238v-37.5c0-6.6992 3.5742-12.887 9.375-16.238 5.8008-3.3477 12.949-3.3477 18.75 0 5.8008 3.3516 9.375 9.5391 9.375 16.238zm56.25 112.5v37.5c0 6.6992-3.5742 12.887-9.375 16.238-5.8008 3.3477-12.949 3.3477-18.75 0-5.8008-3.3516-9.375-9.5391-9.375-16.238v-37.5c0-6.6992 3.5742-12.887 9.375-16.238 5.8008-3.3477 12.949-3.3477 18.75 0 5.8008 3.3516 9.375 9.5391 9.375 16.238zm56.25-112.5v37.5c0 6.6992-3.5742 12.887-9.375 16.238-5.8008 3.3477-12.949 3.3477-18.75 0-5.8008-3.3516-9.375-9.5391-9.375-16.238v-37.5c0-6.6992 3.5742-12.887 9.375-16.238 5.8008-3.3477 12.949-3.3477 18.75 0 5.8008 3.3516 9.375 9.5391 9.375 16.238zm56.25 112.5v37.5c0 6.6992-3.5742 12.887-9.375 16.238-5.8008 3.3477-12.949 3.3477-18.75 0-5.8008-3.3516-9.375-9.5391-9.375-16.238v-37.5c0-6.6992 3.5742-12.887 9.375-16.238 5.8008-3.3477 12.949-3.3477 18.75 0 5.8008 3.3516 9.375 9.5391 9.375 16.238zm56.25-112.5v37.5c0 6.6992-3.5742 12.887-9.375 16.238-5.8008 3.3477-12.949 3.3477-18.75 0-5.8008-3.3516-9.375-9.5391-9.375-16.238v-37.5c0-6.6992 3.5742-12.887 9.375-16.238 5.8008-3.3477 12.949-3.3477 18.75 0 5.8008 3.3516 9.375 9.5391 9.375 16.238zm56.25 112.5v37.5c0 6.6992-3.5742 12.887-9.375 16.238-5.8008 3.3477-12.949 3.3477-18.75 0-5.8008-3.3516-9.375-9.5391-9.375-16.238v-37.5c0-6.6992 3.5742-12.887 9.375-16.238 5.8008-3.3477 12.949-3.3477 18.75 0 5.8008 3.3516 9.375 9.5391 9.375 16.238zm56.25-112.5v37.5c0 6.6992-3.5742 12.887-9.375 16.238-5.8008 3.3477-12.949 3.3477-18.75 0-5.8008-3.3516-9.375-9.5391-9.375-16.238v-37.5c0-6.6992 3.5742-12.887 9.375-16.238 5.8008-3.3477 12.949-3.3477 18.75 0 5.8008 3.3516 9.375 9.5391 9.375 16.238zm-337.5 225v37.5c0 6.6992-3.5742 12.887-9.375 16.238-5.8008 3.3477-12.949 3.3477-18.75 0-5.8008-3.3516-9.375-9.5391-9.375-16.238v-37.5c0-6.6992 3.5742-12.887 9.375-16.238 5.8008-3.3477 12.949-3.3477 18.75 0 5.8008 3.3516 9.375 9.5391 9.375 16.238zm56.25 112.5v37.5c0 6.6992-3.5742 12.887-9.375 16.238-5.8008 3.3477-12.949 3.3477-18.75 0-5.8008-3.3516-9.375-9.5391-9.375-16.238v-37.5c0-6.6992 3.5742-12.887 9.375-16.238 5.8008-3.3477 12.949-3.3477 18.75 0 5.8008 3.3516 9.375 9.5391 9.375 16.238zm56.25-112.5v37.5c0 6.6992-3.5742 12.887-9.375 16.238-5.8008 3.3477-12.949 3.3477-18.75 0-5.8008-3.3516-9.375-9.5391-9.375-16.238v-37.5c0-6.6992 3.5742-12.887 9.375-16.238 5.8008-3.3477 12.949-3.3477 18.75 0 5.8008 3.3516 9.375 9.5391 9.375 16.238zm56.25 112.5v37.5c0 6.6992-3.5742 12.887-9.375 16.238-5.8008 3.3477-12.949 3.3477-18.75 0-5.8008-3.3516-9.375-9.5391-9.375-16.238v-37.5c0-6.6992 3.5742-12.887 9.375-16.238 5.8008-3.3477 12.949-3.3477 18.75 0 5.8008 3.3516 9.375 9.5391 9.375 16.238zm56.25-112.5v37.5c0 6.6992-3.5742 12.887-9.375 16.238-5.8008 3.3477-12.949 3.3477-18.75 0-5.8008-3.3516-9.375-9.5391-9.375-16.238v-37.5c0-6.6992 3.5742-12.887 9.375-16.238 5.8008-3.3477 12.949-3.3477 18.75 0 5.8008 3.3516 9.375 9.5391 9.375 16.238zm56.25 112.5v37.5c0 6.6992-3.5742 12.887-9.375 16.238-5.8008 3.3477-12.949 3.3477-18.75 0-5.8008-3.3516-9.375-9.5391-9.375-16.238v-37.5c0-6.6992 3.5742-12.887 9.375-16.238 5.8008-3.3477 12.949-3.3477 18.75 0 5.8008 3.3516 9.375 9.5391 9.375 16.238zm56.25-112.5v37.5c0 6.6992-3.5742 12.887-9.375 16.238-5.8008 3.3477-12.949 3.3477-18.75 0-5.8008-3.3516-9.375-9.5391-9.375-16.238v-37.5c0-6.6992 3.5742-12.887 9.375-16.238 5.8008-3.3477 12.949-3.3477 18.75 0 5.8008 3.3516 9.375 9.5391 9.375 16.238z"/>
</svg>
