<?xml version="1.0" encoding="UTF-8"?>
<svg width="1200pt" height="1200pt" version="1.1" viewBox="0 0 1200 1200" xmlns="http://www.w3.org/2000/svg">
 <g>
  <path d="m600 0c-78.793 0-156.82 15.52-229.61 45.672s-138.94 74.348-194.65 130.07c-55.719 55.715-99.914 121.86-130.07 194.65s-45.672 150.82-45.672 229.61c0 159.13 63.215 311.74 175.74 424.26 112.52 112.52 265.13 175.73 424.27 175.73 159.13 0 311.74-63.215 424.26-175.74 112.52-112.52 175.74-265.13 175.74-424.26 0-159.13-63.215-311.74-175.73-424.27-112.52-112.52-265.13-175.74-424.26-175.74zm0 67.762c69.121 0 137.56 13.766 201.42 40.516 63.859 26.746 121.88 65.953 170.76 115.38s87.645 108.1 114.09 172.67c26.453 64.574 40.066 133.79 40.066 203.68 0 141.16-55.457 276.53-154.16 376.34-98.707 99.816-232.58 155.89-372.18 155.89-69.121 0-137.57-13.766-201.43-40.516-63.855-26.746-121.88-65.949-170.76-115.37-48.875-49.422-87.645-108.1-114.1-172.67-26.449-64.574-40.066-133.79-40.066-203.68 0-69.898 13.613-139.11 40.066-203.68 26.449-64.574 65.219-123.25 114.1-172.68 48.875-49.422 106.9-88.625 170.76-115.38 63.859-26.746 132.3-40.512 201.43-40.512z" fill="#a8aaad"/>
  <path d="m953.4 607.42-108.07-270.19c-7.5117-18.801-21.672-34.184-39.781-43.234l-93.992-46.996c-1.6406-0.81641-3.4492-1.2422-5.2812-1.2422h-212.54c-1.8359 0-3.6406 0.42578-5.2812 1.2461l-93.992 46.996c-18.113 9.0469-32.27 24.43-39.785 43.23l-108.07 270.19c-1.1797 2.9492-1.1211 6.25 0.16016 9.1562s3.6797 5.1758 6.6562 6.2891l94.465 35.426c5.9492 2.2148 12.59-0.66016 15.047-6.5156l36.336-87.199v354.24c0.007813 9.3906 3.7461 18.395 10.387 25.035s15.645 10.379 25.035 10.387h330.62c9.3945-0.007813 18.398-3.7461 25.039-10.387 6.6406-6.6406 10.375-15.645 10.387-25.035v-354.24l36.336 87.199c2.4531 5.8594 9.0938 8.7383 15.047 6.5156l94.465-35.426c2.9727-1.1133 5.375-3.3828 6.6562-6.2891s1.3398-6.207 0.16016-9.1562zm-294.36 51.621v271.58h-23.617v-271.58zm-118.08-23.617v-23.617h236.16v23.617zm76.02-47.23-147.68-305.21 21.129-10.562 152.78 315.77zm-78.938-271.59h123.94l-61.98 128.05zm135.37-23.617h-146.8l-11.426-23.617h169.65zm-60.293 178.78 96.484-199.34 21.113 10.555-104.5 215.86zm-212.95 29.219-54.656 131.18-72.512-27.188 103.6-258.98c5.3633-13.43 15.477-24.418 28.414-30.879l43.148-21.574 142.57 294.64h-49.777c-0.007813-6.2617-2.4961-12.266-6.9258-16.691-4.4258-4.4297-10.43-6.918-16.691-6.9258h-23.613c-6.2617 0.007813-12.266 2.4961-16.691 6.9258-4.4297 4.4258-6.918 10.43-6.9258 16.691h-47.23v-82.656c0-5.6289-3.9727-10.477-9.4922-11.582-5.5195-1.1016-11.051 1.8438-13.215 7.0352zm117.17 87.203v188.93h-23.613v-188.93zm-47.23 47.23h-47.23v-23.617h47.23zm-47.23 283.39v-259.78h47.23v129.89c0 3.1328 1.2422 6.1367 3.457 8.3516 2.2148 2.2148 5.2188 3.457 8.3516 3.457h47.23c3.1328 0 6.1367-1.2422 8.3516-3.457s3.4609-5.2188 3.457-8.3516v-129.89h70.848v271.58h-177.12c-6.5195-0.003906-11.801-5.2852-11.805-11.805zm342.43 11.809-82.66-0.003906v-271.58h94.465v259.78c-0.003906 6.5195-5.2891 11.801-11.809 11.805zm89.172-298.45-54.66-131.18c-2.168-5.1914-7.6953-8.1367-13.215-7.0312-5.5195 1.1016-9.4922 5.9492-9.4922 11.578v82.656h-107.68l-30.109-62.234 112.51-232.4 43.141 21.57c12.938 6.4609 23.051 17.449 28.414 30.879l103.6 258.98z"/>
 </g>
</svg>
