<?xml version="1.0" encoding="UTF-8"?>
<svg width="1200pt" height="1200pt" version="1.1" viewBox="0 0 1200 1200" xmlns="http://www.w3.org/2000/svg">
 <defs>
  <clipPath id="a">
   <path d="m281 222.14h638v755.71h-638z"/>
  </clipPath>
 </defs>
 <path d="m600 0c-78.793 0-156.82 15.52-229.61 45.672s-138.94 74.348-194.65 130.07c-55.719 55.715-99.914 121.86-130.07 194.65s-45.672 150.82-45.672 229.61c0 159.13 63.215 311.74 175.74 424.26 112.52 112.52 265.13 175.73 424.27 175.73 159.13 0 311.74-63.215 424.26-175.74 112.52-112.52 175.74-265.13 175.74-424.26 0-159.13-63.215-311.74-175.73-424.27-112.52-112.52-265.13-175.74-424.26-175.74zm0 67.762c69.121 0 137.56 13.766 201.42 40.516 63.859 26.746 121.88 65.953 170.76 115.38s87.645 108.1 114.09 172.67c26.453 64.574 40.066 133.79 40.066 203.68 0 141.16-55.457 276.53-154.16 376.34-98.707 99.816-232.58 155.89-372.18 155.89-69.121 0-137.57-13.766-201.43-40.516-63.855-26.746-121.88-65.949-170.76-115.37-48.875-49.422-87.645-108.1-114.1-172.67-26.449-64.574-40.066-133.79-40.066-203.68 0-69.898 13.613-139.11 40.066-203.68 26.449-64.574 65.219-123.25 114.1-172.68 48.875-49.422 106.9-88.625 170.76-115.38 63.859-26.746 132.3-40.512 201.43-40.512z" fill="#a8aaad"/>
 <g clip-path="url(#a)">
  <path d="m864.96 977.85c5.2812 0.007813 9.9219-3.4922 11.371-8.5664 1.4453-5.0781-0.65234-10.496-5.1367-13.277-54.84-34.004-117.56-47.945-191.36-42.719-9.0234-7.6758-14.402-28.047-15.676-37.641 29.902-20.055 50.371-53.129 63.543-87.027 18.316-1.1914 35.227-10.227 46.395-24.793 0.20312-0.25391 0.33984-0.53516 0.51953-0.80078 0.10547-0.15625 0.25-0.27344 0.35156-0.43359 17.477-27.859 28.715-59.168 32.949-91.777 39.227-13.508 80.285-31.996 106.31-52.059 0.21875-0.16797 0.38672-0.37891 0.59375-0.55859v-0.003907c0.31641-0.26953 0.62109-0.55469 0.91016-0.85937 0.25781-0.28516 0.47656-0.58594 0.70313-0.89063 0.23437-0.30859 0.46484-0.61719 0.66797-0.94922 0.19531-0.32422 0.35547-0.66016 0.51562-1l-0.003906 0.003906c0.17578-0.34766 0.33594-0.70703 0.47656-1.0703 0.12891-0.35156 0.21484-0.71094 0.30859-1.0742 0.10547-0.375 0.19141-0.75391 0.25781-1.1367 0.054687-0.41016 0.089844-0.82422 0.10156-1.2383 0.011719-0.27344 0.070313-0.53906 0.066406-0.81641-2.8672-138.83-41.934-243.04-116.11-309.74-96.062-86.363-214.84-77.27-220.18-76.816-125.41 14.016-217.35 85.688-265.88 207.27-22.434 57.305-34.441 118.16-35.465 179.69 0.003906 0.17969 0.066406 0.35156 0.078125 0.53125h-0.003906c0.039063 0.67969 0.13672 1.3516 0.29297 2.0156 0.066406 0.27734 0.12891 0.54688 0.21484 0.81641 0.23047 0.73437 0.52734 1.4414 0.89453 2.1172 0.066406 0.11719 0.10547 0.25 0.17578 0.36328 0.47266 0.79297 1.0352 1.5234 1.6797 2.1836 0.15234 0.15625 0.32422 0.28125 0.48437 0.42969 0.34375 0.34375 0.70703 0.66406 1.0898 0.96484 28.25 18.898 58.648 34.367 90.559 46.078 5.6211 37.254 19.051 76.559 48.855 99.477 5.125 7.3203 27.988 37.949 59.285 49.266h-0.003906c1.2891 0.46875 2.6484 0.70703 4.0195 0.71094 0.63281-0.046875 1.2656-0.14453 1.8828-0.29297 9.9258 24.324 26.109 45.59 46.91 61.637-1.6875 2.1484-2.5703 4.8164-2.4961 7.5469 0.1875 5.9297-1.4414 22.984-10.047 30.023-74.715-5.6406-138.1 8.2539-193.45 42.574h-0.003906c-2.6602 1.6484-4.5586 4.2891-5.2734 7.3398-0.71484 3.0469-0.19141 6.2578 1.457 8.918 3.4375 5.543 10.715 7.2539 16.262 3.8164 51.129-31.703 110.02-44.492 179.97-39.047h-0.003907c23.258 17.391 51.352 27.117 80.387 27.828 26.355-0.25391 51.914-9.0664 72.828-25.105 1.043-0.77734 1.9492-1.7266 2.6797-2.8008 69.43-5.207 127.99 7.5938 178.84 39.129v-0.003907c1.8633 1.1602 4.0117 1.7695 6.207 1.7695zm-88.242-275.15c-16.949-68.227-92.961-120.77-142-148.34 45.465 1.8555 90.668 7.8125 135.06 17.801 18.473 41.133 20.949 87.676 6.9414 130.54zm21.461-123.59c30.328 8.0508 60.148 17.898 89.305 29.492-24.68 14.859-50.832 27.125-78.039 36.598-0.054687-22.504-3.8594-44.84-11.266-66.09zm-459.33-141.13c45.801-114.2 128.67-178.76 246-191.88 0.20312-0.023438 4.082-0.31641 10.828-0.31641 30.367 0 118.8 6.0664 191.23 71.195 64.922 58.371 101 148.75 107.42 268.89-36.449-14.371-73.895-26.066-112.04-34.996-1.332-0.57422-2.7578-0.89844-4.207-0.95703-129.31-29.559-264.01-25.715-391.42 11.172-2.0703 0.054687-4.0898 0.65625-5.8516 1.7461-25.664 7.6055-50.832 16.805-75.348 27.547 3.1914-52.219 14.457-103.63 33.387-152.4zm-21.355 172.88c12.785-5.6172 31.793-13.27 56.152-21.156-0.95313 16.23-0.90234 32.504 0.14453 48.727-19.363-7.9141-38.172-17.125-56.297-27.57zm80.391-28.516c59.941-16.961 121.75-26.457 184.02-28.266 0.38672 0.24609 0.78516 0.46875 1.1992 0.66797 0.35938 0.15625 7.1367 3.1289 17.734 8.4844-141.49 43.574-172.4 121.08-178.05 164.29-30.188-44.293-26.91-120.46-24.91-145.17zm47.641 169.58c-1.9062-16.5-6.3594-123.09 184.9-172.55 56.5 33.113 141.2 96.598 123.52 171.7-4.6328 5.5508-10.75 9.668-17.633 11.871 5.0469-17.43 8.5117-35.281 10.348-53.336 0.27734-2.9219-0.54297-5.8398-2.3008-8.1875-19.883-26.602-68.957-88.48-95.129-88.48-5.6562 0-10.516 4.0078-11.594 9.5586-0.085937 0.46094-14.461 45.473-141.88 41.16v0.003906c-4.1289-0.16797-8.0391 1.8672-10.273 5.3477l-18.461 28.305c-1.3555 2.0742-2.0234 4.5195-1.9102 6.9922 1.7656 27.41 6.6914 54.52 14.688 80.797-13.305-8.9336-24.914-20.168-34.273-33.172zm43.434-45.027 12.695-19.461c107.23 2.2148 142.42-29.277 153.88-47.891 14.062 9.3516 41.93 39.133 67.082 72.238-3.6094 26.742-26.984 164.93-128.89 159.46-88.059-4.7969-102.82-140.11-104.76-164.35zm58.203 217.54v0.003906c7.2656-11.02 11.25-23.875 11.496-37.07 10.766 4.3438 22.18 6.8672 33.77 7.4609 2.4609 0.13281 4.8867 0.19922 7.2773 0.20312 14.547 0.085938 28.98-2.5859 42.535-7.8672 2.5703 13.328 7.9297 25.961 15.727 37.066-47.727 31.207-91.184 12.402-110.8 0.20703z"/>
 </g>
 <path d="m564.58 759.81c6.5195 0 11.809-5.2852 11.809-11.809 0-6.5195-5.2891-11.805-11.809-11.805h-23.617c-6.5195 0-11.809 5.2852-11.809 11.805 0 6.5234 5.2891 11.809 11.809 11.809z"/>
 <path d="m634.73 759.81h23.617c6.5234 0 11.809-5.2852 11.809-11.809 0-6.5195-5.2852-11.805-11.809-11.805h-23.617c-6.5195 0-11.805 5.2852-11.805 11.805 0 6.5234 5.2852 11.809 11.805 11.809z"/>
 <path d="m568.79 824.18c7.3828 8.8086 17.98 14.293 29.434 15.238 1.25 0.10547 2.4922 0.15625 3.7305 0.15625 10.199 0.007813 20.07-3.6094 27.848-10.207 4.9883-4.2031 5.625-11.652 1.4219-16.637-4.2031-4.9883-11.656-5.625-16.641-1.4219-3.9922 3.3633-9.1562 5.0039-14.355 4.5625-5.1992-0.44141-10.012-2.9258-13.379-6.9141-2.0156-2.3984-4.9062-3.8984-8.0273-4.168-3.125-0.26562-6.2266 0.71875-8.6211 2.7383-2.3984 2.0195-3.8945 4.9102-4.1562 8.0352-0.26562 3.1211 0.72266 6.2227 2.7461 8.6172z"/>
</svg>
