<?xml version="1.0" encoding="UTF-8"?>
<svg width="1200pt" height="1200pt" version="1.1" viewBox="0 0 1200 1200" xmlns="http://www.w3.org/2000/svg">
 <g>
  <path d="m600 0c-78.793 0-156.82 15.52-229.61 45.672s-138.94 74.348-194.65 130.07c-55.719 55.715-99.914 121.86-130.07 194.65s-45.672 150.82-45.672 229.61c0 159.13 63.215 311.74 175.74 424.26 112.52 112.52 265.13 175.73 424.27 175.73 159.13 0 311.74-63.215 424.26-175.74 112.52-112.52 175.74-265.13 175.74-424.26 0-159.13-63.215-311.74-175.73-424.27-112.52-112.52-265.13-175.74-424.26-175.74zm0 67.762c69.121 0 137.56 13.766 201.42 40.516 63.859 26.746 121.88 65.953 170.76 115.38s87.645 108.1 114.09 172.67c26.453 64.574 40.066 133.79 40.066 203.68 0 141.16-55.457 276.53-154.16 376.34-98.707 99.816-232.58 155.89-372.18 155.89-69.121 0-137.57-13.766-201.43-40.516-63.855-26.746-121.88-65.949-170.76-115.37-48.875-49.422-87.645-108.1-114.1-172.67-26.449-64.574-40.066-133.79-40.066-203.68 0-69.898 13.613-139.11 40.066-203.68 26.449-64.574 65.219-123.25 114.1-172.68 48.875-49.422 106.9-88.625 170.76-115.38 63.859-26.746 132.3-40.512 201.43-40.512z" fill="#a8aaad"/>
  <path d="m871.59 245.76h-543.17c-21.914 0.023437-42.926 8.7422-58.418 24.238-15.496 15.492-24.215 36.504-24.238 58.418v543.17c0.023437 21.914 8.7422 42.922 24.238 58.418s36.504 24.211 58.418 24.238h543.17c21.914-0.027344 42.922-8.7422 58.418-24.238s24.211-36.504 24.238-58.418v-543.17c-0.023438-21.914-8.7422-42.926-24.238-58.418-15.496-15.496-36.504-24.215-58.418-24.238zm59.039 625.82c-0.015625 15.652-6.2422 30.66-17.312 41.727-11.066 11.07-26.074 17.297-41.727 17.312h-543.17c-15.652-0.015625-30.66-6.2422-41.73-17.312-11.066-11.066-17.293-26.074-17.312-41.727v-543.17c0.019531-15.652 6.2461-30.66 17.312-41.73 11.07-11.066 26.078-17.293 41.73-17.312h543.17c15.652 0.019531 30.66 6.2461 41.727 17.312 11.07 11.07 17.297 26.078 17.312 41.73zm-59.039-578.59h-543.17c-9.3945 0.011718-18.398 3.7461-25.039 10.387s-10.375 15.645-10.387 25.039v543.17c0.011718 9.3906 3.7461 18.398 10.387 25.039s15.645 10.375 25.039 10.387h543.17c9.3906-0.011719 18.398-3.7461 25.039-10.387s10.375-15.648 10.387-25.039v-543.17c-0.011719-9.3945-3.7461-18.398-10.387-25.039s-15.648-10.375-25.039-10.387zm11.809 578.59c-0.003906 6.5195-5.2891 11.805-11.809 11.809h-543.17c-6.5195-0.003906-11.805-5.2891-11.809-11.809v-543.17c0.007813-6.5195 5.2891-11.801 11.809-11.809h543.17c6.5195 0.007813 11.801 5.2891 11.809 11.809zm-283.39-141.7c-12.523 0-24.539 4.9766-33.398 13.832-8.8555 8.8594-13.832 20.871-13.832 33.398s4.9766 24.543 13.832 33.398c8.8594 8.8594 20.875 13.836 33.398 13.836 12.527 0 24.543-4.9766 33.398-13.836 8.8594-8.8555 13.836-20.871 13.836-33.398-0.011719-12.523-4.9922-24.527-13.848-33.383s-20.863-13.836-33.387-13.848zm0 70.848c-6.2617 0-12.27-2.4883-16.699-6.918-4.4258-4.4297-6.9141-10.434-6.9141-16.699 0-6.2617 2.4883-12.27 6.9141-16.699 4.4297-4.4258 10.438-6.9141 16.699-6.9141 6.2656 0 12.273 2.4883 16.699 6.9141 4.4297 4.4297 6.918 10.438 6.918 16.699-0.007813 6.2617-2.5 12.266-6.9258 16.691-4.4258 4.4258-10.43 6.918-16.691 6.9258zm238.76-346.5c-69.137-51.047-152.82-78.594-238.76-78.594-85.938 0-169.62 27.547-238.75 78.594-9.0312 6.7227-14.852 16.906-16.062 28.102-1.2227 11.695 2.5469 23.363 10.379 32.137 7.7148 8.9336 18.938 14.062 30.742 14.051 8.9688-0.023438 17.691-2.9258 24.883-8.2812 54.73-40.242 120.88-61.945 188.81-61.945 67.934 0 134.09 21.703 188.82 61.945 8.7109 6.4023 19.574 9.1562 30.285 7.6875 10.711-1.4688 20.43-7.0508 27.098-15.562 6.6641-8.5117 9.7578-19.281 8.6211-30.031-1.2109-11.195-7.0312-21.379-16.062-28.102zm-12.121 44.73v-0.003906c-2.9453 3.3242-7.043 5.4062-11.465 5.8281-4.4219 0.41797-8.8359-0.85156-12.359-3.5625-58.781-43.23-129.84-66.547-202.81-66.547s-144.03 23.316-202.81 66.547c-3.7617 2.7539-8.4492 3.9414-13.066 3.3086-4.6211-0.63281-8.8164-3.0312-11.703-6.6953-2.8867-3.6641-4.2383-8.3047-3.7695-12.945 0.46875-4.6562 2.8828-8.8984 6.6445-11.68 65.07-48.039 143.82-73.957 224.71-73.957s159.64 25.918 224.71 73.957c3.7617 2.7812 6.1719 7.0234 6.6445 11.68 0.49609 5.1445-1.2188 10.262-4.7188 14.066zm-67.699 43.656c-46.879-31.863-102.25-48.898-158.93-48.898-56.684 0-112.06 17.035-158.94 48.898-9.7109 6.7578-16.078 17.344-17.496 29.09-1.418 11.75 2.2461 23.543 10.074 32.422 7.8242 8.875 19.066 13.992 30.898 14.059 7.9688 0.015625 15.754-2.3867 22.324-6.8906 33.344-22.754 72.77-34.922 113.13-34.922 40.367 0 79.793 12.168 113.14 34.922 8.3242 5.5469 18.402 7.832 28.305 6.4141 9.9062-1.418 18.938-6.4375 25.371-14.102 7.7227-8.8633 11.281-20.609 9.7734-32.266-1.5039-11.66-7.9297-22.117-17.648-28.727zm-10.215 45.82c-2.6523 3.1875-6.3867 5.2969-10.488 5.918-4.1016 0.62109-8.2891-0.28516-11.77-2.5469-37.27-25.441-81.344-39.051-126.47-39.051s-89.199 13.609-126.47 39.051c-3.8281 2.2578-8.3594 3.0039-12.707 2.0859-4.3477-0.91406-8.1953-3.4258-10.785-7.0391-2.5859-3.6094-3.7305-8.0586-3.2031-12.473 0.61719-4.9766 3.3594-9.4414 7.5195-12.246 42.961-29.191 93.707-44.805 145.65-44.805 51.941 0 102.69 15.613 145.65 44.805 4.1602 2.8047 6.9023 7.2695 7.5195 12.246 0.65234 5.1133-0.97656 10.25-4.4531 14.055zm-72.691 41.906-0.003906-0.003907c-23.559-11.961-49.605-18.195-76.027-18.195-26.418 0-52.465 6.2344-76.023 18.195-11.191 5.8008-19.105 16.414-21.477 28.793-2.3672 12.383 1.0742 25.164 9.332 34.688 7.9922 9.1562 19.539 14.43 31.688 14.473 6.3164 0.019531 12.543-1.5 18.141-4.4297 24.078-12.316 52.605-12.316 76.684 0 8.2383 4.1172 17.617 5.3633 26.648 3.543 9.0273-1.8242 17.191-6.6094 23.188-13.598 8.2578-9.5234 11.691-22.305 9.3203-34.684-2.3711-12.375-10.285-22.984-21.473-28.785zm-5.6602 47.957h-0.003906c-2.4883 3.0039-5.9023 5.0938-9.7109 5.9414s-7.7891 0.39844-11.312-1.2734c-30.98-15.867-67.703-15.867-98.684 0-3.5234 1.6719-7.5 2.1211-11.305 1.2773-3.8047-0.84375-7.2227-2.9336-9.707-5.9375-3.5156-4.0117-4.9805-9.4258-3.9648-14.664 1-5.3203 4.3945-9.8789 9.2031-12.363 40.832-21.156 89.398-21.156 130.23 0 4.8047 2.4844 8.1992 7.043 9.1992 12.363 1.0156 5.2305-0.44531 10.641-3.9531 14.656z"/>
 </g>
</svg>
