<?xml version="1.0" encoding="UTF-8"?>
<svg width="1200pt" height="1200pt" version="1.1" viewBox="0 0 1200 1200" xmlns="http://www.w3.org/2000/svg">
 <g>
  <path d="m600 0c-78.793 0-156.82 15.52-229.61 45.672s-138.94 74.348-194.65 130.07c-55.719 55.715-99.914 121.86-130.07 194.65s-45.672 150.82-45.672 229.61c0 159.13 63.215 311.74 175.74 424.26 112.52 112.52 265.13 175.73 424.27 175.73 159.13 0 311.74-63.215 424.26-175.74 112.52-112.52 175.74-265.13 175.74-424.26 0-159.13-63.215-311.74-175.73-424.27-112.52-112.52-265.13-175.74-424.26-175.74zm0 67.762c69.121 0 137.56 13.766 201.42 40.516 63.859 26.746 121.88 65.953 170.76 115.38s87.645 108.1 114.09 172.67c26.453 64.574 40.066 133.79 40.066 203.68 0 141.16-55.457 276.53-154.16 376.34-98.707 99.816-232.58 155.89-372.18 155.89-69.121 0-137.57-13.766-201.43-40.516-63.855-26.746-121.88-65.949-170.76-115.37-48.875-49.422-87.645-108.1-114.1-172.67-26.449-64.574-40.066-133.79-40.066-203.68 0-69.898 13.613-139.11 40.066-203.68 26.449-64.574 65.219-123.25 114.1-172.68 48.875-49.422 106.9-88.625 170.76-115.38 63.859-26.746 132.3-40.512 201.43-40.512z" fill="#a8aaad"/>
  <path d="m535.41 550.2c-10.434-39.914-6.8633-86.629-1.3203-121.35 14.5-0.79688 41.691-4.6992 56.305-22.133 19.258-22.973 37.047-65.562 32.215-94.305-0.65625-3.9102-4.043-6.7734-8.0039-6.7734h-0.074218c-27.293 0.24609-63.07 22.145-83.324 43.793 0.050781-21.352 1.4609-42.141 4.25-62.215 0.32422-2.3242-0.375-4.6797-1.918-6.4492-1.543-1.7695-3.7734-2.7852-6.1211-2.7852h-0.003906l-70.738 0.035157c-2.3594 0-4.6016 1.0273-6.1406 2.8164-1.543 1.7852-2.2305 4.1562-1.8828 6.4922 6.0742 41.035 6.0898 85.051 0.050781 130.82-0.10938 1.1016-0.03125 2.1562 0.20703 3.168 5.4336 20.238 6.5547 44.105 5.4688 69.297-19.648-22.566-57.527-46.508-86.094-46.73h-0.066406c-3.9609 0-7.3516 2.8633-8.0039 6.7812-4.8047 28.746 13.031 71.316 32.312 94.27 15.363 18.293 44.582 21.641 58.402 22.168 6.8828 46.816 6.2539 83.145-1.9258 116.32-0.003906 0.011719-0.55859 1-0.33594 3.4375 2.8711 15.793 6.7695 48.195 5.2578 79.547-1.9258 1.3008-22.281 15.613-20.246 30.684-18.664 4.4062-35.859 11.965-49.66 24.301-11.609 10.375-22.109 32.074-23.473 38.391l-0.042969-0.007813c-2.5273 15.312-0.72266 26.133 5.6836 34.062 9.1797 11.367 26.18 14.43 48.879 15.531 9.5 0.46094 22.633 5.6992 35.332 10.766 15.625 6.2305 31.703 12.645 45.855 12.645 2.3125 0 4.5742-0.17188 6.7734-0.54297 30.387-5.1328 111.39-23.914 142.34-36.113 0.066406-0.027344 0.125-0.054688 0.19141-0.078126 45.734 34.051 117.93 19.055 138.14 13.73 60.586-14.953 66.738-45.305 62.758-56.625-6.5977-19.957-39.797-27.367-75.207-32.523-0.79688-28.352-42.5-46.285-47.961-48.062-18.035-5.8555-39.754-8.668-59.82-4.7734-2.9414-14.074-14.117-23.961-25.781-28.359 0 0 6.7383-27.551 12.789-43.34 0.92188-2.1523 1.2305-6.3594 1.2305-6.3594l0.58984-7.4297c3.3125-43.082 5.3945-70.105 21.297-110.38 9.7734 7.4414 25.094 16.652 41.078 16.652 1.4414 0 2.8945-0.074218 4.3477-0.23437 26.387-2.8828 63.918-19.004 78.539-40.023 2.3164-3.3281 1.8203-7.8516-1.1562-10.598-15.777-14.566-46.547-22.285-71.633-22.695 5.6094-15.801 8.332-33.465 4.875-46.555-1.0195-3.8594-4.6914-6.4141-8.6641-6.0078-10.355 1.043-21.961 6.4531-32.605 13.801 4.3828-15.797 9.5117-30.461 14.371-42.93 0.27734-0.68359 0.48437-1.4414 0.53516-2.3711 3.2773-46.055 11.836-89.273 25.441-128.45 0.76953-2.2188 0.54297-4.6641-0.625-6.6992-1.168-2.0391-3.1602-3.4688-5.4648-3.9258l-69.391-13.75c-2.3125-0.46484-4.7148 0.10938-6.5742 1.5664-1.8594 1.4531-2.9961 3.6406-3.1133 6-2.0391 41.43-10.602 84.605-25.445 128.33-0.39062 1.0898-0.55469 2.1406-0.41406 3.1484 2.4727 37.316-10.781 83.301-25.469 127.44l-0.41016 2.3359c-1.5078 54.199-9.2539 93.465-25.105 127.32-0.50391 1.3633-0.71484 2.3164-0.75781 3.0391-1.0703 21.535-3.4102 42.121-6.9688 61.664-3.4414 0.44531-21.73 2.5039-27.945 3.7578 0.085938-23.059 4.7031-57.172 4.707-57.316 0-0.14062-1.2148-10.805-1.2148-10.805-5.4766-45.625-8.7773-73.164 0.98438-120.73l-0.089844-3.6641m4.3203-185.96c14.965-17.852 44.609-37.652 67.441-41.66 0.046875 23.184-14.273 55.832-29.238 73.684-9.5938 11.449-29.637 15.301-43.078 16.258-1.207-10.418-2.1172-20.742-2.7266-30.953 1.3398-6.5469 3.7031-12.68 7.6016-17.328zm-90.922 186.52c-13.418-0.83594-34.035-4.582-43.867-16.285-14.98-17.836-29.336-50.473-29.312-73.652 22.836 3.9805 52.504 23.75 67.484 41.586 5.0977 6.0703 7.5703 14.676 8.5703 23.418-0.85547 8.3086-1.8359 16.645-2.875 24.934zm330.29-5.8086c-14.266 13.855-42.133 25.074-61.863 27.23-12.031 1.3438-25.855-6.9414-34.902-14.008 10.391-2.6953 22.898-8 30.137-18.441 1.75-2.5273 3.4453-5.3555 5.0703-8.3711 19.492-0.98828 45.938 3.9453 61.559 13.59zm-64.145-64.598c0.45703 15.809-7.0781 37.504-15.832 50.129-5.6914 8.2109-19.168 12.02-28.277 13.484-1.8242-9.0508-2.9805-23 2.7109-31.211 8.7578-12.625 26.434-27.285 41.398-32.402zm-55.773-184.5 51.215 10.148c-11.496 35.488-19.086 73.969-22.609 114.63l-51.426-10.191c12.492-38.883 20.152-77.348 22.82-114.59zm-24.98 130.71 49.969 9.9023c-6.2617 17.027-12.566 37.141-17.047 58.375-2.6055 2.8984-4.9297 5.8125-6.9062 8.6562-10.359 14.941-7.0977 36.305-4.707 46.395l-45.027-8.9219c12.73-39.07 23.688-79.223 23.719-114.41zm-26.523 130.4 50.387 9.9844c-9.3242 23.773-14.047 43.047-17.012 63.371-2.2578 15.477-5.0156 51.375-5.0156 51.375l-50.48-10.004c13.156-31.641 20.117-67.793 22.121-114.73zm-26.082 130.5 51.152 10.137c-4.4219 13.387-7.9805 26.105-10.859 37.977-15.047-2.0352-31.73-0.625-46.055 1.1445 2.6875-15.812 4.6211-32.242 5.7617-49.258zm-63.133-10.27-51.461 0.027343c6.7383-33.602 6.5156-70.414-0.66016-116.84l51.367-0.027344c-3.7852 19.531-5.043 41.695-4.4336 61.527 1.2617 29.68 5.1875 55.312 5.1875 55.312zm-51.523-249.89 50.938-0.027343c-5.25 33.348-8.6484 77.18-0.55078 116.84l-51.352 0.027344c4.8672-40.801 7.7891-82.32 0.96484-116.84zm51.398 266.12c-2.3984 19.41-3.4219 37.23-3.6289 53.09-3.5898 0.93359-38.031 9.625-44.414 11.859 0.16406-20.836-1.1953-42.516-4.1055-64.922zm-52.379-399.2 52.211-0.027344c-4.3594 37.047-4.3047 76.266 0.16406 116.84l-52.426 0.027344c4.6797-40.574 4.6953-79.789 0.050781-116.84zm-16.047 499.83c0.98828-3.9609 7.1445-9.418 9.168-11.211 9.0156-7.9844 21.125-10.863 33.945-13.906 3.1094-0.73828 13.297-3.375 15.234-3.8984 14.125-3.8242 28.73-7.7773 42.836-8.8867 4.5586-0.35938 9.9531-1.0898 16.195-1.9375 13.602-1.8438 27.16-3.3984 39.195-3.3984 20.32 0 37.203 5.3398 41.383 21.559-9.0781 3.7305-17.441 9.2461-24.488 16.977-5.3359 5.8555-9.2656 10.996-12.008 15.703-0.050781 0.082031-0.10547 0.16797-0.15625 0.25391-2.7812 4.6797-4.6406 9.1445-5.6016 13.387-31.246 10.469-88.629 5.0039-88.629 5.0039-13.73-0.91406-30.82-2.0547-43.988-7.4062-10.262-4.1797-24.691-15.801-23.086-22.238zm50.387 122.15c-11.172 1.8867-27.812-4.7578-43.906-11.176-14.578-5.8125-28.352-11.305-40.559-11.898-21.414-1.0391-32.488-3.8828-37.035-9.5156-3.1992-3.9648-3.9688-10.793-2.3516-20.867 1.207-3.4336 9.3359-21.191 18.375-29.27 12.316-11.008 28.227-17.605 45.711-21.34 7.3633 9.1367 18.906 16.168 26.352 19.195 14.785 8.9102 75.031 10.121 86.426 10.121 18.789 0 37.09-1.5703 53.672-6.2422 3.8945 9.957 12.965 14.84 25.383 18.637-2.6133 7.1562-4.2617 18.801 1.707 29.129-33.176 11.801-105.57 28.461-133.77 33.227zm121.77-87.102c-3.8086-8.9609 8.7109-23.766 13.312-28.816 20.34-22.316 56.145-20.984 82.875-12.305 4.1445 1.3477 34.953 16.98 36.727 33.559-0.23438 3.6133-3 7.1719-8.2188 10.574-18.148 11.836-46.48 12.391-71.805 11.383-41.59-1.6602-50.84-10.617-52.891-14.395zm200.48 44.82c-10.852 10.605-27.828 16.125-43.004 20.125-20.801 5.4844-42.184 7.9766-63.594 7.4062-26.219-0.69922-64.914-11.727-69.371-30.625-0.94531-4.0039-0.29297-8.5078 1.875-13.43 7.5586 1.168 16.156 1.9414 25.859 2.3281 5.1953 0.20703 10.516 0.34766 15.871 0.34766 23.406 0 47.57-2.6953 65.445-14.355 4.3984-2.8711 7.8711-6.0352 10.414-9.4688 11.762 1.6406 26.23 3.8711 39.008 7.4531 21.055 5.9023 25.172 12.117 25.965 14.516 1.6172 4.875-4.6133 11.93-8.4688 15.703z"/>
 </g>
</svg>
