<?xml version="1.0" encoding="UTF-8"?>
<svg width="1200pt" height="1200pt" version="1.1" viewBox="0 0 1200 1200" xmlns="http://www.w3.org/2000/svg">
 <g>
  <path d="m600 0c-78.793 0-156.82 15.52-229.61 45.672s-138.94 74.348-194.65 130.07c-55.719 55.715-99.914 121.86-130.07 194.65s-45.672 150.82-45.672 229.61c0 159.13 63.215 311.74 175.74 424.26 112.52 112.52 265.13 175.73 424.27 175.73 159.13 0 311.74-63.215 424.26-175.74 112.52-112.52 175.74-265.13 175.74-424.26 0-159.13-63.215-311.74-175.73-424.27-112.52-112.52-265.13-175.74-424.26-175.74zm0 67.762c69.121 0 137.56 13.766 201.42 40.516 63.859 26.746 121.88 65.953 170.76 115.38s87.645 108.1 114.09 172.67c26.453 64.574 40.066 133.79 40.066 203.68 0 141.16-55.457 276.53-154.16 376.34-98.707 99.816-232.58 155.89-372.18 155.89-69.121 0-137.57-13.766-201.43-40.516-63.855-26.746-121.88-65.949-170.76-115.37-48.875-49.422-87.645-108.1-114.1-172.67-26.449-64.574-40.066-133.79-40.066-203.68 0-69.898 13.613-139.11 40.066-203.68 26.449-64.574 65.219-123.25 114.1-172.68 48.875-49.422 106.9-88.625 170.76-115.38 63.859-26.746 132.3-40.512 201.43-40.512z" fill="#a8aaad"/>
  <path d="m942.43 245.76h-118.08c-6.5234 0-11.809 5.2852-11.809 11.809v59.121c-57.633-43.324-127.14-67.988-199.19-70.684-72.051-2.6914-143.2 16.715-203.91 55.617l-23.109-49.086c-1.9492-4.1406-6.1133-6.7812-10.688-6.7773h-118.08c-6.5234 0-11.809 5.2852-11.809 11.809v23.613c0 2.0078 0.51172 3.9844 1.4883 5.7383l61.801 111.26c-41.309 59.184-63.406 129.65-63.289 201.82 0.24609 75.406 24.453 148.78 69.133 209.52 44.676 60.746 107.51 105.71 179.41 128.41-0.14062 0.86328-0.27344 1.6875-0.41406 2.5508-0.57422 3.4219 0.39062 6.9258 2.6328 9.5742 2.2422 2.6523 5.5391 4.1797 9.0117 4.1797h165.31c3.4688 0 6.7656-1.5312 9.0078-4.1797 1.2812-1.5938 2.1211-3.4961 2.4336-5.5156 69.566-16.617 132.47-53.906 180.45-106.96 47.973-53.055 78.758-119.39 88.309-190.27 9.5547-70.883-2.5742-143-34.789-206.86l36.676-71.203c0.85938-1.6719 1.3086-3.5273 1.3086-5.4102v-106.27c0-3.1328-1.2422-6.1367-3.457-8.3516s-5.2188-3.457-8.3516-3.457zm-265.68 119.16c-2.1406 0-4.2734 0.23047-6.3633 0.6875-1.5547-8.6484-6.875-16.156-14.523-20.48-7.6484-4.3281-16.824-5.0234-25.035-1.8984-3.6406-5.7461-9.1523-10.062-15.609-12.215-6.4531-2.1523-13.453-2.0078-19.812 0.41016-4.9766-7.7305-13.273-12.695-22.438-13.414 8.9375-0.83984 17.938-1.4062 27.027-1.4062 69.262-0.003906 136.1 25.496 187.75 71.641l-90.07 225.04-7.6289 1.5352c5.4688-32.754 9.707-66.043 12.492-99.625l3.7305-103.04v-17.711c0-7.832-3.1094-15.34-8.6445-20.875-5.5391-5.5352-13.047-8.6484-20.875-8.6484zm-193.92-13.141 6.0234 98.23-10.629-2.125-38.293-81.395c13.719-9.457 28.25-17.688 43.418-24.594-0.60156 3.2578-0.77734 6.5781-0.51953 9.8828zm117.17-82.41c74.984 0.09375 147.71 25.684 206.23 72.562l-9.1641 22.895c-50.758-42.719-114.04-67.77-180.28-71.371-66.246-3.6016-131.87 14.445-186.95 51.418l-10.262-21.715c53.605-35.148 116.32-53.848 180.43-53.789zm-38.965 50.055c-1.4023 0.41406-2.7695 0.93359-4.0977 1.5469-0.26172-0.34375-0.57812-0.625-0.83984-0.95703 1.6445-0.24609 3.3086-0.36328 4.9375-0.58984zm-291.66-50.055h98.773l91.336 193.96c1.5977 3.3828 4.7031 5.8086 8.375 6.543l17.582 3.543v-0.003906c23.609 4.6797 44.465 18.383 58.129 38.199l29.07 41.988v0.003906c0.39844 0.58594 0.85547 1.1328 1.3594 1.6289 5.1484 5.1797 5.1484 13.547 0 18.727-5.2188 4.9492-13.387 4.9805-18.645 0.070312l-52.18-53.148c-4.5859-4.543-11.969-4.5625-16.578-0.042969s-4.7383 11.902-0.28516 16.574l8.8789 9.0469c4.9492 40.148 8.2656 80.105 9.6367 115.88l-78.863-42.98c-17.129-9.3438-28.535-26.543-30.477-45.957l-8.0312-80.863c-0.16406-1.5977-0.65234-3.1484-1.4297-4.5547l-116.65-209.87zm94.758 227.95 7.8398 78.43 0.003906 0.003907c2.6953 27.191 18.656 51.293 42.641 64.387l90.781 49.512v4.8516h-11.668c-12.586 0.003906-24.227 6.6875-30.574 17.555-6.3516 10.867-6.457 24.285-0.28125 35.254-8.7383 5.5938-14.586 14.738-15.996 25.016-1.4102 10.281 1.7539 20.66 8.6641 28.402-4.8047 5.2852-7.8633 11.922-8.7656 19.004-0.90625 7.0859 0.39062 14.277 3.7109 20.602-40.73-25.566-74.352-60.996-97.754-103.01-23.402-42.012-35.828-89.246-36.125-137.34 0.007813-45.477 10.988-90.281 32.012-130.61zm117.79 232.56c0-6.5234 5.2852-11.809 11.809-11.809h1.9609c-3.0664 7.3047-4.6914 15.129-4.7852 23.051-5.2227-1.2344-8.9336-5.875-8.9844-11.242zm0 106.27c-6.5234 0-11.809-5.2891-11.809-11.809 0-6.5234 5.2852-11.809 11.809-11.809h23.617c0 8.2656-0.17578 16.012-0.4375 23.617zm22 23.617c-0.14062 2.1602-0.30859 4.3086-0.47266 6.4336-5.457-1.9844-10.82-4.1289-16.098-6.4375zm-22-70.852c-6.5234 0-11.809-5.2852-11.809-11.809 0-6.5195 5.2852-11.809 11.809-11.809h13.77c2.4023 5.9531 5.7227 11.492 9.8477 16.414v7.2031zm-212.55-188.93c-0.085938-63.355 18.18-125.39 52.594-178.58l13.152 23.688h0.003906c-27.578 46.961-42.125 100.43-42.133 154.89 0.39844 63.984 20.625 126.27 57.895 178.28 37.27 52.012 89.75 91.184 150.21 112.13-0.91016 7.9453-1.9609 15.895-3.1172 23.887-66.305-21.711-124.08-63.766-165.12-120.19-41.035-56.422-63.25-124.34-63.484-194.11zm250.05 330.62c6.5352-39.348 9.7891-79.172 9.7305-119.06v-34.445c0-3.1289-1.2422-6.1328-3.457-8.3477-3.8359-3.8633-6.7969-8.5078-8.6797-13.613 0.15234-0.54297 0.26172-1.0938 0.32812-1.6523-0.054688-2.4414-0.87891-4.8008-2.3594-6.7422-2.0117-11.832 2.0078-23.891 10.723-32.145 2.207-2.2148 3.4492-5.2188 3.4453-8.3477v-7.8984c0-4.6172-0.070313-9.4453-0.14062-14.242 0.03125-0.47656 0.03125-0.95312 0-1.4258-0.58984-32.969-3.0117-70.375-6.9805-108.88l16.531 16.816 0.003906-0.003906c7.0156 6.7109 16.352 10.453 26.059 10.453s19.043-3.7422 26.059-10.453c6.7578-6.7734 10.621-15.91 10.77-25.477 0.14844-9.5703-3.4219-18.82-9.9648-25.805l-28.516-41.211c-12.465-18.031-29.789-32.156-49.961-40.738l-6.5898-107.45c-0.33203-3.6211 0.58984-7.2461 2.6094-10.27l2.7969-4.2031 0.003906-0.003907c2.5586-3.7891 6.6211-6.2969 11.156-6.8828 4.5352-0.58594 9.1055 0.80469 12.543 3.8203 3.4375 3.0117 5.418 7.3594 5.4297 11.934v56.004c0 6.5195 5.2891 11.809 11.809 11.809s11.809-5.2891 11.809-11.809v-53.137c0-3.2617 2.6445-5.9023 5.9023-5.9023 3.2617 0 5.9062 2.6406 5.9062 5.9023v53.137c0 6.5195 5.2852 11.809 11.809 11.809 6.5195 0 11.805-5.2891 11.805-11.809v-41.328c0-3.2617 2.6445-5.9023 5.9062-5.9023s5.9023 2.6406 5.9023 5.9023v41.328c0 6.5195 5.2891 11.809 11.809 11.809 6.5234 0 11.809-5.2891 11.809-11.809v-29.52c0-3.2617 2.6445-5.9062 5.9023-5.9062 3.2617 0 5.9062 2.6445 5.9062 5.9062v29.52c0 6.5195 5.2852 11.809 11.809 11.809 6.5195 0 11.809-5.2891 11.809-11.809v-5.9023c0-3.2617 2.6406-5.9062 5.9023-5.9062 3.2617 0 5.9023 2.6445 5.9023 5.9062v17.285l-3.6836 102.07c-2.9883 35.922-7.7109 72.027-13.957 107.38v-0.003906c-19.703 7.0234-37.156 19.219-50.527 35.309l-39.121 47.352 0.003906-0.003906c-6.9023 6.9219-10.777 16.297-10.777 26.066 0 9.7734 3.875 19.148 10.777 26.066 7.0195 6.7188 16.359 10.469 26.078 10.469 9.7148 0 19.059-3.75 26.078-10.469l30.488-30.699c3.5117 7.1172 4.6953 15.16 3.3828 22.984-1.3125 7.8281-5.0586 15.043-10.703 20.621-2.1914 2.1875-3.4336 5.1484-3.4609 8.2422v34.445c0 11.535 0.23438 22.434 0.69531 32.789-0.85156 2.6758-0.69531 5.5703 0.4375 8.1367 1.5117 26.176 4.3789 52.258 8.5977 78.133zm353.66-406.37c13.363 48.164 13.738 99.008 1.0859 147.36-12.652 48.355-37.883 92.5-73.121 127.95-35.242 35.449-79.238 60.934-127.52 73.867-0.56641-6.3672-1.0469-12.863-1.4414-19.484l81.652-48.414c22.59-13.414 37.48-36.742 40.148-62.875l8.0312-80.211zm57.539 75.746c-0.25391 73.789-25.102 145.39-70.605 203.47-45.504 58.086-109.07 99.348-180.66 117.26-1.1797-7.9219-2.3008-15.75-3.2695-23.559v0.003906c65.859-17.164 124.2-55.602 165.96-109.34 41.758-53.742 64.594-119.77 64.957-187.83-0.011719-35.895-6.3633-71.508-18.766-105.2l14.43-28.008c18.562 41.949 28.082 87.332 27.949 133.2zm0-239.03-150.76 292.66c-0.67578 1.3203-1.0977 2.7539-1.2539 4.2266l-8.2656 82.457c-1.8984 18.66-12.523 35.316-28.645 44.906l-70.707 41.918c-0.10547-5.0781-0.17578-10.227-0.17578-15.574v-29.84c8.6445-10.195 13.75-22.922 14.562-36.266 0.80859-13.344-2.7266-26.59-10.078-37.758l3.8984-3.9336c4.5938-4.6289 4.5625-12.105-0.066407-16.703-4.6289-4.5938-12.109-4.5625-16.703 0.066406l-51.672 52.121c-2.5625 2.5391-6.0508 3.9258-9.6562 3.8438-3.6094-0.085937-7.0273-1.6328-9.4688-4.2891-2.4453-2.6562-3.6992-6.1914-3.4844-9.793 0.21875-3.6016 1.8945-6.9609 4.6367-9.3047l39.863-48.176h0.003906c13.578-16.383 32.367-27.613 53.23-31.812l22.672-4.5352v0.003906c3.9102-0.77734 7.168-3.4805 8.6523-7.1797l118.08-295.2v-0.003906c0.56641-1.3945 0.86328-2.8867 0.875-4.3906v-59.043h94.465z"/>
  <path d="m647.23 564.58h-23.617c-0.019532 15.652-6.2461 30.66-17.312 41.727-11.066 11.066-26.074 17.293-41.727 17.312v23.617c21.914-0.027344 42.922-8.7422 58.418-24.238s24.211-36.504 24.238-58.418z"/>
  <path d="m435.2 734.23c-21.191-26.012-35.934-56.668-43.016-89.469l-23.086 4.9375c7.8672 36.461 24.258 70.543 47.824 99.457z"/>
 </g>
</svg>
