<?xml version="1.0" encoding="UTF-8"?>
<svg width="1200pt" height="1200pt" version="1.1" viewBox="0 0 1200 1200" xmlns="http://www.w3.org/2000/svg">
 <g>
  <path d="m600 0c-78.793 0-156.82 15.52-229.61 45.672s-138.94 74.348-194.65 130.07c-55.719 55.715-99.914 121.86-130.07 194.65s-45.672 150.82-45.672 229.61c0 159.13 63.215 311.74 175.74 424.26 112.52 112.52 265.13 175.73 424.27 175.73 159.13 0 311.74-63.215 424.26-175.74 112.52-112.52 175.74-265.13 175.74-424.26 0-159.13-63.215-311.74-175.73-424.27-112.52-112.52-265.13-175.74-424.26-175.74zm0 67.762c69.121 0 137.56 13.766 201.42 40.516 63.859 26.746 121.88 65.953 170.76 115.38s87.645 108.1 114.09 172.67c26.453 64.574 40.066 133.79 40.066 203.68 0 141.16-55.457 276.53-154.16 376.34-98.707 99.816-232.58 155.89-372.18 155.89-69.121 0-137.57-13.766-201.43-40.516-63.855-26.746-121.88-65.949-170.76-115.37-48.875-49.422-87.645-108.1-114.1-172.67-26.449-64.574-40.066-133.79-40.066-203.68 0-69.898 13.613-139.11 40.066-203.68 26.449-64.574 65.219-123.25 114.1-172.68 48.875-49.422 106.9-88.625 170.76-115.38 63.859-26.746 132.3-40.512 201.43-40.512z" fill="#a8aaad"/>
  <path d="m493.73 422.88v-108.28c-0.52734-21.715-9.582-42.352-25.203-57.445-15.625-15.09-36.559-23.426-58.281-23.203h-57.387c-21.723-0.22266-42.656 8.1133-58.281 23.203-15.621 15.094-24.676 35.73-25.203 57.445v108.28c-22.859 26.715-35.422 60.719-35.422 95.879v435.48h23.617v-435.95c-0.007812-18.211 4.0234-36.195 11.805-52.664v55.617c0.3125 18.051 7.7734 35.238 20.746 47.793 12.977 12.551 30.398 19.441 48.449 19.16h85.965c18.051 0.28125 35.477-6.6094 48.449-19.16 12.973-12.555 20.434-29.742 20.746-47.793v-55.617c7.7812 16.469 11.812 34.453 11.809 52.664v435.95h23.617l-0.003906-435.95c-0.019532-35.016-12.586-68.863-35.422-95.406zm-200.74-16.18v-57.27c6.668 2.3945 13.699 3.5938 20.781 3.543 15.414 0.1875 30.289-5.6602 41.449-16.293 7.0977-7.0391 16.688-10.988 26.684-10.988s19.59 3.9492 26.688 10.988c8.1328 7.5078 18.141 12.68 28.973 14.965 10.828 2.2852 22.074 1.6055 32.547-1.9766v52.898c-6.5117 5.7227-14.953 8.7617-23.617 8.5039-10.047 0.14453-19.703-3.875-26.684-11.102-11.289-10.492-26.156-16.277-41.566-16.176-15.371-0.15625-30.199 5.6914-41.328 16.293-6.9961 7.0469-16.52 11-26.449 10.984-6.1172 0.18359-12.164-1.332-17.477-4.3711zm59.867-149.13h57.387c15.461-0.22656 30.391 5.6211 41.586 16.285 11.191 10.664 17.758 25.293 18.281 40.746v8.7383c-5.8477 4.1523-12.902 6.2695-20.074 6.0234-10.199 0.21875-20.031-3.8008-27.156-11.102-11.281-10.34-26.027-16.074-41.328-16.074-15.305 0-30.051 5.7344-41.328 16.074-7.0156 7.1797-16.652 11.188-26.688 11.102-7.3516 0.24609-14.582-1.9531-20.547-6.2617v-8.5c0.52344-15.453 7.0898-30.082 18.281-40.746 11.195-10.664 26.125-16.512 41.586-16.285zm71.676 307.01h-85.965c-11.785 0.28516-23.207-4.1172-31.75-12.242-8.5469-8.125-13.52-19.309-13.828-31.094v-8.2656c6.6758 2.3477 13.707 3.5039 20.781 3.4258 15.379 0.11719 30.215-5.6719 41.449-16.18 7.0977-7.0352 16.688-10.984 26.684-10.984s19.59 3.9492 26.688 10.984c8.1758 7.4336 18.188 12.555 29 14.836 10.809 2.2852 22.035 1.6445 32.52-1.8477v8.0312c-0.30859 11.785-5.2812 22.969-13.828 31.094-8.543 8.125-19.965 12.527-31.75 12.242zm45.578-77.699c-5.8633 4.1133-12.918 6.1875-20.074 5.9062-10.156 0.23828-19.969-3.6875-27.156-10.863-11.281-10.34-26.027-16.074-41.328-16.074-15.305 0-30.051 5.7344-41.328 16.074-7.043 7.125-16.672 11.086-26.688 10.98-7.375 0.28125-14.625-1.9688-20.547-6.375v0.58984-55.027c5.6562 1.7656 11.551 2.6406 17.477 2.5977 15.422 0.16406 30.309-5.6289 41.562-16.176 7.0898-7.1016 16.711-11.094 26.746-11.094s19.656 3.9922 26.746 11.094c11.113 10.395 25.758 16.176 40.973 16.176 7.6875 0.097656 15.316-1.3477 22.438-4.25 0.28516 0.34375 0.59766 0.66016 0.94531 0.94531z"/>
  <path d="m859.78 497.04-3.0703-15.113h3.0703c3.332-0.007813 6.5078-1.4219 8.7383-3.8984 2.2656-2.457 3.3789-5.7617 3.0703-9.0898l-23.617-224.35v-0.003906c-0.60547-6.0547-5.7188-10.656-11.805-10.625h-212.55c-6.0859-0.03125-11.199 4.5703-11.809 10.625l-23.617 224.35 0.003906 0.003906c-0.34375 3.3086 0.73047 6.6133 2.9492 9.0898 2.2617 2.5039 5.4844 3.9219 8.8555 3.8984h3.0703l-3.0703 15.113c-7.9219 44.234-11.875 89.086-11.805 134.02v120.44c-0.019531 41.262 3.3789 82.453 10.152 123.16l3.6602 22.434v0.003906c3.2422 19.289 13.219 36.805 28.16 49.43 14.941 12.629 33.875 19.547 53.434 19.527h92.574c19.578 0.015625 38.527-6.9219 53.469-19.57 14.941-12.652 24.91-30.195 28.125-49.508l3.6602-22.199c6.7734-40.742 10.168-81.973 10.156-123.27v-120.44c0.070312-44.938-3.8828-89.789-11.809-134.02zm-11.809 134.02v9.0938-0.003906c-11.527-3.2148-23.453-4.8047-35.422-4.7227-25.277-0.62891-50.094 6.8164-70.848 21.254v-174.76h91.039l3.543 19.363c7.7695 42.82 11.68 86.254 11.688 129.77zm-232.38-196.37h126.11c6.5195 0 11.809-5.2852 11.809-11.805 0-6.5234-5.2891-11.809-11.809-11.809h-123.63l16.18-153.5h191.29l21.137 200.74-233.56-0.003906zm8.0273 66.598 3.543-19.363h90.922v189.64c-14.488 7.8008-30.785 11.629-47.23 11.098-21.152 0.64844-41.918-5.75-59.043-18.184v-33.414c0.046875-43.523 4-86.957 11.809-129.77zm214.55 369.59-3.6602 22.199v0.003906c-2.293 13.805-9.418 26.348-20.102 35.387-10.684 9.0391-24.234 13.992-38.23 13.969h-92.574c-13.957 0-27.465-4.9492-38.121-13.961-10.656-9.0156-17.773-21.512-20.09-35.277l-3.6602-22.434h-0.003907c-6.6289-39.41-9.9492-79.301-9.918-119.26v-59.043c18.117 9.7422 38.488 14.508 59.043 13.816 16.16 0.29297 32.215-2.6367 47.23-8.6211v138.51c0 6.5195 5.2852 11.805 11.809 11.805 6.5195 0 11.809-5.2852 11.809-11.805v-151.14l6.4961-4.3672h-0.003906c28.602-21.438 65.949-27.359 99.777-15.824v86.672c0.027344 40-3.2891 79.93-9.918 119.38z"/>
  <path d="m800.74 411.07h-23.617c-6.5195 0-11.809 5.2852-11.809 11.809 0 6.5195 5.2891 11.805 11.809 11.805h23.617c6.5195 0 11.809-5.2852 11.809-11.805 0-6.5234-5.2891-11.809-11.809-11.809z"/>
 </g>
</svg>
