<?xml version="1.0" encoding="UTF-8"?>
<svg width="1200pt" height="1200pt" version="1.1" viewBox="0 0 1200 1200" xmlns="http://www.w3.org/2000/svg">
 <defs>
  <clipPath id="b">
   <path d="m831 495h146.86v266h-146.86z"/>
  </clipPath>
  <clipPath id="a">
   <path d="m222.14 245h504.86v560h-504.86z"/>
  </clipPath>
 </defs>
 <path d="m600 0c-78.793 0-156.82 15.52-229.61 45.672s-138.94 74.348-194.65 130.07c-55.719 55.715-99.914 121.86-130.07 194.65s-45.672 150.82-45.672 229.61c0 159.13 63.215 311.74 175.74 424.26 112.52 112.52 265.13 175.73 424.27 175.73 159.13 0 311.74-63.215 424.26-175.74 112.52-112.52 175.74-265.13 175.74-424.26 0-159.13-63.215-311.74-175.73-424.27-112.52-112.52-265.13-175.74-424.26-175.74zm0 67.762c69.121 0 137.56 13.766 201.42 40.516 63.859 26.746 121.88 65.953 170.76 115.38s87.645 108.1 114.09 172.67c26.453 64.574 40.066 133.79 40.066 203.68 0 141.16-55.457 276.53-154.16 376.34-98.707 99.816-232.58 155.89-372.18 155.89-69.121 0-137.57-13.766-201.43-40.516-63.855-26.746-121.88-65.949-170.76-115.37-48.875-49.422-87.645-108.1-114.1-172.67-26.449-64.574-40.066-133.79-40.066-203.68 0-69.898 13.613-139.11 40.066-203.68 26.449-64.574 65.219-123.25 114.1-172.68 48.875-49.422 106.9-88.625 170.76-115.38 63.859-26.746 132.3-40.512 201.43-40.512z" fill="#a8aaad"/>
 <path d="m718.65 421.65c-2.2656 0-3.7773-0.75391-5.2891-2.2656l-41.562-41.562c-3.0234-3.0234-3.0234-8.3125 0-11.336 3.0234-3.0234 8.3125-3.0234 11.336 0l41.562 41.562c3.0234 3.0234 3.0234 8.3125 0 11.336-2.2695 1.5117-3.7812 2.2656-6.0469 2.2656z"/>
 <path d="m793.46 482.11c-24.938 0-49.879-9.0703-71.039-26.449-3.0234-3.0234-5.2891-6.8008-5.2891-11.336 0-4.5352 1.5117-8.3125 4.5352-11.336l117.89-117.89c3.0234-3.0234 6.8008-4.5352 11.336-4.5352 4.5352 0 8.3125 2.2656 11.336 5.2891 35.52 41.562 35.52 102.02-0.75391 138.3-18.141 18.895-42.32 27.961-68.016 27.961zm56.68-155.68-117.14 117.89c35.52 30.23 86.906 30.23 117.14 0 30.227-30.984 30.227-82.371 0-117.89z"/>
 <path d="m743.59 395.96c-2.2656 0-3.7773-0.75391-5.2891-2.2656l-41.562-41.562c-3.0234-3.0234-3.0234-8.3125 0-11.336 3.0234-3.0234 8.3125-3.0234 11.336 0l41.562 41.562c3.0234 3.0234 3.0234 8.3125 0 11.336-1.5117 1.5117-3.7773 2.2656-6.0469 2.2656z"/>
 <path d="m769.28 370.27c-2.2656 0-3.7773-0.75391-5.2891-2.2656l-41.562-41.562c-3.0234-3.0234-3.0234-8.3125 0-11.336 3.0234-3.0234 8.3125-3.0234 11.336 0l41.562 41.562c3.0234 3.0234 3.0234 8.3125 0 11.336-2.2695 1.5078-3.7812 2.2656-6.0469 2.2656z"/>
 <path d="m794.98 345.32c-2.2656 0-3.7773-0.75391-5.2891-2.2656l-41.562-41.562c-3.0234-3.0234-3.0234-8.3125 0-11.336 3.0234-3.0234 8.3125-3.0234 11.336 0l41.562 41.562c3.0234 3.0234 3.0234 8.3125 0 11.336-2.2695 1.5117-4.5352 2.2656-6.0469 2.2656z"/>
 <path d="m819.91 319.63c-2.2656 0-3.7773-0.75391-5.2891-2.2656l-41.562-41.562c-3.0234-3.0234-3.0234-8.3125 0-11.336s8.3125-3.0234 11.336 0l41.562 41.562c3.0234 3.0234 3.0234 8.3125 0 11.336-1.5117 1.5078-3.7773 2.2656-6.0469 2.2656z"/>
 <path d="m965.01 566c-2.2656 0-3.7773-0.75391-5.2891-2.2656l-109.58-108.82c-3.0234-3.0234-3.0234-8.3125 0-11.336 3.0234-3.0234 8.3125-3.0234 11.336 0l108.82 109.58c3.0234 3.0234 3.0234 8.3125 0 11.336-1.5117 0.75391-3.0234 1.5117-5.2891 1.5117z"/>
 <g clip-path="url(#b)">
  <path d="m939.32 760.21c-2.2656 0-4.5352-0.75391-6.0469-2.2656-3.0234-3.0234-2.2656-8.3125 0.75391-11.336 9.8242-9.0703 17.383-17.383 21.914-23.426-96.73-19.648-111.09-123.94-123.94-216.13v-2.2656c-0.75391-4.5352 2.2656-8.3125 6.8008-9.0703 4.5352-0.75391 8.3125 2.2656 9.0703 6.8008v2.2656c13.609 95.215 26.453 193.46 123.19 204.8 2.2656 0 4.5352 2.2656 6.0469 4.5352 1.5117 2.2656 0.75391 5.2891 0 7.5586-0.75391 0.75391-10.578 18.137-31.738 37.031-2.2695 1.5078-3.7812 1.5078-6.0508 1.5078z"/>
 </g>
 <g clip-path="url(#a)">
  <path d="m375.55 804.04c-102.78 0-151.9-81.617-152.66-82.371-1.5117-2.2656-1.5117-5.2891 0-7.5586 1.5117-2.2656 3.7773-3.7773 6.0469-4.5352 95.977-11.332 108.07-103.53 121.67-201.02 6.0469-46.098 12.848-93.707 29.473-130.74 24.184-54.41 71.035-96.73 132.25-117.89 68.77-23.426 147.36-18.137 210.09 15.113 3.7773 2.2656 5.2891 6.8008 3.0234 10.578s-6.8008 5.2891-10.578 3.0234c-58.949-30.98-133.01-36.27-198-13.602-56.68 19.648-100.51 58.191-123.18 109.58-15.117 34.766-21.164 79.352-27.965 126.21-12.848 95.219-26.449 193.46-122.43 212.36 17.383 23.426 70.281 78.594 164.75 62.723 4.5352-0.75391 8.3125 2.2656 9.0703 6.0469 0.75391 4.5352-2.2656 8.3125-6.0469 9.0703-12.848 2.2656-24.184 3.0195-35.52 3.0195z"/>
 </g>
 <path d="m600 866.01c-48.367 0-94.465-26.449-123.18-70.281-46.855-74.816-56.68-194.97-58.945-242.59-2.2656-48.367 23.426-92.195 65.746-114.11 50.633-25.695 112.6-16.625 165.5 24.938 3.7773 3.0234 9.0703 7.5586 15.113 12.848 24.184 21.16 65.746 57.434 111.85 67.258 4.5352 0.75391 6.8008 5.2891 6.0469 9.0703-0.75391 4.5352-5.2891 6.8008-9.0703 6.0469-49.879-11.336-92.953-48.367-118.65-71.039-5.2891-4.5352-10.578-9.0703-14.359-12.09-47.609-37.785-103.53-46.855-148.88-23.426-37.785 19.648-59.703 56.68-57.434 99.754 2.2656 46.855 11.336 163.23 55.922 235.03 25.695 39.297 66.504 62.723 109.58 62.723 21.16 0 42.32-6.0469 61.211-16.625 3.7773-2.2656 8.3125-0.75391 10.578 3.0234 2.2656 3.7773 0.75391 8.3125-3.0234 10.578-20.395 12.094-44.578 18.895-68.008 18.895z"/>
 <path d="m742.83 749.63c-0.75391 0-2.2656 0-3.0234-0.75391-3.7773-1.5117-6.0469-6.0469-3.7773-10.578 26.449-61.211 30.23-126.2 30.23-187.42 0-4.5352 3.7773-7.5586 7.5586-7.5586 4.5352 0 7.5586 3.7773 7.5586 7.5586 0 62.723-3.7773 129.23-31.738 193.46-0.76172 3.7773-3.7852 5.2891-6.8086 5.2891z"/>
 <path d="m883.39 954.43h-142.83c-11.336 0-20.402-9.0703-20.402-20.402v-25.695l-38.543-87.664c-1.5117-3.7773 0-8.3125 3.7773-10.578 3.7773-1.5117 8.3125 0 10.578 3.7773l40.055 91.438v28.719c0 3.0234 2.2656 5.2891 5.2891 5.2891h142.83c3.0234 0 5.2891-2.2656 5.2891-5.2891v-28.719l40.055-90.688c1.5117-3.7773 6.0469-6.0469 10.578-3.7773 3.7773 1.5117 6.0469 6.0469 3.7773 10.578l-38.543 87.664v25.695c-1.5078 10.582-10.574 19.652-21.91 19.652z"/>
 <path d="m812.36 840.32c-57.434 0-154.16-8.3125-154.16-39.297 0-30.984 96.73-39.297 154.16-39.297 57.434 0 154.16 8.3125 154.16 39.297 0.003907 30.984-97.484 39.297-154.16 39.297zm0-62.727c-86.152 0-136.03 15.113-138.3 23.426 3.0234 7.5586 52.898 23.426 138.3 23.426 85.395 0 135.27-15.113 138.3-23.426-3.7773-8.3125-53.656-23.426-138.3-23.426z"/>
 <path d="m812.36 914.38h-84.637c-4.5352 0-7.5586-3.7773-7.5586-7.5586 0-4.5352 3.7773-7.5586 7.5586-7.5586h83.883c4.5352 0 7.5586 3.7773 7.5586 7.5586 0.75391 3.7812-3.0234 7.5586-6.8047 7.5586z"/>
</svg>
