<?xml version="1.0" encoding="UTF-8"?>
<svg width="1200pt" height="1200pt" version="1.1" viewBox="0 0 1200 1200" xmlns="http://www.w3.org/2000/svg">
 <g>
  <path d="m75 573.75h41.25v205.31c0 111.56 73.125 206.25 174.38 238.12l-32.812 33.75 33.75 32.812 53.438-54.375h506.25l57.188 55.312 32.812-33.75-33.75-32.812c102.19-30.938 176.25-126.56 176.25-238.12v-206.25h41.25c33.75 0 60.938-27.188 60.938-60.938s-27.188-60.938-60.938-60.938h-1050c-33.75 0-60.938 27.188-60.938 60.938s27.188 60.938 60.938 60.938zm759.38 407.81h-468.75c-111.56 0-202.5-90.938-202.5-202.5v-205.31h872.81v205.31c0.9375 111.56-90 202.5-201.56 202.5zm-759.38-483.75h1050c7.5 0 14.062 6.5625 14.062 14.062s-6.5625 14.062-14.062 14.062h-1050c-7.5 0-14.062-6.5625-14.062-14.062s6.5625-14.062 14.062-14.062z"/>
  <path d="m333.75 217.5c-3.75 8.4375-8.4375 18.75-9.375 32.812-1.875 28.125 12.188 58.125 41.25 88.125 4.6875 4.6875 10.312 7.5 16.875 7.5 5.625 0 11.25-1.875 15.938-6.5625 9.375-9.375 9.375-23.438 0.9375-32.812-13.125-14.062-29.062-34.688-28.125-53.438 0-5.625 1.875-9.375 4.6875-15.938 3.75-7.5 7.5-17.812 10.312-31.875 3.75-24.375-0.9375-50.625-14.062-76.875-5.625-11.25-19.688-15.938-30.938-10.312s-15.938 19.688-10.312 30.938c8.4375 17.812 12.188 33.75 9.375 48.75-1.875 8.4375-3.75 14.062-6.5625 19.688z"/>
  <path d="m568.12 212.81c-3.75 8.4375-8.4375 18.75-9.375 32.812-1.875 28.125 12.188 58.125 41.25 88.125 4.6875 4.6875 10.312 7.5 16.875 7.5 5.625 0 11.25-1.875 15.938-6.5625 9.375-9.375 9.375-23.438 0.9375-32.812-13.125-14.062-29.062-34.688-28.125-53.438 0-5.625 1.875-9.375 4.6875-15.938 3.75-7.5 7.5-17.812 10.312-31.875 3.75-24.375-0.9375-50.625-14.062-76.875-5.625-11.25-19.688-15.938-30.938-10.312s-15.938 19.688-10.312 30.938c8.4375 17.812 12.188 33.75 9.375 48.75-0.9375 7.5-3.75 13.125-6.5625 19.688z"/>
  <path d="m802.5 218.44c-3.75 8.4375-8.4375 18.75-9.375 32.812-1.875 28.125 12.188 58.125 41.25 88.125 4.6875 4.6875 10.312 7.5 16.875 7.5 5.625 0 11.25-1.875 15.938-6.5625 9.375-9.375 9.375-23.438 0.9375-32.812-13.125-14.062-29.062-34.688-28.125-53.438 0-5.625 1.875-9.375 4.6875-15.938 3.75-7.5 7.5-17.812 10.312-31.875 3.75-24.375-0.9375-50.625-14.062-76.875-5.625-11.25-19.688-15.938-30.938-10.312s-15.938 19.688-10.312 30.938c8.4375 17.812 12.188 33.75 9.375 48.75-0.9375 8.4375-3.75 13.125-6.5625 19.688z"/>
 </g>
</svg>
