<?xml version="1.0" encoding="UTF-8"?>
<svg width="1200pt" height="1200pt" version="1.1" viewBox="0 0 1200 1200" xmlns="http://www.w3.org/2000/svg">
 <g>
  <path d="m600 0c-78.793 0-156.82 15.52-229.61 45.672s-138.94 74.348-194.65 130.07c-55.719 55.715-99.914 121.86-130.07 194.65s-45.672 150.82-45.672 229.61c0 159.13 63.215 311.74 175.74 424.26 112.52 112.52 265.13 175.73 424.27 175.73 159.13 0 311.74-63.215 424.26-175.74 112.52-112.52 175.74-265.13 175.74-424.26 0-159.13-63.215-311.74-175.73-424.27-112.52-112.52-265.13-175.74-424.26-175.74zm0 67.762c69.121 0 137.56 13.766 201.42 40.516 63.859 26.746 121.88 65.953 170.76 115.38s87.645 108.1 114.09 172.67c26.453 64.574 40.066 133.79 40.066 203.68 0 141.16-55.457 276.53-154.16 376.34-98.707 99.816-232.58 155.89-372.18 155.89-69.121 0-137.57-13.766-201.43-40.516-63.855-26.746-121.88-65.949-170.76-115.37-48.875-49.422-87.645-108.1-114.1-172.67-26.449-64.574-40.066-133.79-40.066-203.68 0-69.898 13.613-139.11 40.066-203.68 26.449-64.574 65.219-123.25 114.1-172.68 48.875-49.422 106.9-88.625 170.76-115.38 63.859-26.746 132.3-40.512 201.43-40.512z" fill="#a8aaad"/>
  <path d="m422.88 458.3h11.809-0.003906c0 3.1328-1.2422 6.1367-3.457 8.3516-2.2148 2.2148-5.2188 3.457-8.3477 3.457v23.617c9.3945 0 18.402-3.7344 25.047-10.375 6.6445-6.6445 10.375-15.656 10.375-25.051v-11.809c0-3.1289-1.2422-6.1328-3.457-8.3477-2.2148-2.2148-5.2188-3.4609-8.3516-3.4609h-11.809v-35.422h-23.613v47.23c0 3.1328 1.2422 6.1367 3.457 8.3516s5.2188 3.457 8.3516 3.457z"/>
  <path d="m363.84 411.07h23.617v23.617h-23.617z"/>
  <path d="m458.3 411.07h23.617v23.617h-23.617z"/>
  <path d="m691.01 650.7-3.4609-3.4609h65.961v35.426-0.003906c0 3.1328 1.2422 6.1367 3.457 8.3516 2.2148 2.2148 5.2188 3.457 8.3477 3.457h47.234c3.1328 0 6.1328-1.2422 8.3477-3.457 2.2148-2.2148 3.4609-5.2188 3.4609-8.3516v-47.23c0-3.1328-1.2461-6.1367-3.4609-8.3477-2.2148-2.2148-5.2148-3.4609-8.3477-3.4609h-148.62l-8.3477-8.3477c-4.6094-4.6094-12.086-4.6094-16.695 0l-8.3477 8.3477h-18.73c-6.5195 0-11.809 5.2891-11.809 11.809v18.727l-35.426 35.426 0.003906-63.598c0-16.285-6.4688-31.902-17.984-43.418s-27.133-17.984-43.418-17.984h-56.68v-12.754c19.652-2.8516 37.621-12.672 50.625-27.676 13.008-15 20.188-34.18 20.223-54.035v-70.848c3.1328 0 6.1367-1.2461 8.3516-3.4609 2.2148-2.2109 3.457-5.2148 3.457-8.3477v-35.789c-0.83203-28.852-13.062-56.195-34.016-76.047-20.949-19.852-48.918-30.59-77.77-29.859-28.855-0.73047-56.82 10.008-77.773 29.859-20.949 19.852-33.184 47.195-34.012 76.047v31.551c-1.3984 3.6328-0.91797 7.7188 1.2891 10.926 2.2031 3.207 5.8477 5.125 9.7383 5.1211v2.0195c-9.2734 3.2695-16.77 10.25-20.691 19.266-3.9258 9.0195-3.9258 19.258 0 28.273 3.9219 9.0195 11.418 15.996 20.691 19.27v2.0195c0.019531 15.621 4.4688 30.918 12.828 44.117 8.3594 13.195 20.289 23.754 34.402 30.449v19.898h-56.676c-16.285 0-31.902 6.4688-43.418 17.984s-17.984 27.133-17.984 43.418v269.22c0 3.1328 1.2422 6.1328 3.457 8.3477 2.2148 2.2148 5.2188 3.4609 8.3516 3.4609h35.422v47.23h23.617v-56.254l10.625-21.125c1.6641-3.3203 1.6641-7.2305 0-10.555l-10.625-21.125v-150.72h129.89v259.78h23.617v-259.78h23.617v259.78h23.617l-0.003906-178.69 0.15234 0.11719h0.003906c13.68 9.1914 30.859 11.492 46.477 6.2266l6.8359-2.2773v-0.003907c7.8789-2.6211 15.039-7.0352 20.922-12.895l99.328-99.328h0.003906c4.5938-4.6289 4.5664-12.102-0.058594-16.695zm86.113-3.4609h23.617v23.617h-23.617zm-279.5-329.63c5.207 10.602 7.9141 22.254 7.9141 34.066v22.684l-27.16-2.8477c-13.164-1.375-26.078-4.5547-38.375-9.4453 21-12.336 40.359-27.273 57.621-44.457zm-168.43 34.066c0.83203-22.586 10.574-43.926 27.098-59.348 16.523-15.422 38.484-23.672 61.074-22.945 25.199-0.17578 49.336 10.133 66.633 28.461l-2.1484 2.1484c-21.867 21.965-47.422 39.922-75.5 53.039-24.414 11.422-50.434 19.02-77.156 22.531zm11.031 118.45v-11.809c0-3.1328-1.2461-6.1328-3.4609-8.3477-2.2148-2.2148-5.2188-3.4609-8.3477-3.4609-6.5234 0-11.809-5.2852-11.809-11.809 0-6.5195 5.2852-11.805 11.809-11.805 3.1289 0 6.1328-1.2461 8.3477-3.4609s3.4609-5.2188 3.4609-8.3477v-13.262c25.305-4.1484 49.957-11.602 73.328-22.164 19.309 10.484 40.492 17.059 62.344 19.355l17.832 1.8984v73.211c-0.019531 15.652-6.2461 30.66-17.312 41.727-11.07 11.07-26.074 17.293-41.73 17.312h-35.422c-15.652-0.019532-30.66-6.2422-41.727-17.312-11.07-11.066-17.297-26.074-17.312-41.727zm234.75 279.91c-3.2734 3.2578-7.2539 5.7188-11.633 7.1914l-6.8359 2.2773c-9.0742 3.0273-19.051 1.5039-26.809-4.0898-7.7617-5.5938-12.359-14.578-12.359-24.141v-72.219h-23.613v11.809h-62.301c4.4375-5.4648 10.336-9.5586 17.004-11.809l1.8203-0.61328-7.5117-22.434-1.8047 0.61328v-0.003906c-11.984 3.9961-22.422 11.629-29.863 21.836-7.4336-10.207-17.867-17.836-29.84-21.836l-1.832-0.61328-7.5117 22.434 1.8438 0.61328v0.003907c6.668 2.2539 12.559 6.3477 16.992 11.809h-74.117v-11.809h-23.617v188.93c0 1.832 0.42187 3.6406 1.2422 5.2812l9.1719 18.336-5.9023 11.809h-28.129v-257.41c0-10.023 3.9844-19.633 11.07-26.719 7.0859-7.0859 16.695-11.066 26.719-11.066h68.484c3.1328 0 6.1367-1.2461 8.3516-3.4609s3.457-5.2188 3.457-8.3477v-23.617h35.426v23.617c0 3.1289 1.2422 6.1328 3.457 8.3477s5.2188 3.4609 8.3477 3.4609h68.488c10.02 0 19.633 3.9805 26.719 11.066 7.0859 7.0859 11.066 16.695 11.066 26.719v92.102c0 4.7734 2.8789 9.0781 7.2891 10.906 4.4141 1.8281 9.4922 0.81641 12.867-2.5586l59.039-59.039c2.2148-2.2148 3.4609-5.2188 3.4609-8.3477v-11.809h11.809c3.1328 0 6.1328-1.2461 8.3477-3.4609l3.4609-3.4609 18.727 18.73z"/>
  <path d="m942.43 788.93h-4.5117l3.2695-6.5312 0.003906 0.003906c1.6602-3.3242 1.6602-7.2344 0-10.559l-11.809-23.617c-1.1445-2.2891-3-4.1445-5.2891-5.2891l-23.617-11.809c-3.3242-1.6602-7.2344-1.6602-10.555 0l-16.012 8.0039-17.594-17.594v0.003907c-3.9805-3.9844-10.219-4.6016-14.902-1.4766l-24.289 16.199-5.8203-11.656-0.003906 0.003906c-2-4.0039-6.0898-6.5352-10.566-6.5312h-47.23c-3.9492 0-7.6367 1.9727-9.8242 5.2539l-15.824 23.746c-2.1406-3.3281-5.8164-5.3555-9.7773-5.3828h-35.426c-4.4961-0.027344-8.6172 2.5078-10.625 6.5273l-20.285 40.703h-4.5117c-6.5234 0-11.809 5.2891-11.809 11.809v141.7c0 3.1328 1.2422 6.1367 3.457 8.3516 2.2148 2.2148 5.2188 3.457 8.3516 3.457h295.2c3.1328 0 6.1367-1.2422 8.3516-3.457s3.457-5.2188 3.457-8.3516v-141.7c0-3.1328-1.2422-6.1367-3.457-8.3477-2.2148-2.2148-5.2188-3.4609-8.3516-3.4609zm-59.039 70.848h-224.35v-47.23h271.58v47.23zm11.809-104.88 14.82 7.4023 7.4023 14.82-5.9023 11.809h-28.129v-28.125zm-48.73-9.8125 13.305 13.309v30.535h-23.613v-11.809c0.019532-1.8242-0.38672-3.6328-1.1836-5.2773l-7.1562-14.289zm-86.648-3.3867h33.617l8.5391 17.086 10.629 21.125-0.003906 9.0195h-62.395l-7.332-21.879zm-69.867 23.617h20.828l11.809 23.617-44.445-0.003906zm-30.914 118.08h35.426v47.23h-35.426zm59.039 0h35.426v47.23h-35.426zm59.039 0h35.426v47.23h-35.426zm59.039 0h35.426v47.23h-35.422zm94.465 47.23h-35.422v-47.23h35.426z"/>
  <path d="m700.71 512.09-19.648-13.105-11.809 17.711c-4.875 7.3008-6.6484 16.246-4.9258 24.855s6.8008 16.18 14.113 21.043c2.0977 1.3906 3.5547 3.5586 4.0469 6.0273 0.49219 2.4648-0.019531 5.0273-1.4258 7.1133l-11.809 17.711 19.648 13.105 11.809-17.711v0.003906c4.8594-7.3086 6.6211-16.242 4.8984-24.848-1.7188-8.6016-6.7773-16.172-14.07-21.051-2.1016-1.3867-3.5586-3.5547-4.0547-6.0234-0.49219-2.4688 0.019531-5.0312 1.4219-7.1172z"/>
  <path d="m818.79 512.09-19.648-13.105-11.809 17.711c-4.8789 7.3008-6.6484 16.246-4.9258 24.855s6.8008 16.18 14.113 21.043c2.0977 1.3906 3.5508 3.5586 4.043 6.0273 0.49219 2.4648-0.019531 5.0273-1.4219 7.1133l-11.809 17.711 19.648 13.105 11.809-17.711v0.003906c4.8555-7.3086 6.6172-16.242 4.8984-24.848-1.7188-8.6016-6.7812-16.172-14.074-21.051-2.0977-1.3867-3.5547-3.5547-4.0508-6.0234-0.49219-2.4688 0.015625-5.0312 1.418-7.1172z"/>
  <path d="m944.03 512.09-19.648-13.105-11.809 17.711c-4.8555 7.3086-6.6172 16.242-4.8984 24.848 1.7227 8.6016 6.7812 16.172 14.074 21.051 2.1016 1.3867 3.5586 3.5547 4.0508 6.0234 0.49609 2.4688-0.015625 5.0312-1.418 7.1172l-11.809 17.711 19.648 13.105 11.809-17.711v0.003906c4.8789-7.3008 6.6523-16.246 4.9297-24.855-1.7266-8.6094-6.8008-16.18-14.113-21.043-2.0977-1.3906-3.5547-3.5586-4.0469-6.0273-0.49219-2.4648 0.019531-5.0273 1.4258-7.1133z"/>
  <path d="m889.64 618.36-19.648-13.105-11.809 17.711c-4.8789 7.3008-6.6484 16.242-4.9258 24.855 1.7227 8.6094 6.8008 16.18 14.113 21.043 2.0977 1.3906 3.5508 3.5586 4.043 6.0234 0.49219 2.4688-0.019531 5.0312-1.4219 7.1172l-11.809 17.711 19.648 13.105 11.809-17.711v0.003907c4.8555-7.3086 6.6172-16.242 4.8984-24.848-1.7188-8.6016-6.7812-16.172-14.074-21.051-2.0977-1.3906-3.5547-3.5586-4.0508-6.0234-0.49219-2.4688 0.015626-5.0312 1.418-7.1211z"/>
 </g>
</svg>
