<?xml version="1.0" encoding="UTF-8"?>
<svg width="1200pt" height="1200pt" version="1.1" viewBox="0 0 1200 1200" xmlns="http://www.w3.org/2000/svg">
 <g>
  <path d="m600 0c-78.793 0-156.82 15.52-229.61 45.672s-138.94 74.348-194.65 130.07c-55.719 55.715-99.914 121.86-130.07 194.65s-45.672 150.82-45.672 229.61c0 159.13 63.215 311.74 175.74 424.26 112.52 112.52 265.13 175.73 424.27 175.73 159.13 0 311.74-63.215 424.26-175.74 112.52-112.52 175.74-265.13 175.74-424.26 0-159.13-63.215-311.74-175.73-424.27-112.52-112.52-265.13-175.74-424.26-175.74zm0 67.762c69.121 0 137.56 13.766 201.42 40.516 63.859 26.746 121.88 65.953 170.76 115.38s87.645 108.1 114.09 172.67c26.453 64.574 40.066 133.79 40.066 203.68 0 141.16-55.457 276.53-154.16 376.34-98.707 99.816-232.58 155.89-372.18 155.89-69.121 0-137.57-13.766-201.43-40.516-63.855-26.746-121.88-65.949-170.76-115.37-48.875-49.422-87.645-108.1-114.1-172.67-26.449-64.574-40.066-133.79-40.066-203.68 0-69.898 13.613-139.11 40.066-203.68 26.449-64.574 65.219-123.25 114.1-172.68 48.875-49.422 106.9-88.625 170.76-115.38 63.859-26.746 132.3-40.512 201.43-40.512z" fill="#a8aaad"/>
  <path d="m944.75 836.39c-2.0234-0.40625-49.551-10.473-49.551-59.273 0-3.1289-1.2461-6.1328-3.4609-8.3477-2.2109-2.2148-5.2148-3.4609-8.3477-3.4609h-247.97v-23.613h247.97c3.1328 0 6.1367-1.2461 8.3477-3.4609 2.2148-2.2148 3.4609-5.2148 3.4609-8.3477v-23.617c-0.023437-7.3008-2.3047-14.418-6.5352-20.371-4.2266-5.9531-10.195-10.449-17.082-12.875v-13.984c-0.09375-57.402-22.18-112.59-61.711-154.21-39.535-41.617-93.512-66.508-150.83-69.547v-36.023c0-3.1328-1.2461-6.1367-3.4609-8.3516-2.2148-2.2148-5.2148-3.457-8.3477-3.457h-11.809v-23.617h35.426c3.1289 0 6.1328-1.2422 8.3477-3.457 2.2148-2.2148 3.457-5.2188 3.457-8.3516-0.015625-15.652-6.2422-30.656-17.312-41.727-11.066-11.066-26.074-17.293-41.727-17.312h-47.23c-15.652 0.019531-30.66 6.2461-41.73 17.312-11.066 11.07-17.293 26.074-17.312 41.727 0 3.1328 1.2461 6.1367 3.4609 8.3516 2.2148 2.2148 5.2188 3.457 8.3477 3.457h35.426v23.617h-11.809c-6.5195 0-11.809 5.2852-11.809 11.809v36.023c-57.32 3.0391-111.3 27.93-150.83 69.547-39.531 41.621-61.617 96.805-61.711 154.21v13.984c-6.8867 2.4258-12.855 6.9219-17.086 12.875-4.2266 5.9531-6.5078 13.07-6.5312 20.371v23.617c0 3.1328 1.2422 6.1328 3.457 8.3477 2.2148 2.2148 5.2188 3.4609 8.3516 3.4609h247.97v23.617l-247.97-0.003906c-6.5234 0-11.809 5.2891-11.809 11.809 0 48.391-47.566 58.855-49.551 59.27v0.003906c-5.5195 1.1016-9.4883 5.9492-9.4883 11.574v47.234c0 3.1328 1.2422 6.1328 3.457 8.3477 2.2148 2.2148 5.2188 3.4609 8.3516 3.4609h684.86c3.1328 0 6.1367-1.2461 8.3516-3.4609 2.2148-2.2148 3.457-5.2148 3.457-8.3477v-47.234c0-5.625-3.9727-10.473-9.4883-11.574zm-368.37-519.79h47.23c7.3242 0.007813 14.465 2.2812 20.445 6.5117 5.9805 4.2266 10.508 10.203 12.957 17.105h-114.04c2.4492-6.9023 6.9766-12.879 12.957-17.105 5.9805-4.2305 13.121-6.5039 20.445-6.5117zm11.809 47.23h23.617v23.617h-23.617zm47.23 47.23v23.617h-70.848v-23.613zm-82.656 47.23h94.465v0.003907c53.219 0.058593 104.24 21.227 141.88 58.859 37.633 37.633 58.801 88.656 58.859 141.88v11.809h-495.94v-11.809c0.0625-53.223 21.23-104.25 58.863-141.88 37.633-37.633 88.656-58.801 141.88-58.859zm-224.35 247.97c0.007812-6.5156 5.2891-11.801 11.809-11.809h519.55c6.5195 0.007812 11.801 5.293 11.809 11.809v11.809h-543.17zm259.78 35.426h23.617v23.617l-23.617-0.003906zm-260.52 47.23h544.66c2.2031 18.062 10.676 34.777 23.941 47.234h-592.54c13.266-12.457 21.738-29.172 23.941-47.234zm-58.297 94.465v-23.617h661.25v23.617z"/>
 </g>
</svg>
