<?xml version="1.0" encoding="UTF-8"?>
<svg width="1200pt" height="1200pt" version="1.1" viewBox="0 0 1200 1200" xmlns="http://www.w3.org/2000/svg">
 <path d="m318.75 506.25v-18.75c0-6.6992 3.5742-12.887 9.375-16.238 5.8008-3.3477 12.949-3.3477 18.75 0 5.8008 3.3516 9.375 9.5391 9.375 16.238v18.75c0 6.6992-3.5742 12.887-9.375 16.238-5.8008 3.3477-12.949 3.3477-18.75 0-5.8008-3.3516-9.375-9.5391-9.375-16.238zm0-112.5c0-6.6992-3.5742-12.887-9.375-16.238-5.8008-3.3477-12.949-3.3477-18.75 0-5.8008 3.3516-9.375 9.5391-9.375 16.238v18.75c0 6.6992 3.5742 12.887 9.375 16.238 5.8008 3.3477 12.949 3.3477 18.75 0 5.8008-3.3516 9.375-9.5391 9.375-16.238zm93.75 131.25c4.9727 0 9.7422-1.9727 13.258-5.4922 3.5195-3.5156 5.4922-8.2852 5.4922-13.258v-18.75c0-6.6992-3.5742-12.887-9.375-16.238-5.8008-3.3477-12.949-3.3477-18.75 0-5.8008 3.3516-9.375 9.5391-9.375 16.238v18.75c0 4.9727 1.9727 9.7422 5.4922 13.258 3.5156 3.5195 8.2852 5.4922 13.258 5.4922zm-18.75-131.25c0-6.6992-3.5742-12.887-9.375-16.238-5.8008-3.3477-12.949-3.3477-18.75 0-5.8008 3.3516-9.375 9.5391-9.375 16.238v18.75c0 6.6992 3.5742 12.887 9.375 16.238 5.8008 3.3477 12.949 3.3477 18.75 0 5.8008-3.3516 9.375-9.5391 9.375-16.238zm56.25-18.75c-4.9727 0-9.7422 1.9727-13.258 5.4922-3.5195 3.5156-5.4922 8.2852-5.4922 13.258v18.75c0 6.6992 3.5742 12.887 9.375 16.238 5.8008 3.3477 12.949 3.3477 18.75 0 5.8008-3.3516 9.375-9.5391 9.375-16.238v-18.75c0-4.9727-1.9727-9.7422-5.4922-13.258-3.5156-3.5195-8.2852-5.4922-13.258-5.4922zm712.5 262.5c-0.015625 14.914-5.9492 29.211-16.492 39.758-10.547 10.543-24.844 16.477-39.758 16.492h-4.1172l-57.242 228.99c-4.9688 19.887-16.336 37.594-32.352 50.391-16.016 12.793-35.793 19.969-56.289 20.422v56.445c0 4.9727-1.9727 9.7422-5.4922 13.258-3.5156 3.5195-8.2852 5.4922-13.258 5.4922h-56.25c-3.4805 0-6.8945-0.96875-9.8594-2.8008-2.9609-1.8281-5.3555-4.4492-6.9141-7.5625l-32.316-64.637h-464.32l-32.316 64.637c-1.5586 3.1133-3.9531 5.7344-6.9141 7.5625-2.9648 1.832-6.3789 2.8008-9.8594 2.8008h-56.25c-4.9727 0-9.7422-1.9727-13.258-5.4922-3.5195-3.5156-5.4922-8.2852-5.4922-13.258v-56.445c-20.496-0.45313-40.273-7.6289-56.289-20.422-16.016-12.797-27.383-30.504-32.352-50.391l-57.242-228.99h-4.1172c-20.098 0-38.664-10.723-48.715-28.125-10.047-17.402-10.047-38.848 0-56.25 10.051-17.402 28.617-28.125 48.715-28.125h75v-337.5c-0.023438-37.949 19.102-73.348 50.852-94.133 31.75-20.789 71.844-24.152 106.62-8.9531 34.773 15.199 59.531 46.914 65.836 84.336h1.6953c19.883 0.019531 38.949 7.9297 53.008 21.992 14.062 14.059 21.973 33.125 21.992 53.008v18.75c0 4.9727-1.9727 9.7422-5.4922 13.258-3.5156 3.5195-8.2852 5.4922-13.258 5.4922h-150c-4.9727 0-9.7422-1.9727-13.258-5.4922-3.5195-3.5156-5.4922-8.2852-5.4922-13.258v-18.75c0.042969-19.41 7.6133-38.047 21.121-51.988 13.508-13.941 31.898-22.098 51.297-22.75-6.0195-23.816-23.34-43.164-46.348-51.766-23.008-8.6055-48.773-5.375-68.941 8.6445-20.172 14.02-32.176 37.047-32.129 61.609v337.5h506.25c0.015625-14.914 5.9492-29.211 16.492-39.758 10.547-10.543 24.844-16.477 39.758-16.492h150c14.914 0.015625 29.211 5.9492 39.758 16.492 10.543 10.547 16.477 24.844 16.492 39.758h131.25c14.914 0.015625 29.211 5.9492 39.758 16.492 10.543 10.547 16.477 24.844 16.492 39.758zm-768.75-375h-37.5c-9.9414 0.011719-19.473 3.9648-26.504 10.996s-10.984 16.562-10.996 26.504h112.5c-0.011719-9.9414-3.9648-19.473-10.996-26.504s-16.562-10.984-26.504-10.996zm356.25 562.5c0.003906 4.9727 1.9805 9.7383 5.4961 13.254s8.2812 5.4922 13.254 5.4961h150c4.9727-0.003906 9.7383-1.9805 13.254-5.4961s5.4922-8.2812 5.4961-13.254v-37.5h-187.5zm0-243.75v168.75h187.5v-168.75c-0.003906-4.9727-1.9805-9.7383-5.4961-13.254s-8.2812-5.4922-13.254-5.4961h-150c-4.9727 0.003906-9.7383 1.9805-13.254 5.4961s-5.4922 8.2812-5.4961 13.254zm-656.25 75h618.75v-37.5h-618.75c-6.6992 0-12.887 3.5742-16.238 9.375-3.3477 5.8008-3.3477 12.949 0 18.75 3.3516 5.8008 9.5391 9.375 16.238 9.375zm232.16 337.5h-44.66v37.5h25.91zm592.84 37.5v-37.5h-44.66l18.75 37.5zm144.74-337.5h-88.492v131.25c-0.015625 14.914-5.9492 29.211-16.492 39.758-10.547 10.543-24.844 16.477-39.758 16.492h-150c-14.914-0.015625-29.211-5.9492-39.758-16.492-10.543-10.547-16.477-24.844-16.492-39.758v-131.25h-575.99l54.969 219.89h-0.003906c3.0352 12.176 10.059 22.988 19.949 30.711 9.8945 7.7227 22.086 11.91 34.637 11.898h707.89c12.547 0.011719 24.738-4.1758 34.633-11.898 9.8906-7.7227 16.914-18.535 19.949-30.711zm61.508-56.25c-0.003906-4.9727-1.9805-9.7383-5.4961-13.254s-8.2812-5.4922-13.254-5.4961h-131.25v37.5h131.25c4.9727-0.003906 9.7383-1.9805 13.254-5.4961s5.4922-8.2812 5.4961-13.254z"/>
</svg>
