<?xml version="1.0" encoding="UTF-8"?>
<svg width="1200pt" height="1200pt" version="1.1" viewBox="0 0 1200 1200" xmlns="http://www.w3.org/2000/svg">
 <g>
  <path d="m600 0c-78.793 0-156.82 15.52-229.61 45.672s-138.94 74.348-194.65 130.07c-55.719 55.715-99.914 121.86-130.07 194.65s-45.672 150.82-45.672 229.61c0 159.13 63.215 311.74 175.74 424.26 112.52 112.52 265.13 175.73 424.27 175.73 159.13 0 311.74-63.215 424.26-175.74 112.52-112.52 175.74-265.13 175.74-424.26 0-159.13-63.215-311.74-175.73-424.27-112.52-112.52-265.13-175.74-424.26-175.74zm0 67.762c69.121 0 137.56 13.766 201.42 40.516 63.859 26.746 121.88 65.953 170.76 115.38s87.645 108.1 114.09 172.67c26.453 64.574 40.066 133.79 40.066 203.68 0 141.16-55.457 276.53-154.16 376.34-98.707 99.816-232.58 155.89-372.18 155.89-69.121 0-137.57-13.766-201.43-40.516-63.855-26.746-121.88-65.949-170.76-115.37-48.875-49.422-87.645-108.1-114.1-172.67-26.449-64.574-40.066-133.79-40.066-203.68 0-69.898 13.613-139.11 40.066-203.68 26.449-64.574 65.219-123.25 114.1-172.68 48.875-49.422 106.9-88.625 170.76-115.38 63.859-26.746 132.3-40.512 201.43-40.512z" fill="#a8aaad"/>
  <path d="m505.54 446.5v-165.31c0-12.656-6.7539-24.348-17.715-30.676-10.961-6.3281-24.461-6.3281-35.422 0-10.961 6.3281-17.715 18.02-17.715 30.676v141.7c0 6.5195-5.2852 11.805-11.805 11.805-6.5234 0-11.809-5.2852-11.809-11.805v-141.7c0-12.656-6.7539-24.348-17.715-30.676-10.957-6.3281-24.461-6.3281-35.422 0-10.961 6.3281-17.711 18.02-17.711 30.676v141.7c0 6.5195-5.2891 11.805-11.809 11.805-6.5234 0-11.809-5.2852-11.809-11.805v-141.7c0-12.656-6.7539-24.348-17.711-30.676-10.961-6.3281-24.465-6.3281-35.426 0-10.961 6.3281-17.711 18.02-17.711 30.676v165.31c0.039062 27.949 9.082 55.145 25.785 77.551 16.707 22.406 40.184 38.84 66.957 46.859l-19.152 324.46c-0.84375 15.32 4.6328 30.32 15.152 41.492 10.438 11.145 25.043 17.445 40.316 17.387h1.6602c15.27 0.058593 29.875-6.2422 40.312-17.387 10.523-11.18 16-26.188 15.152-41.516l-19.152-324.43c26.773-8.0195 50.254-24.453 66.957-46.859s25.746-49.602 25.789-77.551zm-97.164 450.21c0.53125 8.8438-2.6367 17.512-8.7539 23.926-5.9883 6.4062-14.375 10.027-23.141 10h-1.6641c-8.7656 0.027344-17.152-3.5938-23.141-10-6.1133-6.4062-9.2812-15.066-8.7539-23.902l18.953-321.09c9.1562 1 18.391 1 27.547 0zm-32.727-343.93c-28.176-0.03125-55.188-11.238-75.113-31.16-19.922-19.922-31.129-46.938-31.16-75.113v-165.31c0-6.5195 5.2891-11.809 11.809-11.809 6.5234 0 11.809 5.2891 11.809 11.809v141.7c0 12.652 6.7539 24.348 17.711 30.676 10.961 6.3281 24.465 6.3281 35.426 0 10.961-6.3281 17.711-18.023 17.711-30.676v-141.7c0-6.5195 5.2891-11.809 11.809-11.809 6.5234 0 11.809 5.2891 11.809 11.809v141.7c0 12.652 6.75 24.348 17.711 30.676 10.961 6.3281 24.465 6.3281 35.426 0s17.711-18.023 17.711-30.676v-141.7c0-6.5195 5.2891-11.809 11.809-11.809s11.809 5.2891 11.809 11.809v165.31c-0.03125 28.176-11.238 55.191-31.16 75.113-19.926 19.922-46.938 31.129-75.113 31.16zm578.59-118.08c0-89.184-55.547-188.93-129.89-188.93-74.344 0.003907-129.89 99.75-129.89 188.93 0 70.316 36 121.36 92.602 136.76l-19.008 323.91c-0.84375 15.324 4.6328 30.32 15.152 41.492 10.438 11.145 25.043 17.445 40.312 17.387h1.6602c15.27 0.058593 29.879-6.2422 40.312-17.387 10.523-11.18 16.004-26.188 15.152-41.516l-19.008-323.89c56.602-15.395 92.602-66.445 92.602-136.76zm-97.16 462.02c0.53125 8.8438-2.6406 17.512-8.7539 23.926-5.9922 6.4062-14.375 10.027-23.145 10h-1.6602c-8.7695 0.027344-17.152-3.5938-23.145-10-6.1094-6.4062-9.2812-15.066-8.75-23.902l18.84-320.98c4.5312 0.41016 9.1562 0.64062 13.887 0.64062 4.7266 0 9.3555-0.22656 13.887-0.64453zm-32.727-343.93c-64.562 0-106.27-46.344-106.27-118.08 0-74.871 47.406-165.31 106.27-165.31 58.867 0 106.27 90.441 106.27 165.31-0.003906 71.738-41.711 118.08-106.27 118.08zm-177.12-307.01c-16.105-0.074219-31.75 5.375-44.32 15.441-12.57 10.066-21.305 24.141-24.754 39.875l-71.113 317.59c-4.1367 18.422 0.32422 37.73 12.125 52.473 11.797 14.742 29.66 23.324 48.543 23.32h9.5312l-28.848 196.11c-2.3125 15.98 2.4258 32.176 12.984 44.391 10.559 12.215 25.898 19.246 42.043 19.273 14.738-0.035157 28.867-5.9062 39.289-16.328 10.422-10.422 16.293-24.547 16.328-39.289v-641.05c0-3.1328-1.2422-6.1367-3.457-8.3516-2.2148-2.2148-5.2188-3.4609-8.3516-3.457zm-118.08 386.53c0-2.832 0.3125-5.6562 0.93359-8.418l71.113-317.63c1.8633-8.4922 6.0508-16.305 12.094-22.555 6.043-6.2539 13.707-10.699 22.133-12.848v400.01h-67.711c-10.223-0.011718-20.027-4.0781-27.254-11.309-7.2305-7.2305-11.297-17.031-11.309-27.254zm96.863 288.93c-6.3672 6.0469-14.902 9.2852-23.68 8.9844-8.7812-0.30078-17.07-4.1172-23.012-10.59-6.1133-7.0508-8.8672-16.406-7.5508-25.645l29.34-199.5h34.312v204.16c0.003907 8.4844-3.3828 16.621-9.4102 22.594z"/>
 </g>
</svg>
