<?xml version="1.0" encoding="UTF-8"?>
<svg width="1200pt" height="1200pt" version="1.1" viewBox="0 0 1200 1200" xmlns="http://www.w3.org/2000/svg">
 <g>
  <path d="m600 0c-78.793 0-156.82 15.52-229.61 45.672s-138.94 74.348-194.65 130.07c-55.719 55.715-99.914 121.86-130.07 194.65s-45.672 150.82-45.672 229.61c0 159.13 63.215 311.74 175.74 424.26 112.52 112.52 265.13 175.73 424.27 175.73 159.13 0 311.74-63.215 424.26-175.74 112.52-112.52 175.74-265.13 175.74-424.26 0-159.13-63.215-311.74-175.73-424.27-112.52-112.52-265.13-175.74-424.26-175.74zm0 67.762c69.121 0 137.56 13.766 201.42 40.516 63.859 26.746 121.88 65.953 170.76 115.38s87.645 108.1 114.09 172.67c26.453 64.574 40.066 133.79 40.066 203.68 0 141.16-55.457 276.53-154.16 376.34-98.707 99.816-232.58 155.89-372.18 155.89-69.121 0-137.57-13.766-201.43-40.516-63.855-26.746-121.88-65.949-170.76-115.37-48.875-49.422-87.645-108.1-114.1-172.67-26.449-64.574-40.066-133.79-40.066-203.68 0-69.898 13.613-139.11 40.066-203.68 26.449-64.574 65.219-123.25 114.1-172.68 48.875-49.422 106.9-88.625 170.76-115.38 63.859-26.746 132.3-40.512 201.43-40.512z" fill="#a8aaad"/>
  <path d="m408.59 233.95c-6.5234 0-11.809 5.2852-11.809 11.809 0 6.5195 5.2852 11.809 11.809 11.809 77.695 0 200.74 86.082 200.74 317.16 0.35156 169.56-94.938 367.7-363.57 367.7-6.5234 0-11.809 5.2891-11.809 11.809 0 6.5234 5.2852 11.809 11.809 11.809 129.89 0 222.34-43.926 283.39-108.87l43.098 101.67c1.8633 4.4023 6.1992 7.2461 10.98 7.2031 1.5781-0.03125 3.1406-0.35156 4.6055-0.94531 5.9961-2.5469 8.7969-9.4688 6.2578-15.469l-47.23-112.06c60.812-75.219 86.082-172.87 86.082-262.85 0.35156-248.32-137.57-340.78-224.36-340.78z"/>
  <path d="m285.44 473.42c20.227 2.8438 40.617 4.3828 61.047 4.6055 12.164 0.042968 24.32-0.78516 36.367-2.4766l23.617 26.098v-0.003906c2.2578 2.5039 5.4805 3.9219 8.8555 3.8984 4.6602-0.011718 8.8789-2.7656 10.766-7.0273 1.8906-4.2617 1.0938-9.2344-2.0273-12.695l-14.762-15.703c9.2773-2.6406 18.383-5.8359 27.277-9.5664l20.902 21.375c2.2344 2.2812 5.3047 3.5586 8.5 3.543 3.0391-0.011719 5.957-1.1992 8.1484-3.3086 4.5781-4.6055 4.5781-12.043 0-16.648l-15.586-16.059c5.668-3.0703 11.809-6.375 17.121-10.035 15.539 5.9922 28.211 17.691 35.422 32.707 3.2422 5.6211 10.418 7.5742 16.059 4.3672 2.7344-1.5586 4.7344-4.1406 5.5547-7.1797 0.81641-3.0352 0.39453-6.2734-1.1836-8.9961-10.723-21.594-29.781-37.883-52.781-45.105h-0.71094c-0.82422-0.058593-1.6523-0.058593-2.4766 0-0.71094-0.058593-1.4219-0.058593-2.1289 0l-2.0078 0.58984-2.3633 0.82812h-0.58984l0.003907-0.003906c-10.637 6.9492-21.676 13.258-33.062 18.895h-0.94531c-37.43 17.832-76.871 23.617-145.95 14.406-6.5195-0.84766-12.492 3.75-13.34 10.273-0.84766 6.5195 3.75 12.496 10.273 13.344z"/>
  <path d="m289.57 812.55h-43.809c-6.5234 0-11.809 5.2852-11.809 11.809 0 6.5195 5.2852 11.809 11.809 11.809h43.809c58.332 0 106.27-40.621 106.27-90.566l-0.003906-39.324c0-3.1328-1.2422-6.1328-3.457-8.3477-2.2148-2.2148-5.2188-3.4609-8.3516-3.4609h-138.27c-6.5234 0-11.809 5.2891-11.809 11.809 0 6.5234 5.2852 11.809 11.809 11.809h125.99v27.512c0 36.961-36.844 66.953-82.184 66.953z"/>
  <path d="m245.76 659.04h25.031c6.5234 0 11.809-5.2891 11.809-11.809 0-6.5234-5.2852-11.809-11.809-11.809h-25.031c-6.5234 0-11.809 5.2852-11.809 11.809 0 6.5195 5.2852 11.809 11.809 11.809z"/>
  <path d="m807.94 785.15c-8.7812-25.715-19.973-50.543-33.418-74.156-20.371-33.953-32.504-72.211-35.422-111.7l-5.1953-82.656v-35.426c0-242.42-130.71-247.97-136.27-247.97-6.5234-0.16016-11.941 4.9922-12.105 11.516-0.16016 6.5195 4.9922 11.938 11.516 12.102 4.6055 0 112.77 6.375 113.24 224.35v36.133l5.1953 83.363v0.003907c3.1484 42.926 16.16 84.547 38.023 121.62 12.828 22.562 23.5 46.285 31.879 70.848 33.652 98.598-64.59 148.9-68.723 150.91-5.832 2.9062-8.2109 9.9883-5.3125 15.824 1.9688 4.0156 6.0352 6.5781 10.508 6.6133 1.8398 0.023437 3.6602-0.37891 5.3164-1.1797 1.4141-1.0625 120.79-61.875 80.766-180.19z"/>
  <path d="m957.67 748.66c-8.6875-24.996-21.852-48.203-38.848-68.484-13.934-18.188-25.152-32.945-30.938-80.18l-4.4883-82.656v-17.832c0.82812-135.67-123.28-257.18-128.47-262.25-2.2148-2.2344-5.2344-3.4922-8.3828-3.4922-3.1484 0-6.168 1.2578-8.3828 3.4922-4.5781 4.6055-4.5781 12.043 0 16.648 1.1797 1.1797 122.09 119.38 121.62 245.02v18.656l4.0156 83.484c6.7305 55.617 20.43 73.09 36.25 93.285 15.504 18.32 27.512 39.332 35.426 61.992 33.297 91.629-63.883 138.04-68.488 139.93-2.8555 1.3086-5.0703 3.7031-6.1562 6.6484-1.0859 2.9492-0.95312 6.207 0.37109 9.0547 1.8828 4.0703 5.9062 6.7266 10.391 6.8516 1.707-0.015624 3.3984-0.375 4.9609-1.0625 1.5352-0.59375 121.98-57.98 81.121-169.09z"/>
  <path d="m852.57 920.47c-5.6172-3.125-12.699-1.1836-15.941 4.3672 0 0.70703-11.219 17.594-52.426 17.594-6.5195 0-11.809 5.2891-11.809 11.809 0 6.5234 5.2891 11.809 11.809 11.809 55.617 0 70.848-26.805 73.09-29.875 2.9141-5.6523 0.82422-12.594-4.7227-15.703z"/>
  <path d="m403.75 581.82c-88.68 0-160.82-52.781-160.82-118.08 0-65.297 72.148-118.08 160.82-118.08 88.676 0.003906 160.82 53.613 160.82 118.56 0 64.941-72.148 117.61-160.82 117.61zm0-211.6c-75.691 0-137.21 42.156-137.21 94.465 0 52.309 61.52 94.465 137.21 94.465 75.688 0 137.21-43.098 137.21-94.934 0-51.84-61.52-93.992-137.21-93.992z"/>
 </g>
</svg>
