<?xml version="1.0" encoding="UTF-8"?>
<svg width="1200pt" height="1200pt" version="1.1" viewBox="0 0 1200 1200" xmlns="http://www.w3.org/2000/svg">
 <defs>
  <clipPath id="e">
   <path d="m590 830h20v147.86h-20z"/>
  </clipPath>
  <clipPath id="d">
   <path d="m804 526h93v451.86h-93z"/>
  </clipPath>
  <clipPath id="c">
   <path d="m788 222.14h50v226.86h-50z"/>
  </clipPath>
  <clipPath id="b">
   <path d="m361 222.14h51v226.86h-51z"/>
  </clipPath>
  <clipPath id="a">
   <path d="m304 526h93v451.86h-93z"/>
  </clipPath>
 </defs>
 <path d="m600 0c-78.793 0-156.82 15.52-229.61 45.672s-138.94 74.348-194.65 130.07c-55.719 55.715-99.914 121.86-130.07 194.65s-45.672 150.82-45.672 229.61c0 159.13 63.215 311.74 175.74 424.26 112.52 112.52 265.13 175.73 424.27 175.73 159.13 0 311.74-63.215 424.26-175.74 112.52-112.52 175.74-265.13 175.74-424.26 0-159.13-63.215-311.74-175.73-424.27-112.52-112.52-265.13-175.74-424.26-175.74zm0 67.762c69.121 0 137.56 13.766 201.42 40.516 63.859 26.746 121.88 65.953 170.76 115.38s87.645 108.1 114.09 172.67c26.453 64.574 40.066 133.79 40.066 203.68 0 141.16-55.457 276.53-154.16 376.34-98.707 99.816-232.58 155.89-372.18 155.89-69.121 0-137.57-13.766-201.43-40.516-63.855-26.746-121.88-65.949-170.76-115.37-48.875-49.422-87.645-108.1-114.1-172.67-26.449-64.574-40.066-133.79-40.066-203.68 0-69.898 13.613-139.11 40.066-203.68 26.449-64.574 65.219-123.25 114.1-172.68 48.875-49.422 106.9-88.625 170.76-115.38 63.859-26.746 132.3-40.512 201.43-40.512z" fill="#a8aaad"/>
 <g clip-path="url(#e)">
  <path d="m600 977.86c-5.2891 0-9.8242-4.5352-9.8242-9.8242v-127.71c0-5.2891 4.5352-9.8242 9.8242-9.8242s9.8242 4.5352 9.8242 9.8242v127.71c0 5.2891-4.5312 9.8242-9.8242 9.8242z"/>
 </g>
 <path d="m479.09 510.83h-1.5117c-121.67-15.871-196.48-52.145-201.02-97.488-2.2656-21.914 12.09-53.656 90.688-80.105 5.2891-1.5117 10.578 0.75391 12.09 6.0469 1.5117 5.2891-0.75391 10.578-6.0469 12.09-51.387 17.383-80.105 39.297-77.84 60.457 3.0234 27.961 61.211 64.234 185.15 80.105 5.2891 0.75391 9.0703 5.2891 8.3125 10.578-0.75 4.5352-5.2852 8.3164-9.8203 8.3164z"/>
 <path d="m485.13 556.93c-3.0234 0-5.2891-1.5117-7.5586-3.7773-3.0234-3.7773-2.2656-9.8242 1.5117-13.602l41.562-33.25-30.984-44.586c-3.0234-4.5352-2.2656-9.8242 2.2656-12.848 4.5352-3.0234 9.8242-2.2656 12.848 2.2656l40.809 59.703-54.406 43.828c-2.2695 1.5117-3.7812 2.2656-6.0469 2.2656z"/>
 <g clip-path="url(#d)">
  <path d="m813.87 977.86c-1.5117 0-3.0234-0.75391-4.5352-1.5117-4.5352-3.0234-6.0469-8.3125-3.0234-12.848 83.129-138.3 94.465-297 29.473-423.2-2.2656-4.5352-0.75391-10.578 3.7773-12.848 4.5352-2.2656 10.578-0.75391 12.848 3.7773 67.258 132.25 56.68 297.75-30.23 441.34-2.2617 3.7812-5.2852 5.293-8.3086 5.293z"/>
 </g>
 <g clip-path="url(#c)">
  <path d="m807.07 448.86c-4.5352 0-8.3125-3.0234-9.0703-7.5586-30.984-129.98 20.402-211.6 22.672-214.62 3.0234-4.5352 8.3125-5.2891 12.848-3.0234 4.5352 3.0234 5.2891 8.3125 3.0234 12.848-0.75391 0.75391-49.121 78.594-20.402 200.27 1.5117 5.2891-2.2656 9.8242-6.8008 11.336-0.75781 0.75391-1.5117 0.75391-2.2695 0.75391z"/>
 </g>
 <g clip-path="url(#b)">
  <path d="m392.94 448.86h-2.2656c-5.2891-1.5117-8.3125-6.0469-6.8008-11.336 28.715-122.43-19.652-200.27-20.406-201.02-3.0234-4.5352-1.5117-10.578 3.0234-12.848 4.5352-3.0234 10.578-1.5117 12.848 3.0234 2.2656 3.7773 53.656 84.641 22.672 214.62-0.75781 4.5352-5.293 7.5586-9.0703 7.5586z"/>
 </g>
 <g clip-path="url(#a)">
  <path d="m386.13 977.86c-3.0234 0-6.0469-1.5117-8.3125-4.5352-86.148-144.34-97.484-309.09-29.473-441.34 2.2656-4.5352 8.3125-6.8008 12.848-3.7773 4.5352 2.2656 6.8008 8.3125 3.7773 12.848-64.992 126.2-53.656 284.9 29.473 423.2 3.0234 4.5352 1.5117 10.578-3.0234 12.848-1.5078-0.003907-3.0195 0.75391-5.2891 0.75391z"/>
 </g>
 <path d="m720.91 510.83c-4.5352 0-9.0703-3.7773-9.0703-8.3125-0.75391-5.2891 3.0234-9.8242 8.3125-10.578 123.94-15.871 182.13-52.145 185.15-80.105 2.2656-21.16-26.449-43.074-77.84-60.457-5.2891-1.5117-7.5586-6.8008-6.0469-12.09 1.5117-5.2891 6.8008-7.5586 12.09-6.0469 79.352 26.449 92.953 58.191 90.688 80.105-4.5352 45.344-80.105 81.617-201.78 96.73-0.74609 0.75391-1.5039 0.75391-1.5039 0.75391z"/>
 <path d="m714.87 556.93c-2.2656 0-3.7773-0.75391-6.0469-2.2656l-55.922-43.832 40.809-59.703c3.0234-4.5352 9.0703-5.2891 12.848-2.2656 4.5352 3.0234 5.2891 9.0703 2.2656 12.848l-30.984 44.586 41.562 33.25c3.7773 3.0234 4.5352 9.0703 1.5117 13.602 0 3.0273-3.0195 3.7812-6.043 3.7812z"/>
 <path d="m600 850.14c-10.578 0-20.402-4.5352-27.207-12.848-52.145-64.234-95.219-84.641-149.63-111.09-30.984-15.113-66.504-31.738-108.82-59.703-4.5352-3.0234-5.2891-9.0703-3.0234-12.848 3.0234-4.5352 9.0703-5.2891 12.848-3.0234 40.809 27.207 75.57 43.832 106.55 58.191 54.41 25.695 101.27 48.367 156.43 115.62 3.0234 3.7773 7.5586 5.2891 12.09 5.2891 5.2891 0 9.8242-2.2656 12.09-5.2891 55.168-67.258 102.02-89.93 156.43-115.62 30.984-14.359 65.746-30.984 106.55-58.191 4.5352-3.0234 10.578-1.5117 12.848 3.0234 3.0234 4.5352 1.5117 10.578-3.0234 12.848-42.32 27.961-77.84 44.586-108.82 59.703-54.41 25.695-97.488 46.855-149.63 111.09-4.5234 8.3125-14.348 12.848-25.684 12.848z"/>
 <path d="m600 675.57c-184.39 0-266.77-77.84-269.79-80.863-3.7773-3.7773-3.7773-9.8242 0-13.602 3.7773-3.7773 9.8242-3.7773 13.602 0 0.75391 0.75391 80.105 75.57 256.94 75.57 176.08 0 256.19-74.816 256.94-75.57 3.7773-3.7773 9.8242-3.7773 13.602 0s3.7773 9.8242 0 13.602c-4.5273 3.7812-86.902 80.863-271.3 80.863z"/>
</svg>
