<?xml version="1.0" encoding="UTF-8"?>
<svg width="1200pt" height="1200pt" version="1.1" viewBox="0 0 1200 1200" xmlns="http://www.w3.org/2000/svg">
 <defs>
  <clipPath id="b">
   <path d="m361 584h616.86v365h-616.86z"/>
  </clipPath>
  <clipPath id="a">
   <path d="m222.14 650h157.86v126h-157.86z"/>
  </clipPath>
 </defs>
 <path d="m600 0c-78.793 0-156.82 15.52-229.61 45.672s-138.94 74.348-194.65 130.07c-55.719 55.715-99.914 121.86-130.07 194.65s-45.672 150.82-45.672 229.61c0 159.13 63.215 311.74 175.74 424.26 112.52 112.52 265.13 175.73 424.27 175.73 159.13 0 311.74-63.215 424.26-175.74 112.52-112.52 175.74-265.13 175.74-424.26 0-159.13-63.215-311.74-175.73-424.27-112.52-112.52-265.13-175.74-424.26-175.74zm0 67.762c69.121 0 137.56 13.766 201.42 40.516 63.859 26.746 121.88 65.953 170.76 115.38s87.645 108.1 114.09 172.67c26.453 64.574 40.066 133.79 40.066 203.68 0 141.16-55.457 276.53-154.16 376.34-98.707 99.816-232.58 155.89-372.18 155.89-69.121 0-137.57-13.766-201.43-40.516-63.855-26.746-121.88-65.949-170.76-115.37-48.875-49.422-87.645-108.1-114.1-172.67-26.449-64.574-40.066-133.79-40.066-203.68 0-69.898 13.613-139.11 40.066-203.68 26.449-64.574 65.219-123.25 114.1-172.68 48.875-49.422 106.9-88.625 170.76-115.38 63.859-26.746 132.3-40.512 201.43-40.512z" fill="#a8aaad"/>
 <path d="m687.66 457.93c-1.5117 0-3.7773 0-5.2891-0.75391-3.7773-1.5117-6.8008-4.5352-8.3125-7.5586l-50.633-110.34c-3.7773-7.5586 0-16.625 7.5586-19.648 77.082-36.273 151.14-58.188 241.07-73.301 18.895-3.0234 37.031 6.8008 45.344 25.695 8.3125 18.137 4.5352 38.543-10.578 50.633-0.75781 0-86.91 76.324-212.36 133.76-2.2656 0.75781-4.5312 1.5117-6.8008 1.5117zm-0.75391-17.379m-46.102-107.31 48.367 106.55c122.43-55.922 205.55-129.98 207.07-130.74 10.578-9.0703 9.8242-21.914 6.0469-30.984-3.7773-9.0703-13.602-18.137-26.449-15.871-88.422 15.871-160.97 37.031-235.03 71.039z"/>
 <path d="m420.9 506.29c-3.0234 0-6.0469-1.5117-7.5586-5.2891-2.2656-4.5352 0-9.0703 4.5352-11.336l236.54-107.31c4.5352-2.2656 9.0703 0 11.336 4.5352s0 9.0703-4.5352 11.336l-236.54 107.31c-1.5117 0-3.0234 0.75391-3.7773 0.75391z"/>
 <path d="m271.27 602.27c-11.336 0-22.672-8.3125-29.473-23.426-8.3125-18.137-4.5352-36.273 9.0703-43.074 44.586-29.473 93.707-52.145 145.1-68.016 10.578-3.0234 21.914 2.2656 26.449 12.09 0.75391 2.2656 9.8242 19.648 12.09 27.961 4.5352 9.8242 0.75391 21.914-8.3125 27.961-45.344 28.719-94.465 50.633-145.85 64.992-3.0234 0.75391-6.0469 1.5117-9.0703 1.5117zm130.74-117.89h-1.5117c-49.879 15.113-97.488 37.031-140.56 65.746l-1.5117 0.75391c-6.0469 3.0234-5.2891 12.848-1.5117 21.16 3.7812 6.0469 10.582 15.871 17.383 12.848l0.75391-0.75391c50.633-13.602 98.242-34.762 142.07-62.723 2.2656-1.5117 3.0234-3.7773 1.5117-6.8008v-1.5156c-3.0234-6.0469-11.336-25.695-12.09-25.695-0.75781-2.2656-2.2656-3.0195-4.5352-3.0195z"/>
 <path d="m527.45 874.32c-3.0234 0-5.2891-1.5117-6.8008-3.7773-44.586-63.48-43.832-148.88 2.2656-211.6 3.0234-3.7773 8.3125-4.5352 12.09-1.5117 3.7773 3.0234 4.5352 8.3125 1.5117 12.09-41.562 56.68-43.074 133.76-2.2656 191.95 3.0234 3.7773 1.5117 9.0703-2.2656 12.09-0.75781 0.75781-3.0234 0.75781-4.5352 0.75781z"/>
 <path d="m814.62 869.79c-1.5117 0-3.0234-0.75391-4.5352-1.5117-3.7773-2.2656-5.2891-7.5586-2.2656-12.09 17.383-26.449 25.695-56.68 25.695-89.93 0-32.496-9.8242-64.234-27.207-90.688-2.2656-3.7773-1.5117-9.0703 2.2656-12.09 3.7773-2.2656 9.0703-1.5117 12.09 2.2656 19.648 29.473 30.23 64.234 30.23 100.51 0 37.031-9.8242 70.281-28.719 99.754-2.2656 2.2656-4.5312 3.7773-7.5547 3.7773z"/>
 <path d="m669.53 882.64c-64.234 0-116.38-52.145-116.38-116.38s52.145-116.38 116.38-116.38 116.38 52.145 116.38 116.38c-0.75391 64.234-52.898 116.38-116.38 116.38zm0-215.38c-54.41 0-99 44.586-99 99 0 54.41 44.586 99 99 99 54.41 0 99-44.586 99-99 0-54.414-44.59-99-99-99z"/>
 <g clip-path="url(#b)">
  <path d="m673.3 948.39h-3.7773c-11.336 0.75391-172.3 3.0234-304.55-176.08l-3.7773-5.2891 3.7773-5.2891c132.25-179.86 293.22-176.84 304.55-176.84 11.336-0.75391 172.3-3.0234 304.55 176.08l3.7773 5.2891-3.7773 5.2891c-123.94 168.53-272.82 176.84-300.78 176.84zm-3.7773-17.383c2.2656 0 158.7 5.2891 287.17-164.75-128.47-169.28-285.66-164.75-287.17-164.75h-1.5078c-1.5117 0-158.7-5.2891-287.17 164.75 129.22 170.04 286.41 164.75 288.68 164.75z"/>
 </g>
 <g clip-path="url(#a)">
  <path d="m371.02 775.33c-1.5117 0-129.23-6.8008-148.88-114.87-0.75391-4.5352 2.2656-9.0703 6.8008-9.8242 4.5352-0.75391 9.0703 2.2656 9.8242 6.8008 6.8008 39.297 30.984 68.016 71.793 85.395 30.984 13.602 60.457 15.113 60.457 15.113 4.5352 0 8.3125 4.5352 8.3125 9.0703 0 4.5352-3.7773 8.3164-8.3125 8.3164z"/>
 </g>
 <path d="m421.65 710.34c-20.402 0-79.352-6.8008-104.29-78.594-1.5117-4.5352 0.75391-9.0703 5.2891-10.578 4.5352-1.5117 9.0703 0.75391 10.578 5.2891 10.578 31.738 29.473 52.145 56.68 61.969 19.648 6.8008 36.273 5.2891 37.031 5.2891 4.5352-0.75391 9.0703 3.0234 9.8242 7.5586 0.75391 4.5352-3.0234 9.0703-7.5586 9.8242 0.003907-0.75781-3.0195-0.75781-7.5547-0.75781z"/>
 <path d="m487.4 662.73h-1.5117c-3.0234-0.75391-68.016-10.578-80.863-67.258-0.75391-4.5352 1.5117-9.0703 6.0469-10.578 4.5352-0.75391 9.0703 1.5117 10.578 6.0469 10.578 45.344 66.504 53.656 67.258 54.41 4.5352 0.75391 7.5586 5.2891 7.5586 9.8242-1.5078 4.5312-5.2852 7.5547-9.0664 7.5547z"/>
 <path d="m310.56 900.78c-0.75391 0-1.5117 0-3.0234-0.75391-4.5352-1.5117-6.8008-6.0469-5.2891-10.578 30.23-87.668 111.09-78.598 111.85-77.844 4.5352 0.75391 8.3125 4.5352 7.5586 9.8242-0.75391 4.5352-4.5352 8.3125-9.8242 7.5586-3.0234 0-68.016-7.5586-92.953 66.504-0.75781 3.0195-4.5391 5.2891-8.3164 5.2891z"/>
 <path d="m388.4 931h-2.2656c-4.5352-0.75391-7.5586-6.0469-6.0469-10.578 13.602-56.68 78.594-66.504 80.863-67.258 4.5352-0.75391 9.0703 2.2656 9.8242 7.5586 0.75391 4.5352-2.2656 9.0703-7.5586 9.8242-0.75391 0-56.68 9.0703-67.258 54.41-0.003907 3.0195-3.7812 6.043-7.5586 6.043z"/>
 <path d="m460.2 954.43h-2.2656c-4.5352-1.5117-7.5586-6.0469-6.0469-10.578 10.578-42.32 45.344-53.656 62.723-53.656 4.5352 0 8.3125 3.7773 8.3125 8.3125 0 4.5352-3.7773 8.3125-8.3125 8.3125-1.5117 0-36.273 0.75391-46.098 40.809-1.5117 4.5312-4.5352 6.8008-8.3125 6.8008z"/>
</svg>
