<?xml version="1.0" encoding="UTF-8"?>
<svg width="1200pt" height="1200pt" version="1.1" viewBox="0 0 1200 1200" xmlns="http://www.w3.org/2000/svg">
 <g>
  <path d="m600 0c-78.793 0-156.82 15.52-229.61 45.672s-138.94 74.348-194.65 130.07c-55.719 55.715-99.914 121.86-130.07 194.65s-45.672 150.82-45.672 229.61c0 159.13 63.215 311.74 175.74 424.26 112.52 112.52 265.13 175.73 424.27 175.73 159.13 0 311.74-63.215 424.26-175.74 112.52-112.52 175.74-265.13 175.74-424.26 0-159.13-63.215-311.74-175.73-424.27-112.52-112.52-265.13-175.74-424.26-175.74zm0 67.762c69.121 0 137.56 13.766 201.42 40.516 63.859 26.746 121.88 65.953 170.76 115.38s87.645 108.1 114.09 172.67c26.453 64.574 40.066 133.79 40.066 203.68 0 141.16-55.457 276.53-154.16 376.34-98.707 99.816-232.58 155.89-372.18 155.89-69.121 0-137.57-13.766-201.43-40.516-63.855-26.746-121.88-65.949-170.76-115.37-48.875-49.422-87.645-108.1-114.1-172.67-26.449-64.574-40.066-133.79-40.066-203.68 0-69.898 13.613-139.11 40.066-203.68 26.449-64.574 65.219-123.25 114.1-172.68 48.875-49.422 106.9-88.625 170.76-115.38 63.859-26.746 132.3-40.512 201.43-40.512z" fill="#a8aaad"/>
  <path d="m678.1 669.49c-6.2578 0-11.336 5.0781-11.336 11.336v116.92c0 14.586-11.863 26.449-26.449 26.449h-264.5c-14.586 0-26.449-11.863-26.449-26.449v-395.48c0-14.586 11.863-26.449 26.449-26.449h264.5c14.586 0 26.449 11.863 26.449 26.449v116.92c0 6.2578 5.0781 11.336 11.336 11.336 6.2578 0 11.336-5.0781 11.336-11.336v-116.92c0-27.086-22.035-49.121-49.121-49.121h-264.5c-27.086 0-49.121 22.035-49.121 49.121v395.48c0 27.086 22.035 49.121 49.121 49.121h264.5c27.086 0 49.121-22.035 49.121-49.121v-116.92c0-6.2578-5.0781-11.336-11.336-11.336zm194.41-73.637c-0.015625-0.046874-0.023437-0.097656-0.046875-0.15234-0.58203-1.4219-1.4297-2.6914-2.5078-3.7578l-108.6-108.6c-4.4297-4.4297-11.602-4.4297-16.027 0-4.4297 4.4297-4.4297 11.602 0 16.027l89.285 89.293h-358.04c-6.2578 0-11.336 5.0781-11.336 11.336s5.0781 11.336 11.336 11.336h358.06l-89.305 89.305c-4.4297 4.4297-4.4297 11.602 0 16.027 2.2148 2.2148 5.1172 3.3164 8.0195 3.3164 2.9023 0 5.8047-1.1016 8.0195-3.3164l108.65-108.65c0.015625-0.007812 0.015625-0.03125 0.023438-0.039062 1.043-1.043 1.8672-2.2891 2.4336-3.6562 0.03125-0.066407 0.039062-0.14453 0.066406-0.20312 0.49219-1.2773 0.79297-2.6523 0.79297-4.1055v-0.007813-0.007812c-0.007812-1.4648-0.30859-2.8555-0.81641-4.1484z"/>
 </g>
</svg>
