<?xml version="1.0" encoding="UTF-8"?>
<svg width="1200pt" height="1200pt" version="1.1" viewBox="0 0 1200 1200" xmlns="http://www.w3.org/2000/svg">
 <g>
  <path d="m600 0c-78.793 0-156.82 15.52-229.61 45.672s-138.94 74.348-194.65 130.07c-55.719 55.715-99.914 121.86-130.07 194.65s-45.672 150.82-45.672 229.61c0 159.13 63.215 311.74 175.74 424.26 112.52 112.52 265.13 175.73 424.27 175.73 159.13 0 311.74-63.215 424.26-175.74 112.52-112.52 175.74-265.13 175.74-424.26 0-159.13-63.215-311.74-175.73-424.27-112.52-112.52-265.13-175.74-424.26-175.74zm0 67.762c69.121 0 137.56 13.766 201.42 40.516 63.859 26.746 121.88 65.953 170.76 115.38s87.645 108.1 114.09 172.67c26.453 64.574 40.066 133.79 40.066 203.68 0 141.16-55.457 276.53-154.16 376.34-98.707 99.816-232.58 155.89-372.18 155.89-69.121 0-137.57-13.766-201.43-40.516-63.855-26.746-121.88-65.949-170.76-115.37-48.875-49.422-87.645-108.1-114.1-172.67-26.449-64.574-40.066-133.79-40.066-203.68 0-69.898 13.613-139.11 40.066-203.68 26.449-64.574 65.219-123.25 114.1-172.68 48.875-49.422 106.9-88.625 170.76-115.38 63.859-26.746 132.3-40.512 201.43-40.512z" fill="#a8aaad"/>
  <path d="m592.14 806.53c-18.992 0-32.102-5.6367-41.266-17.742l-12.945 9.8008c12.316 16.27 30.047 24.18 54.211 24.18s41.895-7.9102 54.211-24.18l-12.945-9.8008c-9.1602 12.102-22.273 17.742-41.266 17.742z"/>
  <path d="m855.01 637.16c-1.7969-26.922-10.859-67.91-26.598-96.145 3.9648-22.43 1.9297-48.977-5.5781-71.668-11.16-33.746-35.258-61.398-70.309-81.039-0.39453-11.762-3.4375-26.895-13.586-42.07-22.062-32.988-68.207-52.805-137.15-58.891-0.23828-0.023438-0.47656-0.03125-0.71484-0.03125h-17.871c-0.23828 0-0.47656 0.011719-0.71484 0.03125-68.941 6.0859-115.09 25.898-137.15 58.891-10.148 15.176-13.191 30.309-13.586 42.07-35.043 19.637-59.145 47.289-70.305 81.039-7.5039 22.688-9.543 49.234-5.5781 71.668-15.734 28.234-24.801 69.223-26.598 96.145-1.9453 29.148 9.0273 74.027 37.715 103.68 15.941 16.477 35.086 25.355 55.617 25.914 13.16 44.531 42.824 81.715 74.387 108.04v55.867h16.234v-43.379c6.0625 4.2969 12.109 8.1992 18.027 11.637 18.777 10.906 39.828 16.359 60.883 16.359 21.051 0 42.109-5.4531 60.883-16.359 5.918-3.4375 11.965-7.3398 18.027-11.637v43.379h16.234v-55.867c31.562-26.328 61.223-63.512 74.387-108.04 20.531-0.55859 39.68-9.4375 55.617-25.914 28.695-29.648 39.668-74.527 37.723-103.68zm-395.99-282.17c18.977-28.086 62.039-45.871 124.55-51.441h17.152c62.504 5.5703 105.57 23.355 124.55 51.441 5.8125 8.6016 8.7539 17.168 10.109 24.738-2.25-1-4.5273-1.9844-6.8516-2.9297-38.43-15.621-85.418-22.152-125.69-17.473-3.8359 0.44531-7.3984 1.1133-10.691 1.9961-3.2969-0.88281-6.8555-1.5508-10.691-1.9961-40.273-4.6758-87.262 1.8555-125.69 17.473-2.3242 0.94531-4.6016 1.9258-6.8516 2.9297 1.3516-7.5742 4.293-16.137 10.105-24.738zm-39.078 395.4c-15.164-1.1836-29.023-8.1758-41.281-20.844-24.121-24.934-34.953-64.805-33.184-91.309 1.5859-23.766 9.25-58.008 21.211-82.773l0.30078 0.11719c0.19922-0.51562 20.523-51.605 76.629-63.754l-3.4375-15.867c-33.902 7.3438-56.281 26.637-70.043 43.668-0.26562-15.078 2.0273-30.957 6.7305-45.184 26.914-81.391 134.73-106.88 202.71-98.988 20.098 2.332 23.254 11.016 24.289 13.867 8.6055 23.668-25.961 74.934-53.254 103.77-8.1016 8.5625-48.676 48.199-58.691 59.195-10.867 11.934-37.633 42.898-51.465 72.645-9.7734 21.02-13.559 44.395-15.762 62.41-0.22656 1.8789-3.8008 52.824-4.7539 63.043zm172.2-283.11c10.266 14.836 21.355 28.117 29.738 36.973 6.6602 7.0391 13.941 14.258 21.195 21.363-15.973-4.1602-33.031-6.3594-50.934-6.3594s-34.961 2.1992-50.934 6.3594c7.2539-7.1055 14.535-14.324 21.199-21.363 8.3789-8.8555 19.473-22.137 29.734-36.973zm52.73 417.59c-32.523 18.891-72.93 18.891-105.46 0-41.414-24.051-89.262-71.09-103.48-131.24 0.28516-2.8398 4.6914-62.77 4.8789-64.316 2.0586-16.832 5.5547-38.582 14.367-57.539 13.25-28.492 40.66-59.68 48.746-68.559 2.8789-3.1602 5.9062-6.3555 9.0117-9.5625 23.062-11.691 49.887-18.168 79.203-18.168s56.141 6.4766 79.203 18.168c3.1055 3.207 6.1328 6.4023 9.0117 9.5625 8.0859 8.8789 35.496 40.066 48.746 68.559 8.8164 18.957 12.309 40.707 14.367 57.539 0.1875 1.543 4.5938 61.473 4.8789 64.312-14.215 60.156-62.062 107.19-103.48 131.25zm160.75-155.33c-12.258 12.668-26.117 19.66-41.281 20.844-0.95312-10.215-4.5234-61.164-4.7539-63.039-2.2031-18.016-5.9883-41.391-15.762-62.41-13.832-29.746-40.598-60.711-51.465-72.645-10.012-10.996-50.586-50.633-58.691-59.195-10.543-11.141-22.16-25.625-31.965-40.574 0.70703-1.1719 1.4062-2.3516 2.0898-3.5312 15.906-27.496 21.062-49.438 15.328-65.219-1.2344-3.4023-2.9336-6.457-5.0781-9.1758 68.105-4.6523 167.66 22.086 193.37 99.844 4.707 14.227 7 30.105 6.7305 45.184-13.762-17.027-36.141-36.324-70.047-43.668l-3.4375 15.867c55.816 12.09 76.434 63.258 76.637 63.773l0.30078-0.11719c11.953 24.762 19.613 58.996 21.199 82.758 1.7734 26.5-9.0547 66.375-33.176 91.305z"/>
  <path d="m561.61 676.52-12.664-10.16c-10.266 12.797-21.305 18.703-32.832 17.547-12.758-1.2812-23.027-11.102-24.543-14.043l0.066406 0.14844-15.055 6.0742c2.8398 7.0352 17.238 20.98 35.82 23.715 2.0234 0.29688 4.207 0.48047 6.5273 0.48047 11.965 0 27.52-4.8594 42.68-23.762z"/>
  <path d="m585.56 682.12c0-31.898-29.551-57.848-65.875-57.848s-65.875 25.949-65.875 57.848c0 31.898 29.551 57.848 65.875 57.848 36.324 0.003906 65.875-25.949 65.875-57.848zm-115.52 0c0-22.945 22.27-41.613 49.641-41.613s49.641 18.668 49.641 41.613c0 22.945-22.27 41.613-49.641 41.613s-49.641-18.668-49.641-41.613z"/>
  <path d="m661.02 683.91c-12.758-1.2812-23.023-11.102-24.543-14.043l0.066407 0.14844-15.059 6.0742c2.8398 7.0352 17.234 20.977 35.82 23.715 2.0234 0.29688 4.207 0.48047 6.5273 0.48047 11.973 0 27.523-4.8594 42.684-23.762l-12.664-10.16c-10.266 12.801-21.312 18.715-32.832 17.547z"/>
  <path d="m664.6 624.27c-36.324 0-65.875 25.949-65.875 57.848 0 31.898 29.551 57.848 65.875 57.848 36.324 0 65.875-25.949 65.875-57.848 0-31.895-29.551-57.848-65.875-57.848zm0 99.461c-27.371 0-49.641-18.668-49.641-41.613 0-22.945 22.27-41.613 49.641-41.613s49.641 18.668 49.641 41.613c0 22.945-22.27 41.613-49.641 41.613z"/>
  <path d="m627.91 765.95h-71.527c-21.547 0-39.078 17.531-39.078 39.078s17.531 39.078 39.078 39.078h71.527c21.547 0 39.078-17.531 39.078-39.078s-17.531-39.078-39.078-39.078zm0 61.922h-71.527c-12.594 0-22.84-10.246-22.84-22.84s10.246-22.844 22.84-22.844h71.527c12.594 0 22.84 10.246 22.84 22.844 0 12.594-10.246 22.84-22.84 22.84z"/>
 </g>
</svg>
