<?xml version="1.0" encoding="UTF-8"?>
<svg width="1200pt" height="1200pt" version="1.1" viewBox="0 0 1200 1200" xmlns="http://www.w3.org/2000/svg">
 <g>
  <path d="m534.38 243.75c27.352 0 53.582-10.863 72.922-30.203s30.203-45.57 30.203-72.922-10.863-53.582-30.203-72.922-45.57-30.203-72.922-30.203-53.582 10.863-72.922 30.203-30.203 45.57-30.203 72.922c0.03125 27.34 10.902 53.555 30.238 72.887 19.332 19.336 45.547 30.207 72.887 30.238zm0-168.75c17.406 0 34.098 6.9141 46.402 19.223 12.309 12.305 19.223 28.996 19.223 46.402s-6.9141 34.098-19.223 46.402c-12.305 12.309-28.996 19.223-46.402 19.223s-34.098-6.9141-46.402-19.223c-12.309-12.305-19.223-28.996-19.223-46.402s6.9141-34.098 19.223-46.402c12.305-12.309 28.996-19.223 46.402-19.223z"/>
  <path d="m56.25 1162.5h93.75v-318.75h487.5v187.5h75v75c0 20.098 10.723 38.664 28.125 48.715 17.402 10.047 38.848 10.047 56.25 0 17.402-10.051 28.125-28.617 28.125-48.715v-75h93.75v-187.5h112.5v318.75h93.75v-318.75h37.5v-112.5h-47.926c6.75-11.352 10.348-24.297 10.426-37.5 0-19.891-7.9023-38.969-21.969-53.031-14.062-14.066-33.141-21.969-53.031-21.969h-132.02c-3.5898-44.91-19.461-87.969-45.879-124.46l0.22656-0.11328-13.332-17.586-0.24609-0.33984-64.539-85.125-32.961-99c-8.3164-25.066-27-45.355-51.301-55.707-25.961-11.176-55.441-10.828-81.129 0.95703l-39.207 17.793c-25.781 11.605-45.449 33.57-54.152 60.469-8.2461 25.508-5.0312 53.34 8.8125 76.293l11.492 17.008-6.0547 10.914-82.5 82.5c-7.6992 7.7266-13.078 17.461-15.531 28.09-2.4531 10.633-1.8789 21.738 1.6562 32.059h-50.211c-26.207 0.015625-51.422 10.012-70.523 27.949-19.105 17.938-30.66 42.477-32.324 68.629-1.6641 26.152 6.6914 51.957 23.367 72.172h-47.289c16.711-20.211 25.094-46.031 23.441-72.207-1.6562-26.172-13.215-50.734-32.336-68.684-19.121-17.949-44.359-27.941-70.586-27.941s-51.465 9.9922-70.586 27.941c-19.121 17.949-30.68 42.512-32.336 68.684-1.6523 26.176 6.7305 51.996 23.441 72.207h-79.895v112.5h18.75zm56.25-37.5h-18.75v-281.25h18.75zm675-18.75c0 6.6992-3.5742 12.887-9.375 16.238-5.8008 3.3477-12.949 3.3477-18.75 0-5.8008-3.3516-9.375-9.5391-9.375-16.238v-75h37.5zm93.75-112.5h-206.25v-150h206.25zm206.25 131.25h-18.75v-281.25h18.75zm0-431.25c0 9.9453-3.9492 19.484-10.984 26.516-7.0312 7.0352-16.57 10.984-26.516 10.984h-225v-75h225c9.9453 0 19.484 3.9492 26.516 10.984 7.0352 7.0312 10.984 16.57 10.984 26.516zm-358.12 32.586c0.28125-1.1055 0.65625-2.1562 0.86328-3.2812 3.2734-16.484-1.0391-33.57-11.75-46.523-10.711-12.953-26.68-20.402-43.488-20.281h-75v-56.25h56.25c9.9453 0 19.484 3.9492 26.516 10.984 7.0352 7.0312 10.984 16.57 10.984 26.516v18.75h93.75v75h-59.457c0.54297-1.5742 0.86328-3.2617 1.332-4.9141zm-113.57-207.11 14.438 43.273h-57.711zm224.2-5.4766c22.832 30.629 36.781 66.961 40.312 105h-149.72c-2.418-16.445-11.016-31.352-24.039-41.68l131.57-65.797zm-346.33 44.867c-3.9414-3.9414-6.1523-9.293-6.1523-14.867s2.2109-10.926 6.1523-14.867l84.375-84.375 75.883-135.41-32.812-18.188-45 81.262-0.14844-0.22656-0.003906 0.003906c-7.9805-13.617-9.7305-30.008-4.7969-45 5.4688-16.789 17.793-30.477 33.918-37.672l39.188-17.793c16.012-7.3984 34.406-7.6641 50.625-0.73047 14.539 6.1562 25.73 18.266 30.73 33.242l34.988 104.87 54.582 71.961-148 73.992-21.75-65.23 7.5-7.5 75.883-135.41-32.812-18.188-71.457 128.95-101.25 101.25c-1.6914 1.6133-3.6602 2.9062-5.8125 3.8242h-17.773c-2.2422-0.90625-4.2969-2.2227-6.0586-3.8828zm-90.543 41.383h90c9.9844 3.0469 20.652 3.0469 30.637 0h38.738v56.25h-168.75v37.5h281.25c6.6992 0 12.887 3.5742 16.238 9.375 3.3477 5.8008 3.3477 12.949 0 18.75-3.3516 5.8008-9.5391 9.375-16.238 9.375h-271.88c-23.445 0-45.109-12.508-56.832-32.812-11.723-20.305-11.723-45.32 0-65.625 11.723-20.305 33.387-32.812 56.832-32.812zm-271.88 65.625c0-17.406 6.9141-34.098 19.223-46.402 12.305-12.309 28.996-19.223 46.402-19.223s34.098 6.9141 46.402 19.223c12.309 12.305 19.223 28.996 19.223 46.402s-6.9141 34.098-19.223 46.402c-12.305 12.309-28.996 19.223-46.402 19.223s-34.098-6.9141-46.402-19.223c-12.309-12.305-19.223-28.996-19.223-46.402zm-56.25 103.12h1050v37.5h-1050z"/>
 </g>
</svg>
