<?xml version="1.0" encoding="UTF-8"?>
<svg width="1200pt" height="1200pt" version="1.1" viewBox="0 0 1200 1200" xmlns="http://www.w3.org/2000/svg">
 <g>
  <path d="m600 0c-78.793 0-156.82 15.52-229.61 45.672s-138.94 74.348-194.65 130.07c-55.719 55.715-99.914 121.86-130.07 194.65s-45.672 150.82-45.672 229.61c0 159.13 63.215 311.74 175.74 424.26 112.52 112.52 265.13 175.73 424.27 175.73 159.13 0 311.74-63.215 424.26-175.74 112.52-112.52 175.74-265.13 175.74-424.26 0-159.13-63.215-311.74-175.73-424.27-112.52-112.52-265.13-175.74-424.26-175.74zm0 67.762c69.121 0 137.56 13.766 201.42 40.516 63.859 26.746 121.88 65.953 170.76 115.38s87.645 108.1 114.09 172.67c26.453 64.574 40.066 133.79 40.066 203.68 0 141.16-55.457 276.53-154.16 376.34-98.707 99.816-232.58 155.89-372.18 155.89-69.121 0-137.57-13.766-201.43-40.516-63.855-26.746-121.88-65.949-170.76-115.37-48.875-49.422-87.645-108.1-114.1-172.67-26.449-64.574-40.066-133.79-40.066-203.68 0-69.898 13.613-139.11 40.066-203.68 26.449-64.574 65.219-123.25 114.1-172.68 48.875-49.422 106.9-88.625 170.76-115.38 63.859-26.746 132.3-40.512 201.43-40.512z" fill="#a8aaad"/>
  <path d="m405.82 528.61c0 18.172 27.48 18.188 27.48 0v-29.574c14.648-2.1953 28.387-7.875 40.285-16.656l20.906 20.902c12.668 12.668 32.449-6.4062 19.43-19.43l-20.902-20.902c8.7773-11.898 14.461-25.641 16.656-40.285h29.566c18.168 0 18.188-27.48 0-27.48h-29.566c-2.1953-14.645-7.8789-28.379-16.656-40.277l20.902-20.902c12.84-12.84-6.5625-32.297-19.43-19.43l-20.906 20.902c-11.898-8.7773-25.637-14.457-40.285-16.656v-29.574c0-18.164-27.48-18.191-27.48 0v29.586c-14.57 2.2031-28.293 7.8867-40.246 16.676l-20.938-20.934c-12.871-12.867-32.281 6.6016-19.434 19.434l20.906 20.902c-8.7812 11.895-14.465 25.633-16.66 40.277h-29.566c-18.164 0-18.191 27.48 0 27.48h29.566c2.1953 14.633 7.875 28.371 16.664 40.281l-20.91 20.91c-13.031 13.016 6.7539 32.105 19.43 19.43l20.938-20.934c11.941 8.7812 25.668 14.469 40.25 16.672zm-31.367-74.57c-40.137-40.137-11.441-108.86 45.105-108.86 35.297 0 63.758 28.43 63.758 63.75 0 56.336-68.309 85.285-108.86 45.109z"/>
  <path d="m841.22 634.64-88.812 88.809-0.003906-168.23h147.61c7.5898 0 13.742-6.1523 13.742-13.742 0-96.539-78.543-175.08-175.09-175.08-156.45 0-204.07 188.82-161.34 188.82h147.6v183.56l-315.98 0.003906c-54.555 0-54.5 82.441 0 82.441h35.668l-44.176 82.785c-8.6094 16.156 15.727 28.887 24.246 12.934l51.078-95.719c294.44-0.42969 278.23 0.97266 287.39-1.0664l100.07 100.07c12.664 12.668 32.453-6.4062 19.43-19.43l-95.504-95.504 112.36-112.36c16.074-16.07 16.074-42.223 0.007813-58.281-15.562-15.582-42.742-15.574-58.293-0.007813zm-249.52-106.91c6.9492-74.969 70.211-133.86 146.96-133.86 76.758 0 140.02 58.895 146.97 133.86zm288.38 145.76c-121.01 118.96-115.38 120.24-125.93 120.24-333.25-5.7227-358.95 12.539-358.95-13.742 0-26.164 24.359-8.0078 347.56-13.742 10.41 0 4.7578-1.0977 117.89-112.2 12.684-12.684 32.34 6.5039 19.422 19.438z"/>
 </g>
</svg>
