<?xml version="1.0" encoding="UTF-8"?>
<svg width="1200pt" height="1200pt" version="1.1" viewBox="0 0 1200 1200" xmlns="http://www.w3.org/2000/svg">
 <g>
  <path d="m600 0c-78.793 0-156.82 15.52-229.61 45.672s-138.94 74.348-194.65 130.07c-55.719 55.715-99.914 121.86-130.07 194.65s-45.672 150.82-45.672 229.61c0 159.13 63.215 311.74 175.74 424.26 112.52 112.52 265.13 175.73 424.27 175.73 159.13 0 311.74-63.215 424.26-175.74 112.52-112.52 175.74-265.13 175.74-424.26 0-159.13-63.215-311.74-175.73-424.27-112.52-112.52-265.13-175.74-424.26-175.74zm0 67.762c69.121 0 137.56 13.766 201.42 40.516 63.859 26.746 121.88 65.953 170.76 115.38s87.645 108.1 114.09 172.67c26.453 64.574 40.066 133.79 40.066 203.68 0 141.16-55.457 276.53-154.16 376.34-98.707 99.816-232.58 155.89-372.18 155.89-69.121 0-137.57-13.766-201.43-40.516-63.855-26.746-121.88-65.949-170.76-115.37-48.875-49.422-87.645-108.1-114.1-172.67-26.449-64.574-40.066-133.79-40.066-203.68 0-69.898 13.613-139.11 40.066-203.68 26.449-64.574 65.219-123.25 114.1-172.68 48.875-49.422 106.9-88.625 170.76-115.38 63.859-26.746 132.3-40.512 201.43-40.512z" fill="#a8aaad"/>
  <path d="m840.89 356.76c-3.543-2.3633-7.0859-2.3633-10.629-1.1797-29.52 12.988-60.223 3.543-77.934-20.074-8.2656-10.629-12.988-24.797-12.988-37.785 0-3.543-1.1797-5.9023-3.543-8.2656s-4.7227-3.543-8.2656-3.543h-120.44c-7.0859 0-11.809 4.7227-11.809 11.809v419.18 2.3633c-2.3633 21.254-18.895 36.605-40.148 36.605-22.434 0-41.328-18.895-41.328-41.328 0-21.254 15.352-37.785 36.605-40.148 5.9023-1.1797 10.629-5.9023 10.629-11.809v-136.97c0-7.0859-4.7227-11.809-11.809-11.809h-2.3633c-108.63 4.7227-192.47 92.102-192.47 200.74 0 111 89.742 200.74 200.74 200.74 103.91 0 191.29-80.293 199.55-183.02 1.1797-1.1797 1.1797-3.543 1.1797-4.7227l0.003907-227.9c25.977 5.9023 53.137 8.2656 81.477 3.543 5.9023-1.1797 9.4453-5.9023 9.4453-11.809v-125.16c0-3.543-2.3594-7.0859-5.9023-9.4453zm-17.715 125.16c-27.16 2.3633-51.957 0-76.754-8.2656-3.543-1.1797-7.0859 0-10.629 1.1797-3.543 2.3633-4.7227 5.9023-4.7227 9.4453v238.52c0 1.1797 0 2.3633-1.1797 3.543-5.9023 92.102-83.836 165.31-175.94 165.31-98.008 0-177.12-79.113-177.12-177.12 0-92.102 68.488-167.68 159.41-175.94v114.54c-27.16 8.2656-47.23 33.062-47.23 61.402 0 35.426 29.52 64.945 64.945 64.945 31.883 0 59.039-23.617 63.762-54.316 1.1797-1.1797 1.1797-3.543 1.1797-4.7227l0.003906-410.92h98.008c2.3633 15.352 8.2656 28.34 16.531 40.148 20.074 27.16 55.496 41.328 89.742 33.062z"/>
 </g>
</svg>
