<?xml version="1.0" encoding="UTF-8"?>
<svg width="1200pt" height="1200pt" version="1.1" viewBox="0 0 1200 1200" xmlns="http://www.w3.org/2000/svg">
 <g>
  <path d="m600 0c-78.793 0-156.82 15.52-229.61 45.672s-138.94 74.348-194.65 130.07c-55.719 55.715-99.914 121.86-130.07 194.65s-45.672 150.82-45.672 229.61c0 159.13 63.215 311.74 175.74 424.26 112.52 112.52 265.13 175.73 424.27 175.73 159.13 0 311.74-63.215 424.26-175.74 112.52-112.52 175.74-265.13 175.74-424.26 0-159.13-63.215-311.74-175.73-424.27-112.52-112.52-265.13-175.74-424.26-175.74zm0 67.762c69.121 0 137.56 13.766 201.42 40.516 63.859 26.746 121.88 65.953 170.76 115.38s87.645 108.1 114.09 172.67c26.453 64.574 40.066 133.79 40.066 203.68 0 141.16-55.457 276.53-154.16 376.34-98.707 99.816-232.58 155.89-372.18 155.89-69.121 0-137.57-13.766-201.43-40.516-63.855-26.746-121.88-65.949-170.76-115.37-48.875-49.422-87.645-108.1-114.1-172.67-26.449-64.574-40.066-133.79-40.066-203.68 0-69.898 13.613-139.11 40.066-203.68 26.449-64.574 65.219-123.25 114.1-172.68 48.875-49.422 106.9-88.625 170.76-115.38 63.859-26.746 132.3-40.512 201.43-40.512z" fill="#a8aaad"/>
  <path d="m765.31 576.39c-104.15 0-188.93 84.781-188.93 188.93 0 104.15 84.781 188.93 188.93 188.93s188.93-84.781 188.93-188.93c0-104.15-84.781-188.93-188.93-188.93zm0 330.62c-78.168 0-141.7-63.527-141.7-141.7 0-78.168 63.527-141.7 141.7-141.7s141.7 63.527 141.7 141.7c0.003907 78.168-63.523 141.7-141.7 141.7zm94.465-141.7c0 12.988-10.629 23.617-23.617 23.617h-70.848c-12.988 0-23.617-10.629-23.617-23.617v-94.465c0-12.988 10.629-23.617 23.617-23.617s23.617 10.629 23.617 23.617v70.848h47.23c12.992 0.003907 23.617 10.629 23.617 23.617zm-294.96 141.7h-200.97c-38.965 0-70.848-31.883-70.848-70.848v-354.24h566.79v51.957c0 12.988 10.629 23.617 23.617 23.617s23.617-10.629 23.617-23.617v-122.8c0-65.18-52.898-118.08-118.08-118.08v-23.617c0-12.988-10.629-23.617-23.617-23.617s-23.617 10.629-23.617 23.617v23.617h-330.62v-23.617c0-12.988-10.629-23.617-23.617-23.617-12.988 0.003907-23.617 10.629-23.617 23.617v23.617c-65.18 0-118.08 52.902-118.08 118.08v425.09c0 65.18 52.898 118.08 118.08 118.08h200.97c12.988 0 23.617-10.629 23.617-23.617-0.003906-12.992-10.633-23.617-23.621-23.617zm-200.97-566.79v23.617c0 12.988 10.629 23.617 23.617 23.617s23.617-10.629 23.617-23.617v-23.617h330.62v23.617c0 12.988 10.629 23.617 23.617 23.617 12.988 0 23.617-10.629 23.617-23.617l-0.003906-23.617c38.965 0 70.848 31.883 70.848 70.848v23.617l-566.79-0.003906v-23.613c0-38.969 31.883-70.848 70.848-70.848zm94.465 283.39c0 12.988-10.629 23.617-23.617 23.617s-23.617-10.629-23.617-23.617c0-12.988 10.629-23.617 23.617-23.617 12.992 0 23.617 10.629 23.617 23.617zm0 141.7c0 12.988-10.629 23.617-23.617 23.617s-23.617-10.629-23.617-23.617 10.629-23.617 23.617-23.617c12.992 0.003907 23.617 10.629 23.617 23.617z"/>
 </g>
</svg>
