<?xml version="1.0" encoding="UTF-8"?>
<svg width="1200pt" height="1200pt" version="1.1" viewBox="0 0 1200 1200" xmlns="http://www.w3.org/2000/svg">
 <g>
  <path d="m600 0c-78.793 0-156.82 15.52-229.61 45.672s-138.94 74.348-194.65 130.07c-55.719 55.715-99.914 121.86-130.07 194.65s-45.672 150.82-45.672 229.61c0 159.13 63.215 311.74 175.74 424.26 112.52 112.52 265.13 175.73 424.27 175.73 159.13 0 311.74-63.215 424.26-175.74 112.52-112.52 175.74-265.13 175.74-424.26 0-159.13-63.215-311.74-175.73-424.27-112.52-112.52-265.13-175.74-424.26-175.74zm0 67.762c69.121 0 137.56 13.766 201.42 40.516 63.859 26.746 121.88 65.953 170.76 115.38s87.645 108.1 114.09 172.67c26.453 64.574 40.066 133.79 40.066 203.68 0 141.16-55.457 276.53-154.16 376.34-98.707 99.816-232.58 155.89-372.18 155.89-69.121 0-137.57-13.766-201.43-40.516-63.855-26.746-121.88-65.949-170.76-115.37-48.875-49.422-87.645-108.1-114.1-172.67-26.449-64.574-40.066-133.79-40.066-203.68 0-69.898 13.613-139.11 40.066-203.68 26.449-64.574 65.219-123.25 114.1-172.68 48.875-49.422 106.9-88.625 170.76-115.38 63.859-26.746 132.3-40.512 201.43-40.512z" fill="#a8aaad"/>
  <path d="m954.24 470.11c0.03125-10.699-4.2227-20.961-11.809-28.504l-48.246-48.25 24.633-24.625c7.5586-7.5586 11.805-17.812 11.805-28.508 0-10.691-4.2461-20.945-11.805-28.508l-30.535-30.539c-7.6836-7.332-17.891-11.418-28.508-11.418-10.617 0-20.824 4.0938-28.504 11.422l-24.629 24.629-48.25-48.25c-7.6797-7.3281-17.891-11.418-28.504-11.418-10.617 0.003907-20.828 4.0938-28.508 11.426l-42.34 42.34-6.9219-6.9219h0.003906c-7.6836-7.332-17.891-11.418-28.508-11.418-10.617 0-20.824 4.0898-28.504 11.422l-42.344 42.336c-7.5625 7.5625-11.809 17.816-11.809 28.512 0 10.691 4.2461 20.945 11.809 28.508l83.672 83.672-160.42 160.42-83.672-83.676v0.003906c-7.6836-7.3281-17.891-11.418-28.508-11.418-10.613 0-20.824 4.0898-28.504 11.418v0.003906l-42.344 42.336c-7.5586 7.5625-11.809 17.816-11.809 28.508 0 10.695 4.25 20.949 11.809 28.512l6.918 6.918-42.34 42.336c-7.5625 7.5625-11.809 17.816-11.809 28.508 0 10.691 4.2461 20.949 11.809 28.508l48.242 48.246-24.629 24.625c-7.5586 7.5625-11.809 17.816-11.809 28.512 0 10.691 4.25 20.945 11.809 28.508l30.535 30.539c7.5625 7.5586 17.816 11.805 28.508 11.801 10.691 0 20.945-4.2461 28.504-11.805l24.629-24.629 48.25 48.25c7.5586 7.5586 17.812 11.801 28.504 11.801 10.691 0 20.945-4.2461 28.504-11.809l42.34-42.34 6.9219 6.9219c7.5625 7.5586 17.816 11.805 28.508 11.805 10.691-0.003906 20.945-4.25 28.504-11.809l42.344-42.34c7.5586-7.5586 11.809-17.812 11.809-28.508 0-10.691-4.25-20.945-11.809-28.508l-83.672-83.672 160.42-160.42 83.672 83.676c7.5625 7.5586 17.816 11.805 28.508 11.805 10.688 0 20.941-4.2461 28.504-11.805v-0.003906l42.344-42.336c7.5586-7.5625 11.809-17.816 11.809-28.512 0-10.691-4.25-20.945-11.809-28.508l-6.918-6.918 42.34-42.336c7.5859-7.5469 11.84-17.812 11.809-28.512zm-106.27-172.23c3.1797-3.0391 7.4102-4.7344 11.809-4.7383 4.3984 0 8.6289 1.6953 11.809 4.7344l30.535 30.539c3.1289 3.1328 4.8906 7.3789 4.8906 11.805 0 4.4297-1.7617 8.6758-4.8906 11.805l-24.629 24.629-54.148-54.152zm-495.94 604.23c-3.1758 3.0391-7.4062 4.7344-11.805 4.7344-4.3984 0.003907-8.6289-1.6914-11.809-4.7305l-30.535-30.539c-3.1328-3.1328-4.8906-7.3789-4.8906-11.805 0-4.4297 1.7578-8.6758 4.8906-11.809l24.629-24.629 54.148 54.152zm129.89 23.617 0.003906-0.003906c-3.1797 3.043-7.4102 4.7383-11.809 4.7383-4.3984 0-8.6289-1.6914-11.809-4.7305l-184.04-184.05c-3.1289-3.1289-4.8906-7.375-4.8906-11.805 0-4.4258 1.7617-8.6719 4.8906-11.805l42.344-42.344 207.65 207.66zm153.51-89.57c0.015625 4.4297-1.7461 8.6836-4.8906 11.805l-42.34 42.34c-3.1797 3.0391-7.4102 4.7344-11.809 4.7383-4.3984 0-8.6289-1.6953-11.809-4.7344l-254.89-254.89c-3.1328-3.1328-4.8906-7.3789-4.8906-11.809 0-4.4258 1.7578-8.6719 4.8906-11.805l42.34-42.34c3.1836-3.0391 7.4102-4.7344 11.809-4.7344 4.3984 0 8.6289 1.6953 11.809 4.7344l254.89 254.89c3.1445 3.1211 4.9062 7.3711 4.8906 11.805zm-88.559-128.88-54.152-54.152 160.42-160.42 54.152 54.152zm343.45-119.09-42.344 42.34c-3.1797 3.0391-7.4102 4.7305-11.805 4.7305-4.3984 0-8.6289-1.6914-11.809-4.7305l-254.89-254.89c-3.1328-3.1328-4.8906-7.3789-4.8906-11.805 0-4.4297 1.7578-8.6758 4.8906-11.809l42.34-42.336c3.1328-3.1328 7.3789-4.8945 11.809-4.8945 4.4297 0 8.6758 1.7578 11.809 4.8906l254.89 254.89c3.1328 3.1328 4.8906 7.3789 4.8906 11.805 0 4.4297-1.7578 8.6758-4.8906 11.809zm35.426-106.27-42.344 42.344-207.65-207.66 42.34-42.332c3.1797-3.043 7.4062-4.7383 11.809-4.7383 4.3984-0.003906 8.625 1.6914 11.809 4.7305l184.04 184.05c3.1289 3.1289 4.8867 7.375 4.8867 11.805 0 4.4258-1.7578 8.6719-4.8867 11.805z"/>
 </g>
</svg>
